<svg id="Layer_1" data-name="Layer 1" xmlns="http://www.w3.org/2000/svg" xmlns:xlink="http://www.w3.org/1999/xlink" viewBox="0 0 1280 640"><defs><style>.cls-1{fill:none;}.cls-2{fill:#76bdd5;}.cls-3{fill:#d3de2e;}.cls-4{fill:#b5c3ca;}.cls-5{fill:#c4dac3;}.cls-6{fill:#b6c1ca;}.cls-7{fill:#bad0d5;}.cls-8{fill:#c9dbc4;}.cls-9{fill:#d9e271;}.cls-10{fill:#aecace;}.cls-11{fill:#c5dbc0;}.cls-12{fill:#9ccab3;}.cls-13{fill:#d9e4be;}.cls-14{fill:#e9eaba;}.cls-15{fill:#abcbcb;}.cls-16{fill:#dde474;}.cls-17{fill:#6e99a9;}.cls-18{fill:#63bdb6;}.cls-19{fill:#96cb60;}.cls-20{fill:#77bed1;}.cls-21{fill:#81c0b0;}.cls-22{fill:#92c494;}.cls-23{fill:#91c6a8;}.cls-24{fill:#a0c892;}.cls-25{fill:#8fc498;}.cls-26{fill:#99c798;}.cls-27{fill:#53be92;}.cls-28{fill:#78c477;}.cls-29{fill:#55be93;}.cls-30{fill:#7ac47b;}.cls-31{fill:#69bf6f;}.cls-32{fill:#6abf6a;}.cls-33{fill:#b0bcce;}.cls-34{fill:#7692b0;}.cls-35{fill:#b2bfd2;}.cls-36{fill:#b4c1d3;}.cls-37{fill:#afbdd0;}.cls-38{fill:#7390b0;}.cls-39{fill:#879dba;}.cls-40{fill:#548ac2;}.cls-41{fill:#8da3c0;}.cls-42{fill:#94aac8;}.cls-43{fill:#528ac1;}.cls-44{fill:#b0bdd2;}.cls-45{fill:#528abe;}.cls-46{fill:#508bc5;}.cls-47{fill:#f6f6f7;}.cls-48{fill:#aebdd0;}.cls-49{fill:#f7f7f8;}.cls-50{clip-path:url(#clip-path);}.cls-51{clip-path:url(#clip-path-2);}</style><clipPath id="clip-path"><rect class="cls-1" x="454.97" y="441.1" width="159.23" height="48.8" rx="10.79"/></clipPath><clipPath id="clip-path-2"><path class="cls-1" d="M553.13,316.13a27,27,0,0,0-7.24-16L406.17,151.3a27.17,27.17,0,0,0-38.4-1.2h0a27.16,27.16,0,0,0-1.21,38.4L485.2,314.83,299.1,448.27a27.16,27.16,0,0,0-6.25,37.9h0a27.17,27.17,0,0,0,37.91,6.25L541.94,341A27.17,27.17,0,0,0,553.13,316.13Z"/></clipPath></defs><g id="Brazil"><path class="cls-2" d="M540.12,252v-5.35c.62-.66,1.14-1.6,2.31-1a3.53,3.53,0,0,0,3.18.83c6.41-.84,12.74-.12,19,1,1.9.33,3.68.88,4.7,2.73-1.49,5.84,3.56,8.51,6.24,12.2,2.53,3.48,6.23,6,8.26,10,.67,1.32,2.11,2.06,3.22,3,3.42,3,5.89,6.82,9.25,9.86a7.36,7.36,0,0,0,6.93,2.05c7.87-1.58,15.85-2.52,23.79-3.72a2.81,2.81,0,0,1,2.15.29,1.51,1.51,0,0,1,.33,1.06c-1.46,2.8-1.34,6.16-3.34,8.83-.9,1.19-.42,3-.66,4.56-.9,5.55-4.3,9.42-8.57,12.61-1.23.92-1.5,1.52-.56,2.65-.18,1.3-1.19,1.5-2.2,1.46-5.25-.19-10.54.51-15.74,0a20.76,20.76,0,0,1-13.52-6.48c-3.53-3.79-7.65-6.94-11-10.86-6.7-7.76-14.15-14.86-20.52-22.93-3.57-4.52-6.17-9.67-9.4-14.42C542.27,258,542,254.56,540.12,252Z"/><path class="cls-3" d="M738.92,489.61H724.64c-3-2-6.5-3.12-9.8-4.56a15.53,15.53,0,0,1-5.38-3.73c-.7-1.8-.07-3.37.86-4.87.73-1.18,1.57-2.29,2.4-3.41,1.92-2.62,4.1-5.05,4-8.65a2.45,2.45,0,0,1,1.88-2.59c4.77,3.91,10.24,6.84,15,10.86,3.29,2.79,6.64,5.81,11.25,6.75,1.76.36,3.58,1.51,3.52,3.86,0,1.79-2.59,4.11-5,4.48C741.69,488,740.12,488.32,738.92,489.61Z"/><path class="cls-4" d="M629.11,284.09c-3.94.09-7.73,1.32-11.64,1.61-5.36.41-10.53,1.78-15.78,2.76-1.74.32-3.31-.64-4.59-1.49a17.87,17.87,0,0,1-4.53-4.4,43.79,43.79,0,0,0-8.53-8.72,2.85,2.85,0,0,1-.91-1.14c-1.06-3-3.36-5-5.51-7.07-3.27-3.15-5.69-7-8.7-10.3-1.45-1.61-.46-3.22.32-4.76,2.13-2,5-3.08,7.18-5,6.35-5.5,13.52-9.91,20.21-15a8.28,8.28,0,0,0,2.77-3.38,47,47,0,0,0,3-9.59c.94-5,2.39-10,1.82-15.27a32.54,32.54,0,0,0-.84-4c-1-4.1-2.61-8.08-2.63-12.37,0-2.77.52-3.55,3.13-4.26,5.05-1.38,9.91-3.46,15.3-3.56,3.07,0,5.29.83,6.73,3.53l.12.21c3.49,6.28,4.55,6.11,11,1.84a11.65,11.65,0,0,1,4.93-2.66c2.34-.64,4.23-2.13,6.42-3.05,1.91-.8,2.13-2.47,1.05-4.56-1-1.87-2.53-3.47-2.7-5.72-.09-4.53,1.77-6.17,6.19-5.39a6.4,6.4,0,0,0,2.92-.05c3.46-.94,7-.68,10.55-.68.5,0,1.23-.24,1.28.68-1.94,1-4.11,0-6,.57-3.39,1-6.83.86-10.28.94-3.28.08-4.15,1.81-2.44,4.7,1.09,1.83,2.33,3.57,3.3,5.46,1.44,2.78.56,4.83-2.29,6.14-3.49,1.6-7.22,2.74-10.42,4.91a71.13,71.13,0,0,1-6.44,3.44c-1.64.87-3.68,1.1-5.23-.56a17.35,17.35,0,0,1-3-3.59c-2.68-5.19-5-4.91-10.51-3.53-3.16.8-6.25,1.89-9.39,2.77-2.44.68-3.09,2.55-2.28,5,1.36,4.13,2.81,8.25,3.17,12.67.58,7-1.09,13.79-2.13,20.65s-5.71,10.49-10.73,14.08c-4.8,3.42-9.75,6.63-14.17,10.58-2,1.83-4.63,3.05-6.94,4.58s-2.58,2.76-.81,4.93c2.24,2.72,4.58,5.36,6.94,8,6,6.63,12,13.19,17.91,19.87a7.44,7.44,0,0,0,8,2.55c4-1.14,8.17-.86,12.13-1.84,4.87-1.2,9.87-1.28,14.79-2.07a8.61,8.61,0,0,1,7.65,2.55c-.24.24-.58.51-.86.38C634.92,284.19,632,284.4,629.11,284.09Z"/><path class="cls-5" d="M707.8,158.36a40,40,0,0,0,13.12-3.27,4.59,4.59,0,0,1,2.14-.54c4.09.36,7.76-1.53,11.6-2.32a190.26,190.26,0,0,1,23.39-3.43c3.69-.29,7.37-1.3,11.16-1.34,2.33,0,3.57.77,4,3.26a59.83,59.83,0,0,1,.37,8.34A20.52,20.52,0,0,0,777,169.54c1,1.51,1.86,3.05,2.69,4.63,2.72,5.12,7.4,8.27,11.87,11.55,4.72,3.47,9.6,6.74,14.58,9.81,5.75,3.53,11.7,6.73,17.53,10.12,3.39,2,6.67,4.11,10.1,6a24,24,0,0,1,5.79,3.78,4.44,4.44,0,0,1,.91,5.4c-.9,1.89-3,2-4.8,1.4-3.38-1.15-6.67-2.58-10-3.91-2.55-1-4.84-2.72-7.73-2.83-1.24-.05-1.85-1.28-2.94-1.72-3.71-1.52-7.41-3.08-11-4.86-3.11-1.53-6.47-2.57-9.73-3.8-3.42-1.3-6.71-2.88-10-4.43q-7.15-3.35-14.41-6.48c-2.77-1.19-4.49-3.29-6-5.79-2.59-4.32-4.24-9.07-6.46-13.57-1.63-3.3-3.94-4.2-7.51-2.71a11.18,11.18,0,0,1-5,1,.61.61,0,0,1,.08-.76,15.33,15.33,0,0,1,11.53-2.19c1.67.77,2.18,2.42,2.77,3.91a74.37,74.37,0,0,0,4.39,10,13.62,13.62,0,0,1,2.31,4c1,2.33,3,3.43,5.09,4.33,6.34,2.7,12.35,6.15,18.74,8.7,7.16,2.87,14.27,5.86,21.42,8.77,3.87,1.58,7.46,3.82,11.47,5.07,4.38,1.36,8.18,4.19,12.82,4.92,1.31.2,2.58.33,3.21-1s-.36-2.2-1.2-3a6.75,6.75,0,0,0-2.18-1.6c-4.21-1.42-7.3-4.85-11.3-6.46-5.7-2.29-10.24-6.45-15.83-8.93-4.71-2.09-8.75-5.5-13-8.39A84.66,84.66,0,0,1,782.72,181a24.38,24.38,0,0,1-5.62-7.41c-.94-2.19-2.54-3.93-3.44-6.19a26.26,26.26,0,0,1-1.74-10.58c-.21-1.93-.45-3.85-.85-5.75-.25-1.17-.78-1.94-2.11-1.88-.52,0-1.05,0-1.57,0-2.11-.17-4,.8-6.07,1-7.19.61-14.44,1.1-21.47,2.61-3.85.83-7.77,1.64-11.62,2.64s-7.64,1.83-11.4,3a19.47,19.47,0,0,1-7,1.17C709,159.35,708,159.65,707.8,158.36Z"/><path class="cls-6" d="M542,245.63c-.66.3-1.1,1-1.9,1-.24-1.32.32-2.16,1.24-3.18,3.13-3.43,7.25-4.79,11.43-6.28,8-2.84,16-5.71,22-12.12a33.57,33.57,0,0,0,7.59-12.15,70.53,70.53,0,0,0,3.36-17.14c.57-6.81-.1-13.7,1.34-20.46.56-2.59,2.77-3.65,4.61-4.83a47.07,47.07,0,0,1,8.34-4c2.93-1.15,6.09-.63,8.7-1.86,4.54-2.15,9.2-1.07,13.8-1.32a15.28,15.28,0,0,1,8.55,1.61c1.58.88,2.47-.16,2.44-1.6-.11-3.81,1.44-7.33,1.68-11.09.22-3.57,3-6,6.87-6.15s7.55-.1,11.31-.56c-.18,1.61-1.48,1.53-2.57,1.61-1.71.14-3.43.05-5.15.05a5.13,5.13,0,0,0-3.63,1.17c-3.85,1.48-4.8,4.76-5.31,8.36-.38,2.66-.33,5.42-1.42,7.95-.69,1.6-1.47,3.19-3.68,3a25.51,25.51,0,0,0-16.8-2.51,96.12,96.12,0,0,0-12.34,2.72,40.76,40.76,0,0,0-9.29,3.93c-2.94,1.84-4.7,4-4.49,7.78a54.09,54.09,0,0,1-.45,13.51c-1.23,6.26-.92,12.75-3,18.89a31.68,31.68,0,0,1-2,4.49c-3.51,6.73-8.12,12.43-14.91,16.29-5.69,3.23-12,5-17.88,7.62-2.66,1.18-5.28,2.26-7.23,4.5A2,2,0,0,1,542,245.63Z"/><path class="cls-7" d="M540.12,252a3.92,3.92,0,0,1,2.36,2.67c.88,4.39,3.83,7.66,5.93,11.4,4.52,8.05,10.67,14.77,17,21.38,4.35,4.54,8.05,9.76,12.77,13.86,4.21,3.66,7.51,8.38,12.78,10.92,5.5,2.65,11.2,2.75,17,2.23a15.1,15.1,0,0,1,3.36,0c1.65.22,3.47.67,4.88-.81a1.37,1.37,0,0,1,1.36-.4c5.14,1.18,7.85,5.43,11.14,8.89,6.82,7.19,13.24,14.74,20.52,21.52,5.7,5.3,11,11.07,16.41,16.63a2.94,2.94,0,0,1,1,1.68,1.13,1.13,0,0,1-.4,1c-3.48-3.68-7.2-7.13-10.75-10.74-3.91-4-7.87-7.93-12-11.64-2.41-2.15-4.11-4.86-6.33-7.15-5.36-5.52-10.63-11.13-16-16.64a5.24,5.24,0,0,0-4.16-1.19c-5.83.25-11.66-.14-17.51.35a16.67,16.67,0,0,1-13-4.59A278.27,278.27,0,0,1,566.46,291c-6.55-7.34-13.53-14.3-18.76-22.69-2.21-3.54-4.22-7.19-6.16-10.89C540.61,255.65,539.69,254.05,540.12,252Z"/><path class="cls-8" d="M654.86,297.4c3.65,1.15,6,4.14,9,6.29,8.09,5.88,15.1,13.08,23,19.16a26.94,26.94,0,0,1,5.47,4.93c2.64,3.48,2.91,7.71,3.47,11.76.38,2.75.45,5.52,1.32,8.2a10.08,10.08,0,0,1,.67,4.09c-.61,5.15,2,9.88,1.78,15-.16,3.47,1.84,6.54,1.86,10,0,1.56,1.46,2.71,2.54,3.79,8.53,8.53,16.22,17.85,25.11,26a16.52,16.52,0,0,1,3,4.16c1.24,2.18-.62,3.94-1.37,5.66-1.41,3.2-3.86,5.84-5.83,8.75-2.07,3.06-3.63,6.47-5.86,9.48-2.91,3.92-5.67,7.94-8.38,12-2.15,3.2-1,7,2.69,9.07,1,.57,2.2.78,2.82,1.89a1.5,1.5,0,0,1-1.22.74,10.5,10.5,0,0,1-7-6.13c-1.16-2.57,0-4.93,1.42-6.93C713,440.2,716.41,435,720,429.86c3.34-4.73,6.87-9.42,9.31-14.75a5.08,5.08,0,0,0-.26-4.92c-1.44-2.59-3.81-4.3-5.81-6.34-5-5-9.62-10.35-14.61-15.35a49.65,49.65,0,0,1-6.16-6c-2.82-2.93-3.81-6.77-4.12-10.53a74.22,74.22,0,0,0-1.61-11.61,50.79,50.79,0,0,0-1.65-13.61,4.12,4.12,0,0,1-.22-.76c-.31-1.9.1-3.84-.31-5.74a6.38,6.38,0,0,1-.19-.72c-.64-2.2-1-4.45-1.46-6.69a12.87,12.87,0,0,1-.95-2.6c-.88-2.15-2.71-3.42-4.43-4.8a5.23,5.23,0,0,1-.55-.41c-9-7.14-17-15.35-26.42-22-1.72-1.23-3-3-5-4A1.25,1.25,0,0,1,654.86,297.4Z"/><path class="cls-9" d="M738.92,489.61c.05-2.3,1.93-2.23,3.38-2.3a5.63,5.63,0,0,0,3.37-1.25c1.07-.86,2.45-1.64,2.15-3.32a3.76,3.76,0,0,0-3.13-2.77c-5.83-1.24-9.77-5.42-14.14-8.86-2.91-2.29-5.72-4.7-9.19-6-1.61-.6-1.38-2.38-2.65-3-1.06-.64-2.59-.86-2.46-2.62a1.66,1.66,0,0,1,1-.33c3.51,1.8,6.52,4.34,9.67,6.65,4,2.92,7.82,6,11.61,9.15,2.3,1.93,5.25,2.67,8.18,3.24.89.17,1.79.29,2.66.53,1.36.38,2.82.67,3.13,2.37a4.64,4.64,0,0,1-1.64,4.64,22.78,22.78,0,0,1-7.07,3.91Z"/><path class="cls-10" d="M641.5,148c1.2-1.57,3-1.31,4.62-1.48,2.42-.24,5,.91,7.24-.95h0c2.91-.72,5.92-.6,8.88-1a23,23,0,0,1,7.07-.49c6.56.44,12.9-1.52,19.44-1.58,3.41,0,5.27,1.44,6.91,4a70,70,0,0,0,7.44,9.38,8.18,8.18,0,0,0,4.68,2.49c.53.7,1.31.4,2,.5-.21,1.42-1.31,1.49-2.38,1.46a13.38,13.38,0,0,1-3.13-.57,17.31,17.31,0,0,1-7-6.45c-1.47-2.58-3.4-4.84-5-7.33-1.43-2.23-2.89-2.87-5.25-1.84-3.86,1.69-7.89,1.48-11.9,1.59a111.3,111.3,0,0,0-13.72,1.05c-6,.91-12.08,1.32-18.14,1.81A2.09,2.09,0,0,1,641.5,148Z"/><path class="cls-11" d="M666.21,363l0-1c2.79.49,3.82,2.87,4.46,5,1.72,5.7,3.07,11.52,4.67,17.26,1.35,4.85,2.56,9.74,4.14,14.54a71.31,71.31,0,0,1,2.79,9.38c.33,1.83,1.56,3.41,1.78,5.31.27,2.64,1.72,4.91,2.3,7.48,1.46,6.52,3.3,13,4.56,19.53a20.11,20.11,0,0,1,.16,5.14c-.05.73.07,1.76-1.21,1.7-.5-2,.24-4-.39-5.9-.75-3.13-1.35-6.32-2.33-9.37-.58-1.81-.72-3.72-1.3-5.42-.87-2.52-1.23-5.18-2.25-7.61a10.76,10.76,0,0,1-1.08-5,3.93,3.93,0,0,0-.56-2.36c-1.7-2.73-1.71-6-2.87-8.93-1.09-2.76-2-5.61-2.81-8.46s-1.54-5.92-2.6-8.81c-1.44-4-1.38-8.31-3.25-12.15-.07-.15-.19-.32-.17-.46C670.86,368.78,668,366.11,666.21,363Z"/><path class="cls-12" d="M654.86,297.4c2.68,2.23,5.34,4.49,8,6.68,5.27,4.26,10.77,8.23,15.56,13.08a85.47,85.47,0,0,0,7.17,5.93A6.09,6.09,0,0,1,687.5,325c-1.73.71-2.54-1-3.79-1.46-5.42-3.5-9.64-8.4-14.6-12.41-8.92-7.21-17.86-14.42-27.45-20.76-1.85-1.22-3.28-3-5.34-3.94-2.11-1.95-4.74-1.17-7.18-1.35l0-1c2.66-.75,5.26-.9,7.76.61a5.31,5.31,0,0,0,1.64.35l0,0c1.15.8,2.33,1.55,3.41,2.44Z"/><path class="cls-13" d="M689.5,441.39c1,1.88.23,3.91.48,5.85-.16,3.21-2.19,5.56-3.74,8.14-.34.56-.79,1-1.15,1.6-2.28,3.58-2.11,4,.63,7.21,5.32,6.26,12.12,10.75,18.48,15.77a5.46,5.46,0,0,0,2.29.87,4.12,4.12,0,0,1,.67.24,4.38,4.38,0,0,1,1.49.81c2.65,2.79,6.33,3.86,9.55,5.68.76.44,2,.68,1.51,2.05-3.91.59-6.63-2-9.5-3.82a50.18,50.18,0,0,0-4.81-3.28c-6.68-3.33-12-8.41-17.49-13.37-1.4-1.27-2.68-2.67-4-4-3.56-3.49-3.11-4.32-.46-8.48a83.33,83.33,0,0,0,5.77-10.18C689.85,445,689.43,443.1,689.5,441.39Z"/><path class="cls-14" d="M743.84,489.62c1.39-2,4.06-1.95,5.65-3.64.55-.59,1.38-1,1.85-1.58,1.69-2.28.86-4.44-2-5-3.69-.78-7.51-1.23-10.62-3.58-4.84-3.64-9.54-7.47-14.36-11.14-2.32-1.77-4.77-3.37-7.15-5-.68-.53-1.88-.36-2.07-1.54l1-.42c1.23.11,2,1,2.95,1.65,6.67,4.84,13.43,9.55,19.63,15,2.36,2.1,5.78,2.43,8.91,3a25.54,25.54,0,0,1,5.1,1.59c2.13.9,1.8,2.9,1.27,4.46C753,486.63,747.45,489.82,743.84,489.62Z"/><path class="cls-15" d="M744.88,172.64c0,.17,0,.35,0,.53a7.61,7.61,0,0,1-3.47,1.61c-4.72,1.31-9.28,3.12-13.92,4.67a72.1,72.1,0,0,1-10,2.76c-7.71,1.39-15.39.39-23.06.77-2.1-.62-4.34,0-6.45-1.07-3.58-1.86-4-4.4-1-7.4.91.7.7,1.73.8,2.67.32,3,1,3.59,4,3.61,2-.17,3.93.61,5.87.48,6.86-.44,13.78,0,20.6-1,4.78-.73,9.29-2.55,13.79-4.31,3.71-1.45,7.62-2.33,11.36-3.73A1.45,1.45,0,0,1,744.88,172.64Z"/><path class="cls-15" d="M667.71,162.29c-4.14.05-8.31-.38-12.38.87a4.32,4.32,0,0,1-2,0c-5-.85-5.93-.07-6,5-2-.84-2.58-2.36-1.42-4.17a6.4,6.4,0,0,1,5.64-3c3.54,0,7.09-.44,10.58-.36,5.83.14,11.43-1.12,17.14-1.7a12.56,12.56,0,0,0,2.8-.91c3.92-1.38,7.4,1,7.56,5.1.11,2.71.11,5.43-1.48,7.83-1.2-.42-1.37-.57-1.17-1.86.25-1.68.71-3.32.87-5,.31-3.1-.64-4.09-3.83-4.09a14.51,14.51,0,0,0-4,.76h0a90.63,90.63,0,0,1-10.38,1.46Z"/><path class="cls-16" d="M719.71,489.61c-.66-1.64-2.42-2.16-3.68-2.52-3.69-1-6.2-3.73-9.18-5.76,1-.84,1.95-.52,2.92,0,4.08,2.94,8.72,4.73,13.38,6.47a2.2,2.2,0,0,1,1.49,1.82Z"/><path class="cls-4" d="M680.08,160.81c1.81-1.39,3.92-1.15,5.91-.85a2.75,2.75,0,0,1,2.53,3.1c-.08,1.88.06,3.77-.72,5.56a2.12,2.12,0,0,0,.15,2.53,3.73,3.73,0,0,1-1,3.47,12.17,12.17,0,0,0-1.19,2.09c-.6,1.86-.49,3.42,1.57,4.55,2.24,1.22,4.79.8,7,1.72-2.41-.08-4.84.4-7.17-.91-2.1-1.17-3.43-3.21-2.44-5.31,1.37-2.91,1.6-5.92,1.75-9a25.65,25.65,0,0,1,.82-3.81c.53-2.42-.38-3.59-2.91-3.56C683,160.38,681.54,160.65,680.08,160.81Z"/><path class="cls-4" d="M669.7,162.27c3.45-.54,6.84-1.58,10.38-1.46C676.76,162.27,673.24,162.36,669.7,162.27Z"/><path class="cls-4" d="M642,287.52a5.77,5.77,0,0,1-3.41-2.44A4.61,4.61,0,0,1,642,287.52Z"/><path class="cls-17" d="M542,245.63c1.77-3.06,4.6-4.55,7.85-5.7,3.89-1.38,7.54-3.48,11.47-4.67a45.89,45.89,0,0,0,6.8-3.17,28.37,28.37,0,0,0,10-8.6,37.75,37.75,0,0,0,5-8.29c2.39-5.81,2.79-11.91,3.74-18,1.06-6.79.94-13.49,1.18-20.24a4,4,0,0,1,1.22-2.82,23.6,23.6,0,0,1,10-5.93c3.15-1,6.19-2.66,9.71-2a2.1,2.1,0,0,0,1.19-.22c6.62-3.22,13.2-2,19.76.21a7.55,7.55,0,0,1,1.63,1.08c1.58,1,1.88,2.83,2.44,4.36,1.23,3.42,1.55,7.15,3.71,10.25a1.72,1.72,0,0,1-.17,2.06c-1.34,2.85-4.7,2.26-6.77,3.92-.48.38-1.21-.24-1.7-.72a15.41,15.41,0,0,1-3.59-4.9c-1.15-2.74-3.25-3.39-6.32-3.36-5.55.06-10.47,2.39-15.7,3.59a2.29,2.29,0,0,0-2.08,2.57c.12,2.07-.35,4.13,1.17,6.1.77,1,.11,3,.69,4.26,2,4.35,2,9,1.51,13.44a56.66,56.66,0,0,1-2.84,13c-.57,1.54-.78,3.14-1.34,4.69-1.56,4.36-5.51,6.24-8.87,8.49-6.33,4.24-12.15,9.11-18.25,13.63-1.33,1-2.91,1.1-4.22,1.93-1.7-1.88-3.94-2.27-6.34-2.63-6.12-.91-12.21-1.61-18.38-.47C543.16,247.73,542.05,247.31,542,245.63Z"/><path class="cls-18" d="M629.14,285.09c2.65-1.21,5.15-1.18,7.39.93-2.9.22-3.58,2.34-4.45,4.65-2.39,6.34-3.89,13-6.46,19.25a2.93,2.93,0,0,1-.5,1.12c-1.63,1.49-1.5,3.26-.87,5.12-1.8.25-2.87-1.4-4.49-1.68a7.45,7.45,0,0,1-2-.81l-1.57,0c-.52-.58-1.82-.22-1.83-1.34s1-1.13,1.71-1.57c5.31-3.54,8.75-8.24,9-14.8.07-1.62.25-3.06,1.47-4.26a3.1,3.1,0,0,0,1-2.68A4.55,4.55,0,0,1,629.14,285.09Z"/><path class="cls-19" d="M709.77,481.33c-1,.53-1.95-.27-2.92,0l-.1,0c-3-.45-4.75-3-7.11-4.55-3.91-2.53-7.26-5.81-10.87-8.76-1.84-1.5-3.07-3.59-4.74-5.29-1-1.06-.62-2.35.07-3.61,2-3.65,4.7-6.9,6.1-10.91a28.08,28.08,0,0,0,1.06-4c0-4.46,3.06-7.29,5.81-10.17,1.37-1.44,2.94-2.67,3.61-4.59,1.78-5.15,4.9-9.46,8.44-13.48,2.23-2.53,4.28-5.2,6.33-7.86s4.42-3.87,7.72-3.19c7.68,3.86,7.4,9,3.4,15.16-3.32,5.12-6.61,10.26-10.44,15.09A103.77,103.77,0,0,0,709,446.26c-2.77,4.63-.9,6.3,1.84,9.64a7.58,7.58,0,0,0,3.9,2.47,1.83,1.83,0,0,1,1.41,1.25c.87.79,2,1.36,2.54,2.46a4.67,4.67,0,0,0-1.6,4.34,4.18,4.18,0,0,1-1.07,3.39c-2,1.95-3.19,4.54-5,6.66A6.13,6.13,0,0,0,709.77,481.33Z"/><path class="cls-20" d="M637.55,183.93c-.07-.56.07-1.3-.23-1.65-2.61-3-2.7-6.85-3.81-10.36-.5-1.6-1.28-3.11-1.94-4.66,3.43-.49,3.55-3.47,3.84-5.78a51.48,51.48,0,0,1,2.11-10.66c.69-2,2.64-1.93,4-2.85a80.87,80.87,0,0,0,9.5-1c3.75-.81,7.62.22,11.25-1,3.85-1.29,7.78-.81,11.7-1,4.42-.22,8.89.39,13.18-1.74a4.26,4.26,0,0,1,5.68,2c1.49,2.52,3.4,4.79,4.81,7.34,1.62,2.93,4.31,4.65,6.7,6.74a7.38,7.38,0,0,0-2.73,4.77,9.43,9.43,0,0,1-5.08,6.84c-.29.15-.72.24-.83.49-1.41,3.37-4.38,6.09-4.23,10.11-3.55,0-4.38-.88-4.44-4.47,0-.8,0-1.61,0-2.42a6.53,6.53,0,0,1,1-3.47A28.22,28.22,0,0,0,689,163c-.19-3.15-3.22-5.7-6.07-4.38-2.12,1-4.27.87-6.35,1.41-4.57,1.21-9.19,1.16-13.85,1.41-4,.21-8,.3-12,.43a5.16,5.16,0,0,0-4.57,3.25c-.58,1.25.14,2.37,1.28,3.12.42,1.89,1.72,3.32,2.67,4.93,1.6,2.68.58,4.67-2.17,6C644.49,180.82,640.76,181.81,637.55,183.93Z"/><path class="cls-21" d="M691.45,181.51c-1-.54-1.29-.93-.71-2.31,1-2.45,3.32-4.33,3.39-7.24,0-.62.75-1.07,1.38-1.31,3.28-1.28,4.84-3.76,5.59-7.12.38-1.7.35-4.2,3.22-4.23,1.81-.34,3.79,1.45,5.47-.44,4.49.27,8.45-1.7,12.54-3a16.29,16.29,0,0,1,3.59-.55,53.19,53.19,0,0,0,9.63-2.2c5.33-1.59,10.81-1.45,16.08-2.8,3.11-.79,6.37,0,9.54-.76,2.12-.5,4.22-1.44,6.5-1.06.14,1.12-.86,1.48-1.42,2.14-4.28.74-8.52,2-12.88,2-3.88,0-7.72.37-11.59.57-1.86.09-3.47,1-5.21,1.47-6,1.65-12.19,2.73-18.16,4.59-2.75.86-5.62,1.23-8.42,1.94a7.67,7.67,0,0,0-5.73,5.23,8.22,8.22,0,0,1-4.87,5.21,5,5,0,0,0-3,3c-1.37,3.81-.12,5.65,4,5.68.33,0-.08,0,.25,0a122.17,122.17,0,0,1,14.11-.86,29.48,29.48,0,0,0,13.53-3.32c5.11-2.54,10.6-4,16-5.72a38.52,38.52,0,0,1,8.18-1.71,13.82,13.82,0,0,0,3.62.95,1.87,1.87,0,0,1,.67.35.54.54,0,0,1,0,.69c-4.16-.59-8,.5-11.87,1.94-2.13-.15-3.84,1.19-5.82,1.67a101.82,101.82,0,0,0-11.22,3.86c-4.93,1.81-9.9,3.39-15.25,3.38a64.56,64.56,0,0,0-10.58.38C698.5,182.51,695,181.5,691.45,181.51Z"/><path class="cls-22" d="M766.18,150l1.49-1.5h1.45c1.83.45,2.29,1.9,2.41,3.47a18.34,18.34,0,0,0,1,4.92,19.4,19.4,0,0,0,2.3,11.84c2.42,4,4.4,8.33,8,11.64,6.5,5.95,14.08,10.34,21.16,15.46,3.73,2.7,8.31,3.84,11.82,6.81,3.79,3.2,8.9,4.12,12.68,7.31,2.66,2.24,6.12,3.07,8.87,5.13a6.17,6.17,0,0,1,1.54,1.56c.6.89,1.43,1.78.61,2.87a3.27,3.27,0,0,1-3.45,1.34c-3.59-.64-6.72-2.36-10-3.77s-6.85-2.45-10.06-4.12c-6.1-3.16-12.59-5.43-18.88-8.15-4.52-2-9.15-3.73-13.65-5.76q-7.92-3.58-15.73-7.41c-1.79-.88-2.11-3-3.09-4.58-.51-.83-1-1.7-1.54-2.5l.28-.23c1.5-.18,2.07,1,2.51,2a10.64,10.64,0,0,0,6.48,5.6c5,1.87,9.42,5,14.41,6.93a34,34,0,0,0,7.72,2.49c2.89.39,5.29,1.93,7.81,3.38,5.09,2.94,10.71,4.86,16.09,7.25,4.56,2,9.45,3.27,13.66,6.1,1.42.95,3.52,1.61,4.41,0s-1.29-2.69-2.49-3c-4.49-1.18-7.28-5.12-11.39-6.69-4.63-1.76-8.36-4.86-12.48-7.39a2.27,2.27,0,0,0-.64-.36c-5.28-1.1-9.23-4.56-13.32-7.67-5.48-4.16-11.27-8-16-13a32.74,32.74,0,0,1-4.47-6.76,5.89,5.89,0,0,1-.34-.66c-3.45-4.47-4.64-9.67-5-15.15,0-.4,0-.8-.07-1.2C770.19,153.21,769.81,150.49,766.18,150Z"/><path class="cls-22" d="M756.75,170.7v-.53a1.18,1.18,0,0,1,1.14-.21,5.23,5.23,0,0,1,2.4,3.27c.91,2.68,1.54,5.47,3,8a2.7,2.7,0,0,1,0,3.22l-.14.12C760.38,180.2,759.56,175,756.75,170.7Z"/><path class="cls-21" d="M772.55,156.85a6.09,6.09,0,0,1-1.36-4.27,4.81,4.81,0,0,0-2.07-4.11,2.15,2.15,0,0,1,2.51,2.1C771.94,152.66,772.25,154.76,772.55,156.85Z"/><path class="cls-23" d="M617.78,313.67c2.37.21,4.24,1.67,6.37,2.46,3.35,1.71,5,5.09,7.6,7.56,6,5.78,11,12.5,17.22,18.19a213,213,0,0,1,19.66,20.31c.52.63,1.16,1.16,1.71,1.77,1.68,2.78,2.28,6,3.08,9,2,7.65,4.14,15.3,6.05,23,1,4.15,2.73,8.19,4,12.33a11.35,11.35,0,0,1,.75,3.09,2.3,2.3,0,0,1-.7,1.92c-2.18-6.5-4.13-13.06-6.08-19.62-2.53-8.49-4.63-17.07-6.94-25.6a11.77,11.77,0,0,0-4.25-6.12c-3.94-4.16-8-8.19-12-12.33-5.59-5.84-11.71-11.14-17-17.35-3.25-3.84-6.94-7.38-10.35-11.14C624.27,318.23,621.73,315.07,617.78,313.67Z"/><path class="cls-24" d="M716.17,459.62c-1.91-1.2-4.31-1.49-5.79-3.52-3.22-4.42-5-5.5-1.12-11.12,3.66-5.37,6.85-11,11-16.13a50.75,50.75,0,0,0,7.94-13.38c1.49-3.82-.42-7.63-5.12-10.1a4.45,4.45,0,0,0-2.12-.51,1.72,1.72,0,0,1-1.64-1.28c-1-4.35-4.65-6.77-7.19-10-1.14-1.45-3-2.32-3.32-4.42a1.47,1.47,0,0,1,.47-1c5,5.31,9.9,10.7,15,15.89,1.94,2,4.1,3.73,5.58,6.16a4.66,4.66,0,0,1,.21,4.88c-1.94,3.59-4.19,7-6.42,10.41-3.93,6-8.34,11.69-12.11,17.8-.52.84-1.2,1.57-1.69,2.41-2.64,4.56-2.06,7.38,2.58,10.77a26.82,26.82,0,0,0,2.77,1.58c.71.47,1.61.71,2.07,1.54Z"/><path class="cls-25" d="M709.27,388.16l0,1c-4.69-1.41-7.78-4.67-9.87-8.88a18.5,18.5,0,0,1-1.72-7.62c-.1-3-1.17-5.76-1.46-8.7-.87-8.55-2.34-17-3.79-25.47-.29-1.69,0-3.41-.57-5.09a12.63,12.63,0,0,0-5-6.23c-1.06-1.29-3.43-1.7-2.84-4.12,1.2.58,2.05,1.77,3.46,2a29.11,29.11,0,0,1,4.93,4.93c.33.83.66,1.66,1,2.49.4,2.48.28,5.06,1.51,7.37h0c.7,2.1-.22,4.31.5,6.41h0a84.12,84.12,0,0,1,2,14.3A54.86,54.86,0,0,1,699,371.58c.31,4.11,1.37,8.16,4.65,11.19C705.56,384.54,707.12,386.65,709.27,388.16Z"/><path class="cls-12" d="M697.4,360.51c-1.17-1.94-.42-4.12-.71-6.18-.38-2.71-1.69-5.29-1.27-8.12A39,39,0,0,1,697.4,360.51Z"/><path class="cls-12" d="M692.43,329.94A30.65,30.65,0,0,1,687.5,325,9.9,9.9,0,0,1,692.43,329.94Z"/><path class="cls-12" d="M694.92,339.8c-1.93-2.17-1.38-4.84-1.51-7.37C693.92,334.89,694.42,337.34,694.92,339.8Z"/><path class="cls-12" d="M695.42,346.21c-1-2.07-.25-4.28-.5-6.41C696,341.87,695.18,344.08,695.42,346.21Z"/><path class="cls-26" d="M683.51,413.31c0-.68,0-1.36,0-2a.72.72,0,0,1,.81.41c1.47,4.46,5.17,8.12,5.09,13.1-.08,4.56,1.38,8.84,2.07,13.25.33,2.1-.73,4.25.4,6.26-1.14,5.65-4.28,10.34-7.3,15.07a2.85,2.85,0,0,0,.31,3.9c4.76,5.72,10.76,10,16.64,14.43,1.67,1.27,3.14,2.84,5.18,3.6-2.44.43-3.66-1.61-5.3-2.69a124.2,124.2,0,0,1-12.8-10.29,44.88,44.88,0,0,1-5.15-5.6,3.36,3.36,0,0,1,0-4.29A66,66,0,0,0,690,447.24c1.15-3.81.22-7.53-.55-11.25-.74-3.55-2.17-6.9-2.59-10.58-.33-2.92-1.54-5.76-2.55-8.57A8.71,8.71,0,0,1,683.51,413.31Z"/><path class="cls-27" d="M684,323c.26,1.77,1.92,2.35,3,3.45-5.19,1.49-6,6.4-7.91,10.35a15.63,15.63,0,0,0-1.94,7,28.7,28.7,0,0,1-2.57,8.35c-3,3.37-4,7.58-4.92,11.8-3.49-3.75-6.83-7.65-10.5-11.21-4.1-4-7.86-8.28-12.32-11.89-3.26-2.65-5.47-6.3-8.42-9.23-5-5-9.48-10.37-14.27-15.51-1.68-1.68-.91-2.87-.07-5,1.82-4.48,4.5-8.76,5-13.71a9.52,9.52,0,0,1,1.38-4.34A20.11,20.11,0,0,0,632,289c1.17-3.46,1.16-3.46,4.51-3,3.06,1.18,5.07,3.82,7.73,5.57,4.21,2.79,8.32,5.75,12.4,8.72,1.78,1.29,3.31,2.94,5.11,4.19C669.72,310.05,676,317.56,684,323Z"/><path class="cls-28" d="M669.66,364a14.54,14.54,0,0,1,4.48-11.82c.75,1.22.21,2.43-.18,3.55a7.1,7.1,0,0,0-.05,4.81c.56,1.65.58,3.25-1,4.48a1.61,1.61,0,0,0-.33,2.21,15,15,0,0,0,1.27,2.11c3.52,4.77,4.52,10.3,4.9,16a8.08,8.08,0,0,0,.67,3.11c.26.51.67,1.06.6,1.6-.62,4.35,2.51,7.48,3.61,11.26.23.77.53,1.83,1.48,1.74s.92-1.23,1.09-2c.84-3.88,1.22-4.18,5.08-3.36a1.83,1.83,0,0,0,2.09-.87c1.24-1.72,2.07-3.52,1.59-5.74a10.84,10.84,0,0,1,.76-6.74c1.13-2.65,2.22-5.42-.2-8.06a2,2,0,0,1-.44-1.39c.3-9.17-1.5-18-3.71-26.87a8.72,8.72,0,0,1-.55-3.64c.66-3.38-1.28-6.55-.63-9.91.12-.65-.33-1.08-.94-1.27a1.44,1.44,0,0,0-1.72.63c-.8,1.12-1.67,2.82-3.22,1.44s-.12-2.77,1-3.89l.37-.34c.54-.54.72-1.15,0-1.68a.94.94,0,0,0-1.57.53,8.44,8.44,0,0,1-2.95,4.91c-.87.7-.35,2.18-.21,3.32.37,3.1-1.05,4.94-4.34,5.63a25.84,25.84,0,0,1,3.83-11.44,13.26,13.26,0,0,0,1.3-2.35c.82-2.61,2.6-3.64,5.23-3.46,4.18,2.47,5.52,6.17,6.11,10.93.77,6.27,1.62,12.59,3,18.81.76,3.47.43,7.19,1.33,10.67,1.1,4.25.73,8.75,2.41,12.91,1.32,3.28,4,5.28,6.58,7.38.89.73,1.89,1.31,2.83,2,0,1,.83,1.6,1.5,2.16,3.2,2.71,5.41,6.31,8.4,9.21a1.83,1.83,0,0,1,.32.36c1.83,3.34,1.83,3.34,3.6,4.5-4.73-1-6.86,2.51-9,5.51-3.36,4.63-7.69,8.52-10.43,13.63a15.15,15.15,0,0,0-1.35,2.59,18.43,18.43,0,0,1-5.22,7.81c-2.51,2.43-5.45,5.17-5.11,9.38-.83-.34-.93-1-.95-1.82a33.33,33.33,0,0,0-1.79-11.23c-.91-2.41-.05-5.31-.65-8a14.18,14.18,0,0,0-2.32-5.78c-1.31-1.75-1.81-4.11-2.66-6.2-1.12-3.1-1.57-6.39-2.95-9.44a49,49,0,0,1-2-6.66c-1.78-6.14-3.08-12.4-5-18.52-.88-2.81-1.74-5.7-2.41-8.61C670.84,366.62,670.69,365.14,669.66,364Z"/><path class="cls-29" d="M757.75,170.2l-1,0h-.44c-1.08-.59-2.39-.38-3.48-1a111.6,111.6,0,0,0-15.15,4c-4.9,1.63-9.45,4.47-14.38,5.5-4.44.93-9.13,3.16-13.94.94a3.16,3.16,0,0,0-2.63.33c-2.65,1.21-5.46,1-8.25,1a3.07,3.07,0,0,1-2.93-1.88c-1.37-2.64.33-6.87,3.09-8,2.33-1,4.11-2.17,4.93-5a7.49,7.49,0,0,1,5.87-5.58c7.66-1.63,15.33-3.35,22.8-5.64a77.89,77.89,0,0,1,22.17-3.14c3.93,0,7.86-1.21,11.78-1.86,3.92,0,3.88,0,4.49,4a13.13,13.13,0,0,1,.44,3.36,1.2,1.2,0,0,1-1.37.16,2.43,2.43,0,0,0-3.35,1.07c-1.31,2-3.55,2.82-5.27,4.31-2,1.75-3.62,3.53-3,6.44A.93.93,0,0,1,757.75,170.2Z"/><path class="cls-22" d="M752.82,169.2c1.26,0,2.53-.11,3.48,1C755.05,170.18,753.76,170.33,752.82,169.2Z"/><path class="cls-30" d="M757.75,170.2c-.68-4.41.66-6.89,5.24-9.51a5.24,5.24,0,0,0,2.3-1.78c1.41-2.72,3.39-2.89,5.82-1.54.43,5.15,1.2,10.18,4.68,14.35a2.36,2.36,0,0,1,.27.92c-2.68.51-3.73-.1-4.09-2.67-.39-2.78-2.19-4.93-3.2-7.43-.53-1.31-3.17-1-4.49.49-3,3.31-3.49,7.16-2.19,11.25a11.08,11.08,0,0,0,2.73,5.18,3.16,3.16,0,0,1,.79,1.78c1,5.16,4.53,7.95,9.17,9.6a11.66,11.66,0,0,1,4.64,2.7c1.49,1.51,3.49,2.2,5.37,3s2.81-1.28,4.06-2.17c1-.73.13-1.62-.35-2.36a3.93,3.93,0,0,1-.68-2.08c-.05-2.48-1.49-3.72-3.76-4.18a8.59,8.59,0,0,1-3.81-1.65c-1.31-1.06-2.62-1.93-4.46-1.67a1.92,1.92,0,0,1-2.11-1.4c-.32-1-.41-2.25.49-2.72,2-1.05,2-2.51,1.44-4.3a1.33,1.33,0,0,1,.46-1.34c3.69,7.23,10,11.8,16.31,16.5,3.38,2.51,7,4.75,10.12,7.65a8.29,8.29,0,0,0,4.36,2.06c2.44.44,4.45,2,6.48,3.31,2.62,1.75,5,3.69,8.17,4.78a13.4,13.4,0,0,1,6.65,4.36,6.73,6.73,0,0,0,4,2.19,10.59,10.59,0,0,1,4.61,2.7c.59.53,1.37,1.09.9,2.07a2.47,2.47,0,0,1-2.23,1.26c-2.66.28-4.65-1.23-6.65-2.5a16,16,0,0,0-5.5-2.55c-3.54-.72-6.6-2.73-9.94-4-2.82-1.08-5.31-2.84-8.38-3.44a7.63,7.63,0,0,1-4.19-2.32c-1.44-1.74-3.3-2.13-5.17-2.46-7.18-1.26-13.4-4.75-19.68-8.14a29.94,29.94,0,0,0-5.62-2.5,5.94,5.94,0,0,1-3.9-3.33c-.76-1.44-1.34-3.22-3.18-3.87a6.36,6.36,0,0,0-1.25-4c-1.22-1.62-1.38-3.83-2.09-5.74A14.93,14.93,0,0,0,757.75,170.2Z"/><path class="cls-31" d="M676.64,343.73,679,342a3.24,3.24,0,0,0,1.41-3.6c-.36-2-1.6-4.4,1.8-5.35,1-.27.78-1.68.85-2.66a2.36,2.36,0,0,1,1.87-2.32c1-.24,1.5.5,1.95,1.19.57.87.72,1.67-.47,2.19a2.49,2.49,0,0,0-1,.62c-.54.76-1.58,1.34-1.15,2.52a1,1,0,0,0,.95.68c1.19,0,1.53-1,1.7-1.81.48-2.28,2-1.19,3.08-.94s1.7,1.18,1,2.45a2.62,2.62,0,0,0,.48,3.57,1.46,1.46,0,0,1,.38,1.57,14,14,0,0,0,.14,7,158.4,158.4,0,0,1,3.26,16.28c.42,2.89.73,5.87.9,8.68a13.31,13.31,0,0,0,1.41,6.15c1.19,2.19-.4,4.47-1.24,6.5a9.4,9.4,0,0,0-.59,6.21c.89,3.21-1.07,5.31-2.66,7.54-.65.91-1.42.14-2.14-.27-2.22-1.27-3.53-.57-3.86,2a7.76,7.76,0,0,1-.28,1.68c-.33.85,0,2.23-1.34,2.34s-1.77-1.07-2.15-2c-.83-2.19-1.14-4.62-3.14-6.23a.9.9,0,0,1-.31-.66c0-3.11-1.27-6-1.54-9-.59-6.46-1.75-12.55-5.7-17.91-1-1.36-2.72-3.19.52-4.34.87-.3.83-1.59.51-2.22-1.77-3.39-.08-6.51.56-9.72Q675.39,348,676.64,343.73Z"/><path class="cls-32" d="M776.07,172.64a5.35,5.35,0,0,0,.39,2.4c.59,1.48,1,2.82-1.37,3.18-1.29.18-1.11,1.51-.93,2.45a1.47,1.47,0,0,0,2.07,1.16c1.55-.64,2.41.13,3.47,1a8.61,8.61,0,0,0,4.56,2.22c2.85.34,4,1.83,4.15,4.79a2.78,2.78,0,0,0,.93,2.17c1.51,1.28,1.29,2.51-.4,3.2-1.37.56-1.83,2.73-3.22,2.38a26.28,26.28,0,0,1-5.75-2.68,5.7,5.7,0,0,1-1.43-1.35,5.7,5.7,0,0,0-3.14-1.83c-4.47-.89-7.23-4.08-9.88-7.37a3.08,3.08,0,0,1-.33-1.64,7.15,7.15,0,0,0-1.53-3.69,17.15,17.15,0,0,1-2.72-7.32c-.47-3.39.59-5.89,2.26-8.46a3.92,3.92,0,0,1,2.38-2c3.24-.74,3.18-.74,4.51,2.51,1,2.39,2.61,4.45,2.69,7.28.05,1.54,2.18,1,3.28,1.55Z"/></g><g id="DFe"><path class="cls-33" d="M843.37,315.64V240c0-6,1.21-7.18,7.22-7.2,9.22,0,18.46.31,27.66-.15,7.91-.4,15.8-.13,23.69-.27a45.17,45.17,0,0,1,6.87.49c3.44.48,5,2,5.22,5.78a59.34,59.34,0,0,1-.75,14.2c-.4,2.37-1.82,3.13-4,3.14q-7.55,0-15.08,0c-7.64,0-15.27,0-22.9,0-3.13,0-4.21,1-4.21,4.09q0,19.61,0,39.19c0,3.08.48,3.52,3.63,3.52h37.83c4.08,0,4.51.29,5.31,4.16a41.14,41.14,0,0,1-.1,15.6c-.61,3.44-1.32,3.89-4.82,3.9q-12.87,0-25.72,0l-11.62,0c-4.55,0-4.58,0-4.51,4.44.12,7.18.37,14.36.41,21.55.07,12,0,24,.06,35.92,0,2.07-.48,4.07-.51,6.11a2.08,2.08,0,0,1-1.58,2,8.85,8.85,0,0,1-2.9.51c-4.78,0-9.56,0-14.34,0-4.13,0-4.89-.81-4.89-4.91Q843.37,353.85,843.37,315.64Z"/><path class="cls-34" d="M931.37,378.81l-4.94-7.93c-.44-.85-1.28-1.47-1.4-2.5,0-1.8,0-3.58-1.5-4.94l-.08-.93c-.47-5.11-2.31-10-2-15.27a137,137,0,0,0,0-15c-.26-5.39.73-10.57,1.76-15.8a40.52,40.52,0,0,1,10.53-20.25c.71-.39,1.28-1.24,2.27-.66.87,1.9-.08,3.38-1.27,4.66a18.4,18.4,0,0,0-5.23,10.12,6,6,0,0,1-1.59,2.73,13.29,13.29,0,0,0-3.23,9.07,38.27,38.27,0,0,1-.58,7.11c-1.09,7.61.75,15,1.27,22.53.23,3.32.76,6.65.85,10,.06,2.48,1.42,4.58,2.92,6.4,2,2.41,3.11,5.44,5.55,7.51a2,2,0,0,1,.67,1.3c.29,3.18,2.4,4.86,5,6.23a24,24,0,0,1,4.39,3.19c2.22,1.9,4.59,3.44,7.63,3.75a7.5,7.5,0,0,1,3.69,1.33c2.83,2.13,6.15,2.3,9.42,2.32,3.8,0,7.57.34,11.33.7,3.18.31,6.21-.63,9.32-.92,2-.19,2.6-2.2,2.8-3.91a67,67,0,0,0,.1-8.62c0-1.46-1.07-1.79-2.22-2.21-5.36-2-10.86-1.67-16.36-1.1a13,13,0,0,1-6.05-.75c-3.62-1.33-7.17-1.86-10.43,1a4,4,0,0,1-3.26.86,2.45,2.45,0,0,1-2.31-1.9c-.26-1.17.5-1.81,1.42-2.33s2.27-.59,2-2.07A4.12,4.12,0,0,0,949.1,369a10,10,0,0,1-6-5.88,22,22,0,0,1-1.92-10.81c.3-3.64,3-6,6.7-6.33a18.17,18.17,0,0,0,10.47-4.08,13.57,13.57,0,0,1,11.78-3c1,1,.14,1.58-.48,2.08-1,.79-1.87,1.72-2.89,2.48-1.13.45-2,1.36-3.18,1.7-1.69-.07-2.83,1-4,1.95-1.88,0-3.29,1.53-5.17,1.53a64.84,64.84,0,0,0-8.36.41,2.46,2.46,0,0,0-1.4,1.51,12.51,12.51,0,0,0,.09,5.24c2.08,6.64,5.65,12.13,12.24,15.07,3,1.31,5.91,2.64,9.36,2.49,4.77-.22,9.55,0,14.32-.09,2.48-.05,4.88.61,7.36.52a2.63,2.63,0,0,1,2.73,2.37,15.93,15.93,0,0,1,.65,5.6,97.18,97.18,0,0,0-.4,11c-.08,3-.66,3.64-3.64,3.65-7.32,0-14.66.26-22-.08a34.71,34.71,0,0,1-12.85-2.89c-1.69-.77-3.51-1.22-5.24-1.95-3.65-1.51-6.51-4-9.46-6.43-.8-.65-2-.9-2.4-2l-1-1A13.16,13.16,0,0,0,931.37,378.81Z"/><path class="cls-35" d="M765.7,365.77c0-8-.26-14.56.09-21,.26-5,.22-10.06.26-15.07.18-24.29.28-48.59,0-72.88-.09-6.53,0-13,.15-19.57a4.35,4.35,0,0,1,4.34-4.39c7.61-.14,15.28-.86,22.83.08,6.28.79,12.54,1.89,18.2,5.54s10.71,7.32,14.62,12.56c2.35,3.16,4.77,6.36,5.93,10.27.36,1.22,1.39,2.15,1.78,3.45,2.13,7.28,2.49,14.75,2.58,22.26.06,5.15.25,10.3.29,15.46.09,11.42.24,22.84.12,34.26a179.4,179.4,0,0,1-1.53,23.63c-.38,2.66-1.74,5.2-2.8,7.74-.63,1.48-1.37,2.95-2,4.42-2.51,5.81-7.1,9.71-11.77,13.62a45,45,0,0,1-15.18,8.28A43.51,43.51,0,0,1,792,396.54c-5.75.24-11.5-.26-17.26.28a29.53,29.53,0,0,1-6.12-.35c-2-.26-2.34-2-2.47-3.71C765.47,383.25,765.76,373.73,765.7,365.77Z"/><path class="cls-36" d="M954.67,348.2c1.49-1,3.37-.75,4.94-1.52,1.17-1,2.32-1.95,4-1.92a6.81,6.81,0,0,1,3-1.52A79.16,79.16,0,0,0,982.08,328a33.39,33.39,0,0,0,5.66-11.59,28.92,28.92,0,0,1,1.61-4.37c.54-2.48.07-5,.29-7.5a2.33,2.33,0,0,1,.42-1.16.54.54,0,0,1,.74-.1c0,1.48-.09,3,0,4.43.37,5.74-1.53,10.91-4,15.88-4.28,8.47-11.15,14.67-18.68,20.11-2.74,2-6.31,2.78-9.43,4.18-3.59,1.61-7.23.86-10.75,1.73-1.58.4-2.61,1-2.68,2.9-.22,6,5.41,14.69,10.84,17.32a31.11,31.11,0,0,0,14.81,3.05,119.3,119.3,0,0,1,17.93.4c2.85.35,3.43,1.1,3.43,4q0,7.64,0,15.27c0,2.81-1.09,4.31-3.84,4.31-8.64,0-17.28.55-25.9-.31A48.16,48.16,0,0,1,947,391.9c-3.93-1.81-7.13-4.44-10.44-7-.58-.45-1.28-.83-1.12-1.74,2.55.77,4,3,6.13,4.44a36.07,36.07,0,0,0,7.16,4.15c5.82,2.14,11.74,4.07,18,4.23,6.91.17,13.84,0,20.76.07,1.94,0,3-.48,2.79-2.62-.44-5.3.74-10.6.05-15.92-.28-2.14-.92-3.09-3.31-3.27-7.64-.55-15.33.17-22.93-.53-6.54-.61-12-4-16-9.39a22.46,22.46,0,0,1-3.85-8.73,13.2,13.2,0,0,1,0-5.42,1.55,1.55,0,0,1,1-1.48c2.24-.51,4.52-.09,6.78-.24C952.92,348.37,953.83,348.65,954.67,348.2Z"/><path class="cls-37" d="M990.8,303.31h-.52c-.9-.85-.66-2-.67-3,0-5-.07-10,0-15a3.13,3.13,0,0,0-2.69-3.51,10.84,10.84,0,0,0-2.66-.41c-6.27-.05-12.55-.37-18.78.11a52.74,52.74,0,0,0-13.12,2.92c-7.18,2.46-12.4,7.44-18,12a38.18,38.18,0,0,0-8.27,12.27c-1.32,2.87-1.9,6.16-2.64,9.32-2.56,11-.92,22-1.44,33-.15,3.17,2.16,5.85,1.54,9.08a15.33,15.33,0,0,0-.07,2.45,26.39,26.39,0,0,1-2.35-10.63c-.17-8.71,0-17.42-.05-26.13,0-3.23,1.11-6.25,1.63-9.38,1.32-7.89,5.21-14.47,10.4-20.44a46.41,46.41,0,0,1,15.22-11.74,42.87,42.87,0,0,1,17.61-4.5c6.34-.12,12.69-.05,19,0a22,22,0,0,1,3.41.44c2,.35,2.93,1.63,2.92,3.64,0,4.19-.16,8.39.05,12.57A19.89,19.89,0,0,1,990.8,303.31Z"/><path class="cls-37" d="M931.37,378.81a3.58,3.58,0,0,1,3,3.36C933.08,381.33,931.81,380.44,931.37,378.81Z"/><path class="cls-37" d="M923.53,363.44c2.4,1,1.77,3.12,2,5-1.59-.31-.15-1.86-1-2.47C924.11,365.12,923.41,364.43,923.53,363.44Z"/><path class="cls-36" d="M924.47,365.93c.95.57.07,1.89,1,2.47-.07,1,1.2,1.44.95,2.48C924.48,369.74,924.38,367.87,924.47,365.93Z"/><path class="cls-38" d="M906.67,255l-2,0a5.89,5.89,0,0,1-2.67.21H874.7A5.89,5.89,0,0,1,872,255c-5.61,0-5.89.26-5.91,6q-.07,20.22-.11,40.42c0,2.17,1.55,2.37,3.21,2.37l24.24,0q7.42,0,14.84,0c2.73,0,4.23,1.3,4.28,3.92.08,4.77,0,9.54,0,14.3a2.65,2.65,0,0,1-2.42,2.92,45.7,45.7,0,0,1-5.63.59c-11.29-.09-22.59-.07-33.88-.08-3.83,0-4.74.8-4.56,4.62.9,19.29.27,38.59.47,57.89a17.36,17.36,0,0,1,0,2.7c-.64,4.3-.47,5.52-5.65,5.36-4.37-.13-8.74,0-13.11-.06-2.5,0-3.43-.91-3.43-3.41,0-8.38,0-16.77,0-25.15a4.61,4.61,0,0,0,.23-2.41c0-3,0-5.91,0-8.87-.13-23.65.35-47.29.29-70.94,0-5.24-.25-10.47-.29-15.71-.05-6.8.54-13.6.27-20.41a79.54,79.54,0,0,1-.27-8.6c.14-2,.29-4.06,1.71-5.72h0c3-.42,6.06-.31,9.08-.43,4.53-.17,9.06,0,13.6,0,12.25,0,24.5-.31,36.75,0a17.26,17.26,0,0,1,4.86.52l1.51,1.5c1.16,5.15.14,10.35.16,15.52,0,1.77-1.72,2.61-3.44,2.91C908.11,254.85,907.35,254.54,906.67,255Z"/><path class="cls-39" d="M846.3,234.75a30,30,0,0,0-1.17,11.73,69.68,69.68,0,0,1-.14,17.07,45.7,45.7,0,0,0,.11,10.05c.28,3.37.91,6.79.29,10.22a12.48,12.48,0,0,0-.06,2.21c0,11.5.4,23-.11,34.5-.65,14.94-.12,29.87-.4,44.81,0,.71.19,1.5-.47,2.07q0-64.18,0-128.39C844.36,237.4,844.08,235.46,846.3,234.75Z"/><path class="cls-39" d="M910.59,234.79c-21.43-.44-42.86.15-64.29,0,2.92-.92,6-.84,9-.87,16.88-.16,33.76-.08,50.65-.09A8,8,0,0,1,910.59,234.79Z"/><path class="cls-39" d="M872,255h32.68c-.59.62-1.37.44-2.09.44q-14.25,0-28.51,0C873.4,255.45,872.62,255.63,872,255Z"/><path class="cls-39" d="M906.67,255c.4-.54,1-.42,1.56-.5,2.66-.33,3.88-1.67,3.88-4.29,0-4.64,0-9.27,0-13.9,1.41,2.84,1.11,5.89.83,8.87a23.36,23.36,0,0,0-.29,3.9C913,253.94,911.2,255.47,906.67,255Z"/><path class="cls-40" d="M970.51,339.33c-3.88-.87-7.14,1.37-10.69,2.13a1.86,1.86,0,0,0-1.08.57c-2.79,4.31-7.27,4.36-11.66,4.68a6.05,6.05,0,0,0-5.23,5.65c-.08,4.54.53,8.94,3.24,12.86a6.7,6.7,0,0,0,4,3c2.64.56,3.13,2.67,3.75,4.64.45,1.42-.77,1.68-1.87,2s-2.58.5-2.08,2.11c.45,1.44,1.87,1.47,3.13,1.22a3.41,3.41,0,0,0,1.74-.86c3.19-3.32,6.85-2.31,10.47-1.14a13.94,13.94,0,0,0,6.44.75,39.52,39.52,0,0,1,17.67,1.43,1.84,1.84,0,0,1,1.43,2c0,3.12.08,6.25-.06,9.36-.16,3.37-1.88,4.28-5.19,4.91-6.66,1.27-13.21-.3-19.8-.18-3,.05-6.21-.05-8.8-2.27a5.11,5.11,0,0,0-2.69-1.1c-4.13-.42-7.28-2.56-10.26-5.24a25.94,25.94,0,0,0-5.15-3.33,4.73,4.73,0,0,1-2.6-3.11c-1-4.3-4.44-7-6.56-10.51-1.57-2.64-3.22-5.09-3.33-8.49a195.94,195.94,0,0,0-2.21-21.86c-.62-4.26.41-8.47.55-12.72,0-1.27.31-2.59.27-3.89a13.62,13.62,0,0,1,3.93-9.95,3,3,0,0,0,1-1.88c.24-4,2.19-7.14,4.88-9.88a6.32,6.32,0,0,0,2-4.8c.56-2.37,3.16-2.61,4.49-4.22.37-.44,1.11-.64,1.6-1.09,5.56-5.07,12.44-7,19.64-8.18,7.85-1.31,15.74-.89,23.62-.53,3.81.17,5,1.27,4.85,5.11-.19,4.1-.05,8.21,0,12.31a113.37,113.37,0,0,1-1.25,13.92c-.42,3.49-2.08,6.85-3.82,10.05a56.61,56.61,0,0,1-12.23,15.5C972.11,338.83,971.67,339.9,970.51,339.33Z"/><path class="cls-41" d="M970.51,339.33c1.84-.44,2.66-2.12,3.92-3.25a41.8,41.8,0,0,0,7.38-9.08,58.92,58.92,0,0,0,6.25-13c.74-2.35.13-4.87.66-7.32,1.51-6.85,1-13.83,1-20.77,0-2.84-1-3.53-3.85-3.85a98.17,98.17,0,0,0-14.54-.42c-7.35.28-14.56,1.17-21.49,4.1a23.81,23.81,0,0,0-6.12,3.76c-2.53,2.11-5.66,3.42-7.9,5.91l-1.54.95c.69-2.66,3.22-3.53,5-5.07,3.17-2.68,6.44-5.36,10.37-6.81a54.43,54.43,0,0,1,11.45-3.19c8.52-1.17,17.05-.88,25.57-.25,2.45.18,3.67,1.55,3.59,4.27-.17,6-.05,12-.06,18v1c-.69,2.77.18,5.63-.48,8.39A117.84,117.84,0,0,1,984.73,325c-1.23,2.61-3.24,4.42-4.87,6.61-3.43,4.64-8.13,7.95-12.61,11.48-.17.13-.47.1-.71.15C967.39,341.46,969.5,340.94,970.51,339.33Z"/><path class="cls-41" d="M954.67,348.2c-3.09,1-6.28.19-9.41.47C948.35,347.58,951.54,348.43,954.67,348.2Z"/><path class="cls-41" d="M963.58,344.76l-4,1.92A3.49,3.49,0,0,1,963.58,344.76Z"/><path class="cls-41" d="M944.27,350.15v5.42A6.53,6.53,0,0,1,944.27,350.15Z"/><path class="cls-42" d="M825.52,378.27c-4.43,4.54-8.73,9.35-14.72,11.82-3.78,1.55-7.26,4.21-11.69,4a4.55,4.55,0,0,0-1.67.38,29.76,29.76,0,0,1-10.65,1.6c-5.36-.16-10.72-.09-16.08,0-1.53,0-2.65-.37-3-1.93a36.53,36.53,0,0,1-1-6.76q-.09-50.54,0-101.07,0-21.76,0-43.53a29,29,0,0,1,.86-6.29c.32-1.51,1.23-2,2.78-2.23,7.15-.82,14.33-.57,21.46-.31a49.74,49.74,0,0,1,11.06,1.68c7.56,2,13.22,6.79,18.75,11.58a34,34,0,0,1,8,11,66.64,66.64,0,0,1,4.53,10.66,20.16,20.16,0,0,1,.77,4.07c.24,3.76.5,7.52.51,11.28.05,21,0,42.08,0,63.11,0,3.85-.77,7.67-.52,11.53.13,2-1.37,3.47-2,5.21-1.89,5-3.4,10.24-7.33,14.21-1-1.2-.51-2.29.25-3.37,3.49-5,5-10.85,7.54-16.25a8,8,0,0,0,.32-3.42q0-39.31,0-78.63a27.72,27.72,0,0,0-3.2-12.78c-2.47-4.72-4.71-9.62-8.38-13.61a48.22,48.22,0,0,0-19.71-13.06,34.08,34.08,0,0,0-11.89-1.58c-5.77,0-11.54,0-17.31,0-3.35,0-3.93.68-4.22,4-.46,5.41,0,10.82,0,16.23q.06,51.76,0,103.52c0,6.74-.62,13.45-.52,20.2.07,4.27.58,8.51.66,12.76a2.32,2.32,0,0,0,.87,1.24c2.88,1,5.85.49,8.76.41,3.36-.09,6.71-.13,10.07-.12a32.12,32.12,0,0,0,9.4-1.46c2.86-.85,5.87-1.23,8.68-2.39A15.24,15.24,0,0,0,809,388.9a15,15,0,0,1,1.9-1.22A29,29,0,0,0,821.16,380a4.34,4.34,0,0,1,.7-.84C822.91,378.11,824,377.07,825.52,378.27Z"/><path class="cls-37" d="M989.8,312.67c.23-2.79-.52-5.64.48-8.39C990,307.07,990.84,309.93,989.8,312.67Z"/><path class="cls-43" d="M892.91,325a87.31,87.31,0,0,1-22.08-2.27c-2.48-.59-6.43,2.71-7.12,5.73a14.39,14.39,0,0,0-.05,7.51c1.51,5.1,1.48,10.33,1.46,15.58q0,17.51,0,35a16.26,16.26,0,0,1-.51,4.12c-.89,3.39-2,4-5.48,3.46a8.28,8.28,0,0,0-3.66.21c-2.7.77-5.2-.3-7.65-1.17a2.44,2.44,0,0,1-1.52-2.35c-.27-8-.66-16-.15-24.05a169.38,169.38,0,0,0-.15-22.86,171.24,171.24,0,0,1-.27-17.41c.28-10.1,0-20.21.1-30.32,0-4.66,0-9.32.33-14,.34-4.43-.59-8.94-.72-13.43-.08-2.93.3-5.86.45-8.8.3-5.6,1.33-11.18.48-16.83a9.47,9.47,0,0,1,.25-4.15c.81-2.82,1.87-3.5,4.84-2.91a13.34,13.34,0,0,0,2.45.18c12.43,0,24.87.19,37.3-.09,4.59-.1,9.14-.61,13.68.42a7.15,7.15,0,0,1,5.72,6.77c.07,2.22,0,4.44,0,6.66a3,3,0,0,1-2.13,3c-3.25,1.34-6.73,1.35-10.12,1.25-6.73-.19-13.45-.49-20.18.17-2.94.29-5.93.07-8.9.09a4.31,4.31,0,0,0-4.68,4.52c-.11,4.16-.39,8.33-.39,12.47,0,9.43-.74,18.85-.66,28.28,0,2.77,1.4,4.87,2.66,7,.91,1.55,4.8,2.2,6.88,1.08a11,11,0,0,1,7.54-1.18c2.23.4,4.6,0,6.91.09q8.8.21,17.62.5c2.31.08,4.17,1.05,5,3.34.42,1.25,2.09,1.52,2,3.2-.11,2.23.14,4.43-2.23,5.76a3,3,0,0,0-1.36,1.41c-1.42,4-5,3.61-8.15,4A71.1,71.1,0,0,1,892.91,325Z"/><path class="cls-44" d="M969.49,305.71c-1.42,7.88-4.8,14.88-13,19.13-2.73,1.42-5.57,1.53-8.29,2.51s-4.73-1-4.28-4.4c1-7.22,4.06-13,10.57-17.05,3.83-2.37,7.55-4,12-3.57C968.13,302.49,969.92,302.68,969.49,305.71Z"/><path class="cls-45" d="M825.52,378.27c-1.55-.46-2.46.59-3.45,1.44,0-3.43-1.16-5.81-4.75-7.07-1.73-.61-1.86-4.48-.64-6,.31-.39.71-.87,1.2-.75,2.37.57,5.25-.06,6.75,2.74.36.67.73,1.5,1.7,1.49.18-.13.31-.29.25-.44-2-4.82-1.18-9.88-1.24-14.85a105.11,105.11,0,0,0-.9-10.79c-.23-2.09-.33-4.11,1.74-5.52a3.15,3.15,0,0,0,1.08-2.89c-.13-12.89.32-25.78-.23-38.68-.11-2.53.38-5.07.25-7.62a5.79,5.79,0,0,0-.41-2.85c-1.64,1.08-1.93,2.69-2.07,4.39-.23,2.72.42,5.4.44,8.1.08,7.81.27,15.62-.06,23.41-.2,4.67-.13,9.36-.5,14a22,22,0,0,1-3.52,10.39,14.08,14.08,0,0,0-2.56,10,8.56,8.56,0,0,1-1,4.77,7.18,7.18,0,0,0-1,2.24c-.22,3.14-2,4.46-5,4.65a7.44,7.44,0,0,0-1.45.34c-4,1-4.53,2.8-1.69,5.65a14.6,14.6,0,0,1,1.83,2.61c.45.7,1.76,1.14,1.14,2.16-.45.73-1.53.32-2.33.31a37.79,37.79,0,0,1-9.29-1.18,5.46,5.46,0,0,0-2.2-.19,2.32,2.32,0,0,0-2.13,1.44c-.33,1,.4,1.51,1,2.07,1.86,1.73,4,3.09,5.62,5.14,1,1.31,2.86,1.5,4.54,1.58,1.05.05,2.18-.15,3,.73-3,1.63-5.89,3.6-9.45,3.4-1.92-.1-3.11,1.32-4.83,1.6a40.64,40.64,0,0,1-7.86.41c-5.53-.19-11,.65-16.57,0-.63-.07-1.34.16-1.81-.5.78-.92,2-.36,3-.87-1.19-2.76-1.19-2.76,1.62-5.22-2.15-1.09-3.21-.61-3.19,1.64a4.2,4.2,0,0,1-1.91,3.45,36.67,36.67,0,0,1-.92-10.15c.72-41.38.29-82.76.41-124.13,0-4.56-.21-9.1-.39-13.65a49.66,49.66,0,0,1,.74-8c.21-1.63,1.23-2.32,2.93-2.31,8.57.06,17.16-.27,25.71.17,4.25.22,8.25,2.27,12.07,4.28a45.59,45.59,0,0,1,15,12.28c2.73,3.49,4.6,7.51,6.66,11.38,2.89,5.43,3.67,11.34,3.64,17.48q-.18,37.45,0,74.92c0,3.1-1.28,5.56-2.23,8.19a113.58,113.58,0,0,1-4.73,10.37c-.7,1.46-2.7,2.32-2,4.41Z"/><path class="cls-46" d="M809.7,389.11c-1.16,0-2.32.08-3.46,0-2.42-.21-4.62-.74-5.9-3.23-.92-1.78-3.13-2.25-4.48-3.73-.8-.87-1.85-1.45-1.41-2.79s1.7-1.87,3.08-2.07c2-.29,3.84.76,5.77,1.1,2.67.48,5.35,0,8.36.81-2.72-1.8-3.49-4.76-5.94-6.3-.94-.6.84-3.93,2.36-4.34a45,45,0,0,1,5.28-1.1c1.22-.17,2.26-.66,2.19-1.86-.09-1.8.91-3.08,1.53-4.56a8.22,8.22,0,0,0,.7-5,12.07,12.07,0,0,1,2.34-9.05,22.26,22.26,0,0,0,3.91-11.9c.48-11.3.57-22.62.55-33.93,0-3.53-.69-7-.61-10.54,0-2,1.24-3.32,1.88-5,.22-.58.91-.66,1.51-.49s.65.69.63,1.19c-.11,3,.43,6.1-.29,9.07-.33,1.33.34,2.4.33,3.62q-.06,18.72,0,37.45c0,.94,0,2-.93,2.37-2.46.87-2.32,2.86-2,4.66,1.2,6.5.93,13,.9,19.59a11,11,0,0,0,1.24,5.69c.55.95.82,2-.23,2.59s-1.63-.46-2.24-1.09a5.73,5.73,0,0,1-.74-1.25c-.72-1.39-1.54-2.57-3.43-1.93a2.51,2.51,0,0,1-1,0c-.89-.08-1.95-2.06-2.64.09-.58,1.8-1,3.72.84,5.16a5,5,0,0,0,1.32.67c3.82,1.45,4,1.67,3,5.64a6.38,6.38,0,0,0-.1,1l-.51.53a1.77,1.77,0,0,1-1.1.94c-3.78.69-6,3.49-8.29,6.16a4.19,4.19,0,0,1-1,.75Z"/><path class="cls-46" d="M768.65,393c.26-1.62,2-2.81,1.13-4.82-.27-.62.73-1.45,1.61-1.5,1.11-.06,2.4-.5,3.28.43s0,1.42-.77,1.81c-1.7.86-3.68,1.54-.8,3.56.94.65.42,1.46-.73,1.51s-2.13,0-3.19,0A.92.92,0,0,1,768.65,393Z"/><path class="cls-45" d="M811.2,388.09a14.5,14.5,0,0,1,10.36-7.85c-.71,1.95-2.54,2.94-4,4.07C815.65,385.8,813.7,387.47,811.2,388.09Z"/><path class="cls-47" d="M967.49,307.11c-1.12,6.81-4.5,13.09-12.26,16.6a16.49,16.49,0,0,1-6.17,1.9c-3.7.19-4.53-.57-3.69-4.07C947.46,312.7,953,307,961.46,304a16.39,16.39,0,0,1,3.14-.56C967,303.05,967.58,303.58,967.49,307.11Z"/><path class="cls-46" d="M776.55,319.86c0,10.68-.19,21.37.1,32,.12,4.49-.11,9-.11,13.44,0,1.67.3,3.1,2,3.83.22.1.61.28.6.38-.35,2.64,2.4,3.83,2.83,6.09.21,1.14.28,2.45,2.07,1.86.35-.12.75,0,.83.3.55,2.35,3.72,2.08,4.38,4.37.11.4.9.78,1.43.86,2.16.32,2.71,1.07.89,2.67-.18.17-.47.4-.45.57.39,3.46-2.21,2.16-3.8,2.33-2.2.23-4.41.45-6.61.47-1.63,0-3.38-.09-3.9-2.2a1,1,0,0,0-.44-.57c-3.71-2.13-3-5.7-2.53-8.86a10.22,10.22,0,0,0-2.36-8.85,5.39,5.39,0,0,1-1.41-3.79c0-26.22-.26-52.43.16-78.64.15-9.67.1-19.35.34-29,.07-2.52.53-2.94,2.93-2.4,1.9.44,4.25-.15,5.24,2.4.19.48.87.21,1.34,0a23.68,23.68,0,0,1,2.3-.88c1.36-.39,2.81-.77,3.93.43s.67,2.42.12,3.68c-.16.37-.45.9-.31,1.14,1.47,2.5.85,4.68-.84,6.77a.76.76,0,0,0-.08.68c2.66,3.91.74,8.26,1.12,12.37.22,2.28-2.2,3.49-4.31,2.52-.45-.2-.88-.46-1.34-.63-2.57-1-4.14.07-4.15,2.86Q776.53,303,776.55,319.86Z"/><path class="cls-48" d="M788.43,314.84V259.41c0-3.65.85-4.46,4.52-4.43,4.13,0,7.64,1.92,10.73,4.26a27,27,0,0,1,7.37,8.19,20.73,20.73,0,0,1,3.08,10.14c.06,25.13.12,50.26,0,75.38a18.31,18.31,0,0,1-5.56,12.91c-2.87,2.92-5.85,5.43-10,6.73a21.64,21.64,0,0,1-6.82,1.28c-2.84,0-3.24-.46-3.24-3.35V314.84Z"/><path class="cls-49" d="M789.89,317.84c0-16.68,0-33.36,0-50,0-2.93-.95-5.81-.19-8.8.59-2.32,1.62-3.1,3.85-2.57,4.9,1.15,9.38,3.17,12.72,6.94a24,24,0,0,1,5.54,9.69c2.32,8.39,1.12,16.82,1.24,25.21.24,17.42.34,34.85,0,52.26a21.7,21.7,0,0,1-11.29,19.18,23.87,23.87,0,0,1-8.12,3.05c-3.28.54-3.71-.08-3.71-3.4q0-22.07,0-44.13Z"/></g><g id="PowerShell"><g class="cls-50"><g id="Brazil-2" data-name="Brazil"><path class="cls-2" d="M-88.86,380.85l-8.62-12.34c.38-2.54.07-5.53,3.82-5.91,3.51.6,6.15-.91,8.68-3.21,13.44-12.21,29.22-20.72,45.52-28.35,4.92-2.3,9.91-3.89,15.23-1.26,6,15.89,21.9,13.94,34,18.15,11.43,4,24.11,3.95,35.17,9.87,3.67,2,8.17,1.38,12.29,1.82,12.68,1.35,24.56,6.28,37.19,7.91,7.65,1,13.67-.56,19.3-6.42,15.64-16.28,32.56-31.26,48.95-46.79,1.48-1.4,3.14-2.8,5.43-2.77a4.27,4.27,0,0,1,2.48,1.9c1.12,8.82,6.79,16.38,6.45,25.77-.15,4.18,3.91,7.65,5.8,11.59,6.84,14.26,5.22,28.65.46,42.88-1.36,4.1-1,5.92,3,7,1.66,3.3-.34,5.39-2.72,6.91-12.44,8-23.54,18.11-36.31,25.37a58.53,58.53,0,0,1-41.63,6.74c-14.22-3.09-28.79-3.74-42.92-7.35-27.94-7.15-56.54-11.6-84.19-20C-37,407.67-51.31,400-66.4,394.18-74.34,391.13-80.37,383.7-88.86,380.85Z"/><path class="cls-3" d="M751.8,610.23l-33,22.95c-10.22.3-20,3.24-29.94,5.22a43.82,43.82,0,0,1-18.42,0c-4.49-3-5.57-7.66-5.83-12.61-.2-3.9,0-7.82,0-11.72.24-9.13,1.37-18.25-4.63-26.42-1.74-2.38-2.53-6,.19-9,17.3,1.37,34.64-.66,52,1,12.05,1.15,24.66,2.74,36.8-2.48,4.64-2,10.7-2.27,14.33,3.25,2.77,4.2.62,13.66-4.36,18.39C755.62,602.1,752.47,605.31,751.8,610.23Z"/><path class="cls-4" d="M168.15,312c-9,6.54-15.72,15.46-24.26,22.42-11.72,9.55-21.49,21-32,31.72-3.49,3.53-8.64,3.83-13,3.91a49.21,49.21,0,0,1-17.51-2.87c-11-4-22.23-5.6-33.72-6.44a8,8,0,0,1-3.93-1.15c-7.21-5.15-15.81-6.18-24.08-7.49C7,350.1-4.68,345.17-17,342.3c-5.93-1.39-6.22-6.7-6.91-11.52,1.65-8.12,6.48-15,8.54-23.1,5.84-22.88,15.29-44.59,22.63-67a22.93,22.93,0,0,0,1-12.25,132.16,132.16,0,0,0-8.42-27c-6-13.15-10.6-27-20.33-38.17a93.42,93.42,0,0,0-8.43-8c-8.83-7.9-19-14.46-25.94-24.33-4.49-6.38-4.5-9,.38-14.87,9.44-11.3,17.31-23.91,29.63-32.79,7-5,13.52-6.59,21.19-2.68.83.42-.22-.08.61.33,18.16,8.88,20.32,6.78,28.43-13.47a32.54,32.54,0,0,1,7.12-14.07c4.38-5.25,6.33-11.72,9.92-17.36,3.12-4.91,1-9.12-4.91-12.21-5.24-2.77-11.4-4-15.42-8.86C14.6,4.67,16.26-2.1,27.71-7.4a18.09,18.09,0,0,0,6.65-4.8C40.85-19.95,49.49-25,57.63-30.74c1.15-.8,2.47-2.52,4.06-.47-2.92,5.38-9.5,6.58-13,11C42.49-12.41,34.29-7.27,26.46-1.54,19,3.91,19.77,9.32,28.36,13.22c5.45,2.48,11.11,4.54,16.39,7.31,7.8,4.11,9.06,10.27,4.58,17.87-5.48,9.31-12.27,17.93-16.18,28.06-2.5,6.46-6.27,12.2-9.36,18.3-2.37,4.65-6.71,8.45-13,7.1C6.55,90.93,2,90.35-1.8,88.36c-14.53-7.7-19.45-3.32-29.94,8.72-6,6.92-11.38,14.39-17.23,21.47-4.53,5.49-3,10.85,2.72,15.16,9.79,7.34,19.74,14.54,27.68,24.16C-5.92,173.19,1.06,191.47,9.68,209c8.55,17.36,3.67,33.38-2.16,49.72-5.58,15.62-11.87,31-15.74,47.21-1.78,7.5-5.77,14.47-8.67,21.71s-1.52,10.53,6.07,12.68c9.53,2.7,19.17,5,28.82,7.3,24.41,5.73,48.91,11.16,73.27,17.11,9.19,2.25,17.06-.23,22.51-6.91,7.41-9.09,17.47-15.13,25-23.75,9.31-10.59,20.75-18.8,30.83-28.52,5-4.8,13.3-8.41,21.76-6.39-.17.93-.53,2.09-1.37,2.25C181.75,302.92,175.28,308.14,168.15,312Z"/><path class="cls-6" d="M-94.73,363.1c-1,1.75-.91,4.07-2.75,5.41-2.67-2.67-2.73-5.5-2.22-9.34,1.7-13,9-22.71,16.29-32.87,13.84-19.36,27.77-38.88,31.33-63.29,2-13.49,1.83-26.76-2-40.25-4.57-16-11.46-30.58-19.77-45-9.62-16.66-22.23-31.49-29.74-49.41-2.88-6.87.52-12.88,2.86-18.54,3.3-8,8-15.31,12.86-22.62S-74.83,76-70.78,69c7-12.25,19.52-17.24,29.75-25.19,6.53-5.09,13.67-9.19,22.32-10,5.06-.49,5.45-4.34,3.06-7.59C-22,17.51-24.08,6.89-29.59-2.18c-5.21-8.58-2.65-18.51,6-25.23,8.38-6.51,17.28-12.36,25.23-19.45,2.16,4-1,5.9-3.35,7.84C-5.44-36-9.56-33.39-13.52-30.63c-3.1,2.16-5.64,4.7-6.5,8.53-6.52,9.59-3.46,18.69,1.15,27.82,3.41,6.76,7.94,13.05,9.5,20.64,1,4.81,1.72,9.74-3.65,12.87A71.65,71.65,0,0,0-55.87,60.41C-64.12,68.73-72.79,77-80,86.5c-5.75,7.55-11.34,15.14-15.13,24s-4.41,16.82,2.11,25.17c7.79,10,15.55,20.21,20.67,31.92C-65.14,184-54,198.51-48.9,216a89,89,0,0,1,2.66,13.56c2.69,21.17,1.22,41.73-8.27,61.54-8,16.61-19.65,30.71-29.07,46.32-4.23,7-8.54,13.69-9.45,22A5.4,5.4,0,0,1-94.73,363.1Z"/><path class="cls-7" d="M-88.86,380.85c3.61-.65,7.24-.05,9.75,2.36C-70,391.94-58,394.76-47.12,400c23.39,11.33,48.35,17,73.59,22.07,17.33,3.5,34.28,9.6,51.74,11.48,15.61,1.69,30.81,7.3,47.07,4.7,16.93-2.72,30.25-11.64,42.85-22.17a41.51,41.51,0,0,1,7.83-5.31c4.17-2.13,9.07-4,10-9.72.13-1.59,1.2-2.44,2.49-3.1,13.76-5.54,26.86-.06,40,2.65,27.3,5.64,54.25,12.76,82,16.73,21.66,3.1,43.08,8,64.6,12a8.37,8.37,0,0,1,4.92,2.33,3.23,3.23,0,0,1,.66,2.91c-13.94-2.92-28.07-4.9-42.07-7.54-15.39-2.89-30.91-5.66-46.5-7.55-9-1.09-17.29-4.61-26.09-6.33-21.23-4.16-42.41-8.63-63.65-12.74-4.28-.83-8.11,1.34-11.5,3.92-13.07,9.95-27.15,18.41-39.88,28.94-10.48,8.67-23.11,12.19-37.43,10.3a775.7,775.7,0,0,1-78.85-15.07c-26.89-6.42-54.18-11.28-79.75-22.25-10.78-4.63-21.29-9.83-31.71-15.24C-81.86,388.48-86.56,386.25-88.86,380.85Z"/><path class="cls-8" d="M249,301.4c10.29-3.21,20.57-.12,30.84.1,28.14.58,55.87,5.95,84,7.24,6.81.31,13.87.41,20.55,2.59,11.68,3.8,19.1,13.15,26.89,21.6,5.29,5.73,9.91,12,16.21,16.82,3.08,2.34,6.37,5,8.12,8.35,6.86,12.89,20.54,19.58,28.16,31.7,5.2,8.28,14.75,12.16,20.4,20.17,2.51,3.56,7.7,3.91,11.94,4.67,33.38,6,66.13,15.16,99.79,19.76,4.89.67,9.37,2.65,13.7,4.72,6.38,3,4.92,10.08,5.94,15.26,1.89,9.67.47,19.71.59,29.56.14,10.39,2,20.78,1.68,31.32-.41,13.71-.33,27.44-.09,41.15.19,10.82,9.06,17.66,20.79,16.63,3.17-.28,6.34-1.74,9.54-.18a4.22,4.22,0,0,1-1.62,3.67c-9.12,3.17-17.82,1.86-25.9-3-6.81-4.09-7.87-11.43-7.86-18.29,0-17.54-.61-35.08-.47-52.63.12-16.28.72-32.78-2.18-49-.94-5.22-3.76-8.61-8.53-10.95-7.48-3.67-15.69-3.82-23.59-5.29-19.55-3.64-38.83-8.48-58.39-12-8.12-.2-15.92-2.32-23.81-3.9C484.44,419.25,476,412,469.25,403.8c-7.05-8.53-14.06-16.92-22.35-24.23-6.95-11-16.13-20.06-25.67-28.78a10.6,10.6,0,0,1-1.73-1.4c-3.78-3.89-6-9-9.95-12.75a18.72,18.72,0,0,1-1.6-1.35c-5-4.06-9.46-8.68-14.09-13.11-2.47-1-4.27-3-6.4-4.49-5.47-3.56-11.74-3.54-17.91-4a14,14,0,0,1-1.94,0c-32.2-2.07-64-8.07-96.39-8.47-6-.07-11.8-2-17.88-1.3C251.6,304.1,249.56,303.74,249,301.4Z"/><path class="cls-9" d="M751.8,610.23c-3.58-5.4.87-8.26,4.08-10.75a16,16,0,0,0,5.79-8.31c1.1-3.68,3-7.71-.37-11.1s-8.28-2.81-11.67-1.39c-15.47,6.51-31.27,3.19-46.87,2.27-10.4-.61-20.76-1.67-30.88.91-4.69,1.19-7-3.31-11-2.75-3.49.22-7.37,2.17-9.89-2.11a4.75,4.75,0,0,1,1.89-2.43c11-1.5,22-.46,33-.18,13.86.35,27.68,1.27,41.49,2.49,8.42.75,16.42-2.27,24.09-5.67,2.33-1,4.6-2.2,7-3,3.74-1.29,7.59-3,11,.44A13.08,13.08,0,0,1,773.22,582a64.53,64.53,0,0,1-10.07,20.41Z"/><path class="cls-11" d="M380.54,434.63c-.52-.8-1-1.6-1.57-2.4,7.22-3.35,13.43.47,18.3,4.32,13.13,10.4,25.58,21.67,38.49,32.36,10.91,9,21.57,18.37,32.92,26.92,7.29,5.49,14.95,10.65,21.49,17.18,3.71,3.7,9.09,5.37,12.65,9.4,4.86,5.67,11.86,8.59,17.33,13.6,13.86,12.69,28.42,24.61,41.9,37.74a56,56,0,0,1,8.62,11.63c1.06,1.76,3,4-.07,5.86-4.28-3.68-5.82-9.54-10.37-13-6.77-6-13.25-12.41-20.43-17.9-4.24-3.24-7.64-7.43-11.7-10.41-6.05-4.43-11.16-10-17.42-13.95-4.21-2.66-7.89-5.48-10.47-9.71a11,11,0,0,0-5.06-4.57c-8.33-3.57-13.61-11.11-21-16-6.95-4.62-13.57-9.79-20.09-15-6.73-5.38-13.07-11.2-20.15-16.19-9.66-6.79-16.53-17-27-22.84-.4-.22-.94-.42-1.13-.78C400.56,440.52,389.66,439,380.54,434.63Z"/><path class="cls-12" d="M249,301.4c9.78.84,19.55,1.79,29.34,2.5,19,1.37,38.08,1.7,56.93,5.2,8.53,1.59,17.36,1.56,26.07,2.17,2.53.18,5.06.22,7.37,1.45-2.85,4.43-7.38,1.88-11.1,2.74-18.12.62-35.74-3.92-53.64-5.22-32.17-2.33-64.4-4.62-96.73-3.85-6.22.15-12.39-1.69-18.65-.54-8-1.11-12.81,4.92-18.75,8.43-.56-.75-1.12-1.51-1.67-2.27,5-6,10.7-10.53,18.91-11.05,1.48-.09,2.89-1.18,4.34-1.81h.11c3.94,0,7.88-.15,11.8.17Z"/><path class="cls-13" d="M560.23,578.24c5.3,2.77,6.8,8.67,10.52,12.74,4.76,7.67,3.85,16.38,4.41,24.81.12,1.84-.14,3.68-.07,5.53.47,11.93,1.5,12.58,13,15.64,22.32,5.93,45.23,5.35,68,6.73,2.37.14,4.53-.77,6.68-1.66a11.85,11.85,0,0,1,1.94-.53c1.57-.3,3.24-.83,4.74-.52,10.62,2.2,20.81-1.25,31.19-2.21,2.45-.22,5.61-1.59,6.77,2.31-8.08,7.62-18.5,6.07-28.07,6.42-5.39.2-10.81-.66-16.37.15-20.77,3-41.33-.07-61.86-2.76-5.28-.69-10.48-1.86-15.73-2.75-13.82-2.35-14.12-5-14.67-18.85-.45-11-1.06-22-3-32.75C566.9,586.13,562.82,582.32,560.23,578.24Z"/><path class="cls-14" d="M763.15,602.36c.06-6.78,6.26-11,7.2-17.49.33-2.25,1.68-4.41,1.75-6.63.24-8-5.15-11.64-12.6-8.5-9.78,4.11-19.33,9.22-30.27,8.8-17-.65-34-1.93-51.06-2.68-8.19-.36-16.41-.12-24.61-.15-2.41-.14-4.91,2.19-7.25-.22l1.71-2.63c3-1.72,6.23-1,9.46-.94,23.19.47,46.36.49,69.49,3.23,8.83,1.05,17.24-3.69,25.45-7.32a73.85,73.85,0,0,1,14.33-4.51c6.37-1.35,8.81,3.8,10.1,8.25C779.5,580.74,771.83,597,763.15,602.36Z"/><path class="cls-15" d="M61.69-31.21C52.2-24.45,41.88-18.73,34.49-9.32A12.38,12.38,0,0,1,30-6.15C17.1-.11,16.19,3.22,24.33,15c-6,1.3-9.77-1.31-10-7.35-.23-6.74,2.76-12,8.24-15.91C30.71-14,38.26-20.66,46.46-26.08,60.13-35.11,71.05-47,83.3-57.5c2.16-1.86,3.37-4.38,5-6.62,6.86-9.48,18.64-9.67,25.65-.37,4.61,6.1,9,12.36,9.17,20.47-3.46.94-4.08.87-5.69-2.41-2.11-4.29-3.7-8.83-6-13-4.27-7.64-8-8.41-15.42-3.27-3.22,2.24-5.64,5.22-8.07,8.21h0c-7,6.93-13.89,13.93-21.62,20Z"/><path class="cls-16" d="M707.43,641.08c-4.16-2.72-9-1.1-12.54.09-10.22,3.5-20.32,1.34-30.47,1.43.92-3.5,3.69-4.31,6.76-4.69,14.14.23,27.72-3.06,41.29-6.53a6.13,6.13,0,0,1,6.35,1.8Z"/><path class="cls-4" d="M203.32,299.32a16.29,16.29,0,0,1-11.8-.17C195.49,297.14,199.42,297.56,203.32,299.32Z"/><path class="cls-17" d="M-94.73,363.1c-.81-9.91,3.33-17.9,9-25.77,6.75-9.44,11.81-20.14,19-29.21,4.53-5.72,7.18-12.11,10.6-18.23,6.23-11.14,8.83-23.62,9.32-36,.34-8.87.17-18.12-1.82-27.13-3.81-17.23-12.69-32-20.29-47.59-8.45-17.38-19.51-32.66-29.79-48.64a11.22,11.22,0,0,1-1.72-8.46c1.77-11.21,6.92-20.87,13.62-29.79,5.61-7.45,10-16.07,19.19-20.22a5.87,5.87,0,0,0,2.4-2.41c10.12-18.07,27.33-25.74,46-31.26,1.7-.5,3.66-.11,5.51-.14,5.28-.16,8.87,3.52,12.63,6.17,8.34,5.9,15.08,14,25,17.7,2.11.78,2.91,2.79,2.91,5,1.48,8.73-7.22,12.78-9.34,19.92-.49,1.66-3.18,1.41-5.08,1.07-5.68-1-11.18-2.36-16.17-5.55-7-4.49-12.93-2.6-20,2.4-12.73,9-20.35,22.33-30.49,33.49-2.84,3.13-3.13,6.1-.67,9.27,3.58,4.6,5.82,10.12,12.5,12.23,3.39,1.06,5,6.73,8.43,8.73,11.58,6.85,19.08,17.39,25.07,28.6,5.85,11,11.18,22.42,14.34,34.6,1.15,4.46,3.24,8.51,4.45,13C13.25,237.5,7.13,248.19,3,258.78c-7.8,20-13.43,40.56-20.25,60.8-1.48,4.38-4.95,7.18-6.65,11.2-6.94-1.59-12.73,1.1-18.86,4.14-15.6,7.73-30.8,15.87-43.21,28.42C-88.7,366.1-91.93,366.91-94.73,363.1Z"/><path class="cls-18" d="M169.83,314.28c4.2-7,10-11,18.56-9.71-6.34,5.16-4.5,11.15-2.8,17.89,4.66,18.48,11.86,36.2,16,54.81.25,1.13.88,2.3.64,3.38-1.35,6.07,1.77,9.94,6.21,13.23-3.74,3.46-8.88,1.37-13.08,3.32a20.4,20.4,0,0,1-5.85,1.31l-3.59,2.56c-2.14-.48-4.57,2.44-6.38-.14-1.64-2.34.61-4.3,1.43-6.37,6.57-16.7,7-33.09-2.89-48.69-2.44-3.86-4.35-7.47-3.45-12.21a8.8,8.8,0,0,0-2-7.81C169.47,322.47,169.19,318.53,169.83,314.28Z"/><path class="cls-19" d="M671.18,637.91c-1.41,2.78-4.93,2.52-6.76,4.69l-.27.07c-7.75,3.85-15.83.67-23.73.93-13.09.43-26.11-1.77-39.16-2.78-6.66-.51-12.87-3.36-19.45-4.61-4.08-.78-5.21-4.41-5.64-8.46-1.24-11.63-.23-23.47-3.44-35a80.67,80.67,0,0,0-4-10.95c-7.08-10.36-4.64-21.75-2.93-32.82.85-5.51,2.51-10.89,1-16.39-4.14-14.74-3.86-29.73-2.14-44.68,1.08-9.44,1.52-18.88,2-28.33.45-9.15,4-16,12.7-19.74,23.93-3.41,31.53,8.89,32.2,29.53.56,17.16,1.22,34.31.13,51.62-.77,12.12.63,24.74,1.47,37.12,1,15.12,8,16,19.71,19.3a21.21,21.21,0,0,0,13-.57,5.14,5.14,0,0,1,5.25.63c3.29.43,6.73,0,9.83,1.6-1.55,4.88.36,8.92,3.25,12.59,2.26,2.85,3.71,6.14,3,9.54-1.62,7.8-.09,15.62-.85,23.42C665.82,629.64,667.8,634.14,671.18,637.91Z"/><path class="cls-20" d="M26.8,67.19c-1.05-1.18-1.92-3.11-3.2-3.43C12.79,61,6.38,52.28-1.81,45.94c-3.73-2.88-8-5.12-12-7.65,7.13-6.63,2.62-13.7-.42-19.51C-19,9.69-23.66.72-26.45-9.23c-1.59-5.67,3-8.69,4.61-13C-15-28-7.52-33.19-1.46-39.7,5.88-47.59,16.48-51.44,22.9-60.06c6.83-9.17,16.7-14.36,25.42-21.1C58.17-88.77,69.47-94.53,76-106.33c2.9-5.28,9.24-7.81,16.28-4.61,7.48,3.41,15.53,5.6,22.89,9.23,8.43,4.15,17.42,3.81,26.29,4.8-1.78,5.34-.85,10.41,1.35,15.4A26.49,26.49,0,0,1,142-57.57c-.42.82-1.29,1.72-1.13,2.48C143-45,140.56-34,147.37-25c-8.3,5.59-11.54,5-17.43-3.17-1.33-1.84-2.62-3.71-3.93-5.57-2.43-2.72-2.73-6.2-3.36-9.56-2.91-7.2-5.72-14.38-10.67-20.62-5.53-7-16.59-8-21.07-.37-3.32,5.66-8.47,8.87-12.38,13.46C69.9-40.65,59.15-33.35,48.8-25.31,39.87-18.38,30.77-11.72,21.7-5c-4.9,3.64-6.3,9.2-5.33,14.86.66,3.81,4.12,5.23,8,5.15,4,3.69,9.3,4.91,14.08,7.08,8,3.63,8.83,9.87,4.63,17.39C37.82,48.85,30.8,57.15,26.8,67.19Z"/><path class="cls-23" d="M189.51,398.51c5.79-3.31,12.46-2.95,18.67-4.54,10.47-1.45,19.75,3.7,29.67,5.25,23.24,3.63,45.59,11.13,69,14.35,26.23,3.6,52.4,8.24,78,15.32,2.23.62,4.54.82,6.79,1.35,8.34,3.71,14.86,10.13,21.59,15.83,17,14.42,34.13,28.7,50.9,43.41,9.05,7.94,19.47,14.53,29,22.07,2.36,1.86,4.92,3.44,6.71,5.93,1.05,1.71,2.15,3.4,1.45,5.56-15.45-11.51-30.49-23.53-45.55-35.55-19.45-15.53-38.08-32-57.13-48-5.63-4.72-12.35-6.83-19.64-7.3-15.78-3.3-31.69-6-47.49-9.22-22.29-4.52-44.93-6.93-67-12.83-13.67-3.65-27.88-5.88-41.79-9.07C211.81,398.63,200.87,395.42,189.51,398.51Z"/><path class="cls-24" d="M651.08,577.51c-6.33.29-12.35,3.48-19,1.18-14.56-5-20.28-4.77-20.46-23.9-.18-18.26-1.87-36.42-.52-54.88a143.46,143.46,0,0,0-3.16-43.66c-2.69-11.2-13.22-16.93-28-15.08-2.16.07-3.91,1.21-5.71,2.22-2,1.14-4.23,1.17-5.85-.31-9.27-8.45-21.61-8.19-32.65-11.56-5-1.51-10.76-.46-14.77-4.87a4.11,4.11,0,0,1-.53-3.06c20,4.25,40,8.8,60.16,12.61,7.68,1.45,15.44,2,22.76,5.25,5.05,2.22,7.78,6.05,8.34,10.95,1.29,11.39,1.56,22.85,1.89,34.33.58,20.2-.48,40.39.63,60.56.15,2.75-.26,5.54,0,8.28,1.23,14.75,7.09,20.32,23.24,20.7a77.25,77.25,0,0,0,8.94-.78c2.41-.06,4.86-1,7.24.22Z"/><path class="cls-25" d="M520.39,423.59l1.54,2.29c-13.09,4.27-25.46,1.72-37-4.65-6.46-3.55-11.72-8.83-16.22-14.84-5-6.65-12-11.43-17.36-17.74-15.73-18.34-32.71-35.51-49.65-52.71-3.38-3.44-5.44-7.9-9.49-10.84-6.46-4.71-13.67-6.38-21.45-6.43-4.53-1.28-10.64,1.58-13.18-4.94,3.7-.6,7.58.79,11.17-1A82.7,82.7,0,0,1,388,316.2l6.27,4.17c4.9,5.08,8.76,11.24,15.31,14.59h0c5,3.73,6.41,10.32,11.43,14h0a234.12,234.12,0,0,1,27.52,29.83c8.21,6.7,14.84,14.76,21.51,23,7.31,9,16.28,16.64,28.71,18.4C506,421.18,513,423.55,520.39,423.59Z"/><path class="cls-12" d="M448.56,378.8c-5.8-2.59-7.58-8.84-11.54-13.12-5.24-5.65-12.4-9.52-16-16.71C432.27,357,441.06,367.32,448.56,378.8Z"/><path class="cls-12" d="M388,316.2a86.14,86.14,0,0,1-19.31-3.48A27.85,27.85,0,0,1,388,316.2Z"/><path class="cls-12" d="M409.59,335c-7.93-1.9-11-8.95-15.31-14.59Z"/><path class="cls-12" d="M421,349c-5.71-3.13-7.44-9.48-11.43-14C415.33,338.07,417.06,344.42,421,349Z"/><path class="cls-26" d="M501.29,523l-3.15-4.79a2,2,0,0,1,2.53-.36c10.57,7.93,25,10.43,32.8,22.08,7.14,10.66,17.37,18.17,26,27.24,4.14,4.33,5.13,11,11,13.83,6.45,14.86,6.71,30.75,7.36,46.53.21,5,2.25,7.22,7,8.51,20.19,5.54,40.92,5.81,61.6,6.6,5.9.23,11.82,1.51,17.73,0-4.94,4.89-11,2.15-16.56,2.29-15.44.38-30.76-1.57-46.06-3.19-7.06-.75-14-2.72-20.88-4.66-4.68-1.32-6.73-5.1-6.84-10-.29-12.11-.41-24.25-3.06-36.16-3.49-10.64-11.6-17.72-19.35-25.07-7.41-7-16.09-12.46-23-20.29-5.45-6.21-12.82-10.83-19.67-15.68C505.91,527.91,503.15,526,501.29,523Z"/><path class="cls-27" d="M357.53,313.73c3.46,3.65,8.21,2.33,12.39,3.21-9.59,11.75-3.68,24.49-1.65,36.58,1.09,6.5,2.54,13.55,6.75,19.28,3.43,7.5,6.42,15.15,7.48,23.41-1.53,12.6,3,23.87,7.6,35.14-14.08-3.06-28.07-6.71-42.28-9-15.83-2.57-31.44-6.5-47.52-7.69-11.78-.87-22.76-5.76-34.28-7.78-19.5-3.42-38.54-8.71-57.84-12.89-6.58-1.17-6.73-5.17-8.13-11.34-3-13.27-3.68-27.46-10.52-39.66a26.68,26.68,0,0,1-3.79-12.23c-.22-4.05-1.81-8.05-3-12-2.84-9.87-2.88-9.86,5.61-14.14,9-2.21,17.84.66,26.8.45,14.21-.33,28.44-.1,42.65.2,6.18.13,12.34,1.48,18.51,1.49C303.63,306.73,330.24,314,357.53,313.73Z"/><path class="cls-28" d="M390.1,431.35c-8.28-10.13-10.88-21.7-8.65-34.49,3.69,1.61,4.39,5.27,5.28,8.48a20,20,0,0,0,7.62,11.19c3.93,2.92,6.54,6.59,4.93,11.91-.83,2.74.54,4.4,2.78,5.63a40.71,40.71,0,0,0,6.33,2.84c15.77,5.38,27,16.53,37,29.1,1.9,2.38,3.81,4.63,6.53,6.09,1.43.77,3.26,1.39,3.94,2.76,5.56,11,17.83,13.21,26.44,20.18,1.75,1.42,4.16,3.38,6.21,1.64s.14-4.31-.71-6.36c-4.28-10.32-3.87-11.6,6.36-15.91,2.64-1.12,3.37-2.9,3.41-5.38.11-6-.87-11.44-5.56-15.8A30.64,30.64,0,0,1,483,436.46c-1.65-7.94-3.59-16.08-13.4-18.29a5.54,5.54,0,0,1-3.24-2.51C452.3,394,433.9,376.39,414.6,359.58c-2.6-2.27-5.72-4.4-7.1-7.53-3.89-8.86-13.48-13.08-17.38-21.87-.75-1.69-2.48-2-4.21-1.41a4,4,0,0,0-3,4.2c-.06,3.87.67,9.21-5.11,8.5-6.17-.76-4.73-6.2-4-10.55.07-.46.22-.9.3-1.36.38-2.14-.19-3.83-2.59-4a2.66,2.66,0,0,0-2.78,3.76c2,5.31,2.8,10.32,1.07,16.08-.9,3,2.69,5.58,4.84,8,5.85,6.56,5.52,13.08-1,20-6.07-10-8.57-21.06-9.53-32.57-.21-2.52,0-5.17-.77-7.53-2.28-7.33.16-12.58,6.53-16.37,13.6-1,22.66,5.36,31.65,15.41,11.87,13.25,24,26.47,37.13,38.64,7.33,6.79,12.53,15.89,20.2,22.5,9.36,8.06,15.74,19,26.29,25.94,8.33,5.45,17.71,5.76,27.06,6.47,3.21.25,6.45,0,9.68,0,1.77,2.29,4.48,2.36,6.93,2.59,11.74,1.12,22.62,5.88,34.17,7.76a4.73,4.73,0,0,1,1.32.32c9.59,4.77,9.59,4.77,15.56,4.62-12.5,5.32-11.82,16.8-12,27.21-.3,16.1-4.07,32-2.18,48.24.32,2.71.19,5.45,1,8.14,2.73,8.75,2.3,17.17.49,26.43-1.89,9.62-4.27,20.68,3.26,29.86-2.46.53-3.83-.92-5.11-2.68-6.33-8.69-13-16.73-22.17-23-6-4.12-8.66-12.2-14.34-17.41-4.42-4.06-8.58-7.61-14.64-9.62-5.84-1.94-10.77-6.58-16.1-10-7.56-5.36-13.88-12.25-22-17.06-5.57-3.32-10.33-8-15.4-12.11-14-11.32-27-23.68-41.27-34.74-6.55-5.09-13.18-10.4-19.41-16C397.05,435.56,394.33,432.39,390.1,431.35Z"/><path class="cls-31" d="M373.69,373.41c.91-2.6,1.83-5.2,2.74-7.81,1.41-4.07.8-7.26-2.52-10.57-4-4-10.77-7.58-4.45-15.25,1.79-2.16-.89-5.12-2.32-7.5a6.65,6.65,0,0,1,.61-8.35c1.9-2.15,4.26-1.27,6.42-.4,2.7,1.08,4.34,2.7,2.42,5.81a6.94,6.94,0,0,0-1.42,3.13c0,2.61-1.49,5.62,1.38,7.67a2.81,2.81,0,0,0,3.28,0c2.77-1.9,1.95-4.76,1-6.92-2.55-6,2.75-6,5.61-7.1,3.24-1.29,5.8,0,6.16,4.1s2.46,6.85,6.84,7.46a4.18,4.18,0,0,1,3.42,3,39.17,39.17,0,0,0,11.61,16,443.16,443.16,0,0,1,33.66,32.36c5.62,6,11.12,12.37,16,18.59,4,5.09,7.29,9,13.16,11.92,6.26,3.16,6.24,11,7.57,17,1.38,6.24,4,11.42,8.61,15.28,7.21,6,6,14,6,21.68,0,3.14-3,2.61-5.37,2.81-7.18.63-9.06,4.36-5.68,10.87a20.35,20.35,0,0,1,2.05,4.33c.61,2.48,3.68,5.1.67,7.54s-5.8.39-8.25-1.28c-5.44-3.71-10.07-8.83-17.27-9.34a2.63,2.63,0,0,1-1.77-1c-4.89-7.25-12.62-11.88-18-18.3-11.74-14-24.2-26.17-41.92-32.22-4.49-1.53-11.4-3-5.75-10.84,1.5-2.09-.65-5-2.42-5.94-9.52-5-10.64-14.92-14.3-23.35Q377.58,385.13,373.69,373.41Z"/></g></g><g class="cls-51"><g id="Brazil-3" data-name="Brazil"><path class="cls-3" d="M580.5,584.32l-49-.67c-10.33-7-22.13-11-33.36-16.08a53.64,53.64,0,0,1-18.25-13.08c-2.31-6.18-.08-11.54,3.18-16.63,2.57-4,5.5-7.78,8.37-11.58,6.72-8.87,14.31-17.11,14.17-29.46,0-3.59,1.78-7.77,6.56-8.76C528.38,501.69,547,512,563.05,526c11.12,9.7,22.48,20.22,38.21,23.67,6,1.32,12.22,5.35,11.9,13.39-.24,6.12-9.09,14-17.38,15.13C590.06,579,584.65,579.93,580.5,584.32Z"/><path class="cls-7" d="M-89.44-239.67c4,1.92,7.2,5.09,8,9.27C-78.65-215.31-68.72-204-61.7-191c15.13,27.82,35.85,51.13,57.24,74.1,14.67,15.77,27.13,33.85,43.09,48.1C52.91-56.09,64-39.74,81.93-30.78c18.7,9.33,38.23,10,58.18,8.46a50,50,0,0,1,11.53.31c5.64.84,11.84,2.43,16.76-2.57,1.27-1.48,2.92-1.56,4.68-1.3,17.56,4.29,26.64,19,37.73,31,23.05,25,44.69,51.16,69.31,74.74,19.26,18.46,37,38.47,55.44,57.8,1.57,1.64,2.95,3.42,3.23,5.8a4,4,0,0,1-1.41,3.35c-11.74-12.8-24.33-24.78-36.33-37.33-13.19-13.8-26.6-27.56-40.71-40.5C252.2,61.53,246.49,52.16,239,44.21,220.91,25,203.12,5.55,185-13.6c-3.65-3.86-9-4.42-14.18-4.27-20,.58-40-1-60,.35-16.53,1.15-31.54-4.33-44.38-16.36C42.51-56.25,20.38-80.1-1-104.78c-22.08-25.45-45.66-49.64-63.2-78.66-7.4-12.23-14.12-24.85-20.6-37.61C-87.92-227.14-91-232.68-89.44-239.67Z"/><path class="cls-8" d="M301.64-78.54c12.47,4.13,20.46,14.48,30.47,22C359.57-36,383.24-11,410.18,10.24c6.52,5.14,13.44,10.25,18.51,17.15C437.56,39.45,438.27,54,440,67.88c1.17,9.43,1.29,18.92,4.12,28.17,1.37,4.5,2.72,9.51,2.11,14-2.35,17.65,6.44,34,5.38,51.4-.72,11.89,6,22.51,5.9,34.46,0,5.31,4.85,9.34,8.51,13.1,28.81,29.64,54.74,62,84.82,90.42,4.38,4.13,7.4,9.27,10.23,14.39,4.16,7.54-2.29,13.48-5,19.33-5,10.93-13.53,19.86-20.4,29.71-7.24,10.39-12.77,22-20.57,32.22-10.14,13.29-19.8,26.94-29.3,40.7-7.49,10.85-3.56,23.93,8.79,31.23,3.34,2,7.51,2.77,9.58,6.59a5.14,5.14,0,0,1-4.21,2.49c-11.28-3.34-19-10.81-23.54-21.34-3.84-8.89.33-16.92,5.2-23.71,12.47-17.37,24.29-35.18,36.89-52.47,11.69-16,24-32,32.63-50.09,2.78-5.83,2.39-11.19-.67-16.89-4.81-8.95-12.83-14.92-19.62-22-16.78-17.47-32.44-36-49.33-53.33-7.9-6-14.13-13.59-20.82-20.75-9.53-10.19-12.73-23.4-13.61-36.29-.93-13.45-1.92-26.73-4.95-39.86.95-15.86-1.73-31.33-5-46.74a13.11,13.11,0,0,1-.72-2.61c-1-6.54.51-13.17-.81-19.69a23,23,0,0,1-.62-2.48c-2.06-7.56-3.21-15.31-4.66-23-1.7-2.77-2.09-6-3.15-9-2.88-7.41-9.11-11.85-14.93-16.65a17.16,17.16,0,0,1-1.88-1.42C380-7.08,352.73-35.62,321-59c-5.85-4.31-10.3-10.34-16.8-14C302.3-74,300.54-75.82,301.64-78.54Z"/><path class="cls-9" d="M580.5,584.32c.28-7.89,6.72-7.56,11.67-7.75a19.39,19.39,0,0,0,11.63-4.12c3.7-2.87,8.47-5.5,7.52-11.26s-6.21-8.67-10.58-9.66c-19.94-4.53-33.24-19-48-31-9.87-8-19.38-16.39-31.23-21-5.49-2.14-4.59-8.23-8.92-10.5-3.62-2.26-8.84-3.08-8.3-9.12a5.84,5.84,0,0,1,3.6-1.06c12,6.32,22.13,15.18,32.83,23.26C554.16,512.25,567.21,523,580,534c7.81,6.71,17.87,9.4,27.89,11.48,3,.63,6.12,1.07,9.1,2,4.62,1.37,9.64,2.43,10.61,8.27a16,16,0,0,1-5.84,15.82c-7.27,6-15.61,10-24.45,13.07Z"/><path class="cls-11" d="M337.38,146.83l.15-3.5c9.53,1.81,13,10,15.05,17.27,5.63,19.62,10,39.63,15.16,59.38,4.4,16.69,8.33,33.51,13.5,50,3.33,10.62,7.26,21.17,9.1,32.28,1,6.31,5.18,11.77,5.85,18.29.8,9.08,5.66,16.94,7.52,25.78,4.71,22.41,10.68,44.56,14.71,67.12,1.05,5.86.75,11.77.29,17.64-.2,2.51.16,6.05-4.23,5.76-1.64-6.68,1-13.58-1.05-20.24-2.44-10.76-4.31-21.7-7.53-32.23-1.9-6.22-2.29-12.78-4.2-18.62-2.85-8.68-4-17.81-7.36-26.18-2.27-5.62-3.92-11-3.46-17.06a13.45,13.45,0,0,0-1.78-8.11c-5.72-9.45-5.6-20.67-9.41-30.74-3.6-9.52-6.49-19.34-9.25-29.14-2.84-10.11-5-20.37-8.46-30.34-4.75-13.59-4.34-28.53-10.55-41.81-.24-.5-.63-1.08-.56-1.56C353,166.88,343.35,157.58,337.38,146.83Z"/><path class="cls-12" d="M301.64-78.54c9.09,7.78,18.09,15.65,27.29,23.3,17.85,14.85,36.52,28.72,52.7,45.57C389-2,397.73,4.2,405.91,11c2.39,2,4.86,3.81,6.28,6.67-6,2.36-8.65-3.39-12.94-5.17C380.85.23,366.62-16.76,349.82-30.75,319.6-55.91,289.3-81,256.73-103.24c-6.27-4.27-11.07-10.47-18.09-13.77-7.15-6.78-16.19-4.23-24.57-5,0-1.15,0-2.3,0-3.44,9.16-2.42,18.08-2.83,26.58,2.48,1.53,1,3.71.88,5.58,1.28l.12.09c3.89,2.8,7.9,5.44,11.57,8.54Q279.75-95.77,301.64-78.54Z"/><path class="cls-13" d="M413.43,416.64c3.28,6.51.59,13.42,1.37,20.09-.72,11-7.8,19-13.23,27.71-1.18,1.91-2.76,3.55-4,5.43-8,12.15-7.45,13.52,1.82,24.76,17.91,21.71,41,37.41,62.56,54.92,2.25,1.82,5,2.45,7.8,3.09a17.14,17.14,0,0,1,2.3.85c1.77.82,3.8,1.48,5.07,2.85,8.95,9.72,21.49,13.54,32.45,20,2.59,1.52,6.69,2.4,5.07,7.09-13.41,1.82-22.63-7.12-32.37-13.57C476.8,566.2,472,561.5,466,558.35c-22.73-11.74-40.89-29.41-59.32-46.65-4.73-4.43-9.06-9.28-13.62-13.89-12-12.14-10.45-15-1.16-29.09,7.38-11.23,14.57-22.54,20.26-34.59C414.44,429.19,413.1,422.53,413.43,416.64Z"/><path class="cls-14" d="M597.33,584.59c4.87-6.67,14-6.5,19.54-12.22,1.93-2,4.8-3.17,6.45-5.33,5.89-7.71,3.15-15.18-6.45-17.36-12.61-2.86-25.7-4.58-36.24-12.77C564.22,524.18,548.29,510.84,532,498c-7.85-6.17-16.16-11.76-24.27-17.62-2.29-1.85-6.41-1.32-7-5.36l3.56-1.4c4.22.44,6.89,3.43,10,5.79,22.64,16.92,45.57,33.4,66.54,52.53,8,7.3,19.7,8.58,30.4,10.82a89.33,89.33,0,0,1,17.41,5.7c7.27,3.18,6,10,4.14,15.34C628.88,574.78,609.72,585.45,597.33,584.59Z"/><path class="cls-16" d="M514.64,583.39c-2.18-5.65-8.18-7.52-12.48-8.81-12.62-3.79-21.08-13.1-31.2-20.21,3.39-2.82,6.71-1.66,10,.15,13.85,10.26,29.64,16.64,45.54,22.83a7.48,7.48,0,0,1,5,6.3Z"/><path class="cls-19" d="M481,554.52c-3.37,1.75-6.67-1-10-.16l-.32-.12c-10.41-1.69-16.16-10.58-24.17-15.93-13.28-8.86-24.6-20.28-36.82-30.54-6.23-5.24-10.36-12.47-16-18.38-3.5-3.67-2-8.07.41-12.38,7-12.41,16.44-23.42,21.42-37.08a98.8,98.8,0,0,0,3.84-13.66c.34-15.29,10.84-24.84,20.39-34.59,4.76-4.86,10.22-9,12.59-15.56,6.36-17.54,17.28-32.19,29.59-45.78,7.77-8.58,14.92-17.62,22.09-26.65,6.94-8.75,15.33-13,26.59-10.54,26.13,13.61,24.93,31.19,10.94,52.11-11.63,17.4-23.15,34.86-36.52,51.22-9.36,11.46-16.94,25-24.89,37.82-9.73,15.71-3.4,21.54,5.82,33.11a25.83,25.83,0,0,0,13.26,8.65,6.25,6.25,0,0,1,4.75,4.35c3,2.77,6.69,4.77,8.61,8.57-5,3.73-6,9.09-5.71,14.78.2,4.42-.7,8.71-3.81,11.58-7.14,6.57-11.17,15.41-17.47,22.59C481.54,542.52,480.32,548.38,481,554.52Z"/><path class="cls-23" d="M173.79-24.57c8.08.84,14.43,5.93,21.7,8.76,11.41,6,16.94,17.69,25.67,26.27,20.44,20.09,37.26,43.39,58.16,63.19,23.42,22.19,46.05,45.35,66.39,70.54,1.77,2.19,3.91,4,5.77,6.16,5.62,9.6,7.53,20.58,10.14,31,6.61,26.35,13.44,52.66,19.62,79.13,3.33,14.29,9,28.21,13.07,42.46,1,3.52,2.43,6.9,2.43,10.64-.17,2.43-.28,4.89-2.51,6.53-7.14-22.37-13.5-44.95-19.88-67.55-8.24-29.19-15-58.71-22.55-88.06-2.23-8.68-7.39-15.54-14.27-21.18-13.3-14.47-27.13-28.45-40.5-42.84-18.88-20.3-39.59-38.76-57.3-60.3-11-13.32-23.45-25.62-35-38.66C195.79-8.62,187.23-19.56,173.79-24.57Z"/><path class="cls-24" d="M503.94,480.41c-6.47-4.21-14.7-5.31-19.65-12.32C473.45,452.77,467.59,449,481,429.9c12.8-18.22,24-37.41,38.45-54.73,11.15-13.38,21.07-28.8,27.86-45.5,5.29-13-1.08-26.15-17.06-34.84-2.2-1.47-4.74-1.59-7.24-1.86-2.82-.31-5-1.85-5.58-4.46-3.18-14.95-15.58-23.46-24.14-34.63-3.84-5-10.33-8.1-11.17-15.31a5,5,0,0,1,1.65-3.41c16.84,18.45,33.41,37.14,50.64,55.2,6.58,6.9,13.87,13,18.83,21.36,3.42,5.78,3.4,11.52.48,16.76-6.8,12.2-14.68,23.75-22.5,35.36-13.76,20.41-29.14,39.67-42.37,60.44-1.8,2.83-4.19,5.3-5.9,8.18-9.25,15.48-7.41,25.16,8.33,37,2.89,2.18,6.26,3.73,9.4,5.57,2.44,1.66,5.5,2.51,7,5.36Z"/><path class="cls-25" d="M483.75,235.16l-.1,3.37c-16-5.07-26.44-16.38-33.4-30.91-3.88-8.11-5.34-17.07-5.53-26.21-.22-10.13-3.73-19.81-4.61-29.9-2.56-29.33-7.2-58.4-11.76-87.47-.91-5.79.21-11.68-1.71-17.47-3.06-9.25-9-16-16.69-21.6-3.57-4.48-11.66-6-9.54-14.24,4.09,2,6.94,6.16,11.78,6.93a99.73,99.73,0,0,1,16.65,17.15l3.26,8.58c1.24,8.51.69,17.35,4.81,25.32h0c2.27,7.22-1,14.77,1.37,22v0a284.59,284.59,0,0,1,6.09,49.09c3.38,12.46,4.22,25.14,5,38,.85,14.11,4.32,28,15.38,38.6C471.2,222.56,476.47,229.88,483.75,235.16Z"/><path class="cls-12" d="M444.39,139.81c-3.91-6.69-1.23-14.14-2.12-21.19-1.18-9.32-5.52-18.24-4-27.9C443.71,106.67,445.11,123.11,444.39,139.81Z"/><path class="cls-12" d="M428.84,34.81a105.12,105.12,0,0,1-16.65-17.15A33.89,33.89,0,0,1,428.84,34.81Z"/><path class="cls-12" d="M436.91,68.71c-6.51-7.52-4.51-16.64-4.81-25.32Q434.5,56.05,436.91,68.71Z"/><path class="cls-12" d="M438.29,90.7c-3.43-7.14-.64-14.67-1.37-22C440.38,75.86,437.59,83.39,438.29,90.7Z"/><path class="cls-26" d="M394.23,320.12q.15-3.48.28-7a2.49,2.49,0,0,1,2.77,1.44c4.83,15.36,17.34,28.07,16.81,45.16-.5,15.62,4.31,30.33,6.47,45.48,1,7.22-2.73,14.54,1.06,21.49-4.17,19.3-15.19,35.22-25.73,51.31-3.35,5.11-2.91,8.75.84,13.38,16.06,19.82,36.41,34.8,56.34,50.27,5.68,4.41,10.64,9.88,17.57,12.57-8.37,1.34-12.43-5.68-18-9.49-15.56-10.58-29.36-23.38-43.37-35.86-6.45-5.74-12-12.65-17.37-19.44-3.69-4.63-3.05-9.82.3-14.73,8.32-12.2,16.81-24.3,22.63-38,4.11-13,1.1-25.79-1.36-38.57-2.36-12.21-7.1-23.76-8.35-36.4-1-10-5-19.83-8.35-29.5C395.35,328.23,393.94,324.41,394.23,320.12Z"/><path class="cls-27" d="M400.41,10.73c.83,6.06,6.48,8.13,10,12-17.84,4.84-21,21.64-27.6,35.06-3.53,7.22-7.11,15.23-7,23.9-1.93,9.86-4.4,19.55-9.21,28.49-10.46,11.4-14,25.79-17.41,40.21-11.78-13-23.05-26.57-35.48-39-13.86-13.79-26.54-28.75-41.62-41.34C261,60.84,253.62,48.2,243.64,38c-16.89-17.23-32-36-48.14-53.83-5.69-5.83-3-9.89,0-17,6.45-15.27,15.84-29.81,17.72-46.75a32.62,32.62,0,0,1,4.93-14.81c2.67-4.16,3.92-9.26,5.61-14,4.19-11.8,4.15-11.81,15.6-10,10.45,4.18,17.21,13.32,26.23,19.47,14.31,9.76,28.23,20.09,42.1,30.48,6,4.52,11.17,10.22,17.28,14.61C352-34.48,373.21-8.41,400.41,10.73Z"/><path class="cls-28" d="M349.18,150.36c-1-15.91,4.62-29.22,15.92-40.31,2.5,4.22.6,8.34-.79,12.15a24.37,24.37,0,0,0-.41,16.5c1.83,5.68,1.81,11.16-3.57,15.29-2.76,2.13-2.59,4.75-1.24,7.56a50,50,0,0,0,4.25,7.3c11.81,16.52,15,35.53,16,55.12.2,3.7.49,7.29,2.14,10.67.87,1.77,2.24,3.69,2,5.52-2.33,14.87,8.27,25.75,11.85,38.77.73,2.65,1.73,6.29,5,6s3.2-4.17,3.81-6.81c3.09-13.26,4.41-14.24,17.6-11.25,3.41.78,5.39-.47,7.2-2.9,4.33-5.83,7.25-11.95,5.71-19.6-1.59-7.93-.41-15.49,2.93-23,4-9,7.86-18.48-.29-27.63a6.76,6.76,0,0,1-1.43-4.78c1.45-31.42-4.27-61.94-11.44-92.29-1-4.1-2.56-8.42-1.7-12.5,2.44-11.55-4.07-22.53-1.68-34,.46-2.21-1.08-3.71-3.17-4.39a4.93,4.93,0,0,0-5.92,2c-2.81,3.8-5.87,9.61-11.1,4.8-5.57-5.13-.28-9.5,3.52-13.3.4-.4.86-.73,1.26-1.13,1.89-1.85,2.54-3.93.25-5.76S401,32,400.44,34.18c-1.79,6.68-4.56,12.21-10.35,16.69-3,2.34-1.31,7.43-.89,11.35,1.14,10.65-3.82,16.87-15.15,19.1,1.08-14.22,6.46-26.95,13.68-39,1.58-2.65,3.63-5.15,4.58-8,2.95-8.88,9.09-12.35,18.09-11.58,14.2,8.65,18.64,21.39,20.42,37.73,2.35,21.56,5,43.24,9.34,64.64,2.45,11.93,1.13,24.63,4,36.62,3.56,14.63,2.08,30,7.63,44.36,4.39,11.32,13.45,18.28,22.21,25.63,3,2.52,6.4,4.58,9.61,6.85.12,3.52,2.76,5.51,5,7.48C499.5,255.46,506.91,267.89,517,278a5.6,5.6,0,0,1,1.09,1.25c6.11,11.53,6.11,11.54,12.13,15.62-16.16-3.6-23.63,8.25-31.22,18.42-11.73,15.73-26.77,28.85-36.4,46.24-1.61,2.92-3.68,5.54-4.76,8.8-3.5,10.62-9.91,18.65-18.27,26.53-8.71,8.19-18.91,17.46-18,31.9-2.82-1.22-3.15-3.63-3.17-6.29-.1-13.1-1-25.82-5.6-38.56-3-8.33.08-18.24-1.84-27.44-1.5-7.15-3.1-13.62-7.68-19.91-4.4-6.06-6-14.17-8.82-21.38-3.68-10.68-5.06-22-9.64-32.5-3.16-7.23-4.56-15.24-6.67-22.92-5.8-21.13-10-42.65-16.21-63.71-2.88-9.69-5.68-19.65-7.85-29.65C353.07,159.47,352.63,154.4,349.18,150.36Z"/><path class="cls-31" d="M374.05,81.32l8.26-5.79c4.28-3,5.95-6.62,5-12.27C386.18,56.49,382,48.11,393.73,45c3.3-.87,2.75-5.7,3-9.07.33-4,2.49-6.91,6.53-7.84,3.41-.79,5.12,1.76,6.65,4.16,1.9,3,2.38,5.75-1.74,7.47-1.29.53-2.87,1.06-3.62,2.09-1.88,2.57-5.47,4.51-4.08,8.58a3.4,3.4,0,0,0,3.22,2.36c4.09.09,5.31-3.32,5.94-6.11,1.75-7.79,6.95-4,10.59-3.06,4.13,1,5.76,4.1,3.2,8.43s-2.43,8.54,1.47,12.24c1.56,1.48,1.8,3.31,1.24,5.43a47.88,47.88,0,0,0,.14,24.1,538.53,538.53,0,0,1,10.37,56c1.34,9.9,2.24,20.14,2.67,29.78.35,7.89.85,14.06,4.57,21.14,4,7.58-1.62,15.31-4.58,22.24-3.06,7.16-4.19,14.12-2.32,21.25,2.89,11-3.94,18.12-9.48,25.7-2.27,3.1-4.87.43-7.32-1-7.56-4.48-12.07-2.12-13.34,6.73a25.28,25.28,0,0,1-1,5.75c-1.16,2.88,0,7.66-4.7,7.95-4.48.27-6-3.74-7.26-7.13-2.75-7.54-3.7-15.9-10.48-21.51a3.23,3.23,0,0,1-1-2.27c.31-10.66-4.06-20.73-4.85-30.91-1.71-22.19-5.39-43.11-18.65-61.68-3.36-4.71-9.18-11,2-14.83,3-1,2.91-5.42,1.82-7.59-5.89-11.71.05-22.33,2.42-33.29Q369.57,95.68,374.05,81.32Z"/></g><g id="Brazil-4" data-name="Brazil"><path class="cls-2" d="M701,55.91l18.24,1.92c2,2.38,5,4.48,2.38,8.23-3.35,2.76-4.07,6.4-4,10.56.5,22.13-4.27,43.44-10.27,64.54-1.8,6.37-4.33,12.23-11,15-19.38-7.2-30.31,9-43.86,16.8-12.79,7.34-22.9,19-37.18,24.49-4.74,1.81-7.79,6.42-11.48,9.86-11.38,10.59-25.4,17.59-37,27.92-7,6.26-10.41,13-9.51,22.89,2.49,27.4,2.77,54.94,4,82.42.1,2.49.06,5.13-1.8,7.22a5.14,5.14,0,0,1-3.72.76c-9-6-20.5-6.83-28.88-14.64-3.73-3.48-10.16-2.51-15.3-3.92-18.59-5.09-30.53-18.08-39.84-33.83-2.68-4.52-4.64-5.65-8.81-2.85-4.36-1.11-4.69-4.62-4.19-8,2.57-17.85,2.13-36.14,5.65-53.69,3.47-17.32,12.58-32.87,27.05-43.7,14.2-10.63,26.43-23.53,41-33.64,28.89-20,55.83-42.79,85.64-61.54,16.71-10.51,35.23-17.5,52.6-26.78C680,61.06,691.6,61.44,701,55.91Z"/><path class="cls-4" d="M559.09,347.47c1.13-13.47-1.67-26.82-1.26-40.25.57-18.41-2.18-36.56-3.6-54.82-.47-6,3.37-11,6.75-15.06a60.13,60.13,0,0,1,16.63-13.83c12.44-6.89,22.91-16,32.87-25.89a9.74,9.74,0,0,1,4.19-2.7c10.49-2.52,18.32-9.62,26.13-16.18,11.91-10,25.8-16.85,38.29-25.88,6-4.35,11.13-.38,16.11,2.83,6.17,8,8.68,18,14.45,26.31,16.4,23.66,28.83,49.7,43.59,74.34A27.84,27.84,0,0,0,763.75,267c10.11,5.57,20.49,10.5,31.56,13.8,16.86,5,33.3,11.79,51.37,11.77a112,112,0,0,0,14.09-1.38c14.32-1.82,28.49-5.93,43.11-4.44,9.46,1,11.91,3.07,13.39,12.23,2.85,17.71,8.17,35,6.52,53.46-.95,10.48-4.74,17.71-14.47,21.65-1,.42.25-.14-.79.3-22.68,9.62-22.47,13.28-10.3,36.92a39.75,39.75,0,0,1,7.27,17.8c1.33,8.21,5.73,15.18,8,23,2,6.79,7.63,8.17,15.17,5.24,6.72-2.62,12.74-7.34,20.46-7.12,15.46,1.37,20.37,8.31,16.09,23.08a22.31,22.31,0,0,0-.89,10c2,12.16-.25,24.18-1.52,36.22-.17,1.7.35,4.3-2.81,4.12-2.61-7,1.53-14,.27-20.76-2.23-11.93-.41-23.59.57-35.37.93-11.23-4.66-14.83-15.12-10-6.63,3-13,6.6-19.82,9.24-10,3.9-16.68.15-20.1-10.05-4.19-12.48-6.7-25.61-12.9-37.3-4-7.47-6.23-15.52-9.37-23.24-2.39-5.9-2.42-12.93,3.82-17.6,4.26-3.19,8.45-6.94,13.3-8.82,18.69-7.24,18.59-15.27,15.88-34.53-1.55-11.07-4.15-22-6-33-1.44-8.56-7.57-11.46-16.13-9.61-14.58,3.16-29.15,6.56-44.34,6.19-24.21-.59-46.61-8.77-69.63-14.83-22.8-6-33.65-23.28-44-41.7-9.93-17.62-19-35.66-30.89-52.19-5.48-7.63-8.71-16.87-13.06-25.32S684,154.86,676,160.12c-10.1,6.61-19.94,13.63-29.73,20.7-24.79,17.89-49.35,36.11-74.28,53.78-9.41,6.66-13.42,15.89-11.62,26.25,2.45,14.07,0,28.15,1.86,42,2.32,17,.74,34.12,1.64,51.15.44,8.41-2.89,19-11.5,25.14-.73-.91-1.51-2.16-1-3.06C556.6,367.25,557,357.13,559.09,347.47Z"/><path class="cls-6" d="M722,64.68c-.79-2.33-3-4.09-2.78-6.85,4.59-.32,7.24,1.88,10.37,5.42,10.57,11.91,13.69,26.44,17.24,41.25,6.77,28.2,13.61,56.61,33.24,79.38,10.85,12.58,23.17,23.07,38.65,30.3,18.4,8.59,37.3,13.87,57.18,17.72,23,4.45,46.74,4.68,69.23,12.08,8.62,2.84,11.45,10.77,14.78,17.45,4.69,9.39,7.73,19.57,10.56,29.9s-.1,21,3.16,30.34c5.65,16.26.27,31.73-.57,47.5-.54,10.07-2.47,19.92-8.6,28.56-3.58,5-.35,8.49,4.55,8.88,13,1.05,24.45,7.61,37.2,9.79,12,2.06,19.16,12.34,18.43,25.67-.71,12.92-2.42,25.78-2.24,38.76-5.41-1.19-4.66-5.62-4.55-9.35.17-5.88,1.09-11.71,1.71-17.57.49-4.58.18-8.94-2.66-12.8-3.62-13.65-14.44-18.1-26.53-21.15-8.95-2.27-18.35-3.12-26.57-7.74-5.22-2.94-10.35-6.21-8.94-13.65a87.31,87.31,0,0,0,14.73-56.35c-1.07-14.24-1.8-28.86-4.76-43-2.35-11.32-4.88-22.54-10-33.11s-12-17.48-24.86-18.15c-15.41-.81-31-1.83-45.89-6.47-20.88-6.51-43.13-7.8-63.27-17.09A108.12,108.12,0,0,1,806.23,216c-21.64-14.44-39.39-32.21-50.05-56.77-8.93-20.58-12.57-42.62-19.41-63.75C733.69,86,731,76.66,724.07,69.2A6.56,6.56,0,0,1,722,64.68Z"/><path class="cls-7" d="M701,55.91c-2.29,3.84-5.74,6.7-10,7.09-15.29,1.39-27.51,10.23-41,16-29.1,12.48-54.23,31-79.09,50.12C553.87,142.29,534.71,153,519,167.58c-14,13-31.34,22.54-41.92,39.58-11,17.75-13.45,37.15-13.82,57.15a50.09,50.09,0,0,1-1.38,11.45c-1.35,5.54-3.52,11.56,1,16.93,1.36,1.4,1.29,3.05.87,4.77-5.9,17.09-21.4,24.77-34.39,34.7-27,20.63-55.08,39.75-80.85,62.07-20.16,17.47-41.74,33.3-62.69,49.85-1.78,1.4-3.68,2.62-6.08,2.67a3.93,3.93,0,0,1-3.2-1.72c13.83-10.5,26.93-21.92,40.54-32.7,15-11.86,29.91-23.93,44.1-36.78,8.19-7.42,18-12.23,26.66-18.95,20.79-16.23,41.82-32.14,62.57-48.41,4.18-3.28,5.24-8.54,5.57-13.73,1.28-20,4.74-39.69,5.22-59.82.39-16.57,7.24-31,20.41-42.68,24.49-21.69,50.28-41.51,76.85-60.54,27.39-19.63,53.66-40.86,84.18-55.64,12.87-6.23,26.05-11.75,39.36-17C688.39,56.26,694.19,53.71,701,55.91Z"/><path class="cls-8" d="M504.29,430.36c-5.26,12-16.32,19-24.72,28.3-23,25.43-50.1,46.68-73.74,71.53-5.73,6-11.46,12.43-18.8,16.84-12.83,7.71-27.36,7.07-41.36,7.5-9.5.3-19-.46-28.43,1.49-4.61,1-9.73,1.83-14.17.81-17.35-4-34.44,3.26-51.67.59-11.78-1.83-23,3.86-34.86,2.67-5.29-.53-9.76,4-13.84,7.26-32.18,25.94-66.77,48.76-97.89,76.07-4.53,4-9.92,6.51-15.28,8.85-7.9,3.44-13.22-3.53-18.79-6.73-10.42-6-18.52-15.31-27.69-23.06C33.38,614.3,22.33,607.72,12.87,599c-12.28-11.33-25-22.22-37.79-33-10.12-8.47-23.51-5.77-31.92,5.85-2.27,3.14-3.46,7.23-7.45,8.93a5.14,5.14,0,0,1-2.09-4.42C-62,565.49-53.86,558.52-42.95,555c9.21-3,16.82,1.89,23.13,7.38,16.13,14,32.77,27.45,48.82,41.6,14.88,13.12,29.59,26.85,46.85,37.13,5.55,3.31,10.92,3.41,16.88.9,9.35-4,16-11.39,23.72-17.5,19-15.08,38.81-29,57.67-44.16,6.67-7.32,14.85-12.81,22.6-18.81,11-8.54,24.48-10.5,37.4-10.19,13.47.33,26.79.57,40.14-1.22,15.7,2.41,31.36,1.18,47-.64a12.89,12.89,0,0,1,2.67-.47c6.6-.38,13.07,1.73,19.68,1a21.62,21.62,0,0,1,2.52-.39c7.73-1.35,15.55-1.77,23.33-2.5,2.92-1.45,6.16-1.54,9.24-2.31,7.64-2.18,12.63-8,18-13.32a16.31,16.31,0,0,1,1.59-1.74c27.62-28,58.56-52.5,84.78-82,4.82-5.43,11.24-9.3,15.48-15.43C499.72,430.59,501.68,429,504.29,430.36Z"/><path class="cls-10" d="M1018.48,439.52c4.91,4.65,3.42,10.52,3.37,16.29-.06,8.33-4.93,16.83.58,25l0,.05c1.36,10.21-.13,20.42,0,30.62,1.13,8.15.46,16.3-.94,24.3-3.88,22.19.48,44.53-1.7,66.83-1.14,11.62-6.84,17.42-16.18,22.09C991.41,630.85,980,638.5,969,646.62a28.23,28.23,0,0,0-10.22,15c-2.55,1.57-1.83,4.33-2.4,6.61-4.78-1.24-4.63-5-4.11-8.66a44.45,44.45,0,0,1,3.09-10.45c6.41-9.15,14.17-16.85,24.53-21.37,9.33-4.06,17.72-9.81,26.79-14.34,8.15-4.07,10.84-8.8,8.19-17.22-4.34-13.78-2.15-27.43-1.05-41.13,1.26-15.71,2.13-31.24,1.43-47.16-.9-20.71-.07-41.66.46-62.5A7.25,7.25,0,0,1,1018.48,439.52Z"/><path class="cls-11" d="M276.58,445l3.47.48c-2.69,9.32-11.17,12-18.59,13.38-20.06,3.79-40.38,6.25-60.53,9.59-17,2.83-34.14,5.19-51.07,8.8-10.89,2.33-21.75,5.26-33,6.07-6.37.45-12.2,4.07-18.75,4.13-9.11-.06-17.39,4-26.36,5.09C49,495.18,26.4,499.07,3.56,501c-5.93.5-11.79-.34-17.59-1.35-2.48-.43-6-.39-5.34-4.74,6.8-1,13.42,2.25,20.24.83,11-1.43,22-2.28,32.8-4.51,6.37-1.32,12.94-1.1,18.92-2.46,8.91-2,18.1-2.29,26.76-4.89,5.8-1.75,11.34-2.89,17.3-1.87a13.43,13.43,0,0,0,8.24-1c10-4.82,21.11-3.66,31.49-6.52,9.81-2.7,19.85-4.67,29.87-6.51,10.32-1.89,20.74-3.07,31-5.61,14-3.46,28.81-1.67,42.6-6.62a3.39,3.39,0,0,1,1.61-.42C255.17,458.76,265.32,450,276.58,445Z"/><path class="cls-12" d="M504.29,430.36c-8.58,8.33-17.26,16.56-25.73,25-16.44,16.41-32,33.7-50.26,48.25-8.27,6.59-15.3,14.74-22.82,22.26-2.19,2.19-4.25,4.49-7.23,5.63-1.79-6.15,4.17-8.29,6.35-12.4,13.91-17.18,32.15-29.77,47.64-45.21,27.85-27.75,55.7-55.58,80.81-86,4.83-5.85,11.46-10.05,15.39-16.74,7.42-6.48,5.71-15.73,7.22-24l3.43.27c1.56,9.35,1.14,18.27-4.94,26.24-1.09,1.43-1.22,3.61-1.79,5.44l-.1.11c-3.15,3.61-6.15,7.36-9.58,10.72Z"/><path class="cls-13" d="M.87,495.73c-6.78,2.66-13.41-.66-20.13-.5-10.86-1.74-18.15-9.52-26.35-15.74-1.8-1.36-3.28-3.08-5-4.49-11.35-9.1-12.78-8.67-24.82-.49-23.29,15.82-41,37.37-60.49,57.21-2,2.06-2.9,4.78-3.8,7.47a16,16,0,0,1-1.06,2.21c-1,1.69-1.83,3.65-3.31,4.78-10.51,8-15.47,20.15-22.88,30.46-1.75,2.44-3,6.44-7.53,4.39-.57-13.52,9.19-21.87,16.51-31,4.12-5.12,9.24-9.42,12.93-15.19,13.8-21.55,33.08-38,52-54.74,4.84-4.3,10.08-8.16,15.09-12.28,13.2-10.84,15.86-9,29.07,1.55,10.5,8.39,21.1,16.6,32.56,23.38C-11.71,495.57-4.95,494.86.87,495.73Z"/><path class="cls-15" d="M896.56,782.84l-1.83-.13c-2.8-3.68-3.45-7.87-4.2-12.42-2.75-16.56-7.24-32.79-10.83-49.17-2.51-11.49-4.87-23.11-5.74-35.22-1.92-26.79,4.31-52.58,5.82-78.87,2.86-6.92,1.5-14.81,6-21.58,7.66-11.55,16.5-12.14,25.63-.84-2.72,2.84-6.18,1.74-9.4,1.74-10.2,0-12.63,2.13-13.74,12.17-.16,6.85-3.52,13.18-3.8,19.84-1,23.55-5.12,47-4.1,70.56.72,16.58,5.28,32.61,9.63,48.59,3.58,13.19,5.16,26.83,8.55,40.07A5,5,0,0,1,896.56,782.84Z"/><path class="cls-15" d="M960.05,523.61c1.37-14.14,4.34-28.21,1.57-42.53a15.25,15.25,0,0,1,.68-6.66c4.73-16.7,2.4-20.2-15-22.13,3.61-6.57,9-7.94,14.73-3.31,6.39,5.18,8.86,12.14,8.06,20.3-1.17,12.06-1.07,24.33-2.63,36.21-2.61,19.8-.37,39.35-.5,59,0,3.47,1.34,6.6,2.11,9.88,3.24,13.88-6,24.87-20.16,23.91-9.3-.64-18.54-1.63-26.16-7.91,1.89-4,2.46-4.46,6.76-3.32,5.63,1.49,11.08,3.64,16.81,4.83,10.44,2.16,14.16-.69,15.33-11.59.5-4.76-.3-9.36-1.12-14h0c-.8-12-1.72-23.91-1.18-35.91Z"/><path class="cls-4" d="M960.57,566.31c4.09,6.66,2.48,13.77.75,20.47-1.35,5.23-5.19,8.39-11.5,7.45s-12.85-1.16-18.69-4.49c-2.7-1.54-5.67-2.65-8.66-.39-4.74.79-8.31-1.4-11.49-4.54-2.22-1.64-4.24-3.74-6.7-4.84-6.1-2.71-11.47-2.92-16.07,3.7-5,7.18-4.49,16-8.43,23.36,1.14-8.2.39-16.63,5.72-24.12,4.76-6.7,12.21-10.5,19-6.37,9.41,5.73,19.6,7.64,30.12,9.3,4.34.68,8.45,2.79,12.68,4.19,8.08,2.66,12.4,0,13.22-8.65C961,576.4,960.58,571.34,960.57,566.31Z"/><path class="cls-4" d="M959.39,530.4c.59,12,2.89,23.87,1.18,35.91C956.83,554.45,957.78,542.44,959.39,530.4Z"/><path class="cls-4" d="M542.68,390c2-4.67,4.93-8.47,9.58-10.72C550.94,384.52,547.41,387.79,542.68,390Z"/><path class="cls-17" d="M722,64.68c9.77,7.18,13.81,17.37,16.56,28.85,3.29,13.76,9.1,27,11.71,40.81,1.65,8.74,5.42,16.28,8.31,24.32,5.28,14.64,14.69,27,25.66,37.3,7.9,7.4,16.55,14.63,26.43,20,18.91,10.26,39.56,13.86,60,19.34,22.74,6.1,45.64,8.13,68.56,11.43a13.62,13.62,0,0,1,9.16,5.17c8.91,10.59,13.69,23,16.54,36.33,2.39,11.12,6.79,22.07,3.29,33.82a7.16,7.16,0,0,0,.31,4.13c8.55,23.75,1.86,45.71-7.94,67.27-.89,2-2.82,3.47-4.27,5.19-4.07,5-10.33,5.35-15.77,6.69-12.09,3-24.94,2.69-36.29,8.92-2.4,1.32-4.89.45-7-1.34-9.21-5.62-6-16.86-10.88-24.51-1.13-1.78,1.25-4.05,3.08-5.53,5.47-4.43,11.1-8.4,18-10.46,9.76-2.89,12.73-9.82,13.75-20.3,1.85-18.93-4.3-36.56-6.47-54.81-.61-5.11-3.12-7.77-8-8-7.09-.38-14-2.73-21.24,1.74-3.68,2.26-10.22-.73-14.77.78-15.55,5.19-31.25,3.68-46.35.24-14.75-3.37-29.57-7.62-43.29-14.44-5-2.51-10.43-3.81-15.51-6.28C751.4,264.39,746.44,250.22,740,238c-12.15-23.11-26.62-44.75-39.79-67.2-2.85-4.86-2.66-10.29-5-15.07,7-5.12,9.16-12.59,11.26-20.66,5.35-20.53,10-41,8.36-62.47C714.46,67.84,716.29,64.22,722,64.68Z"/><path class="cls-18" d="M555.66,347.2c3.13,9.49,2.12,18-5.88,24.85.31-10-6.67-13.06-14.23-16.88-20.74-10.46-42.79-18-63.24-29-1.24-.67-2.82-1-3.62-2.12-4.5-6.09-10.56-6.31-17.14-4.85-.2-6.21,5.83-9.27,7.39-14.69a24.68,24.68,0,0,1,3.47-6.42l.51-5.36c2.16-1.58,1.4-6.15,5.23-5.76,3.45.36,3.46,4,4.72,6.4,10.12,19.39,24.9,32.84,47.12,36.23,5.5.84,10.35,2,14,6.57a10.68,10.68,0,0,0,8.76,4.43C548.41,340.33,552.26,343.22,555.66,347.2Z"/><path class="cls-19" d="M-142.67,550.2c-1.44-3.52,1.62-6.55,1.08-10l.15-.3c2.66-10.21,12-15.11,18.1-22.59,10.06-12.4,22.49-22.61,33.83-33.83,5.79-5.72,13.38-9.16,19.78-14.21,4-3.14,8.23-1.28,12.3,1.55,11.7,8.16,21.79,18.54,34.92,24.77a97.89,97.89,0,0,0,13.26,5.09c15.19,1.76,23.72,13.1,32.54,23.52,4.4,5.18,8,11,14.33,14,16.87,7.95,30.44,20.18,42.83,33.7,7.83,8.54,16.16,16.49,24.49,24.46,8.07,7.73,11.54,16.48,8,27.46-16,24.76-33.37,21.93-52.9,6.06C43.82,616.7,27.51,603.6,12.46,588.78c-10.55-10.39-23.29-19.19-35.35-28.3C-37.63,549.34-44,555.1-56.4,563.2a25.85,25.85,0,0,0-9.84,12.4A6.22,6.22,0,0,1-71,579.93c-3,2.69-5.36,6.22-9.33,7.78-3.25-5.33-8.49-6.79-14.18-7.06-4.43-.2-8.61-1.5-11.18-4.86-5.88-7.73-14.3-12.56-20.87-19.49C-130.77,551.87-136.5,550.11-142.67,550.2Z"/><path class="cls-20" d="M897.34,412.9c1.93,0,4.4.72,5.72-.2,11.13-7.79,24.32-6.69,36.7-9.17,5.63-1.13,11.07-3.24,16.6-4.9.41,11.86,10.51,13.36,18.3,15.19,12.18,2.87,24.17,5.72,35.56,11.1,6.49,3.06,5.61,9.7,8.26,14.6-.15,10.92-1.32,22-.17,32.74,1.4,13.06-3.53,25.89-.72,38.69,3,13.6-.11,26.83-.88,40.24-.87,15.15-4.58,30.15,1.1,45.55,2.54,6.88-.2,14.75-8.77,18.67-9.11,4.16-17.56,9.83-26.77,13.7-10.56,4.44-17.43,13-25.42,20.35-3.49-5.89-8.9-9.09-15.25-11a32.26,32.26,0,0,1-21.45-19.8c-.42-1-.55-2.57-1.38-3-11-6.05-19.15-17.16-32.89-18.09,1.48-12.12,4.61-14.63,16.84-13.52,2.75.25,5.5.55,8.26.83,4.45-.06,7.89,2.43,11.48,4.54,9,3.08,17.81,6.22,27.51,6.65,10.83.48,20.6-8.89,17.16-19.1-2.55-7.58-1.39-14.88-2.5-22.15-2.45-16-.58-31.77.29-47.72.75-13.76,1.9-27.45,2.94-41.18.57-7.41-3.43-13.14-9.43-16.77-4-2.44-8.1-.39-11.09,3.21-6.61.75-12,4.64-17.76,7.3-9.73,4.47-16.14.25-19.71-9.62C905.42,437.69,903.39,424.59,897.34,412.9Z"/><path class="cls-21" d="M885.88,597.5c2.21-3.25,3.63-4.08,8.12-1.58,8,4.45,13.54,12.89,23.45,14.21,2.1.27,3.36,2.92,4,5.15,3.15,11.65,11,17.88,22.2,21.67,5.68,1.91,14.21,2.72,13.24,12.51.5,6.29-6.33,12.4-.48,18.82-2.57,15.18,2.69,29.42,5.72,43.83.91,4.31.57,8.38.56,12.44,0,11.4,2,23,4,33.65,3.49,18.73,1,37.35,3.66,55.8,1.58,10.92-2.32,21.72-.9,32.79,1,7.42,3.39,14.91,1.24,22.56-3.85,0-4.72-3.49-6.78-5.63-.93-14.86-3.5-29.73-2-44.61,1.31-13.23,1.56-26.47,2.32-39.71.37-6.39-2.13-12.19-3.12-18.29-3.4-21.15-4.83-42.56-9-63.6-1.92-9.68-2.13-19.6-3.52-29.39-1.47-10.43-7-17.39-15.73-21.44-8.44-3.91-13.4-10-16-18.51-1.55-5.18-4.35-8.89-9.31-11.31-12.48-6.06-19.2-2.48-20.8,11.39-.13,1.12-.06-.28-.08.84-.29,16.15-.07,32.1-2.26,48.42-2,15.2.7,32,6.37,47.33,6.78,18.35,9.91,37.6,13.63,56.69a131.5,131.5,0,0,1,2.84,28.5c-1.75,3.91-3.88,7.67-4.56,12a6.22,6.22,0,0,1-1.44,2.14,1.83,1.83,0,0,1-2.35-.19c3.52-14,1.24-27.58-2.26-41.14,1.29-7.2-2.68-13.54-3.56-20.46-1.71-13.39-5.8-26.48-9.07-39.65-4.35-17.48-7.92-35-5.92-53.23,1.33-12,3.22-23.94,2.55-36.18S884.61,609.53,885.88,597.5Z"/><path class="cls-23" d="M462.41,298.05c-1.58,8-7.24,13.82-10.73,20.8-7,10.79-19.19,15.22-28.54,23.12-21.9,18.49-46.65,33.07-68.31,52-24.27,21.26-49.43,41.64-76.39,59.55-2.35,1.56-4.38,3.53-6.68,5.18-10.07,4.71-21.18,5.58-31.81,7.22-26.85,4.14-53.68,8.5-80.61,12.19-14.54,2-28.92,6.31-43.49,9.07-3.59.69-7.09,1.78-10.82,1.45-2.4-.4-4.84-.75-6.27-3.11,22.93-5,46-9.27,69.1-13.53,29.84-5.5,59.85-9.53,89.77-14.29,8.86-1.41,16.17-5.91,22.42-12.24,15.64-11.9,30.85-24.38,46.41-36.36,22-16.9,42.27-35.82,65.36-51.46,14.28-9.67,27.69-21,41.73-31.23C444.49,318.47,456.18,311,462.41,298.05Z"/><path class="cls-24" d="M-71,579.93c4.8-6,6.66-14.14,14.1-18.42,16.26-9.37,20.57-14.86,38.33.25,17,14.43,35,27.37,50.93,43.36a174.82,174.82,0,0,0,42.71,32c12.46,6.48,26.14,1.35,36.28-13.76,1.67-2.05,2-4.57,2.52-7,.57-2.78,2.3-4.83,5-5.14,15.18-1.78,24.8-13.34,36.72-20.82,5.35-3.36,9-9.54,16.28-9.71a5,5,0,0,1,3.24,2c-19.93,15-40.08,29.82-59.66,45.3-7.48,5.91-14.19,12.61-23,16.77-6.08,2.87-11.79,2.32-16.74-1.08-11.51-7.9-22.28-16.81-33.11-25.68-19-15.6-36.8-32.7-56.25-47.8-2.65-2.05-4.9-4.65-7.6-6.63-14.56-10.64-24.37-9.71-37.62,4.87-2.43,2.67-4.29,5.88-6.42,8.84-1.87,2.27-3,5.24-6,6.49C-71.24,582.42-71.13,581.18-71,579.93Z"/><path class="cls-25" d="M175.05,582.58l-3.34-.41c6.52-15.47,18.76-24.81,33.87-30.39,8.44-3.11,17.5-3.74,26.61-3.08,10.11.73,20.07-1.87,30.2-1.81,29.44.17,58.81-1.75,88.18-3.6,5.86-.37,11.61,1.3,17.56-.08,9.49-2.19,16.78-7.49,23.05-14.61,4.79-3.14,7-11.05,15.07-8.18-2.41,3.88-6.78,6.34-8,11.08a99.89,99.89,0,0,1-18.62,15l-8.84,2.44c-8.59.45-17.35-.92-25.66,2.44h0c-7.4,1.59-14.62-2.34-22-.67h0a285.55,285.55,0,0,1-49.44,1.51c-12.72,2.2-25.43,1.87-38.32,1.44-14.13-.46-28.32,1.7-39.86,11.74C188.76,571.26,181,575.82,175.05,582.58Z"/><path class="cls-12" d="M273.64,552.24c7-3.28,14.19.08,21.3-.15,9.39-.31,18.67-3.81,28.14-1.36C306.7,554.63,290.21,554.5,273.64,552.24Z"/><path class="cls-12" d="M379.63,546.5a105,105,0,0,1,18.62-15A34,34,0,0,1,379.63,546.5Z"/><path class="cls-12" d="M345.13,551.38c8.09-5.78,17-2.94,25.66-2.44Z"/><path class="cls-12" d="M323.1,550.72c7.43-2.75,14.67.72,22,.67C337.68,554.18,330.45,550.7,323.1,550.72Z"/><path class="cls-26" d="M98.76,485.57l6.92.92a2.46,2.46,0,0,1-1.69,2.62c-15.74,3.39-29.55,14.67-46.52,12.55-15.5-1.94-30.6,1.48-45.88,2.23-7.29.35-14.22-4.07-21.5-.94-18.83-5.94-33.66-18.39-48.71-30.38-4.77-3.81-8.44-3.71-13.39-.4-21.22,14.15-38,33-55.28,51.43-4.92,5.25-10.82,9.68-14.15,16.33-.56-8.46,6.82-11.85,11.12-17.07,12-14.52,26-27.07,39.73-39.86,6.32-5.89,13.7-10.73,21-15.5,5-3.24,10.06-2.11,14.64,1.67,11.38,9.41,22.64,19,35.72,26.06,12.59,5.3,25.58,3.49,38.54,2.22,12.38-1.21,24.32-4.86,37-4.93,10.06,0,20.2-3.15,30.14-5.58C90.58,485.93,94.52,484.88,98.76,485.57Z"/><path class="cls-27" d="M406.25,520.42c-6.12.26-8.7,5.69-12.85,8.84-3.16-18.22-19.6-22.95-32.35-30.74-6.86-4.18-14.51-8.49-23.14-9.18-9.65-2.84-19.07-6.2-27.52-11.82C300,466.05,286,461.22,272,456.46,286,445.93,300.56,436,314,424.74c15-12.52,31.09-23.75,45-37.61,10.21-10.15,23.48-16.35,34.54-25.34,18.73-15.21,38.8-28.51,58.07-42.94,6.34-5.12,10.13-2.07,16.93,1.58,14.61,7.84,28.21,18.54,44.91,22a32.61,32.61,0,0,1,14.28,6.28c3.9,3.05,8.86,4.77,13.44,6.89,11.36,5.27,11.38,5.23,8.54,16.47-5.14,10-14.86,15.89-21.83,24.3-11,13.35-22.62,26.25-34.25,39.09-5.05,5.59-11.21,10.18-16.14,15.86C455.75,476.39,427.83,495.11,406.25,520.42Z"/><path class="cls-28" d="M272,456.46c15.94.46,28.67,7.31,38.66,19.58-4.43,2.11-8.37-.17-12-1.91a24.27,24.27,0,0,0-16.38-1.93c-5.84,1.29-11.29.76-14.9-5-1.86-3-4.49-3-7.41-1.94a49,49,0,0,0-7.67,3.55c-17.54,10.23-36.76,11.62-56.37,10.85-3.7-.15-7.3-.19-10.82,1.14-1.84.71-3.88,1.89-5.68,1.44-14.59-3.7-26.4,5.85-39.7,8.2-2.7.48-6.43,1.14-6.46,4.41s3.86,3.57,6.42,4.43c12.92,4.3,13.77,5.7,9.57,18.56-1.09,3.33,0,5.42,2.22,7.44,5.4,4.85,11.22,8.33,19,7.51,8-.86,15.46,1,22.66,5,8.62,4.83,17.67,9.54,27.54,2.27a6.78,6.78,0,0,1,4.9-1c31.14,4.36,62.07,1.49,92.95-2.84,4.18-.58,8.62-1.76,12.6-.53,11.28,3.5,22.81-2,34,1.48,2.15.66,3.79-.73,4.65-2.75a4.91,4.91,0,0,0-1.49-6.08c-3.52-3.15-9-6.73-3.74-11.5,5.62-5.07,9.48.61,12.91,4.74.36.43.65.92,1,1.36,1.66,2.06,3.68,2.89,5.71.78s.93-4.75-1.24-5.55c-6.48-2.41-11.73-5.68-15.65-11.86-2.05-3.23-7.29-2-11.23-1.94-10.71.15-16.44-5.37-17.6-16.86,14,2.4,26.23,8.93,37.59,17.25,2.49,1.81,4.79,4.09,7.55,5.3,8.57,3.76,11.45,10.19,9.85,19.09-9.93,13.33-23,16.57-39.46,16.82-21.68.34-43.51.93-65.23,3.31-12.1,1.33-24.63-1.16-36.84.63-14.9,2.18-30.09-.72-44.87,3.48-11.68,3.32-19.46,11.7-27.58,19.74-2.79,2.76-5.15,5.94-7.71,8.93-3.52-.21-5.75,2.24-7.92,4.3-10.41,9.91-23.48,16.13-34.44,25.26a5.72,5.72,0,0,1-1.34,1c-12.06,5-12.06,5-16.68,10.62,5.08-15.75-6-24.29-15.45-32.78C81.3,577.39,69.64,561.2,53.21,550c-2.75-1.88-5.17-4.18-8.32-5.56C34.65,540,27.25,532.85,20.18,523.79,12.83,514.36,4.55,503.34-9.92,503c1.48-2.69,3.91-2.8,6.55-2.57,13.06,1.11,25.81,1.37,38.93-2,8.56-2.2,18.14,1.78,27.48.72,7.26-.83,13.85-1.83,20.54-5.79,6.45-3.83,14.66-4.66,22.1-6.81,11-2.67,22.37-3,33.26-6.59,7.49-2.47,15.59-3.12,23.44-4.5,21.57-3.82,43.39-6,64.94-10.24,9.91-2,20.09-3.83,30.25-5.07C262.53,459.49,267.63,459.52,272,456.46Z"/><path class="cls-29" d="M900.14,827.6l.48-3.44c.07-.5.14-1,.19-1.49,2.42-3.49,2.19-8,4.55-11.53A381.94,381.94,0,0,0,897.18,758c-3.77-17.29-11.77-33.83-13.49-51-1.54-15.47-7.42-32.31,1.9-47.86,1.67-2.78.83-6.12-.16-9.09-3.15-9.47-1.44-19-.49-28.52.5-4.94,3.35-7.69,7.48-9.29,9.48-3.7,23.29,3.64,26.12,13.48,2.39,8.28,5.89,14.79,15.14,18.61,8.79,3.64,15.65,10.44,16.86,22.06,2.78,26.69,5.84,53.46,10.9,79.78,4.93,25.63,5,50.88,2.58,76.69-1.29,13.43,1.23,27.21,2,40.84-1.43,13.35-1.44,13.22-15.46,13.81-3.88.16-7.71,1.11-11.61.28a4.12,4.12,0,0,1,0-4.74c2.69-4.72,1.57-8.5-2.42-11.82-6.23-5.17-8.33-13.12-12.78-19.53-5.23-7.54-10.69-13.63-20.85-12.5A3.24,3.24,0,0,1,900.14,827.6Z"/><path class="cls-31" d="M338.41,487.62c1.66,2.92,3.32,5.85,5,8.76,2.61,4.55,6,6.54,11.74,6.12,6.86-.5,15.58-3.85,17.59,8.09.57,3.37,5.42,3.27,8.76,3.86,4,.7,6.64,3.12,7.19,7.23.47,3.46-2.23,4.93-4.75,6.23-3.16,1.62-6,1.83-7.28-2.42-.42-1.34-.79-3-1.75-3.8-2.38-2.11-4-5.86-8.16-4.86a3.43,3.43,0,0,0-2.66,3c-.46,4.07,2.82,5.59,5.54,6.47,7.6,2.47,3.31,7.3,2.07,10.84-1.41,4-4.62,5.35-8.7,2.4s-8.27-3.21-12.32.33a5.09,5.09,0,0,1-5.52.73,47.91,47.91,0,0,0-24-2.1,537.8,537.8,0,0,1-56.68,5.14c-10,.41-20.26.36-29.9-.11-7.89-.38-14.07-.45-21.48,2.59-7.91,3.25-15.09-3-21.71-6.62-6.85-3.71-13.68-5.48-20.94-4.28-11.26,1.86-17.68-5.6-24.72-11.83-2.87-2.54,0-4.89,1.7-7.19,5.16-7.11,3.23-11.82-5.46-13.91a24.92,24.92,0,0,1-5.63-1.56c-2.76-1.42-7.63-.69-7.48-5.42.14-4.49,4.28-5.65,7.77-6.57,7.77-2,16.18-2.21,22.39-8.44a3.24,3.24,0,0,1,2.36-.81c10.58,1.29,21-2.12,31.22-2,22.25.35,43.43-1.37,63.15-12.85,5-2.91,11.85-8.12,14.57,3.36.73,3.05,5.13,3.41,7.39,2.52,12.22-4.78,22.23,2.12,32.93,5.49Z"/></g></g></g></svg>