<svg id="PipeNota" xmlns="http://www.w3.org/2000/svg" xmlns:xlink="http://www.w3.org/1999/xlink" viewBox="0 0 1200 600"><defs><style>.cls-1{fill:none;}.cls-2{fill:#76bdd5;}.cls-3{fill:#d3de2e;}.cls-4{fill:#b5c3ca;}.cls-5{fill:#c4dac3;}.cls-6{fill:#b6c1ca;}.cls-7{fill:#bad0d5;}.cls-8{fill:#c9dbc4;}.cls-9{fill:#d9e271;}.cls-10{fill:#aecace;}.cls-11{fill:#c5dbc0;}.cls-12{fill:#9ccab3;}.cls-13{fill:#d9e4be;}.cls-14{fill:#e9eaba;}.cls-15{fill:#abcbcb;}.cls-16{fill:#dde474;}.cls-17{fill:#6e99a9;}.cls-18{fill:#63bdb6;}.cls-19{fill:#96cb60;}.cls-20{fill:#77bed1;}.cls-21{fill:#81c0b0;}.cls-22{fill:#92c494;}.cls-23{fill:#91c6a8;}.cls-24{fill:#a0c892;}.cls-25{fill:#8fc498;}.cls-26{fill:#99c798;}.cls-27{fill:#53be92;}.cls-28{fill:#78c477;}.cls-29{fill:#55be93;}.cls-30{fill:#7ac47b;}.cls-31{fill:#69bf6f;}.cls-32{fill:#6abf6a;}.cls-33{fill:#b0bcce;}.cls-34{fill:#7692b0;}.cls-35{fill:#b2bfd2;}.cls-36{fill:#b4c1d3;}.cls-37{fill:#afbdd0;}.cls-38{fill:#7390b0;}.cls-39{fill:#879dba;}.cls-40{fill:#548ac2;}.cls-41{fill:#8da3c0;}.cls-42{fill:#94aac8;}.cls-43{fill:#528ac1;}.cls-44{fill:#b0bdd2;}.cls-45{fill:#528abe;}.cls-46{fill:#508bc5;}.cls-47{fill:#f6f6f7;}.cls-48{fill:#aebdd0;}.cls-49{fill:#f7f7f8;}.cls-50{clip-path:url(#clip-path);}.cls-51{clip-path:url(#clip-path-2);}</style><clipPath id="clip-path"><rect class="cls-1" x="416.18" y="420.31" width="158.19" height="48.49" rx="10.79"/></clipPath><clipPath id="clip-path-2"><path class="cls-1" d="M513.69,296.15a26.82,26.82,0,0,0-7.19-15.93L367.69,132.4a27,27,0,0,0-38.15-1.2h0a27,27,0,0,0-1.2,38.15L446.21,294.87,261.32,427.43a27,27,0,0,0-6.21,37.66h0a27,27,0,0,0,37.66,6.21L502.58,320.87A27,27,0,0,0,513.69,296.15Z"/></clipPath></defs><g id="PipeNota-2" data-name="PipeNota"><g id="DFe"><g id="DFe-2" data-name="DFe"><g id="Brazil"><path class="cls-2" d="M500.76,232.44v-5.31c.62-.66,1.13-1.59,2.29-.95a3.48,3.48,0,0,0,3.17.82c6.36-.83,12.65-.11,18.92,1,1.89.33,3.66.87,4.67,2.71-1.48,5.81,3.54,8.46,6.2,12.12,2.51,3.46,6.19,6,8.2,10,.67,1.31,2.1,2,3.2,3,3.41,2.95,5.86,6.78,9.19,9.8a7.31,7.31,0,0,0,6.89,2c7.82-1.57,15.75-2.5,23.63-3.7a2.78,2.78,0,0,1,2.14.29,1.56,1.56,0,0,1,.33,1.06c-1.45,2.78-1.33,6.11-3.32,8.77-.89,1.18-.41,3-.66,4.53-.89,5.52-4.26,9.36-8.51,12.53-1.23.91-1.49,1.51-.55,2.63-.19,1.29-1.19,1.49-2.19,1.45-5.22-.19-10.48.51-15.64,0a20.71,20.71,0,0,1-13.44-6.45c-3.5-3.76-7.59-6.89-11-10.79-6.66-7.7-14.06-14.76-20.38-22.77-3.55-4.49-6.14-9.61-9.35-14.33C502.9,238.35,502.65,235,500.76,232.44Z"/><path class="cls-3" d="M698.28,468.51H684.09c-3-2-6.46-3.1-9.74-4.53a15.55,15.55,0,0,1-5.34-3.71c-.69-1.78-.07-3.35.85-4.83.73-1.18,1.57-2.28,2.38-3.39,1.91-2.6,4.08-5,4-8.6a2.42,2.42,0,0,1,1.87-2.57c4.74,3.89,10.17,6.8,14.89,10.79,3.26,2.77,6.59,5.77,11.17,6.71,1.74.35,3.56,1.5,3.5,3.83,0,1.77-2.58,4.09-5,4.45C701,466.93,699.47,467.22,698.28,468.51Z"/><path class="cls-4" d="M589.18,264.32c-3.92.09-7.68,1.31-11.56,1.61-5.32.4-10.47,1.76-15.69,2.73-1.72.32-3.28-.63-4.55-1.48a17.76,17.76,0,0,1-4.5-4.36,43.24,43.24,0,0,0-8.47-8.67,2.82,2.82,0,0,1-.91-1.13c-1-2.94-3.34-5-5.47-7-3.25-3.12-5.66-6.91-8.65-10.23-1.44-1.6-.45-3.2.32-4.73,2.12-2,4.92-3.06,7.14-5,6.3-5.46,13.42-9.85,20.07-14.86a8.18,8.18,0,0,0,2.75-3.36,47,47,0,0,0,3-9.52c.92-5,2.37-10,1.8-15.17a31.84,31.84,0,0,0-.83-4c-1-4.07-2.59-8-2.62-12.28,0-2.76.52-3.53,3.11-4.24,5-1.37,9.85-3.44,15.21-3.53,3-.06,5.25.81,6.68,3.49.16.29,0-.06.12.22,3.47,6.24,4.52,6.07,11,1.83A11.52,11.52,0,0,1,602,162c2.33-.63,4.2-2.12,6.37-3,1.9-.79,2.12-2.45,1-4.53-1-1.86-2.51-3.45-2.69-5.68-.08-4.5,1.77-6.13,6.16-5.35a6.55,6.55,0,0,0,2.89-.05c3.45-.94,7-.68,10.49-.69.49,0,1.23-.23,1.27.69-1.93,1-4.08,0-6,.56-3.37,1-6.78.85-10.21.93-3.26.08-4.13,1.81-2.43,4.67,1.08,1.82,2.31,3.55,3.28,5.43,1.44,2.76.56,4.8-2.27,6.1-3.47,1.59-7.18,2.73-10.35,4.87a70.43,70.43,0,0,1-6.41,3.42c-1.63.87-3.65,1.1-5.19-.55a17.68,17.68,0,0,1-3-3.56c-2.67-5.17-5-4.89-10.45-3.51-3.14.79-6.2,1.87-9.32,2.75-2.43.67-3.07,2.53-2.27,4.94,1.36,4.1,2.79,8.2,3.15,12.59.58,7-1.08,13.7-2.12,20.52s-5.66,10.42-10.65,14c-4.77,3.41-9.69,6.59-14.09,10.52-2,1.81-4.59,3-6.89,4.55s-2.56,2.74-.8,4.9c2.22,2.7,4.55,5.32,6.89,7.93,5.92,6.58,11.93,13.1,17.79,19.74a7.43,7.43,0,0,0,7.93,2.53c4-1.14,8.11-.86,12.05-1.83,4.83-1.2,9.81-1.27,14.69-2.06a8.54,8.54,0,0,1,7.6,2.54c-.24.23-.58.5-.85.37C595,264.43,592,264.63,589.18,264.32Z"/><path class="cls-5" d="M667.36,139.42a40.33,40.33,0,0,0,13-3.26,4.5,4.5,0,0,1,2.12-.53c4.07.35,7.71-1.53,11.53-2.31a187.38,187.38,0,0,1,23.23-3.4c3.67-.29,7.33-1.3,11.09-1.33,2.32,0,3.55.75,4,3.23a60.59,60.59,0,0,1,.36,8.28,20.32,20.32,0,0,0,3.43,10.41c1,1.51,1.85,3,2.68,4.61,2.69,5.08,7.35,8.21,11.79,11.48,4.68,3.44,9.53,6.69,14.48,9.74,5.71,3.51,11.62,6.68,17.42,10,3.36,2,6.62,4.09,10,6a24.41,24.41,0,0,1,5.76,3.76,4.42,4.42,0,0,1,.9,5.37c-.9,1.87-3,2-4.78,1.39-3.35-1.15-6.62-2.56-9.91-3.89-2.53-1-4.8-2.7-7.68-2.81-1.23,0-1.83-1.27-2.91-1.71-3.7-1.51-7.37-3.06-10.95-4.83-3.09-1.52-6.43-2.55-9.67-3.78-3.4-1.28-6.67-2.86-10-4.4Q736.24,178.14,729,175c-2.74-1.18-4.45-3.27-5.94-5.75-2.58-4.3-4.22-9-6.42-13.48-1.62-3.29-3.91-4.18-7.46-2.69a11.2,11.2,0,0,1-5,1,.59.59,0,0,1,.08-.75,15.19,15.19,0,0,1,11.46-2.17c1.66.76,2.16,2.4,2.75,3.88a72.77,72.77,0,0,0,4.36,10,13.71,13.71,0,0,1,2.29,4c1,2.32,3,3.42,5.06,4.31,6.3,2.68,12.27,6.11,18.62,8.64,7.11,2.85,14.18,5.82,21.27,8.71,3.85,1.57,7.42,3.8,11.4,5,4.35,1.36,8.13,4.17,12.74,4.89,1.31.2,2.56.33,3.19-1s-.36-2.18-1.19-3a6.54,6.54,0,0,0-2.17-1.59c-4.18-1.41-7.25-4.82-11.23-6.42-5.66-2.27-10.17-6.41-15.72-8.87-4.68-2.08-8.69-5.46-13-8.34a84.12,84.12,0,0,1-12.39-9.55,24.2,24.2,0,0,1-5.58-7.36c-.93-2.17-2.52-3.9-3.42-6.15a26.08,26.08,0,0,1-1.72-10.51c-.21-1.91-.46-3.82-.85-5.71-.25-1.17-.78-1.93-2.1-1.87-.52,0-1,0-1.56,0-2.09-.17-4,.79-6,1-7.14.61-14.34,1.1-21.32,2.6-3.83.83-7.73,1.62-11.55,2.62s-7.6,1.82-11.33,3a19.23,19.23,0,0,1-7,1.16C668.59,140.39,667.52,140.69,667.36,139.42Z"/><path class="cls-6" d="M502.64,226.11c-.65.3-1.08,1-1.89,1-.23-1.32.32-2.15,1.25-3.16,3.1-3.41,7.19-4.76,11.35-6.25,7.92-2.82,15.89-5.67,21.85-12a33.28,33.28,0,0,0,7.53-12.08,69.56,69.56,0,0,0,3.34-17c.57-6.77-.1-13.62,1.34-20.33.55-2.57,2.75-3.63,4.57-4.8a46.81,46.81,0,0,1,8.29-4c2.91-1.15,6.05-.62,8.65-1.85,4.51-2.14,9.13-1.06,13.7-1.31a15.27,15.27,0,0,1,8.5,1.59c1.56.88,2.46-.16,2.42-1.58-.1-3.79,1.43-7.28,1.67-11,.22-3.54,3-5.91,6.82-6.11s7.51-.1,11.24-.55c-.17,1.59-1.47,1.51-2.55,1.6-1.7.13-3.41,0-5.12,0a5,5,0,0,0-3.6,1.16c-3.82,1.46-4.77,4.72-5.28,8.3-.37,2.65-.33,5.38-1.41,7.9-.68,1.59-1.46,3.17-3.65,3a25.41,25.41,0,0,0-16.7-2.5,96.46,96.46,0,0,0-12.25,2.71,40.48,40.48,0,0,0-9.23,3.9c-2.93,1.83-4.67,4-4.47,7.73a53.85,53.85,0,0,1-.44,13.42c-1.23,6.22-.91,12.67-3,18.77a31.35,31.35,0,0,1-2,4.47c-3.49,6.68-8.06,12.34-14.81,16.18-5.66,3.21-11.9,4.94-17.77,7.56-2.64,1.18-5.24,2.25-7.18,4.48A1.86,1.86,0,0,1,502.64,226.11Z"/><path class="cls-7" d="M500.76,232.44a3.91,3.91,0,0,1,2.36,2.66c.87,4.36,3.8,7.61,5.88,11.32,4.5,8,10.6,14.67,16.89,21.24,4.32,4.51,8,9.7,12.69,13.77,4.19,3.64,7.46,8.33,12.7,10.85,5.46,2.63,11.12,2.73,16.9,2.22a14.35,14.35,0,0,1,3.34,0c1.64.22,3.44.66,4.85-.81a1.34,1.34,0,0,1,1.35-.4c5.1,1.17,7.8,5.4,11.06,8.84,6.78,7.14,13.16,14.64,20.39,21.38,5.66,5.27,10.89,11,16.31,16.52a2.94,2.94,0,0,1,.95,1.67,1.15,1.15,0,0,1-.39,1c-3.46-3.66-7.15-7.08-10.68-10.67-3.88-3.94-7.82-7.87-12-11.57-2.4-2.13-4.09-4.82-6.29-7.1-5.32-5.48-10.56-11.05-15.89-16.53a5.2,5.2,0,0,0-4.13-1.18c-5.79.25-11.58-.14-17.4.35a16.61,16.61,0,0,1-12.93-4.56,272.84,272.84,0,0,1-19.82-20.28c-6.51-7.28-13.44-14.2-18.64-22.53-2.2-3.52-4.19-7.15-6.12-10.82C501.26,236.07,500.34,234.47,500.76,232.44Z"/><path class="cls-8" d="M614.76,277.55c3.63,1.14,6,4.11,8.92,6.24,8.05,5.85,15,13,22.9,19a27.14,27.14,0,0,1,5.43,4.9c2.62,3.46,2.89,7.66,3.45,11.68.37,2.73.45,5.48,1.3,8.15a10.12,10.12,0,0,1,.68,4.06c-.62,5.12,2,9.82,1.76,14.87-.16,3.45,1.83,6.5,1.85,10,0,1.54,1.45,2.69,2.52,3.76,8.47,8.47,16.12,17.73,24.95,25.86a16.29,16.29,0,0,1,3,4.13c1.23,2.16-.61,3.91-1.36,5.62-1.4,3.19-3.84,5.81-5.79,8.69-2.06,3-3.61,6.43-5.83,9.42-2.88,3.9-5.63,7.89-8.32,11.92-2.13,3.17-.94,6.95,2.67,9,1,.56,2.19.78,2.8,1.87a1.49,1.49,0,0,1-1.21.74,10.41,10.41,0,0,1-6.9-6.09c-1.15-2.56,0-4.9,1.4-6.89,3.55-5.08,6.9-10.29,10.48-15.36,3.32-4.69,6.82-9.35,9.25-14.64a5,5,0,0,0-.26-4.9c-1.43-2.57-3.78-4.27-5.78-6.29-4.93-5-9.54-10.29-14.51-15.26a49,49,0,0,1-6.12-5.93c-2.8-2.91-3.78-6.73-4.09-10.46a72.06,72.06,0,0,0-1.6-11.53,50.93,50.93,0,0,0-1.63-13.52,3.47,3.47,0,0,1-.22-.76c-.31-1.89.09-3.82-.32-5.7a6.38,6.38,0,0,1-.19-.72c-.62-2.18-1-4.42-1.44-6.64a12.78,12.78,0,0,1-1-2.59c-.87-2.14-2.69-3.4-4.39-4.77a4.39,4.39,0,0,1-.56-.4c-8.92-7.09-16.94-15.25-26.24-21.9-1.71-1.22-3-2.95-4.92-4A1.25,1.25,0,0,1,614.76,277.55Z"/><path class="cls-9" d="M698.28,468.51c.05-2.29,1.92-2.22,3.35-2.29A5.66,5.66,0,0,0,705,465c1.06-.85,2.43-1.63,2.13-3.3a3.74,3.74,0,0,0-3.11-2.75c-5.79-1.24-9.71-5.38-14-8.8-2.89-2.27-5.68-4.67-9.13-6-1.6-.6-1.36-2.37-2.63-3-1.06-.64-2.57-.86-2.44-2.61a1.69,1.69,0,0,1,1-.32c3.49,1.78,6.47,4.31,9.61,6.61,3.94,2.89,7.77,5.94,11.53,9.09,2.29,1.91,5.22,2.65,8.13,3.21.88.17,1.77.29,2.64.53,1.35.38,2.81.67,3.11,2.35a4.6,4.6,0,0,1-1.63,4.61,22.74,22.74,0,0,1-7,3.89Z"/><path class="cls-10" d="M601.49,129.08c1.19-1.56,2.93-1.31,4.59-1.47,2.4-.24,5,.9,7.19-.94h0c2.9-.71,5.88-.6,8.82-1a22.49,22.49,0,0,1,7-.48c6.52.43,12.82-1.52,19.31-1.58,3.39,0,5.24,1.43,6.87,4a69.7,69.7,0,0,0,7.39,9.32,8.13,8.13,0,0,0,4.65,2.47c.53.69,1.3.4,2,.49-.21,1.42-1.31,1.49-2.37,1.45a12.79,12.79,0,0,1-3.11-.56,17.21,17.21,0,0,1-6.91-6.41c-1.46-2.56-3.38-4.8-5-7.28-1.42-2.22-2.87-2.85-5.21-1.82-3.84,1.67-7.84,1.46-11.82,1.57a109.88,109.88,0,0,0-13.64,1.05c-5.94.9-12,1.31-18,1.8A2.12,2.12,0,0,1,601.49,129.08Z"/><path class="cls-11" d="M626,342.71l0-1c2.77.48,3.8,2.85,4.43,4.94,1.71,5.67,3,11.45,4.64,17.15,1.34,4.82,2.55,9.68,4.11,14.44a69.79,69.79,0,0,1,2.77,9.32c.33,1.83,1.55,3.39,1.77,5.28.27,2.63,1.71,4.89,2.28,7.44,1.46,6.48,3.28,12.87,4.54,19.39a19.88,19.88,0,0,1,.16,5.11c0,.73.07,1.75-1.2,1.69-.51-1.93.23-3.94-.39-5.86-.75-3.11-1.34-6.27-2.32-9.31-.57-1.8-.71-3.7-1.29-5.38-.86-2.5-1.22-5.15-2.24-7.56a10.76,10.76,0,0,1-1.07-4.93,3.84,3.84,0,0,0-.55-2.34c-1.69-2.72-1.71-6-2.85-8.87-1.08-2.75-2-5.58-2.8-8.41s-1.53-5.88-2.58-8.76c-1.43-3.92-1.37-8.25-3.22-12.07-.07-.15-.19-.31-.17-.45C630.66,348.46,627.81,345.81,626,342.71Z"/><path class="cls-12" d="M614.76,277.55c2.67,2.21,5.31,4.46,8,6.64,5.24,4.23,10.71,8.17,15.46,13a84.44,84.44,0,0,0,7.13,5.89,6.18,6.18,0,0,1,1.84,1.9c-1.72.71-2.52-.94-3.77-1.44-5.38-3.48-9.57-8.35-14.5-12.33-8.86-7.17-17.74-14.33-27.27-20.63-1.84-1.21-3.26-3-5.3-3.92-2.1-1.93-4.71-1.16-7.14-1.33l0-1c2.65-.74,5.23-.89,7.71.61a5.25,5.25,0,0,0,1.63.35l0,0c1.14.8,2.31,1.55,3.39,2.43Z"/><path class="cls-13" d="M649.18,420.6c1,1.87.22,3.88.48,5.81-.17,3.19-2.18,5.53-3.72,8.09-.34.56-.79,1-1.14,1.59-2.27,3.55-2.1,4,.63,7.17,5.28,6.22,12,10.67,18.35,15.66a5.27,5.27,0,0,0,2.28.86,4.7,4.7,0,0,1,.66.24,4.47,4.47,0,0,1,1.49.81c2.63,2.77,6.28,3.83,9.48,5.65.76.43,1.95.66,1.5,2-3.88.58-6.59-2-9.43-3.8a52.81,52.81,0,0,0-4.78-3.26c-6.64-3.31-12-8.35-17.38-13.27-1.39-1.27-2.67-2.66-4-4-3.53-3.47-3.09-4.3-.45-8.43a82.75,82.75,0,0,0,5.73-10.11C649.52,424.23,649.11,422.3,649.18,420.6Z"/><path class="cls-14" d="M703.16,468.52c1.38-1.95,4-1.94,5.61-3.62.55-.59,1.38-.94,1.85-1.57,1.68-2.26.85-4.41-1.94-5-3.66-.77-7.47-1.22-10.56-3.55-4.8-3.62-9.47-7.42-14.26-11.07-2.3-1.76-4.73-3.35-7.11-5-.67-.53-1.86-.36-2-1.53l1-.42c1.23.12,2,1,2.94,1.64,6.63,4.81,13.34,9.49,19.49,14.95,2.35,2.09,5.75,2.41,8.86,3a25.93,25.93,0,0,1,5.07,1.59c2.12.89,1.78,2.87,1.26,4.42C712.26,465.55,706.75,468.72,703.16,468.52Z"/><path class="cls-15" d="M704.2,153.59c0,.18,0,.36,0,.53a7.52,7.52,0,0,1-3.45,1.6c-4.69,1.3-9.22,3.1-13.83,4.64a71.88,71.88,0,0,1-10,2.75c-7.66,1.38-15.28.38-22.9.76-2.09-.61-4.32,0-6.41-1.06-3.56-1.85-4-4.38-1-7.36.9.7.69,1.73.79,2.66.32,2.94,1,3.57,3.93,3.58,2-.17,3.91.61,5.84.48,6.81-.44,13.69,0,20.46-1,4.75-.72,9.23-2.53,13.7-4.28,3.69-1.44,7.57-2.32,11.28-3.71A1.46,1.46,0,0,1,704.2,153.59Z"/><path class="cls-15" d="M627.53,143.32c-4.12,0-8.26-.38-12.3.86a4.38,4.38,0,0,1-1.94,0c-5-.85-5.9-.07-5.92,5-2-.84-2.56-2.35-1.41-4.14a6.36,6.36,0,0,1,5.6-3c3.52,0,7.05-.44,10.52-.36,5.79.14,11.35-1.11,17-1.68a12.23,12.23,0,0,0,2.78-.91c3.9-1.37,7.36,1,7.52,5.06.1,2.71.1,5.4-1.47,7.79-1.2-.42-1.36-.57-1.17-1.85.26-1.67.71-3.3.87-5,.3-3.08-.63-4.06-3.81-4.06a14.31,14.31,0,0,0-4,.76h0a94,94,0,0,1-10.31,1.45Z"/><path class="cls-16" d="M679.19,468.51c-.66-1.63-2.4-2.14-3.65-2.5-3.67-1.05-6.17-3.71-9.13-5.73,1-.83,1.94-.51,2.91,0,4,2.92,8.66,4.7,13.29,6.43a2.18,2.18,0,0,1,1.48,1.81Z"/><path class="cls-4" d="M639.82,141.85c1.8-1.39,3.89-1.15,5.88-.85a2.72,2.72,0,0,1,2.5,3.08c-.08,1.87.06,3.74-.72,5.53a2.12,2.12,0,0,0,.16,2.51,3.75,3.75,0,0,1-.95,3.45,10.83,10.83,0,0,0-1.19,2.08c-.59,1.84-.49,3.39,1.56,4.51,2.23,1.22,4.76.8,7,1.71-2.4-.08-4.81.4-7.13-.9-2.08-1.17-3.41-3.2-2.43-5.28,1.37-2.89,1.6-5.89,1.75-9a24.09,24.09,0,0,1,.82-3.78c.51-2.41-.38-3.58-2.9-3.55C642.72,141.41,641.27,141.69,639.82,141.85Z"/><path class="cls-4" d="M629.51,143.3c3.43-.54,6.79-1.57,10.31-1.45C636.52,143.29,633,143.39,629.51,143.3Z"/><path class="cls-4" d="M601.94,267.73a5.74,5.74,0,0,1-3.39-2.43A4.63,4.63,0,0,1,601.94,267.73Z"/><path class="cls-17" d="M502.64,226.11c1.77-3,4.58-4.51,7.8-5.66,3.87-1.37,7.49-3.46,11.4-4.64a44.77,44.77,0,0,0,6.75-3.15,28,28,0,0,0,10-8.55,37.62,37.62,0,0,0,4.94-8.23c2.37-5.77,2.77-11.83,3.72-17.89,1-6.75.93-13.41,1.17-20.11a3.9,3.9,0,0,1,1.21-2.8,23.56,23.56,0,0,1,9.95-5.9c3.13-1,6.15-2.64,9.65-2a2,2,0,0,0,1.18-.22c6.58-3.19,13.12-1.95,19.63.21a7.27,7.27,0,0,1,1.63,1.07c1.56,1,1.86,2.81,2.41,4.34,1.23,3.39,1.55,7.1,3.7,10.18a1.74,1.74,0,0,1-.17,2c-1.33,2.82-4.67,2.24-6.73,3.89-.48.38-1.21-.24-1.69-.72a15.27,15.27,0,0,1-3.57-4.87c-1.14-2.72-3.22-3.36-6.28-3.33-5.51.05-10.4,2.37-15.59,3.56a2.29,2.29,0,0,0-2.07,2.55c.12,2.06-.35,4.11,1.16,6.07.77,1,.11,3,.69,4.23,2,4.32,2,8.89,1.5,13.35a56,56,0,0,1-2.82,12.93c-.57,1.52-.78,3.12-1.33,4.66-1.55,4.33-5.48,6.2-8.82,8.43-6.28,4.22-12.07,9.06-18.13,13.55-1.32,1-2.89,1.08-4.19,1.91-1.69-1.86-3.91-2.25-6.3-2.61-6.08-.9-12.13-1.61-18.26-.47C503.79,228.2,502.69,227.78,502.64,226.11Z"/><path class="cls-18" d="M589.21,265.32c2.64-1.2,5.12-1.17,7.34.92-2.88.22-3.56,2.33-4.42,4.62-2.38,6.3-3.86,12.89-6.42,19.13a2.88,2.88,0,0,1-.49,1.11c-1.62,1.48-1.49,3.23-.87,5.09-1.78.24-2.85-1.4-4.46-1.68a7,7,0,0,1-2-.8l-1.56,0c-.52-.57-1.82-.22-1.82-1.33s1-1.12,1.7-1.56c5.27-3.51,8.69-8.19,9-14.7.07-1.61.24-3,1.46-4.24a3.08,3.08,0,0,0,1-2.66A4.52,4.52,0,0,1,589.21,265.32Z"/><path class="cls-19" d="M669.32,460.28c-1,.52-1.94-.26-2.91,0l-.09,0c-3-.45-4.72-3-7.07-4.51-3.88-2.52-7.21-5.78-10.79-8.71-1.83-1.49-3.06-3.57-4.71-5.26-1-1.05-.63-2.33.06-3.59,2-3.62,4.67-6.85,6.06-10.83a29.2,29.2,0,0,0,1.06-4c0-4.43,3-7.24,5.77-10.1,1.36-1.43,2.92-2.66,3.58-4.56,1.77-5.11,4.88-9.4,8.39-13.39,2.22-2.52,4.25-5.17,6.29-7.82s4.39-3.83,7.67-3.16c7.63,3.84,7.35,8.94,3.38,15.06-3.3,5.09-6.57,10.2-10.37,15a103.49,103.49,0,0,0-7.07,11.06c-2.75,4.6-.89,6.26,1.83,9.58a7.53,7.53,0,0,0,3.87,2.45,1.81,1.81,0,0,1,1.4,1.24c.87.79,2,1.35,2.53,2.45a4.61,4.61,0,0,0-1.6,4.3,4.15,4.15,0,0,1-1.05,3.38c-2,1.93-3.18,4.51-5,6.61A6.07,6.07,0,0,0,669.32,460.28Z"/><path class="cls-20" d="M597.57,164.82c-.07-.56.07-1.3-.24-1.65-2.58-3-2.68-6.8-3.77-10.29-.5-1.59-1.28-3.09-1.93-4.63,3.41-.49,3.52-3.44,3.81-5.74a50.81,50.81,0,0,1,2.1-10.59c.68-2,2.62-1.92,4-2.84a79.85,79.85,0,0,0,9.44-1c3.72-.81,7.57.21,11.17-1,3.83-1.28,7.74-.8,11.63-1,4.39-.22,8.83.38,13.09-1.73a4.23,4.23,0,0,1,5.65,2c1.48,2.5,3.38,4.75,4.78,7.29,1.6,2.91,4.28,4.62,6.65,6.7a7.26,7.26,0,0,0-2.71,4.73,9.36,9.36,0,0,1-5,6.8c-.29.15-.73.23-.83.49-1.41,3.34-4.36,6-4.2,10-3.54,0-4.36-.88-4.42-4.44,0-.8,0-1.6,0-2.4a6.37,6.37,0,0,1,.95-3.45,28.58,28.58,0,0,0,1.07-8.14c-.2-3.13-3.2-5.66-6-4.35-2.11,1-4.24.86-6.3,1.4-4.55,1.21-9.14,1.15-13.77,1.4-4,.21-8,.3-12,.42a5.16,5.16,0,0,0-4.55,3.24c-.57,1.24.14,2.35,1.27,3.1.42,1.88,1.71,3.3,2.66,4.89,1.58,2.67.57,4.64-2.17,6C604.46,161.72,600.75,162.71,597.57,164.82Z"/><path class="cls-21" d="M651.12,162.41c-1-.54-1.29-.92-.71-2.29,1-2.44,3.3-4.31,3.37-7.2,0-.62.74-1.06,1.37-1.3,3.26-1.27,4.81-3.73,5.55-7.07.38-1.7.35-4.18,3.2-4.2,1.8-.34,3.77,1.44,5.44-.45,4.45.27,8.39-1.68,12.45-3a16.21,16.21,0,0,1,3.57-.55,53.57,53.57,0,0,0,9.57-2.18c5.29-1.59,10.74-1.45,16-2.78,3.1-.8,6.33,0,9.48-.76,2.11-.5,4.19-1.44,6.46-1,.14,1.1-.86,1.47-1.41,2.12-4.26.73-8.46,1.93-12.79,2-3.86,0-7.68.37-11.52.56-1.85.09-3.45,1-5.17,1.46-6,1.64-12.12,2.72-18.05,4.57-2.73.85-5.59,1.22-8.36,1.92a7.63,7.63,0,0,0-5.7,5.2,8.14,8.14,0,0,1-4.84,5.17,5,5,0,0,0-3,3c-1.36,3.78-.12,5.6,3.93,5.64.33,0-.08,0,.24,0a120.92,120.92,0,0,1,14-.84,29.5,29.5,0,0,0,13.44-3.3c5.08-2.53,10.53-4,15.91-5.68a38.2,38.2,0,0,1,8.13-1.71,14,14,0,0,0,3.6.95,1.76,1.76,0,0,1,.66.35.53.53,0,0,1,0,.68c-4.13-.58-8,.49-11.79,1.92-2.11-.15-3.82,1.19-5.78,1.66a102.68,102.68,0,0,0-11.15,3.84c-4.9,1.8-9.83,3.37-15.16,3.35a64.76,64.76,0,0,0-10.5.39C658.12,163.4,654.63,162.4,651.12,162.41Z"/><path class="cls-22" d="M725.36,131.06l1.48-1.48h1.44c1.82.44,2.28,1.88,2.4,3.44a18.12,18.12,0,0,0,1,4.89A19.27,19.27,0,0,0,734,149.67c2.41,4,4.38,8.28,8,11.57,6.46,5.91,14,10.27,21,15.36,3.71,2.68,8.26,3.81,11.75,6.76,3.77,3.18,8.84,4.1,12.59,7.26,2.65,2.24,6.08,3,8.82,5.1a6.43,6.43,0,0,1,1.53,1.55c.59.89,1.42,1.77.61,2.85a3.27,3.27,0,0,1-3.44,1.33c-3.56-.63-6.67-2.34-9.93-3.74s-6.81-2.44-10-4.09c-6.07-3.14-12.51-5.4-18.76-8.1-4.49-2-9.09-3.71-13.56-5.73q-7.87-3.56-15.63-7.35c-1.78-.88-2.1-3-3.07-4.56-.51-.82-1-1.69-1.53-2.48l.28-.23c1.49-.18,2,1,2.49,2a10.56,10.56,0,0,0,6.44,5.56c5,1.86,9.36,5,14.32,6.89a33.44,33.44,0,0,0,7.66,2.47c2.88.38,5.26,1.92,7.76,3.36,5.06,2.92,10.65,4.82,16,7.2,4.53,2,9.39,3.25,13.57,6.06,1.41.95,3.5,1.61,4.38,0s-1.28-2.67-2.47-3c-4.46-1.17-7.23-5.08-11.32-6.65-4.59-1.75-8.3-4.82-12.39-7.33a2.27,2.27,0,0,0-.64-.36c-5.25-1.1-9.18-4.53-13.23-7.62-5.45-4.14-11.21-7.91-15.9-13a33,33,0,0,1-4.45-6.71c-.12-.22-.23-.44-.33-.67-3.42-4.44-4.61-9.6-4.92-15,0-.39-.05-.79-.07-1.19C729.35,134.29,729,131.59,725.36,131.06Z"/><path class="cls-22" d="M716,151.67v-.52a1.14,1.14,0,0,1,1.13-.21,5.19,5.19,0,0,1,2.39,3.24c.9,2.67,1.53,5.44,3,7.9a2.69,2.69,0,0,1,0,3.2l-.13.12C719.6,161.11,718.78,155.94,716,151.67Z"/><path class="cls-21" d="M731.69,137.91a6.12,6.12,0,0,1-1.36-4.25,4.77,4.77,0,0,0-2.05-4.08,2.15,2.15,0,0,1,2.5,2.09C731.08,133.75,731.39,135.83,731.69,137.91Z"/><path class="cls-23" d="M577.93,293.71c2.34.21,4.21,1.66,6.33,2.45,3.32,1.69,5,5.06,7.54,7.51,6,5.73,11,12.42,17.11,18.07a212.57,212.57,0,0,1,19.53,20.17c.52.63,1.15,1.16,1.7,1.77,1.67,2.75,2.26,5.93,3.06,8.94,2,7.61,4.11,15.21,6,22.85,1,4.13,2.72,8.14,4,12.26a10.87,10.87,0,0,1,.75,3.07,2.25,2.25,0,0,1-.7,1.9c-2.16-6.45-4.09-13-6-19.49-2.5-8.43-4.59-16.95-6.89-25.43a11.62,11.62,0,0,0-4.22-6.08c-3.92-4.14-8-8.14-11.92-12.25-5.55-5.81-11.63-11.07-16.85-17.24-3.23-3.82-6.9-7.33-10.29-11.06C584.37,298.24,581.84,295.11,577.93,293.71Z"/><path class="cls-24" d="M675.67,438.71c-1.89-1.19-4.28-1.48-5.75-3.49-3.2-4.4-4.91-5.47-1.11-11.06,3.63-5.33,6.8-10.93,10.92-16a50.89,50.89,0,0,0,7.89-13.3c1.48-3.79-.42-7.58-5.09-10a4.4,4.4,0,0,0-2.1-.51,1.71,1.71,0,0,1-1.64-1.27c-1-4.32-4.61-6.73-7.13-9.94-1.14-1.44-3-2.3-3.31-4.39a1.45,1.45,0,0,1,.47-1c4.95,5.27,9.83,10.62,14.9,15.79,1.93,2,4.07,3.7,5.54,6.11a4.62,4.62,0,0,1,.21,4.86c-1.92,3.56-4.16,6.94-6.38,10.33-3.9,6-8.28,11.62-12,17.69-.51.83-1.19,1.56-1.68,2.4-2.61,4.52-2,7.32,2.57,10.69a27.52,27.52,0,0,0,2.75,1.57c.71.47,1.6.71,2,1.53Z"/><path class="cls-25" d="M668.82,367.72l0,1c-4.66-1.4-7.73-4.64-9.8-8.82a18.26,18.26,0,0,1-1.71-7.57c-.11-2.94-1.16-5.73-1.46-8.65-.86-8.49-2.32-16.89-3.77-25.3-.28-1.68,0-3.39-.56-5.06a12.6,12.6,0,0,0-4.93-6.19c-1.05-1.28-3.4-1.68-2.82-4.09,1.19.58,2,1.76,3.44,2a28.82,28.82,0,0,1,4.9,4.91c.32.82.65,1.65,1,2.47.39,2.46.27,5,1.5,7.32h0c.68,2.08-.23,4.29.49,6.37h0a82.1,82.1,0,0,1,2,14.2,54.28,54.28,0,0,1,1.61,11c.3,4.09,1.36,8.11,4.61,11.13C665.13,364.12,666.69,366.22,668.82,367.72Z"/><path class="cls-12" d="M657,340.24c-1.16-1.92-.41-4.09-.7-6.13-.38-2.7-1.67-5.26-1.26-8.07A38.68,38.68,0,0,1,657,340.24Z"/><path class="cls-12" d="M652.09,309.88a30.75,30.75,0,0,1-4.9-4.91A9.85,9.85,0,0,1,652.09,309.88Z"/><path class="cls-12" d="M654.57,319.67c-1.92-2.15-1.38-4.8-1.5-7.32Z"/><path class="cls-12" d="M655.06,326c-1-2.06-.25-4.25-.49-6.37C655.6,321.73,654.82,323.92,655.06,326Z"/><path class="cls-26" d="M643.22,392.7c0-.67,0-1.35,0-2a.72.72,0,0,1,.81.41c1.47,4.43,5.14,8.06,5.06,13-.08,4.53,1.37,8.78,2.06,13.16.33,2.09-.73,4.22.39,6.22-1.13,5.61-4.25,10.27-7.25,15a2.84,2.84,0,0,0,.3,3.87c4.74,5.68,10.7,9.94,16.54,14.34,1.66,1.26,3.12,2.82,5.14,3.57-2.42.42-3.63-1.59-5.26-2.67a125,125,0,0,1-12.72-10.22,44.92,44.92,0,0,1-5.11-5.56,3.36,3.36,0,0,1,0-4.27,65.57,65.57,0,0,0,6.41-11.1c1.14-3.79.21-7.48-.55-11.18-.74-3.53-2.16-6.86-2.57-10.51-.33-2.9-1.53-5.73-2.54-8.52A8.92,8.92,0,0,1,643.22,392.7Z"/><path class="cls-27" d="M643.75,303c.27,1.76,1.91,2.33,3,3.43-5.16,1.48-6,6.36-7.86,10.28a15.42,15.42,0,0,0-1.93,6.95,28.76,28.76,0,0,1-2.56,8.3c-3,3.34-3.94,7.53-4.88,11.72C626,340,622.69,336.08,619,332.55c-4.07-3.94-7.81-8.23-12.23-11.82-3.24-2.63-5.44-6.26-8.37-9.17-5-4.92-9.42-10.3-14.17-15.4-1.68-1.67-.91-2.86-.07-4.93,1.8-4.45,4.47-8.7,4.94-13.62a9.51,9.51,0,0,1,1.37-4.31,19.35,19.35,0,0,0,1.57-4.09c1.17-3.43,1.15-3.44,4.48-3,3.05,1.17,5,3.79,7.68,5.54,4.19,2.77,8.27,5.71,12.33,8.66,1.76,1.28,3.28,2.92,5.06,4.16C629.53,290.11,635.79,297.58,643.75,303Z"/><path class="cls-28" d="M629.47,343.69a14.44,14.44,0,0,1,4.45-11.75c.74,1.21.21,2.42-.18,3.53a7.07,7.07,0,0,0,0,4.78c.55,1.64.57,3.23-1,4.45a1.58,1.58,0,0,0-.33,2.19,14.78,14.78,0,0,0,1.26,2.1c3.49,4.74,4.49,10.23,4.87,15.91a7.59,7.59,0,0,0,.67,3.08,3.09,3.09,0,0,1,.59,1.6c-.62,4.31,2.5,7.42,3.59,11.18.22.77.53,1.82,1.47,1.73s.91-1.22,1.08-2c.84-3.85,1.22-4.14,5.05-3.33a1.82,1.82,0,0,0,2.07-.87c1.24-1.71,2.06-3.49,1.58-5.71a10.8,10.8,0,0,1,.76-6.68c1.12-2.64,2.2-5.39-.2-8a2,2,0,0,1-.43-1.38c.29-9.11-1.49-17.93-3.7-26.7a8.61,8.61,0,0,1-.54-3.62c.66-3.35-1.27-6.51-.63-9.84.13-.65-.32-1.07-.93-1.26a1.43,1.43,0,0,0-1.71.62c-.8,1.11-1.66,2.8-3.2,1.43s-.12-2.75,1-3.87l.36-.33c.54-.54.72-1.15,0-1.67a.93.93,0,0,0-1.56.53,8.48,8.48,0,0,1-2.94,4.88c-.87.69-.35,2.16-.21,3.29.38,3.08-1,4.91-4.31,5.6a25.86,25.86,0,0,1,3.8-11.37,12.84,12.84,0,0,0,1.3-2.34c.82-2.58,2.58-3.61,5.2-3.43,4.15,2.45,5.48,6.13,6.07,10.85.76,6.24,1.61,12.51,3,18.7.75,3.45.42,7.13,1.32,10.59,1.09,4.23.72,8.7,2.39,12.83,1.32,3.26,4,5.24,6.54,7.34.88.71,1.87,1.3,2.81,1.94.05,1,.83,1.59,1.49,2.15,3.18,2.69,5.37,6.27,8.34,9.14a1.53,1.53,0,0,1,.32.36c1.82,3.32,1.82,3.32,3.58,4.48-4.7-1-6.81,2.49-9,5.47-3.34,4.6-7.64,8.46-10.36,13.55a13.93,13.93,0,0,0-1.34,2.57,18.45,18.45,0,0,1-5.19,7.76c-2.49,2.41-5.41,5.13-5.08,9.31-.82-.34-.92-1-.94-1.8a32.92,32.92,0,0,0-1.78-11.16c-.9-2.4,0-5.28-.65-7.94a13.93,13.93,0,0,0-2.3-5.74c-1.3-1.74-1.8-4.08-2.65-6.16-1.11-3.08-1.55-6.35-2.92-9.38a47.71,47.71,0,0,1-2-6.61c-1.77-6.1-3.06-12.32-5-18.4-.87-2.8-1.72-5.67-2.39-8.56C630.64,346.31,630.49,344.85,629.47,343.69Z"/><path class="cls-29" d="M717,151.18l-1,0h-.43c-1.08-.59-2.38-.39-3.46-1a110.64,110.64,0,0,0-15.06,4c-4.87,1.63-9.39,4.44-14.28,5.47-4.41.92-9.08,3.14-13.85.93a3.15,3.15,0,0,0-2.61.33c-2.63,1.2-5.42,1-8.2,1a3.08,3.08,0,0,1-2.92-1.86c-1.35-2.62.33-6.83,3.08-7.95,2.31-.94,4.08-2.16,4.9-4.94a7.42,7.42,0,0,1,5.83-5.54c7.61-1.63,15.23-3.34,22.65-5.61a77.57,77.57,0,0,1,22-3.12c3.91,0,7.8-1.19,11.7-1.85,3.89,0,3.86,0,4.46,4a13,13,0,0,1,.44,3.34,1.19,1.19,0,0,1-1.36.15,2.43,2.43,0,0,0-3.33,1.06c-1.3,2-3.53,2.81-5.24,4.29-2,1.74-3.59,3.51-3,6.4A1,1,0,0,1,717,151.18Z"/><path class="cls-22" d="M712.09,150.18c1.25-.05,2.51-.11,3.46,1C714.3,151.16,713,151.3,712.09,150.18Z"/><path class="cls-30" d="M717,151.18c-.68-4.39.65-6.85,5.2-9.46a5.23,5.23,0,0,0,2.29-1.76c1.4-2.7,3.36-2.87,5.78-1.53.43,5.11,1.19,10.11,4.65,14.25a2.7,2.7,0,0,1,.27.91c-2.66.51-3.71-.09-4.07-2.64-.39-2.77-2.18-4.9-3.18-7.39-.53-1.3-3.15-1-4.46.49-2.94,3.28-3.46,7.12-2.18,11.17.59,1.84,1.19,3.75,2.72,5.15a3.23,3.23,0,0,1,.79,1.77c1,5.13,4.49,7.9,9.1,9.54a11.55,11.55,0,0,1,4.62,2.68c1.47,1.51,3.47,2.19,5.33,3s2.79-1.28,4-2.17c1-.72.12-1.6-.35-2.33a3.84,3.84,0,0,1-.68-2.07c-.05-2.47-1.48-3.7-3.74-4.15a8.73,8.73,0,0,1-3.79-1.65c-1.3-1-2.59-1.91-4.42-1.66a1.91,1.91,0,0,1-2.1-1.38c-.31-1-.41-2.24.49-2.71,2-1,2-2.5,1.42-4.27a1.35,1.35,0,0,1,.46-1.33c3.67,7.18,9.91,11.72,16.21,16.39,3.36,2.49,7,4.72,10.05,7.6a8.25,8.25,0,0,0,4.34,2c2.42.44,4.41,1.94,6.43,3.28,2.61,1.74,5,3.68,8.12,4.76a13.28,13.28,0,0,1,6.61,4.32,6.64,6.64,0,0,0,4,2.18,10.49,10.49,0,0,1,4.57,2.69c.59.53,1.37,1.08.9,2a2.44,2.44,0,0,1-2.22,1.25c-2.64.28-4.62-1.22-6.61-2.48a16.15,16.15,0,0,0-5.46-2.54c-3.51-.71-6.56-2.71-9.88-4-2.8-1.07-5.28-2.82-8.32-3.41a7.59,7.59,0,0,1-4.17-2.31c-1.42-1.73-3.27-2.11-5.13-2.44-7.13-1.26-13.31-4.73-19.56-8.09a29.27,29.27,0,0,0-5.58-2.49,5.87,5.87,0,0,1-3.87-3.3c-.75-1.43-1.34-3.2-3.16-3.85a6.26,6.26,0,0,0-1.25-4c-1.2-1.61-1.37-3.81-2.07-5.71A14.55,14.55,0,0,0,717,151.18Z"/><path class="cls-31" d="M636.4,323.58l2.37-1.71a3.23,3.23,0,0,0,1.4-3.58c-.36-2-1.59-4.37,1.78-5.32,1-.26.78-1.66.85-2.64a2.33,2.33,0,0,1,1.86-2.3c1-.24,1.49.49,1.94,1.18.56.86.71,1.66-.47,2.17a2.39,2.39,0,0,0-1,.62c-.54.76-1.57,1.33-1.15,2.51a1,1,0,0,0,.94.67c1.19,0,1.53-1,1.7-1.8.47-2.26,2-1.18,3-.93,1.2.29,1.69,1.17,1,2.43a2.62,2.62,0,0,0,.47,3.55,1.45,1.45,0,0,1,.38,1.56,13.91,13.91,0,0,0,.14,7,155.75,155.75,0,0,1,3.24,16.17c.42,2.87.73,5.83.89,8.62a13.4,13.4,0,0,0,1.41,6.11c1.18,2.18-.41,4.45-1.23,6.46a9.28,9.28,0,0,0-.59,6.17c.88,3.19-1.07,5.27-2.64,7.49-.65.91-1.41.14-2.13-.27-2.21-1.26-3.51-.56-3.84,2a7.11,7.11,0,0,1-.28,1.67c-.32.84,0,2.22-1.32,2.32s-1.77-1.06-2.14-2c-.83-2.17-1.14-4.59-3.12-6.19a.94.94,0,0,1-.31-.65c0-3.09-1.26-6-1.53-8.94-.59-6.42-1.74-12.47-5.66-17.8-1-1.35-2.7-3.16.52-4.3.86-.31.82-1.59.5-2.21-1.76-3.37-.08-6.47.56-9.66Z"/><path class="cls-32" d="M735.18,153.6a5.26,5.26,0,0,0,.39,2.38c.59,1.47,1,2.81-1.36,3.16-1.28.18-1.1,1.5-.93,2.44a1.46,1.46,0,0,0,2.06,1.15c1.54-.64,2.39.13,3.45,1a8.52,8.52,0,0,0,4.54,2.2c2.82.34,4,1.83,4.12,4.76a2.77,2.77,0,0,0,.92,2.16c1.5,1.27,1.28,2.5-.4,3.18-1.36.56-1.82,2.71-3.2,2.37a26.89,26.89,0,0,1-5.71-2.67,5.62,5.62,0,0,1-1.42-1.34,5.73,5.73,0,0,0-3.12-1.82c-4.44-.88-7.18-4.05-9.82-7.32a3.06,3.06,0,0,1-.33-1.63,7,7,0,0,0-1.52-3.67,17,17,0,0,1-2.7-7.27c-.46-3.36.59-5.85,2.25-8.4a3.86,3.86,0,0,1,2.37-2c3.22-.73,3.16-.74,4.47,2.49,1,2.38,2.6,4.42,2.68,7.23.05,1.54,2.16,1,3.26,1.54Z"/></g><g id="DFe-3" data-name="DFe"><path class="cls-33" d="M802.05,295.67V220.5c0-5.94,1.2-7.14,7.17-7.15,9.16,0,18.34.3,27.48-.15,7.86-.4,15.69-.13,23.54-.27a43.3,43.3,0,0,1,6.82.49c3.42.47,4.92,2,5.19,5.74a59.54,59.54,0,0,1-.74,14.1c-.4,2.36-1.81,3.11-3.94,3.12-5,0-10,.05-15,.05-7.58,0-15.16,0-22.75,0-3.1,0-4.17,1-4.18,4.06q0,19.47,0,38.94c0,3.06.47,3.49,3.6,3.49h37.59c4,0,4.48.29,5.27,4.13a40.82,40.82,0,0,1-.1,15.5c-.6,3.42-1.31,3.86-4.79,3.88-8.52,0-17,0-25.55,0l-11.55,0c-4.51,0-4.55,0-4.48,4.41.12,7.13.37,14.27.41,21.41.08,11.89,0,23.79.06,35.69,0,2.05-.48,4-.51,6.07a2,2,0,0,1-1.56,2,8.77,8.77,0,0,1-2.88.51c-4.75,0-9.5,0-14.25,0-4.11,0-4.86-.81-4.86-4.87Q802,333.62,802.05,295.67Z"/><path class="cls-34" d="M889.47,358.42q-2.44-3.93-4.9-7.87c-.44-.84-1.27-1.46-1.39-2.48,0-1.79,0-3.56-1.49-4.92l-.08-.92c-.47-5.07-2.29-9.94-2-15.16a137.88,137.88,0,0,0,0-14.94c-.26-5.35.72-10.5,1.74-15.7a40.25,40.25,0,0,1,10.46-20.11c.7-.39,1.27-1.23,2.25-.67.88,1.89-.07,3.37-1.26,4.64a18.31,18.31,0,0,0-5.19,10,6,6,0,0,1-1.58,2.72,13.22,13.22,0,0,0-3.21,9,36.91,36.91,0,0,1-.58,7.06c-1.08,7.56.75,14.94,1.26,22.38.23,3.31.76,6.61.85,10,.06,2.47,1.41,4.55,2.9,6.36,2,2.39,3.09,5.41,5.52,7.46a1.93,1.93,0,0,1,.66,1.29c.29,3.16,2.39,4.83,5,6.19a24.16,24.16,0,0,1,4.36,3.17c2.2,1.88,4.56,3.42,7.58,3.72A7.39,7.39,0,0,1,914,371c2.81,2.11,6.1,2.28,9.35,2.3,3.78,0,7.52.34,11.27.7,3.15.3,6.16-.63,9.25-.92,2-.19,2.58-2.19,2.78-3.88a66.07,66.07,0,0,0,.1-8.56c0-1.46-1.06-1.78-2.21-2.2-5.32-2-10.79-1.66-16.25-1.09a12.88,12.88,0,0,1-6-.75c-3.6-1.32-7.12-1.85-10.36,1a4,4,0,0,1-3.24.86,2.45,2.45,0,0,1-2.3-1.89c-.25-1.16.51-1.8,1.41-2.31s2.26-.59,2-2.06a4.13,4.13,0,0,0-2.76-3.47,10,10,0,0,1-5.94-5.84,21.92,21.92,0,0,1-1.91-10.74c.3-3.61,3-6,6.66-6.29a18.07,18.07,0,0,0,10.4-4.05,13.49,13.49,0,0,1,11.71-3c1,1,.13,1.58-.48,2.07-1,.79-1.86,1.72-2.88,2.47-1.11.44-2,1.35-3.15,1.69-1.68-.07-2.81,1-4,1.94-1.87,0-3.27,1.51-5.13,1.51a64,64,0,0,0-8.31.41,2.48,2.48,0,0,0-1.39,1.5,12.53,12.53,0,0,0,.09,5.21c2.07,6.59,5.62,12,12.16,15,2.93,1.3,5.87,2.62,9.3,2.47,4.74-.22,9.49,0,14.23-.08,2.46-.06,4.85.6,7.31.51a2.61,2.61,0,0,1,2.71,2.36,16,16,0,0,1,.65,5.56,93.65,93.65,0,0,0-.4,11c-.08,3-.66,3.62-3.61,3.63-7.28,0-14.57.25-21.83-.09A34.48,34.48,0,0,1,910.52,373c-1.68-.76-3.49-1.21-5.21-1.93-3.62-1.51-6.47-4-9.4-6.39-.79-.65-2-.89-2.38-2l-1-1A13.2,13.2,0,0,0,889.47,358.42Z"/><path class="cls-35" d="M724.89,345.48c0-8-.26-14.47.08-20.91.26-5,.22-10,.26-15,.18-24.14.28-48.28,0-72.41-.09-6.49,0-13,.15-19.44a4.33,4.33,0,0,1,4.31-4.37c7.57-.13,15.18-.84,22.68.09,6.25.78,12.46,1.88,18.09,5.5s10.64,7.27,14.52,12.47c2.34,3.14,4.74,6.33,5.89,10.21.36,1.22,1.39,2.14,1.77,3.43,2.12,7.23,2.48,14.65,2.56,22.11.06,5.12.26,10.24.3,15.36.08,11.35.23,22.7.12,34a178.84,178.84,0,0,1-1.53,23.48c-.37,2.64-1.73,5.17-2.78,7.69-.62,1.47-1.37,2.93-2,4.39-2.5,5.78-7.06,9.65-11.7,13.53a44.88,44.88,0,0,1-15.08,8.23A43.38,43.38,0,0,1,751,376c-5.71.24-11.42-.25-17.14.28a29.11,29.11,0,0,1-6.08-.35c-2-.26-2.34-2-2.46-3.68C724.66,362.84,724.94,353.38,724.89,345.48Z"/><path class="cls-36" d="M912.62,328c1.48-1,3.36-.74,4.91-1.5,1.16-1,2.31-1.94,4-1.91a6.72,6.72,0,0,1,2.94-1.51A78.64,78.64,0,0,0,939.85,308a32.83,32.83,0,0,0,5.63-11.52,28.53,28.53,0,0,1,1.6-4.34c.54-2.47.07-5,.29-7.45a2.18,2.18,0,0,1,.42-1.15.52.52,0,0,1,.73-.1c0,1.47-.09,2.94,0,4.4.36,5.7-1.52,10.83-4,15.78-4.25,8.42-11.07,14.57-18.55,20-2.73,2-6.27,2.77-9.37,4.16-3.57,1.6-7.19.85-10.68,1.72-1.57.39-2.59,1-2.66,2.88-.22,6,5.37,14.59,10.77,17.2a30.71,30.71,0,0,0,14.71,3,119,119,0,0,1,17.81.39c2.83.35,3.41,1.1,3.42,4q0,7.57,0,15.17c0,2.79-1.08,4.28-3.82,4.28-8.57,0-17.16.55-25.73-.31A48,48,0,0,1,905,371.44c-3.91-1.8-7.09-4.41-10.38-7-.58-.45-1.27-.82-1.11-1.73,2.53.77,4,3,6.09,4.41a35.37,35.37,0,0,0,7.12,4.12c5.78,2.13,11.65,4.05,17.87,4.2,6.87.18,13.75,0,20.63.08,1.93,0,3-.48,2.77-2.61-.43-5.26.74-10.53,0-15.82-.27-2.12-.92-3.07-3.28-3.24-7.6-.55-15.24.17-22.78-.53-6.5-.6-11.89-4-15.88-9.32a22.64,22.64,0,0,1-3.83-8.68,13.18,13.18,0,0,1,0-5.38,1.55,1.55,0,0,1,1-1.48c2.23-.5,4.49-.09,6.73-.24C910.88,328.19,911.79,328.47,912.62,328Z"/><path class="cls-37" d="M948.52,283.42H948c-.9-.85-.66-2-.67-3,0-5-.07-9.95,0-14.93a3.12,3.12,0,0,0-2.67-3.48,10.84,10.84,0,0,0-2.65-.41c-6.22-.05-12.46-.37-18.65.11a52.44,52.44,0,0,0-13,2.9c-7.13,2.45-12.32,7.39-17.92,11.91a37.9,37.9,0,0,0-8.22,12.2,48.47,48.47,0,0,0-2.62,9.25c-2.55,10.88-.91,21.88-1.43,32.81-.15,3.15,2.15,5.81,1.53,9a14,14,0,0,0-.07,2.43,26.21,26.21,0,0,1-2.33-10.56c-.17-8.65,0-17.31-.06-26,0-3.2,1.1-6.21,1.63-9.31,1.31-7.84,5.17-14.38,10.33-20.32a46.2,46.2,0,0,1,15.12-11.66A42.77,42.77,0,0,1,923.79,260c6.3-.11,12.61,0,18.92,0a21.7,21.7,0,0,1,3.39.44c2,.34,2.9,1.61,2.9,3.61,0,4.17-.16,8.34,0,12.49A19.9,19.9,0,0,1,948.52,283.42Z"/><path class="cls-37" d="M889.47,358.42a3.58,3.58,0,0,1,3,3.34A5.92,5.92,0,0,1,889.47,358.42Z"/><path class="cls-37" d="M881.69,343.15c2.39,1,1.76,3.11,1.94,4.94-1.58-.31-.16-1.85-1-2.46C882.26,344.82,881.56,344.14,881.69,343.15Z"/><path class="cls-36" d="M882.62,345.63c.94.57.07,1.88,1,2.46-.07,1,1.18,1.43.94,2.46C882.63,349.42,882.53,347.56,882.62,345.63Z"/><path class="cls-38" d="M864.94,235.41l-2,0a5.82,5.82,0,0,1-2.65.21q-13.59,0-27.17,0a5.82,5.82,0,0,1-2.65-.21c-5.57,0-5.85.26-5.87,6q-.07,20.07-.11,40.15c0,2.16,1.54,2.36,3.2,2.35l24.08,0q7.36,0,14.74,0c2.71,0,4.2,1.29,4.25,3.89.08,4.74,0,9.47,0,14.21a2.64,2.64,0,0,1-2.41,2.9,44.85,44.85,0,0,1-5.59.58c-11.22-.08-22.44-.06-33.66-.07-3.8,0-4.7.79-4.53,4.58.9,19.17.27,38.34.47,57.51a16.2,16.2,0,0,1,0,2.7c-.63,4.27-.46,5.47-5.61,5.32-4.33-.13-8.68,0-13-.06-2.48,0-3.4-.91-3.41-3.39,0-8.33,0-16.66,0-25a4.58,4.58,0,0,0,.23-2.4c0-2.94,0-5.88,0-8.82-.13-23.49.35-47,.29-70.47,0-5.21-.25-10.41-.29-15.61,0-6.76.54-13.51.27-20.27a81.4,81.4,0,0,1-.27-8.55c.14-2,.29-4,1.7-5.68h0a87.9,87.9,0,0,1,9-.43c4.49-.17,9,0,13.5,0,12.17,0,24.34-.31,36.51,0a17,17,0,0,1,4.83.51l1.5,1.49c1.15,5.12.15,10.29.17,15.43,0,1.75-1.72,2.59-3.43,2.89C866.37,235.27,865.61,235,864.94,235.41Z"/><path class="cls-39" d="M805,215.31A29.53,29.53,0,0,0,803.8,227a69.86,69.86,0,0,1-.14,17,45.07,45.07,0,0,0,.11,10c.27,3.35.91,6.75.29,10.15a12.42,12.42,0,0,0-.07,2.2c0,11.43.4,22.87-.1,34.28-.65,14.84-.12,29.68-.4,44.51,0,.72.19,1.49-.47,2.07q0-63.78,0-127.56C803,217.93,802.75,216,805,215.31Z"/><path class="cls-39" d="M868.83,215.34c-21.29-.43-42.58.15-63.87,0,2.9-.92,5.95-.84,8.89-.87,16.77-.16,33.54-.08,50.32-.09A8,8,0,0,1,868.83,215.34Z"/><path class="cls-39" d="M830.52,235.43H863c-.59.62-1.36.44-2.07.44H832.59C831.88,235.87,831.11,236.05,830.52,235.43Z"/><path class="cls-39" d="M864.94,235.41c.4-.55,1-.43,1.55-.5,2.64-.34,3.85-1.66,3.86-4.27q0-6.9,0-13.81c1.4,2.83,1.1,5.86.83,8.82a23,23,0,0,0-.29,3.87C871.24,234.37,869.44,235.89,864.94,235.41Z"/><path class="cls-40" d="M928.36,319.2c-3.86-.86-7.09,1.37-10.62,2.12a1.8,1.8,0,0,0-1.07.57c-2.77,4.28-7.23,4.33-11.58,4.65a6,6,0,0,0-5.21,5.61c-.07,4.51.54,8.89,3.22,12.78a6.67,6.67,0,0,0,4,3c2.62.57,3.11,2.66,3.73,4.61.45,1.41-.77,1.67-1.86,2s-2.56.49-2.07,2.09c.45,1.43,1.86,1.46,3.11,1.21a3.38,3.38,0,0,0,1.73-.86c3.17-3.29,6.81-2.29,10.4-1.12a13.92,13.92,0,0,0,6.4.74A39.32,39.32,0,0,1,946.12,358a1.82,1.82,0,0,1,1.41,2c0,3.1.09,6.21-.06,9.3-.16,3.35-1.86,4.25-5.15,4.88-6.62,1.26-13.12-.31-19.67-.19-3,.06-6.17,0-8.74-2.25a5.1,5.1,0,0,0-2.67-1.09c-4.11-.42-7.24-2.55-10.2-5.21a26,26,0,0,0-5.11-3.31,4.66,4.66,0,0,1-2.59-3.09c-1-4.27-4.41-6.92-6.51-10.44-1.57-2.62-3.2-5.06-3.31-8.43a193.45,193.45,0,0,0-2.2-21.72c-.62-4.24.4-8.42.55-12.63,0-1.27.3-2.58.26-3.88A13.56,13.56,0,0,1,886,292a2.91,2.91,0,0,0,1-1.87c.24-3.93,2.18-7.09,4.85-9.81a6.28,6.28,0,0,0,2-4.77c.55-2.36,3.14-2.6,4.46-4.19.36-.44,1.1-.64,1.59-1.09,5.52-5,12.36-6.94,19.51-8.13,7.8-1.29,15.64-.87,23.47-.52,3.78.17,5,1.26,4.82,5.08-.19,4.07,0,8.15,0,12.23a114.07,114.07,0,0,1-1.25,13.83c-.41,3.46-2.06,6.81-3.8,10a55.85,55.85,0,0,1-12.15,15.4C930,318.71,929.52,319.77,928.36,319.2Z"/><path class="cls-41" d="M928.36,319.2c1.83-.43,2.64-2.1,3.89-3.22a41.29,41.29,0,0,0,7.34-9A58.72,58.72,0,0,0,945.8,294c.74-2.33.12-4.83.66-7.26,1.49-6.8,1-13.74,1-20.64,0-2.82-1-3.51-3.83-3.82a96.79,96.79,0,0,0-14.44-.42c-7.3.28-14.47,1.16-21.35,4.07a23.59,23.59,0,0,0-6.08,3.73c-2.52,2.1-5.63,3.41-7.86,5.88-.5.32-1,.63-1.52.94.68-2.64,3.19-3.51,5-5,3.15-2.67,6.41-5.32,10.31-6.77a53.66,53.66,0,0,1,11.37-3.16c8.47-1.17,16.94-.88,25.41-.26,2.43.18,3.64,1.55,3.57,4.25-.17,5.95-.06,11.91-.06,17.87v1c-.69,2.75.18,5.59-.47,8.34a118.52,118.52,0,0,1-5,12.25c-1.22,2.59-3.22,4.39-4.84,6.56-3.41,4.61-8.07,7.91-12.53,11.41-.16.13-.46.1-.7.15C925.26,321.32,927.36,320.81,928.36,319.2Z"/><path class="cls-41" d="M912.62,328c-3.07,1-6.23.2-9.34.47C906.35,327.4,909.51,328.25,912.62,328Z"/><path class="cls-41" d="M921.48,324.6l-4,1.91A3.46,3.46,0,0,1,921.48,324.6Z"/><path class="cls-41" d="M902.29,330v5.38A6.48,6.48,0,0,1,902.29,330Z"/><path class="cls-42" d="M784.31,357.9c-4.4,4.5-8.67,9.28-14.62,11.73-3.76,1.55-7.22,4.18-11.62,4a4.64,4.64,0,0,0-1.65.37,29.46,29.46,0,0,1-10.59,1.59c-5.32-.16-10.64-.08-16,0-1.52,0-2.63-.37-2.93-1.92a35.28,35.28,0,0,1-1-6.72q-.09-50.2,0-100.42,0-21.62,0-43.24a29.22,29.22,0,0,1,.86-6.25c.32-1.5,1.22-2,2.76-2.21,7.11-.82,14.24-.57,21.33-.31a49,49,0,0,1,11,1.67c7.51,2,13.13,6.74,18.63,11.5a33.74,33.74,0,0,1,8,10.93,65.26,65.26,0,0,1,4.5,10.59,19.31,19.31,0,0,1,.77,4.05c.25,3.73.5,7.47.51,11.21,0,20.89,0,41.79,0,62.69,0,3.83-.77,7.62-.52,11.46.13,2-1.36,3.44-2,5.17-1.88,5-3.38,10.18-7.29,14.13-1-1.2-.51-2.28.25-3.35,3.47-4.93,5-10.79,7.49-16.15a7.86,7.86,0,0,0,.32-3.39q0-39.08,0-78.13a27.5,27.5,0,0,0-3.19-12.69c-2.45-4.69-4.68-9.56-8.33-13.53a48,48,0,0,0-19.58-13,33.57,33.57,0,0,0-11.8-1.57c-5.74,0-11.47,0-17.2,0-3.33,0-3.91.68-4.19,4-.47,5.38,0,10.75,0,16.12q.06,51.43,0,102.86c0,6.69-.61,13.36-.51,20.06.06,4.24.57,8.45.65,12.68a2.34,2.34,0,0,0,.86,1.23c2.86,1,5.82.49,8.7.41q5-.14,10-.12a32,32,0,0,0,9.33-1.45c2.84-.85,5.84-1.22,8.63-2.38a14.92,14.92,0,0,0,2.16-1.06,12.9,12.9,0,0,1,1.89-1.21,29.14,29.14,0,0,0,10.2-7.67,4,4,0,0,1,.69-.84C781.72,357.73,782.76,356.7,784.31,357.9Z"/><path class="cls-37" d="M947.53,292.72c.23-2.77-.52-5.6.47-8.34C947.76,287.16,948.56,290,947.53,292.72Z"/><path class="cls-43" d="M851.27,305a87.08,87.08,0,0,1-21.94-2.26c-2.46-.59-6.39,2.69-7.08,5.7a14.37,14.37,0,0,0,0,7.45c1.51,5.07,1.48,10.27,1.46,15.48q0,17.4,0,34.78a16,16,0,0,1-.51,4.09c-.89,3.37-1.95,4-5.44,3.44a8.18,8.18,0,0,0-3.64.21c-2.68.76-5.17-.3-7.6-1.16a2.44,2.44,0,0,1-1.51-2.34c-.27-8-.65-15.89-.15-23.89a168.94,168.94,0,0,0-.14-22.72,169,169,0,0,1-.28-17.3c.28-10,0-20.07.11-30.11,0-4.64,0-9.26.32-13.91.33-4.41-.59-8.89-.71-13.35-.08-2.9.29-5.82.45-8.74.29-5.57,1.31-11.11.46-16.73a9.59,9.59,0,0,1,.25-4.11c.81-2.8,1.86-3.48,4.82-2.9a12.32,12.32,0,0,0,2.43.19c12.35,0,24.71.19,37.06-.09,4.56-.11,9.08-.61,13.59.41a7.09,7.09,0,0,1,5.68,6.73c.07,2.2,0,4.41,0,6.61a3,3,0,0,1-2.12,3c-3.22,1.33-6.69,1.35-10,1.25-6.69-.19-13.36-.49-20.05.17-2.92.28-5.89.06-8.84.09s-4.57,1.65-4.65,4.48c-.11,4.14-.38,8.28-.38,12.39,0,9.38-.74,18.73-.66,28.1,0,2.75,1.39,4.84,2.64,7,.9,1.54,4.77,2.18,6.84,1.07a10.84,10.84,0,0,1,7.49-1.17c2.22.4,4.57,0,6.86.09,5.84.14,11.67.29,17.51.49,2.29.08,4.14,1,4.92,3.33.43,1.23,2.08,1.5,2,3.17-.1,2.22.14,4.4-2.22,5.73a3,3,0,0,0-1.34,1.39c-1.41,4-5,3.59-8.1,3.95A72.93,72.93,0,0,1,851.27,305Z"/><path class="cls-44" d="M927.34,285.8c-1.4,7.83-4.76,14.79-12.93,19-2.72,1.41-5.54,1.52-8.24,2.49-2.86,1-4.7-1-4.26-4.37,1-7.17,4-12.92,10.51-16.93,3.8-2.36,7.49-4,12-3.56C926,282.61,927.78,282.79,927.34,285.8Z"/><path class="cls-45" d="M784.31,357.9c-1.53-.47-2.44.57-3.42,1.42,0-3.41-1.16-5.77-4.72-7-1.73-.61-1.85-4.45-.64-6,.31-.39.71-.87,1.19-.75,2.36.57,5.22-.06,6.71,2.72.36.67.73,1.49,1.69,1.49.18-.13.31-.3.25-.44-2-4.79-1.18-9.82-1.24-14.75a106.78,106.78,0,0,0-.88-10.73c-.24-2.07-.33-4.08,1.72-5.49a3.09,3.09,0,0,0,1.07-2.86c-.13-12.81.33-25.62-.22-38.43-.11-2.51.37-5,.24-7.57a5.75,5.75,0,0,0-.4-2.84c-1.63,1.08-1.92,2.68-2.06,4.37-.23,2.7.42,5.36.44,8.05.07,7.75.26,15.51-.06,23.25-.2,4.65-.13,9.31-.5,13.93A21.78,21.78,0,0,1,780,326.6a14,14,0,0,0-2.54,9.95,8.55,8.55,0,0,1-1,4.74,7.07,7.07,0,0,0-1,2.23c-.23,3.11-2,4.43-5,4.62a8,8,0,0,0-1.43.33c-4,1-4.51,2.78-1.69,5.61a15.06,15.06,0,0,1,1.83,2.6c.44.7,1.74,1.14,1.12,2.15-.44.72-1.51.31-2.31.3A37.37,37.37,0,0,1,758.8,358a5.6,5.6,0,0,0-2.19-.19,2.34,2.34,0,0,0-2.12,1.43c-.32.95.41,1.51,1,2.06,1.85,1.71,4,3.07,5.58,5.11,1,1.3,2.84,1.48,4.52,1.57,1,.05,2.16-.16,3,.73-3,1.61-5.85,3.57-9.39,3.37-1.91-.1-3.09,1.31-4.8,1.58a40.17,40.17,0,0,1-7.81.41c-5.49-.18-11,.65-16.46,0-.63-.07-1.33.15-1.8-.5.78-.91,2-.36,2.93-.86-1.18-2.75-1.18-2.75,1.61-5.19-2.14-1.08-3.18-.6-3.17,1.63a4.14,4.14,0,0,1-1.9,3.42,36.54,36.54,0,0,1-.91-10.08c.71-41.1.29-82.22.4-123.33,0-4.52-.21-9-.38-13.55a50.07,50.07,0,0,1,.73-8c.21-1.62,1.23-2.3,2.92-2.29,8.51.05,17-.28,25.54.16,4.22.22,8.2,2.26,12,4.26A45.32,45.32,0,0,1,783,231.93c2.71,3.47,4.57,7.46,6.62,11.31,2.87,5.39,3.64,11.27,3.61,17.36q-.16,37.23,0,74.44c0,3.08-1.28,5.52-2.22,8.14a110.87,110.87,0,0,1-4.7,10.3c-.69,1.45-2.68,2.31-2,4.39Z"/><path class="cls-46" d="M768.6,368.67c-1.15,0-2.3.07-3.44,0-2.41-.21-4.59-.73-5.87-3.21-.9-1.77-3.1-2.24-4.44-3.7-.8-.87-1.84-1.44-1.4-2.77s1.69-1.86,3.06-2.06c2-.29,3.82.75,5.72,1.09,2.66.48,5.32,0,8.32.81-2.71-1.8-3.47-4.73-5.91-6.27-.93-.59.84-3.9,2.34-4.3a45.35,45.35,0,0,1,5.25-1.1c1.21-.17,2.24-.65,2.18-1.85-.09-1.78.9-3,1.52-4.53a8.18,8.18,0,0,0,.7-4.92,11.91,11.91,0,0,1,2.32-9A22.05,22.05,0,0,0,782.83,315c.48-11.24.57-22.48.55-33.72,0-3.51-.68-6.95-.6-10.46,0-2,1.23-3.31,1.86-4.95.22-.58.9-.66,1.5-.48s.65.69.63,1.18c-.11,3,.43,6.06-.29,9-.32,1.32.33,2.38.33,3.6q-.06,18.6,0,37.2c0,.94,0,2-.92,2.36-2.44.86-2.3,2.84-2,4.63,1.19,6.46.92,13,.9,19.46A10.86,10.86,0,0,0,786,348.5c.55.95.82,2-.22,2.57s-1.62-.45-2.23-1.08a5.26,5.26,0,0,1-.73-1.24c-.72-1.38-1.54-2.55-3.41-1.92a2.47,2.47,0,0,1-.94,0c-.9-.08-2-2.05-2.63.1-.58,1.78-1,3.69.84,5.12a5.06,5.06,0,0,0,1.31.67c3.8,1.43,3.92,1.66,3,5.6a7.77,7.77,0,0,0-.09,1l-.51.53a1.76,1.76,0,0,1-1.09.93c-3.76.69-5.95,3.47-8.24,6.12a4.14,4.14,0,0,1-1,.75Z"/><path class="cls-46" d="M727.81,372.55c.26-1.6,2-2.79,1.13-4.78-.28-.62.72-1.45,1.6-1.49,1.1-.06,2.38-.5,3.25.43s0,1.41-.76,1.79c-1.69.86-3.66,1.53-.79,3.54.93.65.42,1.45-.73,1.5s-2.12,0-3.17,0A.93.93,0,0,1,727.81,372.55Z"/><path class="cls-45" d="M770.09,367.65a14.43,14.43,0,0,1,10.29-7.8c-.7,1.93-2.52,2.92-4,4C774.51,365.37,772.57,367,770.09,367.65Z"/><path class="cls-47" d="M925.36,287.19c-1.11,6.77-4.47,13-12.17,16.5a16.62,16.62,0,0,1-6.13,1.88c-3.69.19-4.51-.56-3.68-4,2.09-8.78,7.58-14.46,16-17.45a16.87,16.87,0,0,1,3.11-.55C924.86,283.16,925.45,283.68,925.36,287.19Z"/><path class="cls-46" d="M735.67,299.86c0,10.61-.19,21.23.09,31.83.12,4.47-.11,8.9-.11,13.35,0,1.66.3,3.09,2,3.81.22.1.61.28.59.38-.34,2.62,2.39,3.8,2.81,6,.22,1.13.28,2.44,2.06,1.85.35-.12.75,0,.83.3.55,2.33,3.69,2.06,4.35,4.34.11.39.9.77,1.42.85,2.15.32,2.69,1.07.89,2.66-.19.16-.47.39-.45.56.38,3.44-2.19,2.14-3.78,2.31-2.18.23-4.38.45-6.57.47-1.61,0-3.35-.08-3.87-2.18a1,1,0,0,0-.44-.57c-3.68-2.12-3-5.67-2.51-8.81a10.16,10.16,0,0,0-2.35-8.79,5.36,5.36,0,0,1-1.4-3.77c0-26-.26-52.08.16-78.12.15-9.61.1-19.23.35-28.84.06-2.51.52-2.93,2.9-2.38,1.89.43,4.23-.16,5.21,2.37.19.49.86.22,1.33,0a23.32,23.32,0,0,1,2.28-.88c1.35-.39,2.8-.76,3.91.43s.67,2.41.12,3.66c-.16.36-.45.89-.31,1.13,1.46,2.48.84,4.65-.83,6.73a.74.74,0,0,0-.09.67c2.65,3.89.74,8.2,1.12,12.3.21,2.25-2.19,3.46-4.28,2.5-.45-.21-.87-.46-1.33-.63-2.56-1-4.12.07-4.12,2.84Q735.65,283.08,735.67,299.86Z"/><path class="cls-48" d="M747.47,294.88V239.8c0-3.62.84-4.43,4.48-4.39,4.11,0,7.6,1.9,10.67,4.22a26.82,26.82,0,0,1,7.32,8.14,20.68,20.68,0,0,1,3,10.07c.07,25,.12,49.93,0,74.9a18.18,18.18,0,0,1-5.52,12.82c-2.85,2.9-5.82,5.4-10,6.69a21.61,21.61,0,0,1-6.77,1.27c-2.83,0-3.23-.46-3.23-3.33V294.88Z"/><path class="cls-49" d="M748.92,297.85c0-16.57,0-33.14,0-49.71,0-2.92-.94-5.77-.19-8.75.59-2.3,1.61-3.07,3.83-2.55,4.87,1.15,9.33,3.15,12.64,6.89a24,24,0,0,1,5.51,9.64c2.29,8.33,1.11,16.71,1.22,25.05.24,17.3.35,34.61,0,51.91a21.56,21.56,0,0,1-11.22,19.05,23.71,23.71,0,0,1-8.06,3c-3.27.53-3.69-.08-3.69-3.38q0-21.93,0-43.84Z"/></g></g></g><g id="PowerShell"><g class="cls-50"><g id="Brazil-2" data-name="Brazil"><path class="cls-2" d="M-124.13,360.45l-8.56-12.26c.38-2.52.07-5.49,3.8-5.86,3.48.59,6.11-.91,8.62-3.19C-106.91,327-91.24,318.55-75,311c4.89-2.29,9.85-3.86,15.14-1.25,5.92,15.78,21.75,13.84,33.77,18,11.36,3.95,24,3.92,35,9.81,3.65,1.95,8.12,1.36,12.2,1.8,12.61,1.35,24.4,6.24,37,7.86,7.61,1,13.59-.56,19.18-6.38,15.54-16.17,32.35-31.06,48.63-46.48,1.47-1.4,3.12-2.78,5.4-2.76a4.28,4.28,0,0,1,2.46,1.89c1.11,8.76,6.75,16.28,6.41,25.61-.15,4.15,3.88,7.59,5.76,11.51,6.8,14.17,5.18,28.46.46,42.61-1.36,4.06-1,5.87,3,6.95,1.65,3.27-.34,5.35-2.7,6.86-12.37,8-23.39,18-36.08,25.21a58.21,58.21,0,0,1-41.36,6.69c-14.13-3.07-28.6-3.71-42.64-7.3-27.76-7.1-56.18-11.52-83.65-19.86-15.4-4.67-29.6-12.33-44.59-18.08C-109.7,370.67-115.69,363.29-124.13,360.45Z"/><path class="cls-3" d="M711.07,588.34l-32.76,22.8c-10.15.3-19.89,3.23-29.74,5.19a43.58,43.58,0,0,1-18.3,0c-4.47-3-5.54-7.6-5.8-12.53-.2-3.87-.05-7.76,0-11.64.24-9.07,1.36-18.13-4.6-26.25-1.73-2.37-2.51-6,.19-8.93,17.19,1.36,34.41-.65,51.71,1,12,1.14,24.5,2.73,36.56-2.46,4.61-2,10.63-2.26,14.24,3.23,2.75,4.17.61,13.57-4.33,18.27C714.87,580.26,711.74,583.46,711.07,588.34Z"/><path class="cls-4" d="M131.22,292.06c-8.9,6.5-15.62,15.37-24.11,22.28-11.64,9.49-21.34,20.88-31.83,31.51-3.46,3.51-8.58,3.81-12.88,3.89A49,49,0,0,1,45,346.89c-10.89-4-22.08-5.57-33.5-6.41a8,8,0,0,1-3.91-1.14c-7.16-5.11-15.71-6.14-23.92-7.44-12.52-2-24.16-6.89-36.39-9.75-5.89-1.37-6.18-6.65-6.86-11.44,1.64-8.07,6.43-14.95,8.48-22.95,5.8-22.73,15.19-44.3,22.48-66.55a22.87,22.87,0,0,0,1-12.18A130.65,130.65,0,0,0-36,182.23c-5.91-13.07-10.52-26.81-20.19-37.92a89.67,89.67,0,0,0-8.38-7.94c-8.77-7.84-18.87-14.37-25.76-24.17-4.46-6.34-4.48-9,.37-14.78,9.38-11.22,17.2-23.75,29.44-32.57,7-5,13.44-6.55,21.05-2.66.82.42-.21-.08.61.32,18,8.83,20.19,6.74,28.24-13.38a32.31,32.31,0,0,1,7.08-14C.76,29.94,2.7,23.51,6.27,17.91c3.1-4.88,1-9.07-4.88-12.14C-3.82,3-9.93,1.84-13.92-3c-7.42-10.25-5.77-17,5.61-22.24A18.19,18.19,0,0,0-1.7-30c6.45-7.7,15-12.77,23.11-18.42,1.14-.8,2.46-2.51,4-.47C22.54-43.58,16-42.39,12.52-38,6.37-30.25-1.78-25.15-9.56-19.45-17-14-16.2-8.67-7.66-4.78c5.41,2.46,11,4.5,16.28,7.26,7.74,4.08,9,10.2,4.55,17.75C7.72,29.48,1,38-2.91,48.11c-2.48,6.42-6.22,12.12-9.3,18.17-2.35,4.63-6.67,8.41-12.87,7.06-4.25-.92-8.8-1.5-12.55-3.48C-52.07,62.22-57,66.57-67.37,78.53c-6,6.87-11.31,14.3-17.12,21.33-4.51,5.46-3,10.78,2.7,15.06,9.73,7.29,19.61,14.45,27.5,24,12.57,15.22,19.5,33.39,28.07,50.79,8.49,17.25,3.64,33.16-2.15,49.4C-33.92,254.63-40.16,269.88-44,286c-1.78,7.45-5.74,14.37-8.62,21.57s-1.51,10.46,6,12.6c9.47,2.68,19.05,5,28.64,7.25,24.26,5.7,48.59,11.09,72.8,17,9.12,2.23,17-.23,22.36-6.87,7.36-9,17.35-15,24.88-23.59,9.24-10.52,20.61-18.68,30.62-28.34,4.94-4.76,13.22-8.35,21.62-6.35-.17.93-.52,2.08-1.36,2.24C144.73,283,138.3,288.21,131.22,292.06Z"/><path class="cls-7" d="M-124.13,360.45c3.59-.64,7.19-.05,9.7,2.35,9,8.67,21,11.47,31.78,16.7,23.23,11.25,48,16.85,73.11,21.92,17.21,3.48,34.05,9.54,51.4,11.41,15.51,1.68,30.61,7.26,46.76,4.67,16.82-2.7,30.06-11.57,42.57-22A41.83,41.83,0,0,1,139,390.2c4.14-2.12,9-4,9.89-9.66.13-1.58,1.19-2.42,2.47-3.08C165,372,178,377.4,191.08,380.1c27.13,5.6,53.9,12.68,81.42,16.62,21.53,3.08,42.8,7.9,64.18,12a8.28,8.28,0,0,1,4.89,2.32,3.19,3.19,0,0,1,.66,2.89c-13.86-2.91-27.89-4.87-41.8-7.49-15.29-2.88-30.71-5.63-46.2-7.5-8.95-1.08-17.18-4.59-25.92-6.3-21.1-4.12-42.13-8.57-63.24-12.66-4.25-.82-8.06,1.34-11.42,3.9-13,9.89-27,18.29-39.62,28.75-10.42,8.61-23,12.11-37.19,10.24a773.73,773.73,0,0,1-78.33-15c-26.72-6.38-53.83-11.21-79.24-22.11-10.71-4.6-21.15-9.76-31.5-15.14C-117.17,368-121.84,365.82-124.13,360.45Z"/><path class="cls-8" d="M211.53,281.52c10.23-3.19,20.44-.12,30.64.1,28,.58,55.51,5.91,83.44,7.19,6.76.31,13.78.41,20.41,2.57,11.61,3.79,19,13.07,26.72,21.46,5.25,5.7,9.84,11.93,16.11,16.71,3,2.33,6.32,5,8.06,8.3,6.82,12.81,20.41,19.46,28,31.5,5.17,8.22,14.66,12.08,20.27,20,2.5,3.54,7.66,3.89,11.86,4.65,33.17,6,65.7,15.06,99.14,19.63,4.87.67,9.31,2.63,13.62,4.68,6.33,3,4.88,10,5.89,15.16,1.89,9.61.47,19.59.6,29.37.13,10.33,2,20.65,1.67,31.12-.41,13.62-.33,27.26-.09,40.88.18,10.75,9,17.55,20.65,16.52,3.15-.27,6.3-1.72,9.48-.17a4.19,4.19,0,0,1-1.61,3.64c-9.06,3.15-17.71,1.86-25.73-3-6.77-4.07-7.82-11.37-7.81-18.18,0-17.43-.61-34.85-.47-52.29.12-16.17.72-32.56-2.17-48.68-.93-5.19-3.73-8.55-8.47-10.87-7.43-3.65-15.58-3.8-23.44-5.26-19.41-3.62-38.57-8.43-58-11.92-8.07-.2-15.82-2.3-23.65-3.87-11.16-2.22-19.55-9.46-26.26-17.58-7-8.47-14-16.8-22.2-24.06-6.9-11-16-19.94-25.5-28.6a11,11,0,0,1-1.72-1.39c-3.75-3.87-5.91-9-9.88-12.67a18.47,18.47,0,0,1-1.59-1.34c-5-4-9.4-8.62-14-13-2.45-1-4.24-3-6.36-4.45-5.43-3.54-11.66-3.52-17.8-3.95a13.68,13.68,0,0,1-1.92,0c-32-2.06-63.61-8-95.76-8.41-5.92-.08-11.73-2-17.77-1.29C214.12,284.21,212.1,283.84,211.53,281.52Z"/><path class="cls-9" d="M711.07,588.34c-3.56-5.37.87-8.2,4.06-10.68a15.79,15.79,0,0,0,5.75-8.25c1.09-3.66,3-7.67-.37-11s-8.23-2.8-11.59-1.38c-15.37,6.46-31.07,3.17-46.57,2.25-10.33-.61-20.62-1.66-30.68.91-4.65,1.18-6.95-3.29-10.89-2.73-3.48.22-7.33,2.15-9.84-2.1a4.82,4.82,0,0,1,1.89-2.42c10.93-1.49,21.87-.45,32.8-.17,13.77.35,27.5,1.25,41.23,2.47,8.36.74,16.3-2.25,23.93-5.63,2.31-1,4.56-2.19,7-3,3.72-1.29,7.54-3,11,.44a13,13,0,0,1,3.64,13.25,64.17,64.17,0,0,1-10,20.27Z"/><path class="cls-11" d="M342.23,413.89l-1.56-2.39c7.17-3.33,13.34.47,18.17,4.3,13.05,10.32,25.42,21.52,38.25,32.14,10.84,9,21.43,18.25,32.7,26.74,7.25,5.46,14.86,10.58,21.36,17.07,3.68,3.68,9,5.34,12.56,9.34,4.83,5.64,11.79,8.54,17.22,13.52,13.77,12.61,28.24,24.45,41.63,37.49a56.24,56.24,0,0,1,8.56,11.55c1.06,1.76,3,3.93-.07,5.82-4.25-3.65-5.78-9.47-10.3-12.91-6.73-6-13.17-12.33-20.3-17.78-4.21-3.22-7.59-7.38-11.63-10.34-6-4.4-11.08-9.92-17.3-13.86-4.18-2.64-7.84-5.44-10.4-9.65a10.84,10.84,0,0,0-5-4.54c-8.29-3.55-13.53-11-20.84-15.9-6.91-4.6-13.48-9.73-20-14.92-6.68-5.34-13-11.13-20-16.08-9.6-6.75-16.42-16.85-26.84-22.7-.4-.22-.93-.41-1.11-.77C362.12,419.74,351.29,418.18,342.23,413.89Z"/><path class="cls-12" d="M211.53,281.52c9.72.84,19.42,1.78,29.15,2.48,18.88,1.36,37.84,1.69,56.56,5.17,8.47,1.58,17.25,1.55,25.9,2.16,2.52.18,5,.22,7.33,1.44-2.83,4.4-7.34,1.86-11,2.72-18,.61-35.51-3.89-53.29-5.18-32-2.32-64-4.6-96.11-3.83-6.18.15-12.3-1.69-18.52-.53-8-1.11-12.74,4.88-18.64,8.37l-1.66-2.26c4.92-5.95,10.64-10.46,18.79-11,1.47-.1,2.88-1.18,4.31-1.81h.12c3.91,0,7.82-.14,11.72.17Z"/><path class="cls-13" d="M520.75,556.56c5.26,2.76,6.76,8.61,10.45,12.66,4.73,7.62,3.83,16.27,4.38,24.64.12,1.83-.14,3.67-.07,5.5.47,11.85,1.49,12.5,13,15.55,22.18,5.88,44.94,5.31,67.54,6.68,2.35.14,4.5-.77,6.63-1.66a13.11,13.11,0,0,1,1.93-.52c1.56-.3,3.22-.83,4.71-.52,10.55,2.19,20.67-1.24,31-2.19,2.44-.22,5.58-1.58,6.73,2.3-8,7.57-18.37,6-27.89,6.37-5.35.2-10.73-.65-16.26.15-20.64,3-41.06-.06-61.46-2.74-5.24-.69-10.41-1.85-15.62-2.73-13.74-2.34-14-5-14.58-18.73-.45-11-1.06-21.86-3-32.54C527.38,564.4,523.32,560.62,520.75,556.56Z"/><path class="cls-14" d="M722.35,580.52c.06-6.73,6.22-11,7.15-17.37.33-2.24,1.68-4.38,1.74-6.59.24-7.91-5.12-11.56-12.52-8.44-9.71,4.08-19.2,9.16-30.07,8.74-16.92-.65-33.82-1.92-50.73-2.66-8.14-.36-16.3-.12-24.45-.15-2.4-.14-4.88,2.17-7.2-.22l1.7-2.61c3-1.72,6.19-1,9.4-.94,23,.47,46.06.49,69,3.21,8.77,1,17.13-3.67,25.29-7.27a72.92,72.92,0,0,1,14.24-4.48c6.33-1.34,8.75,3.78,10,8.2C738.6,559,731,575.21,722.35,580.52Z"/><path class="cls-4" d="M166.16,279.45a16.08,16.08,0,0,1-11.72-.17C158.38,277.29,162.28,277.71,166.16,279.45Z"/><path class="cls-18" d="M132.88,294.32c4.17-7,10-10.92,18.45-9.65-6.3,5.12-4.48,11.08-2.79,17.77,4.63,18.36,11.78,36,15.9,54.46.25,1.12.88,2.28.64,3.36-1.35,6,1.75,9.87,6.16,13.14-3.71,3.44-8.82,1.37-13,3.3a20.53,20.53,0,0,1-5.81,1.3l-3.57,2.54c-2.13-.48-4.54,2.43-6.34-.14-1.62-2.32.61-4.27,1.42-6.32,6.53-16.59,6.92-32.88-2.87-48.37-2.42-3.84-4.32-7.43-3.43-12.13a8.71,8.71,0,0,0-2-7.77C132.53,302.45,132.25,298.54,132.88,294.32Z"/><path class="cls-19" d="M631,615.85c-1.4,2.76-4.9,2.49-6.72,4.65l-.26.07c-7.71,3.83-15.73.67-23.58.93-13,.43-25.94-1.76-38.91-2.76-6.61-.51-12.78-3.34-19.32-4.59-4.06-.77-5.18-4.38-5.61-8.39-1.23-11.57-.23-23.33-3.41-34.74a81.48,81.48,0,0,0-3.94-10.88c-7-10.3-4.62-21.61-2.92-32.61.85-5.47,2.5-10.82,1-16.29-4.12-14.64-3.84-29.53-2.13-44.38,1.07-9.38,1.51-18.76,2-28.14.45-9.1,4-15.91,12.62-19.62,23.77-3.39,31.32,8.83,32,29.34.55,17.05,1.21,34.09.12,51.28-.76,12,.63,24.58,1.46,36.88,1,15,8,15.88,19.58,19.18a21.1,21.1,0,0,0,12.9-.57,5.09,5.09,0,0,1,5.21.63c3.28.43,6.7,0,9.78,1.59-1.55,4.85.35,8.86,3.23,12.5,2.24,2.84,3.68,6.11,3,9.48-1.61,7.75-.08,15.52-.84,23.27C625.65,607.63,627.62,612.1,631,615.85Z"/><path class="cls-20" d="M-9.21,48.84c-1-1.18-1.91-3.1-3.18-3.42C-23.13,42.73-29.51,34-37.64,27.72c-3.71-2.86-7.91-5.09-11.89-7.6,7.09-6.59,2.61-13.61-.42-19.38-4.74-9-9.4-17.94-12.17-27.83-1.58-5.63,3-8.63,4.58-12.89,6.8-5.74,14.22-10.91,20.25-17.39C-30-65.2-19.47-69-13.09-77.59c6.79-9.11,16.59-14.27,25.25-21,9.79-7.56,21-13.29,27.46-25,2.88-5.24,9.19-7.76,16.18-4.58,7.43,3.39,15.43,5.56,22.74,9.17,8.37,4.13,17.31,3.79,26.11,4.77-1.76,5.3-.84,10.34,1.35,15.3a26.3,26.3,0,0,1-.73,23.78c-.42.82-1.29,1.71-1.12,2.47,2.12,10-.34,21,6.43,29.92-8.25,5.56-11.48,5-17.33-3.15-1.32-1.83-2.6-3.68-3.9-5.53-2.41-2.7-2.71-6.16-3.34-9.5-2.89-7.16-5.68-14.29-10.6-20.48-5.49-6.93-16.48-7.94-20.93-.37-3.31,5.62-8.42,8.8-12.3,13.37C33.61-58.31,22.93-51.06,12.64-43.07,3.77-36.18-5.28-29.57-14.29-22.88c-4.86,3.61-6.25,9.14-5.28,14.77.64,3.78,4.09,5.19,7.9,5.11,4,3.67,9.24,4.88,14,7,7.94,3.61,8.77,9.8,4.6,17.28C1.74,30.61-5.25,38.86-9.21,48.84Z"/><path class="cls-23" d="M152.44,378c5.75-3.29,12.38-2.93,18.54-4.51,10.41-1.44,19.63,3.68,29.49,5.22,23.08,3.61,45.28,11.06,68.54,14.25,26.06,3.58,52.05,8.19,77.48,15.22,2.22.61,4.52.82,6.76,1.35,8.28,3.68,14.76,10.06,21.44,15.72,16.89,14.33,33.91,28.52,50.57,43.13,9,7.88,19.34,14.43,28.83,21.93,2.34,1.85,4.88,3.41,6.66,5.89,1,1.69,2.13,3.37,1.44,5.52-15.35-11.43-30.29-23.38-45.25-35.32-19.33-15.43-37.84-31.76-56.76-47.64-5.59-4.7-12.27-6.79-19.51-7.26-15.69-3.28-31.49-6-47.18-9.15-22.15-4.5-44.64-6.89-66.61-12.76-13.58-3.62-27.7-5.84-41.52-9C174.59,378.12,163.73,374.93,152.44,378Z"/><path class="cls-24" d="M611,555.84c-6.28.28-12.26,3.45-18.87,1.17-14.46-5-20.14-4.74-20.33-23.74-.17-18.15-1.85-36.19-.51-54.52a142.54,142.54,0,0,0-3.14-43.38c-2.67-11.13-13.13-16.82-27.86-15-2.15.07-3.89,1.2-5.67,2.21-2,1.13-4.2,1.16-5.82-.31-9.21-8.4-21.46-8.14-32.43-11.48-4.93-1.51-10.7-.46-14.68-4.84a4.11,4.11,0,0,1-.52-3c19.91,4.22,39.77,8.74,59.76,12.53,7.64,1.44,15.35,2,22.62,5.21,5,2.21,7.73,6,8.28,10.88,1.29,11.31,1.55,22.7,1.88,34.11.57,20.06-.47,40.13.62,60.17.15,2.73-.25,5.5,0,8.22,1.22,14.65,7,20.19,23.09,20.56a75.84,75.84,0,0,0,8.87-.77c2.41-.06,4.84-.94,7.2.22Z"/><path class="cls-25" d="M481.17,402.92l1.53,2.27c-13,4.25-25.3,1.71-36.81-4.62-6.42-3.53-11.65-8.77-16.12-14.74-4.95-6.61-11.87-11.35-17.24-17.62C396.9,350,380,332.93,363.2,315.83c-3.36-3.41-5.41-7.84-9.43-10.77-6.42-4.67-13.58-6.33-21.31-6.38-4.5-1.27-10.57,1.57-13.09-4.91,3.67-.59,7.52.79,11.1-1a81.79,81.79,0,0,1,19.18,3.46l6.23,4.14c4.86,5,8.7,11.17,15.21,14.49h0c4.93,3.71,6.37,10.26,11.35,13.92h0a232.58,232.58,0,0,1,27.35,29.64c8.15,6.65,14.73,14.66,21.36,22.82,7.27,8.95,16.18,16.54,28.53,18.27C466.87,400.52,473.83,402.88,481.17,402.92Z"/><path class="cls-12" d="M409.81,358.42c-5.77-2.57-7.53-8.78-11.47-13-5.21-5.62-12.32-9.47-15.88-16.61C393.62,336.78,402.35,347,409.81,358.42Z"/><path class="cls-12" d="M349.65,296.23a86,86,0,0,1-19.18-3.46A27.67,27.67,0,0,1,349.65,296.23Z"/><path class="cls-12" d="M371.09,314.86c-7.88-1.89-10.89-8.88-15.21-14.49Z"/><path class="cls-12" d="M382.45,328.78c-5.67-3.11-7.39-9.42-11.35-13.92C376.79,318,378.51,324.27,382.45,328.78Z"/><path class="cls-26" d="M462.19,501.72,459.06,497a2,2,0,0,1,2.52-.36c10.5,7.88,24.82,10.36,32.58,21.94,7.09,10.59,17.26,18.06,25.88,27.07,4.12,4.29,5.1,10.93,10.91,13.74,6.41,14.76,6.66,30.55,7.32,46.22.2,5,2.23,7.17,6.91,8.46,20.05,5.5,40.65,5.77,61.2,6.56,5.86.22,11.74,1.49,17.62,0-4.91,4.87-10.94,2.14-16.46,2.28-15.34.38-30.56-1.56-45.76-3.17-7-.74-13.94-2.7-20.75-4.63-4.64-1.32-6.68-5.07-6.79-9.91-.29-12-.41-24.09-3-35.92-3.47-10.57-11.53-17.61-19.23-24.91-7.36-7-16-12.38-22.81-20.16-5.41-6.17-12.73-10.75-19.54-15.58C466.78,506.56,464,504.7,462.19,501.72Z"/><path class="cls-27" d="M319.37,293.77c3.43,3.62,8.15,2.31,12.31,3.19-9.53,11.68-3.66,24.33-1.64,36.34,1.08,6.46,2.52,13.47,6.7,19.15,3.41,7.46,6.38,15.06,7.43,23.26-1.52,12.52,3,23.72,7.56,34.91-14-3-27.89-6.66-42-9-15.73-2.55-31.23-6.45-47.21-7.63-11.71-.87-22.62-5.72-34.06-7.73-19.37-3.4-38.29-8.65-57.46-12.81-6.54-1.17-6.69-5.13-8.08-11.27-3-13.18-3.66-27.27-10.46-39.39a26.68,26.68,0,0,1-3.76-12.16c-.21-4-1.8-8-2.94-11.95-2.82-9.81-2.86-9.8,5.58-14.05,8.91-2.2,17.72.65,26.62.45,14.12-.33,28.25-.1,42.37.2,6.14.13,12.26,1.47,18.39,1.47C265.81,286.81,292.26,294,319.37,293.77Z"/><path class="cls-28" d="M351.73,410.62c-8.23-10.06-10.82-21.55-8.6-34.26,3.67,1.6,4.36,5.24,5.25,8.42a19.81,19.81,0,0,0,7.56,11.12c3.91,2.9,6.5,6.55,4.9,11.84-.82,2.71.54,4.37,2.77,5.59a41,41,0,0,0,6.28,2.82c15.67,5.34,26.8,16.43,36.8,28.92,1.88,2.35,3.78,4.6,6.48,6.05,1.42.76,3.24,1.38,3.92,2.73,5.52,11,17.71,13.13,26.26,20.06,1.75,1.41,4.14,3.35,6.17,1.62s.14-4.28-.7-6.32c-4.25-10.25-3.85-11.52,6.31-15.81,2.63-1.1,3.35-2.87,3.4-5.34.1-5.92-.87-11.36-5.52-15.7a30.32,30.32,0,0,1-9-16.66c-1.64-7.88-3.57-16-13.32-18.17a5.48,5.48,0,0,1-3.21-2.49c-14-21.51-32.24-39-51.41-55.72-2.59-2.26-5.69-4.37-7.06-7.47-3.87-8.82-13.39-13-17.26-21.74-.75-1.68-2.48-1.94-4.19-1.4a4,4,0,0,0-2.94,4.17c-.06,3.85.67,9.15-5.08,8.45-6.12-.75-4.69-6.16-4-10.48.07-.46.22-.9.3-1.35.37-2.12-.19-3.81-2.57-3.93a2.62,2.62,0,0,0-2.76,3.72c2,5.28,2.77,10.26,1.06,16-.9,3,2.67,5.55,4.8,8,5.82,6.51,5.48,13-1,19.84-6-9.93-8.51-20.92-9.47-32.36-.21-2.5,0-5.13-.77-7.48-2.26-7.28.16-12.49,6.5-16.26,13.51-1,22.5,5.33,31.44,15.31,11.79,13.17,23.82,26.29,36.89,38.39,7.28,6.74,12.44,15.79,20.06,22.35,9.31,8,15.64,18.91,26.12,25.77,8.28,5.42,17.6,5.73,26.89,6.44,3.19.24,6.41,0,9.62,0,1.75,2.28,4.45,2.35,6.88,2.58,11.66,1.11,22.47,5.84,33.95,7.71a4.4,4.4,0,0,1,1.31.31c9.53,4.74,9.53,4.74,15.46,4.59-12.42,5.29-11.74,16.69-11.94,27-.3,16-4,31.83-2.16,47.93.31,2.7.19,5.42,1,8.09,2.72,8.7,2.29,17.06.49,26.25-1.88,9.57-4.24,20.56,3.24,29.67-2.44.53-3.8-.91-5.08-2.66-6.29-8.63-12.94-16.62-22-22.89-5.93-4.1-8.6-12.13-14.24-17.31-4.39-4-8.52-7.55-14.54-9.55-5.8-1.93-10.7-6.54-16-10-7.51-5.33-13.79-12.16-21.82-16.95-5.53-3.3-10.25-7.94-15.3-12-13.88-11.24-26.85-23.53-41-34.52-6.5-5-13.09-10.32-19.28-15.91C358.63,414.81,355.93,411.66,351.73,410.62Z"/><path class="cls-31" d="M335.42,353.06q1.36-3.87,2.72-7.76c1.41-4,.8-7.21-2.5-10.5-4-3.95-10.7-7.53-4.42-15.15,1.77-2.15-.88-5.08-2.3-7.45a6.6,6.6,0,0,1,.6-8.3c1.89-2.13,4.23-1.26,6.38-.39,2.68,1.07,4.31,2.68,2.4,5.77a6.91,6.91,0,0,0-1.41,3.11c0,2.59-1.48,5.58,1.38,7.62a2.78,2.78,0,0,0,3.25,0c2.75-1.89,1.94-4.73,1-6.88-2.54-6,2.72-5.93,5.56-7.05,3.23-1.28,5.77,0,6.13,4.07s2.44,6.81,6.79,7.41a4.15,4.15,0,0,1,3.4,3A39,39,0,0,0,376,336.51a437.54,437.54,0,0,1,33.45,32.15c5.58,5.93,11,12.29,15.91,18.47,4,5.06,7.24,8.91,13.06,11.85,6.23,3.13,6.2,10.91,7.53,16.9,1.37,6.2,3.93,11.35,8.55,15.18,7.16,5.94,6,13.88,5.93,21.54,0,3.13-3,2.6-5.34,2.8-7.14.62-9,4.33-5.65,10.79a20.13,20.13,0,0,1,2.05,4.3c.6,2.46,3.65,5.07.66,7.5s-5.77.39-8.2-1.27c-5.41-3.69-10-8.78-17.16-9.28a2.61,2.61,0,0,1-1.76-1c-4.86-7.2-12.53-11.8-17.89-18.18-11.67-13.88-24-26-41.64-32-4.47-1.52-11.33-3-5.72-10.77,1.49-2.08-.65-5-2.4-5.9-9.46-5-10.57-14.82-14.21-23.2Z"/></g></g><g class="cls-51"><g id="Brazil-3" data-name="Brazil"><path class="cls-3" d="M540.89,562.61l-48.65-.68C482,555,470.25,551,459.09,546A53.39,53.39,0,0,1,441,533c-2.3-6.14-.08-11.47,3.16-16.52,2.55-4,5.46-7.74,8.31-11.51,6.68-8.81,14.22-17,14.08-29.26,0-3.58,1.77-7.73,6.52-8.72,16.07,13.55,34.56,23.79,50.52,37.7,11.05,9.64,22.33,20.1,38,23.52,6,1.31,12.14,5.31,11.82,13.3-.24,6.09-9,13.89-17.27,15C550.38,557.3,545,558.24,540.89,562.61Z"/><path class="cls-7" d="M-124.7-256c4,1.9,7.16,5,7.93,9.2,2.79,15,12.66,26.27,19.63,39.1,15,27.64,35.62,50.8,56.86,73.62,14.59,15.67,27,33.63,42.82,47.79,14.18,12.67,25.18,28.92,43,37.82,18.58,9.27,38,9.88,57.81,8.4a50.39,50.39,0,0,1,11.45.31c5.61.83,11.77,2.42,16.66-2.55,1.25-1.47,2.9-1.55,4.64-1.3,17.45,4.27,26.47,18.88,37.49,30.82C196.5,12,218,38,242.46,61.44c19.14,18.34,36.78,38.22,55.08,57.42a10.11,10.11,0,0,1,3.21,5.77,3.9,3.9,0,0,1-1.41,3.32c-11.66-12.71-24.16-24.62-36.08-37.08-13.11-13.71-26.43-27.38-40.45-40.24-8.09-7.42-13.76-16.73-21.2-24.63C183.64,6.94,166-12.4,148-31.43c-3.63-3.84-8.93-4.4-14.09-4.25-19.87.58-39.71-1-59.66.35-16.43,1.14-31.34-4.3-44.1-16.25C6.39-73.8-15.59-97.5-36.87-122c-21.94-25.29-45.37-49.32-62.8-78.15-7.34-12.15-14-24.68-20.46-37.36C-123.2-243.58-126.25-249.09-124.7-256Z"/><path class="cls-8" d="M263.84-95.95c12.39,4.1,20.32,14.39,30.28,21.84,27.28,20.43,50.79,45.26,77.55,66.36,6.48,5.11,13.35,10.19,18.39,17,8.81,12,9.52,26.41,11.24,40.22,1.16,9.38,1.28,18.81,4.09,28,1.37,4.48,2.7,9.46,2.1,14-2.34,17.53,6.4,33.76,5.35,51.06-.72,11.81,5.94,22.36,5.85,34.23,0,5.28,4.83,9.29,8.46,13,28.62,29.45,54.39,61.56,84.27,89.83,4.35,4.11,7.36,9.22,10.16,14.3,4.13,7.49-2.27,13.4-4.92,19.21-4.95,10.85-13.44,19.73-20.26,29.51-7.2,10.33-12.69,21.86-20.44,32-10.07,13.19-19.67,26.76-29.11,40.42-7.44,10.79-3.53,23.78,8.73,31,3.32,2,7.47,2.76,9.52,6.56a5.12,5.12,0,0,1-4.18,2.47c-11.21-3.32-18.86-10.74-23.38-21.21-3.82-8.83.32-16.8,5.16-23.55,12.38-17.26,24.14-35,36.65-52.13,11.61-15.93,23.83-31.74,32.42-49.76,2.76-5.8,2.37-11.12-.67-16.79-4.77-8.89-12.75-14.82-19.49-21.85-16.67-17.36-32.23-35.72-49-53-7.85-5.92-14-13.51-20.68-20.62-9.47-10.13-12.65-23.25-13.53-36.06-.92-13.35-1.9-26.55-4.91-39.59.94-15.76-1.73-31.13-5-46.44a13.7,13.7,0,0,1-.71-2.6c-1-6.49.51-13.08-.8-19.56a22.69,22.69,0,0,1-.62-2.46c-2-7.51-3.18-15.21-4.62-22.84-1.7-2.75-2.09-6-3.14-8.93C385.76,10.38,379.57,6,373.79,1.2a17,17,0,0,1-1.87-1.41C341.69-24.95,314.59-53.31,283-76.52c-5.81-4.28-10.23-10.27-16.69-13.89C264.5-91.45,262.75-93.24,263.84-95.95Z"/><path class="cls-9" d="M540.89,562.61c.28-7.85,6.68-7.52,11.59-7.71A19.2,19.2,0,0,0,564,550.81c3.67-2.85,8.41-5.46,7.46-11.18S565.34,531,561,530c-19.82-4.51-33-18.91-47.73-30.83-9.81-7.94-19.26-16.28-31-20.88-5.46-2.13-4.56-8.18-8.86-10.44-3.6-2.25-8.79-3.06-8.25-9.06a5.79,5.79,0,0,1,3.58-1.05c11.88,6.28,22,15.08,32.62,23.11,13.39,10.12,26.35,20.76,39.08,31.72,7.76,6.67,17.76,9.34,27.71,11.41,3,.62,6.07,1.06,9,1.94,4.59,1.37,9.58,2.42,10.54,8.22a15.82,15.82,0,0,1-5.8,15.72c-7.22,5.91-15.51,9.92-24.29,13Z"/><path class="cls-11" d="M299.34,128l.15-3.47c9.48,1.79,12.89,9.94,15,17.16,5.59,19.49,9.9,39.37,15.06,59,4.37,16.59,8.28,33.29,13.42,49.71,3.3,10.55,7.2,21,9,32.07,1,6.26,5.15,11.69,5.82,18.17.78,9,5.61,16.83,7.46,25.61,4.69,22.26,10.62,44.27,14.62,66.69,1,5.81.75,11.69.29,17.52-.2,2.49.16,6-4.2,5.72-1.63-6.64,1-13.49-1.05-20.1-2.42-10.7-4.28-21.57-7.48-32-1.89-6.18-2.28-12.7-4.18-18.49-2.82-8.63-3.93-17.7-7.3-26-2.26-5.58-3.9-11-3.45-16.94a13.26,13.26,0,0,0-1.76-8.06c-5.68-9.4-5.56-20.54-9.35-30.55-3.58-9.46-6.44-19.2-9.19-29-2.82-10-4.95-20.24-8.41-30.14-4.71-13.5-4.3-28.35-10.47-41.53-.24-.5-.63-1.08-.56-1.56C314.89,147.87,305.27,138.64,299.34,128Z"/><path class="cls-12" d="M263.84-95.95c9,7.72,18,15.55,27.11,23.15C308.69-58,327.23-44.27,343.31-27.53c7.27,7.58,16,13.78,24.12,20.52,2.37,2,4.83,3.79,6.24,6.63-5.92,2.35-8.59-3.36-12.86-5.13-18.27-12.18-32.41-29.07-49.11-43-30-25-60.12-50-92.48-72-6.23-4.24-11-10.4-18-13.68-7.09-6.74-16.08-4.2-24.4-4.93,0-1.14,0-2.28,0-3.42,9.1-2.4,18-2.81,26.41,2.47,1.52,1,3.68.87,5.54,1.27l.12.08c3.86,2.79,7.85,5.41,11.49,8.5Z"/><path class="cls-13" d="M374.9,396c3.26,6.46.59,13.32,1.37,20-.72,10.91-7.75,18.84-13.15,27.53-1.18,1.9-2.74,3.53-4,5.4-7.95,12.06-7.39,13.43,1.81,24.59,17.8,21.58,40.75,37.17,62.16,54.57,2.23,1.81,5,2.43,7.75,3.07a15.59,15.59,0,0,1,2.28.84c1.76.82,3.77,1.47,5,2.84,8.9,9.65,21.36,13.44,32.25,19.82,2.57,1.51,6.64,2.39,5,7-13.32,1.8-22.48-7.08-32.15-13.48-5.44-3.6-10.17-8.27-16.22-11.4-22.58-11.66-40.62-29.21-58.93-46.34-4.71-4.4-9-9.22-13.54-13.8-11.95-12.06-10.38-14.86-1.15-28.9,7.33-11.16,14.47-22.4,20.13-34.37C375.91,408.48,374.58,401.86,374.9,396Z"/><path class="cls-14" d="M557.61,562.87c4.83-6.63,13.94-6.46,19.41-12.14,1.92-2,4.77-3.15,6.41-5.29,5.85-7.67,3.13-15.09-6.41-17.25-12.52-2.85-25.53-4.56-36-12.69-16.3-12.65-32.13-25.9-48.36-38.65-7.8-6.13-16.06-11.68-24.11-17.5-2.28-1.84-6.37-1.31-7-5.33l3.54-1.38c4.19.43,6.85,3.4,10,5.74,22.5,16.82,45.29,33.18,66.11,52.19,8,7.25,19.58,8.53,30.21,10.75A88.77,88.77,0,0,1,588.68,527c7.22,3.17,6,10,4.12,15.25C589,553.12,569.91,563.72,557.61,562.87Z"/><path class="cls-16" d="M475.45,561.68c-2.17-5.62-8.13-7.47-12.4-8.75-12.53-3.77-20.94-13-31-20.09,3.36-2.79,6.67-1.64,10,.16,13.75,10.19,29.44,16.53,45.24,22.68a7.44,7.44,0,0,1,5,6.25Z"/><path class="cls-19" d="M442,533c-3.35,1.74-6.63-1-10-.16l-.32-.12c-10.35-1.69-16.05-10.51-24-15.83-13.19-8.8-24.44-20.15-36.58-30.34-6.2-5.2-10.3-12.39-15.89-18.26-3.47-3.65-2-8,.41-12.3,7-12.33,16.33-23.27,21.28-36.84a98.66,98.66,0,0,0,3.82-13.58c.33-15.18,10.76-24.67,20.26-34.36,4.72-4.82,10.15-8.95,12.5-15.46,6.32-17.42,17.17-32,29.4-45.48,7.72-8.52,14.82-17.5,21.94-26.47,6.9-8.7,15.23-12.94,26.42-10.47,26,13.51,24.77,31,10.87,51.77-11.55,17.28-23,34.63-36.28,50.88-9.3,11.39-16.83,24.81-24.73,37.58-9.67,15.6-3.38,21.39,5.78,32.89a25.71,25.71,0,0,0,13.17,8.6,6.2,6.2,0,0,1,4.73,4.32c2.93,2.75,6.64,4.73,8.55,8.51-5,3.71-5.94,9-5.68,14.68.21,4.4-.69,8.66-3.78,11.51-7.1,6.53-11.1,15.31-17.35,22.44C442.57,521.07,441.35,526.9,442,533Z"/><path class="cls-23" d="M136.81-42.33c8,.83,14.35,5.89,21.57,8.7,11.33,6,16.83,17.58,25.5,26.1,20.31,20,37,43.11,57.78,62.78,23.28,22,45.75,45.06,66,70.08,1.76,2.18,3.89,4,5.73,6.12,5.59,9.54,7.48,20.45,10.08,30.81,6.57,26.17,13.35,52.32,19.49,78.61,3.31,14.2,8.91,28,13,42.19,1,3.49,2.42,6.86,2.42,10.57-.17,2.42-.28,4.86-2.49,6.49-7.09-22.22-13.41-44.66-19.75-67.11-8.19-29-14.94-58.33-22.41-87.49-2.21-8.62-7.34-15.44-14.18-21-13.21-14.38-26.95-28.27-40.24-42.56C240.5,61.75,219.92,43.41,202.33,22,191.44,8.77,179-3.45,167.59-16.4,158.67-26.48,150.17-37.35,136.81-42.33Z"/><path class="cls-24" d="M464.83,459.37c-6.43-4.18-14.61-5.28-19.53-12.24-10.77-15.22-16.59-19-3.28-37.95,12.71-18.1,23.84-37.16,38.19-54.37a173.66,173.66,0,0,0,27.69-45.2c5.25-12.92-1.08-26-17-34.62-2.18-1.46-4.71-1.57-7.19-1.85-2.8-.3-5-1.83-5.54-4.43-3.16-14.85-15.48-23.3-24-34.4-3.82-5-10.27-8-11.1-15.21a5,5,0,0,1,1.64-3.38C461.49,234,478,252.61,495.08,270.55c6.53,6.85,13.78,12.88,18.7,21.22,3.4,5.75,3.39,11.45.48,16.66-6.76,12.12-14.58,23.59-22.36,35.12C478.23,363.83,463,383,449.81,403.6c-1.79,2.81-4.16,5.27-5.86,8.13-9.19,15.38-7.36,25,8.28,36.76,2.87,2.16,6.21,3.71,9.34,5.54,2.42,1.64,5.46,2.49,7,5.32Z"/><path class="cls-25" d="M444.77,215.72l-.1,3.34c-15.91-5-26.28-16.27-33.19-30.71-3.85-8.06-5.31-17-5.5-26-.21-10.07-3.69-19.68-4.57-29.71-2.55-29.14-7.15-58-11.69-86.89-.9-5.76.21-11.61-1.69-17.37-3-9.18-9-15.91-16.58-21.45C367.9,2.44,359.86,1,362-7.26c4.07,2,6.9,6.12,11.71,6.88a99.53,99.53,0,0,1,16.54,17l3.24,8.53c1.23,8.45.69,17.24,4.78,25.15h0c2.25,7.17-1,14.68,1.36,21.84v0A282.85,282.85,0,0,1,405.66,121c3.36,12.38,4.2,25,5,37.77.84,14,4.29,27.87,15.28,38.35C432.3,203.2,437.53,210.47,444.77,215.72Z"/><path class="cls-12" d="M405.66,121c-3.89-6.64-1.22-14-2.11-21-1.17-9.26-5.48-18.12-3.94-27.72C405,88.05,406.37,104.39,405.66,121Z"/><path class="cls-12" d="M390.21,16.66a104.17,104.17,0,0,1-16.54-17A33.65,33.65,0,0,1,390.21,16.66Z"/><path class="cls-12" d="M398.23,50.34c-6.47-7.46-4.48-16.53-4.78-25.15Q395.84,37.76,398.23,50.34Z"/><path class="cls-12" d="M399.6,72.19c-3.4-7.09-.63-14.57-1.36-21.84C401.68,57.45,398.91,64.93,399.6,72.19Z"/><path class="cls-26" d="M355.83,300.12c.09-2.31.19-4.62.28-6.93a2.44,2.44,0,0,1,2.74,1.43c4.81,15.26,17.24,27.88,16.7,44.86-.48,15.52,4.29,30.14,6.43,45.18,1,7.18-2.71,14.45,1,21.36-4.13,19.17-15.08,35-25.56,51-3.33,5.07-2.88,8.69.84,13.29,16,19.69,36.17,34.57,56,49.94,5.65,4.38,10.58,9.81,17.46,12.49-8.31,1.33-12.35-5.65-17.91-9.43-15.46-10.51-29.17-23.23-43.09-35.62-6.41-5.71-11.88-12.57-17.26-19.32-3.67-4.6-3-9.76.3-14.64,8.26-12.12,16.7-24.14,22.49-37.73,4.08-12.94,1.08-25.63-1.36-38.33-2.34-12.13-7.05-23.61-8.29-36.16-1-10-5-19.7-8.3-29.31C356.94,308.17,355.54,304.38,355.83,300.12Z"/><path class="cls-27" d="M362-7.26c.83,6,6.44,8.08,9.94,11.89-17.74,4.81-20.9,21.5-27.43,34.83-3.51,7.18-7.06,15.14-7,23.74-1.92,9.81-4.37,19.44-9.15,28.32-10.4,11.32-13.88,25.62-17.3,39.94-11.71-12.94-22.9-26.4-35.25-38.69-13.77-13.7-26.36-28.57-41.35-41.08-11-9.17-18.34-21.72-28.25-31.83C189.44,2.74,174.43-15.9,158.38-33.63c-5.64-5.79-3-9.83,0-16.89C164.8-65.7,174.12-80.14,176-97a32.38,32.38,0,0,1,4.9-14.71c2.65-4.14,3.9-9.2,5.57-13.92,4.17-11.73,4.12-11.74,15.51-10,10.38,4.15,17.09,13.23,26.05,19.35,14.22,9.69,28,20,41.83,30.27,6,4.49,11.1,10.16,17.17,14.52C313.85-52.17,334.94-26.28,362-7.26Z"/><path class="cls-28" d="M311.07,131.46c-1-15.81,4.59-29,15.81-40,2.49,4.18.6,8.28-.78,12.07a24.08,24.08,0,0,0-.4,16.38c1.81,5.65,1.79,11.1-3.55,15.2-2.75,2.11-2.57,4.72-1.23,7.51a48.8,48.8,0,0,0,4.22,7.25c11.73,16.42,14.88,35.3,15.92,54.77.2,3.67.49,7.24,2.13,10.6.87,1.76,2.23,3.66,1.94,5.48-2.31,14.77,8.22,25.58,11.78,38.52.73,2.63,1.72,6.25,5,6s3.18-4.14,3.79-6.76c3.06-13.17,4.37-14.14,17.48-11.17,3.39.77,5.36-.47,7.15-2.88,4.3-5.79,7.21-11.88,5.68-19.48-1.59-7.87-.41-15.39,2.91-22.89,4-9,7.81-18.36-.29-27.45a6.68,6.68,0,0,1-1.42-4.75c1.44-31.21-4.24-61.54-11.37-91.69-1-4.08-2.54-8.37-1.68-12.41,2.42-11.48-4.05-22.39-1.68-33.79.46-2.19-1.07-3.68-3.15-4.35a4.89,4.89,0,0,0-5.88,2c-2.79,3.78-5.83,9.54-11,4.76-5.54-5.09-.28-9.43,3.49-13.2.4-.4.85-.73,1.25-1.13,1.89-1.83,2.53-3.9.25-5.72A3.21,3.21,0,0,0,362,16c-1.78,6.63-4.54,12.13-10.29,16.58-3,2.32-1.3,7.38-.88,11.28,1.13,10.58-3.8,16.76-15.06,19,1.09-14.13,6.42-26.77,13.6-38.78,1.57-2.63,3.6-5.12,4.55-8,2.93-8.82,9-12.26,18-11.5,14.1,8.59,18.51,21.26,20.28,37.49,2.33,21.41,4.92,42.95,9.28,64.22,2.43,11.85,1.12,24.47,4,36.38,3.54,14.54,2.07,29.84,7.59,44.07,4.35,11.24,13.36,18.16,22.06,25.46,3,2.5,6.36,4.55,9.55,6.81.12,3.49,2.74,5.48,5,7.43,10.77,9.39,18.12,21.74,28.16,31.74a5.73,5.73,0,0,1,1.08,1.24C485,270.93,485,270.94,490.94,275c-16.05-3.57-23.47,8.2-31,18.3-11.66,15.64-26.6,28.66-36.17,45.95-1.6,2.89-3.66,5.5-4.73,8.74-3.47,10.54-9.84,18.52-18.15,26.35-8.65,8.14-18.79,17.35-17.84,31.69-2.8-1.21-3.13-3.6-3.15-6.24-.1-13-1-25.65-5.57-38.32-3-8.26.09-18.11-1.83-27.25-1.48-7.1-3.07-13.53-7.62-19.78-4.38-6-5.95-14.08-8.76-21.24-3.66-10.62-5-21.85-9.59-32.29-3.13-7.19-4.52-15.14-6.62-22.77-5.76-21-9.9-42.37-16.11-63.3-2.85-9.63-5.63-19.52-7.8-29.46C314.94,140.52,314.49,135.47,311.07,131.46Z"/><path class="cls-31" d="M335.77,62.87C338.51,61,341.25,59,344,57.11c4.26-3,5.91-6.57,5-12.18-1.12-6.73-5.24-15.06,6.38-18.14,3.28-.87,2.74-5.67,3-9,.33-4,2.48-6.86,6.49-7.79,3.38-.78,5.09,1.76,6.6,4.14,1.89,3,2.37,5.72-1.72,7.42-1.29.53-2.85,1.05-3.6,2.08-1.87,2.55-5.43,4.47-4.05,8.52a3.38,3.38,0,0,0,3.2,2.35c4.06.08,5.27-3.3,5.89-6.08,1.74-7.74,6.92-3.94,10.53-3,4.1,1,5.72,4.08,3.17,8.38s-2.41,8.48,1.47,12.17c1.55,1.46,1.79,3.28,1.23,5.39a47.48,47.48,0,0,0,.14,23.94A537.22,537.22,0,0,1,398,130.84c1.32,9.84,2.22,20,2.64,29.59.35,7.84.85,14,4.54,21,3.94,7.53-1.6,15.21-4.54,22.09-3.05,7.12-4.17,14-2.31,21.11,2.87,11-3.91,18-9.42,25.54-2.25,3.07-4.84.42-7.27-1-7.51-4.45-12-2.1-13.26,6.69a24.4,24.4,0,0,1-1,5.71c-1.15,2.87,0,7.61-4.66,7.9-4.46.27-6-3.72-7.22-7.09-2.74-7.49-3.68-15.79-10.41-21.37a3.23,3.23,0,0,1-1-2.25c.31-10.59-4-20.59-4.81-30.71-1.7-22-5.36-42.83-18.53-61.28-3.34-4.67-9.12-11,2-14.73,2.95-1,2.9-5.38,1.81-7.54-5.85-11.64,0-22.19,2.4-33.07Q331.34,77.14,335.77,62.87Z"/></g><g id="Brazil-4" data-name="Brazil"><path class="cls-2" d="M660.61,37.62l18.12,1.92c2,2.36,5,4.44,2.37,8.17-3.33,2.74-4,6.36-4,10.49.5,22-4.23,43.16-10.19,64.13-1.8,6.32-4.31,12.15-10.93,14.93-19.26-7.16-30.12,9-43.58,16.69-12.71,7.29-22.75,18.91-36.94,24.33-4.71,1.79-7.74,6.38-11.41,9.79-11.31,10.52-25.23,17.47-36.74,27.74-7,6.22-10.35,12.94-9.45,22.74,2.47,27.22,2.75,54.59,4,81.89.11,2.47.06,5.09-1.78,7.17a5.17,5.17,0,0,1-3.71.75c-8.94-6-20.36-6.78-28.68-14.54-3.71-3.46-10.09-2.5-15.2-3.9-18.48-5.06-30.34-18-39.59-33.6-2.66-4.5-4.6-5.62-8.75-2.84-4.34-1.1-4.65-4.59-4.17-8,2.56-17.73,2.13-35.9,5.62-53.34,3.44-17.2,12.5-32.65,26.88-43.42,14.1-10.55,26.26-23.36,40.77-33.42,28.71-19.88,55.47-42.5,85.09-61.13,16.61-10.45,35-17.39,52.26-26.61C639.69,42.74,651.26,43.12,660.61,37.62Z"/><path class="cls-4" d="M519.61,327.29c1.13-13.38-1.66-26.65-1.24-40,.56-18.3-2.18-36.33-3.58-54.47-.47-6,3.34-10.94,6.7-15A59.75,59.75,0,0,1,538,204.13c12.36-6.84,22.76-15.87,32.65-25.72a9.76,9.76,0,0,1,4.17-2.67c10.42-2.51,18.2-9.56,25.95-16.08,11.84-9.94,25.64-16.74,38-25.72,6-4.32,11.06-.37,16,2.82,6.13,8,8.63,17.87,14.36,26.14,16.29,23.5,28.64,49.37,43.3,73.86a27.82,27.82,0,0,0,10.44,10.6c10,5.53,20.37,10.42,31.36,13.7,16.75,5,33.09,11.72,51,11.7a112.13,112.13,0,0,0,14-1.37c14.23-1.81,28.31-5.9,42.83-4.41,9.41,1,11.84,3,13.31,12.15,2.83,17.59,8.12,34.8,6.47,53.11-.94,10.41-4.71,17.59-14.37,21.5-1,.42.25-.13-.78.31-22.53,9.55-22.33,13.19-10.23,36.68a39.43,39.43,0,0,1,7.21,17.68c1.32,8.16,5.7,15.08,8,22.84,2,6.75,7.59,8.12,15.07,5.2,6.68-2.6,12.66-7.28,20.33-7.07,15.36,1.37,20.24,8.26,16,22.94a22.14,22.14,0,0,0-.89,9.89c1.94,12.08-.24,24-1.5,36-.18,1.68.34,4.26-2.8,4.09-2.6-7,1.52-13.92.27-20.63-2.22-11.85-.41-23.43.56-35.14.93-11.15-4.63-14.73-15-10-6.58,3-12.95,6.56-19.68,9.18-9.94,3.87-16.58.14-20-10-4.16-12.4-6.66-25.45-12.82-37.07-3.93-7.41-6.19-15.42-9.3-23.08-2.38-5.86-2.41-12.85,3.79-17.49,4.24-3.17,8.4-6.9,13.22-8.76,18.57-7.19,18.47-15.17,15.78-34.31-1.55-11-4.13-21.83-6-32.79-1.43-8.51-7.52-11.39-16-9.55-14.47,3.14-29,6.52-44,6.15-24-.59-46.3-8.72-69.17-14.74-22.66-6-33.44-23.12-43.75-41.43-9.86-17.5-18.91-35.42-30.69-51.85-5.44-7.58-8.65-16.76-13-25.15s-8.42-9.75-16.4-4.52c-10,6.57-19.81,13.54-29.54,20.57-24.63,17.77-49,35.87-73.8,53.43-9.34,6.62-13.33,15.78-11.54,26.07,2.43,14,0,28,1.85,41.74,2.3,16.91.73,33.9,1.62,50.82.44,8.36-2.87,18.84-11.42,25-.72-.89-1.5-2.14-1-3C517.14,346.94,517.5,336.88,519.61,327.29Z"/><path class="cls-6" d="M681.5,46.34c-.79-2.32-3-4.06-2.77-6.81,4.56-.32,7.19,1.87,10.31,5.39,10.5,11.83,13.6,26.27,17.13,41,6.72,28,13.52,56.24,33,78.86,10.78,12.51,23,22.92,38.4,30.1,18.28,8.54,37.06,13.79,56.81,17.61,22.86,4.42,46.44,4.65,68.78,12,8.57,2.82,11.37,10.71,14.68,17.34,4.66,9.33,7.68,19.44,10.49,29.7s-.1,20.84,3.14,30.15c5.61,16.16.27,31.52-.57,47.19-.53,10-2.45,19.79-8.54,28.37-3.56,5-.35,8.44,4.52,8.83,12.94,1,24.3,7.56,37,9.72,12,2.05,19,12.27,18.31,25.5-.7,12.84-2.41,25.62-2.23,38.52-5.37-1.19-4.62-5.59-4.52-9.29.17-5.84,1.09-11.64,1.71-17.46.48-4.55.18-8.89-2.65-12.71-3.59-13.57-14.34-18-26.36-21-8.88-2.25-18.23-3.1-26.4-7.69-5.18-2.92-10.28-6.17-8.87-13.56a86.82,86.82,0,0,0,14.63-56c-1.06-14.16-1.79-28.68-4.73-42.77-2.34-11.25-4.85-22.38-9.94-32.89s-11.88-17.37-24.7-18c-15.3-.79-30.81-1.81-45.59-6.42-20.74-6.46-42.84-7.75-62.86-17a107.3,107.3,0,0,1-14.51-8.33c-21.5-14.34-39.13-32-49.72-56.4-8.88-20.45-12.49-42.34-19.29-63.33-3.06-9.43-5.74-18.67-12.62-26.09A6.58,6.58,0,0,1,681.5,46.34Z"/><path class="cls-7" d="M660.61,37.62c-2.27,3.82-5.7,6.66-9.91,7.05C635.52,46.05,623.38,54.83,610,60.59,581,73,556.08,91.34,531.38,110.38c-17,13.06-36,23.72-51.56,38.19-13.93,13-31.13,22.39-41.64,39.32-11,17.64-13.37,36.91-13.73,56.78a50.11,50.11,0,0,1-1.37,11.38c-1.35,5.5-3.5,11.49,1,16.82,1.35,1.38,1.28,3,.86,4.74-5.86,17-21.25,24.6-34.16,34.47C364,332.58,336,351.57,310.44,373.75c-20,17.35-41.46,33.08-62.28,49.52a10.14,10.14,0,0,1-6,2.66,4,4,0,0,1-3.18-1.71c13.74-10.43,26.76-21.78,40.28-32.49C294.08,380,308.93,368,323,355.19c8.14-7.37,17.94-12.15,26.49-18.83,20.65-16.12,41.55-31.93,62.16-48.1,4.16-3.25,5.21-8.48,5.54-13.63,1.27-19.84,4.71-39.44,5.18-59.43.39-16.47,7.19-30.81,20.28-42.4,24.32-21.56,50-41.24,76.35-60.15,27.21-19.5,53.31-40.6,83.63-55.28,12.79-6.19,25.88-11.67,39.11-16.91C648.07,38,653.84,35.44,660.61,37.62Z"/><path class="cls-8" d="M465.17,409.64c-5.23,12-16.21,18.9-24.55,28.12-22.87,25.27-49.78,46.38-73.27,71.06-5.69,6-11.38,12.36-18.67,16.74-12.76,7.66-27.19,7-41.1,7.45-9.44.29-18.84-.47-28.24,1.48-4.58,1-9.67,1.81-14.08.8-17.24-4-34.21,3.24-51.34.59-11.69-1.82-22.82,3.84-34.63,2.65-5.25-.53-9.69,3.94-13.75,7.21-32,25.77-66.33,48.45-97.25,75.58-4.5,3.94-9.86,6.46-15.19,8.79-7.84,3.42-13.12-3.5-18.66-6.68C24.09,617.49,16,608.22,6.93,600.52c-9.61-8.13-20.59-14.67-30-23.32-12.21-11.26-24.83-22.08-37.55-32.74-10.05-8.41-23.35-5.73-31.71,5.82-2.26,3.12-3.44,7.17-7.41,8.86a5.12,5.12,0,0,1-2.07-4.39c4.34-10.85,12.44-17.78,23.28-21.31,9.15-3,16.71,1.87,23,7.32C-39.5,554.69-23,568-7,582.09c14.79,13,29.39,26.68,46.54,36.89,5.52,3.29,10.85,3.4,16.77.89,9.3-3.92,16-11.31,23.57-17.38,18.83-15,38.56-28.77,57.3-43.88,6.63-7.27,14.75-12.72,22.45-18.68,11-8.49,24.32-10.43,37.15-10.12,13.39.32,26.62.57,39.89-1.22,15.6,2.4,31.15,1.17,46.69-.63a12.68,12.68,0,0,1,2.66-.47c6.55-.37,13,1.72,19.55,1a23.19,23.19,0,0,1,2.5-.38c7.68-1.34,15.45-1.76,23.18-2.49,2.89-1.43,6.12-1.52,9.17-2.29,7.6-2.17,12.56-7.93,17.85-13.23a16.21,16.21,0,0,1,1.58-1.73C387.26,480.57,418,456.22,444.05,427c4.79-5.39,11.17-9.24,15.38-15.33C460.63,409.88,462.58,408.3,465.17,409.64Z"/><path class="cls-10" d="M976,418.75c4.88,4.62,3.4,10.44,3.35,16.17-.06,8.29-4.9,16.73.57,24.87l0,0c1.36,10.13-.12,20.28,0,30.42a77.78,77.78,0,0,1-.93,24.13c-3.85,22.05.48,44.25-1.69,66.4-1.13,11.55-6.79,17.31-16.07,22-12.18,6.09-23.5,13.69-34.46,21.76a28,28,0,0,0-10.15,15c-2.54,1.56-1.82,4.3-2.39,6.57-4.75-1.24-4.6-5-4.08-8.61A44.33,44.33,0,0,1,913.3,627c6.37-9.09,14.08-16.74,24.37-21.23,9.27-4,17.61-9.75,26.62-14.25,8.09-4,10.76-8.74,8.13-17.11-4.3-13.68-2.13-27.25-1-40.86,1.25-15.61,2.11-31,1.42-46.85-.89-20.58-.07-41.39.46-62.1A7.19,7.19,0,0,1,976,418.75Z"/><path class="cls-11" d="M238.94,424.22l3.45.47c-2.67,9.27-11.1,11.91-18.48,13.3-19.92,3.76-40.11,6.21-60.13,9.53-16.92,2.81-33.92,5.15-50.74,8.74-10.81,2.31-21.6,5.23-32.77,6-6.33.46-12.12,4.05-18.63,4.11-9-.05-17.28,4-26.19,5.06-22.61,2.6-45.06,6.46-67.76,8.37-5.89.49-11.71-.34-17.47-1.35-2.47-.42-6-.39-5.31-4.71,6.76-1,13.34,2.24,20.11.83,10.88-1.42,21.87-2.27,32.59-4.48,6.32-1.31,12.85-1.09,18.8-2.45,8.85-2,18-2.27,26.58-4.85,5.77-1.74,11.27-2.87,17.19-1.86a13.33,13.33,0,0,0,8.19-1c9.88-4.79,21-3.63,31.28-6.48,9.75-2.68,19.72-4.63,29.68-6.46,10.25-1.88,20.61-3.05,30.79-5.58,13.88-3.44,28.62-1.65,42.32-6.58.53-.18,1.13-.52,1.6-.41C217.67,437.86,227.75,429.14,238.94,424.22Z"/><path class="cls-12" d="M465.17,409.64c-8.53,8.27-17.15,16.46-25.56,24.85-16.34,16.29-31.78,33.47-49.94,47.93-8.21,6.54-15.2,14.64-22.67,22.11-2.18,2.18-4.22,4.46-7.18,5.6-1.78-6.12,4.15-8.24,6.31-12.32,13.82-17.07,31.95-29.58,47.33-44.92,27.67-27.57,55.33-55.22,80.29-85.4,4.8-5.81,11.38-10,15.28-16.63,7.37-6.44,5.68-15.63,7.18-23.84l3.4.27c1.55,9.29,1.13,18.15-4.9,26.07-1.09,1.42-1.21,3.58-1.78,5.4l-.1.11c-3.13,3.59-6.11,7.31-9.52,10.66Z"/><path class="cls-15" d="M854.89,759.83l-1.81-.13c-2.79-3.65-3.43-7.81-4.18-12.34-2.73-16.45-7.19-32.57-10.76-48.85-2.49-11.41-4.84-23-5.7-35-1.91-26.62,4.28-52.24,5.78-78.36,2.85-6.87,1.49-14.71,6-21.43,7.61-11.48,16.39-12.07,25.45-.83-2.69,2.81-6.13,1.72-9.33,1.72-10.14,0-12.55,2.12-13.66,12.09-.15,6.8-3.49,13.09-3.77,19.71-1,23.4-5.08,46.66-4.07,70.11.72,16.46,5.24,32.39,9.56,48.27,3.57,13.1,5.13,26.65,8.51,39.81A5,5,0,0,1,854.89,759.83Z"/><path class="cls-15" d="M918,502.29c1.36-14.05,4.31-28,1.57-42.25a14.89,14.89,0,0,1,.67-6.62c4.7-16.59,2.39-20.07-14.87-22,3.59-6.53,8.95-7.89,14.64-3.28,6.35,5.13,8.8,12.06,8,20.16-1.17,12-1.07,24.18-2.62,36-2.59,19.66-.36,39.09-.49,58.62,0,3.45,1.33,6.56,2.09,9.82,3.22,13.79-6,24.71-20,23.75-9.25-.63-18.43-1.61-26-7.86,1.87-3.92,2.43-4.43,6.71-3.29,5.6,1.48,11,3.62,16.7,4.79,10.37,2.15,14.07-.68,15.23-11.51.5-4.73-.3-9.3-1.11-13.9h0c-.8-11.88-1.71-23.75-1.17-35.67Q917.64,505.67,918,502.29Z"/><path class="cls-4" d="M918.49,544.71c4.06,6.62,2.47,13.68.75,20.33-1.35,5.21-5.17,8.35-11.43,7.41S895,571.29,889.24,568c-2.69-1.53-5.64-2.63-8.61-.39-4.7.78-8.25-1.39-11.42-4.51-2.2-1.63-4.2-3.72-6.65-4.81-6.06-2.69-11.39-2.9-16,3.68-5,7.13-4.46,15.9-8.38,23.21,1.14-8.15.39-16.53,5.68-24,4.74-6.65,12.13-10.43,18.88-6.33,9.35,5.7,19.47,7.6,29.93,9.24,4.31.67,8.39,2.78,12.6,4.16,8,2.65,12.31,0,13.13-8.58C918.91,554.74,918.5,549.71,918.49,544.71Z"/><path class="cls-4" d="M917.32,509c.58,11.88,2.87,23.71,1.17,35.67C914.78,532.93,915.72,521,917.32,509Z"/><path class="cls-4" d="M503.31,369.53c2-4.64,4.9-8.42,9.52-10.66C511.52,364.1,508,367.35,503.31,369.53Z"/><path class="cls-17" d="M681.5,46.34C691.2,53.47,695.22,63.59,698,75c3.26,13.67,9,26.79,11.63,40.55,1.64,8.68,5.38,16.17,8.26,24.15,5.25,14.55,14.59,26.83,25.5,37.06,7.84,7.36,16.43,14.54,26.25,19.87,18.78,10.19,39.31,13.77,59.62,19.21,22.6,6.06,45.35,8.08,68.12,11.35a13.65,13.65,0,0,1,9.1,5.14c8.85,10.52,13.6,22.89,16.43,36.09,2.38,11.05,6.75,21.93,3.27,33.6a7,7,0,0,0,.31,4.11c8.48,23.6,1.84,45.42-7.89,66.83-.89,2-2.81,3.45-4.24,5.16-4,4.95-10.26,5.31-15.67,6.64-12,2.95-24.78,2.68-36.06,8.87-2.38,1.3-4.86.45-6.91-1.34-9.15-5.57-5.95-16.74-10.81-24.35-1.12-1.76,1.24-4,3.06-5.49,5.43-4.4,11-8.35,17.9-10.39,9.7-2.87,12.65-9.75,13.67-20.17,1.83-18.81-4.28-36.33-6.44-54.46-.6-5.07-3.09-7.71-7.95-8-7-.37-13.86-2.7-21.09,1.74-3.66,2.24-10.16-.73-14.68.78-15.45,5.15-31,3.65-46.05.23-14.65-3.34-29.38-7.57-43-14.35-5-2.48-10.36-3.78-15.41-6.23-14.18-6.88-19.11-20.95-25.51-33.13-12.07-23-26.44-44.47-39.53-66.77-2.84-4.83-2.64-10.23-5-15,7-5.08,9.1-12.51,11.18-20.52,5.31-20.4,9.92-40.77,8.3-62.07C674,49.48,675.79,45.88,681.5,46.34Z"/><path class="cls-18" d="M516.21,327c3.11,9.43,2.1,17.88-5.85,24.69.32-9.9-6.62-13-14.13-16.77-20.61-10.39-42.52-17.87-62.83-28.85-1.23-.67-2.8-1-3.6-2.1-4.47-6.06-10.49-6.27-17-4.83-.2-6.16,5.79-9.2,7.33-14.59a24.82,24.82,0,0,1,3.45-6.38l.51-5.32c2.14-1.58,1.39-6.11,5.19-5.72,3.44.35,3.45,4,4.69,6.35,10.06,19.27,24.74,32.63,46.82,36,5.47.83,10.28,1.95,13.91,6.53a10.61,10.61,0,0,0,8.7,4.4C509,320.2,512.83,323.07,516.21,327Z"/><path class="cls-19" d="M-177.59,528.71c-1.43-3.5,1.62-6.51,1.08-9.91l.15-.3c2.64-10.15,12-15,18-22.44,10-12.32,22.34-22.47,33.61-33.61,5.75-5.69,13.29-9.1,19.65-14.12,4-3.12,8.18-1.27,12.22,1.54,11.62,8.11,21.65,18.42,34.7,24.61A99.69,99.69,0,0,0-45,479.54c15.1,1.74,23.57,13,32.34,23.36,4.37,5.15,8,10.94,14.23,13.89,16.77,7.9,30.25,20.05,42.56,33.49,7.77,8.47,16.06,16.37,24.33,24.3,8,7.68,11.47,16.36,8,27.28-15.87,24.59-33.15,21.78-52.56,6C7.7,594.77-8.51,581.76-23.47,567-33.94,556.71-46.6,548-58.58,538.92c-14.65-11.07-21-5.35-33.3,2.7a25.81,25.81,0,0,0-9.78,12.32,6.18,6.18,0,0,1-4.74,4.3c-3,2.68-5.33,6.18-9.27,7.73-3.22-5.3-8.44-6.75-14.09-7-4.4-.21-8.56-1.49-11.1-4.84-5.85-7.67-14.22-12.47-20.74-19.35C-165.77,530.37-171.46,528.61-177.59,528.71Z"/><path class="cls-20" d="M855.67,392.29c1.92,0,4.37.72,5.68-.19,11.06-7.74,24.17-6.65,36.46-9.11,5.6-1.12,11-3.22,16.5-4.87.4,11.78,10.44,13.27,18.17,15.09,12.11,2.85,24,5.68,35.33,11,6.45,3,5.57,9.63,8.21,14.51-.14,10.85-1.31,21.81-.17,32.52,1.4,13-3.5,25.72-.71,38.44,3,13.52-.12,26.66-.88,40-.86,15-4.55,30,1.09,45.25,2.53,6.84-.19,14.66-8.71,18.55-9,4.13-17.44,9.76-26.59,13.61-10.5,4.41-17.32,12.9-25.26,20.22-3.47-5.85-8.84-9-15.15-11a32.06,32.06,0,0,1-21.31-19.67c-.41-1-.55-2.55-1.37-3-10.89-6-19-17-32.68-18,1.47-12,4.58-14.53,16.73-13.43,2.74.25,5.47.55,8.2.83,4.43-.06,7.85,2.42,11.42,4.51,8.9,3.06,17.69,6.18,27.32,6.61,10.76.47,20.48-8.83,17.06-19-2.54-7.53-1.38-14.78-2.48-22-2.44-15.94-.58-31.57.28-47.41.74-13.67,1.88-27.28,2.92-40.92.56-7.36-3.41-13-9.37-16.66-4-2.42-8.05-.38-11,3.19-6.56.75-11.87,4.61-17.65,7.26-9.66,4.43-16,.24-19.58-9.56C863.7,416.92,861.68,403.92,855.67,392.29Z"/><path class="cls-21" d="M844.28,575.69c2.19-3.22,3.61-4.05,8.07-1.56,7.93,4.41,13.45,12.81,23.29,14.11,2.09.28,3.35,2.91,4,5.12,3.12,11.58,10.94,17.77,22,21.53,5.64,1.9,14.11,2.7,13.15,12.43.5,6.25-6.29,12.32-.48,18.7-2.55,15.08,2.68,29.22,5.69,43.54.9,4.29.56,8.32.55,12.37,0,11.32,2,22.87,3.94,33.42,3.47,18.61,1,37.11,3.64,55.44,1.56,10.85-2.31,21.58-.9,32.57.95,7.38,3.36,14.82,1.24,22.42-3.83.05-4.7-3.47-6.74-5.59-.92-14.77-3.48-29.54-2-44.32,1.3-13.15,1.55-26.3,2.31-39.45.36-6.36-2.13-12.12-3.1-18.18-3.39-21-4.81-42.28-8.95-63.18-1.91-9.62-2.12-19.48-3.5-29.2-1.47-10.37-7-17.27-15.63-21.3A27.92,27.92,0,0,1,875,606.17c-1.55-5.15-4.33-8.84-9.26-11.24-12.4-6-19.07-2.47-20.66,11.32-.13,1.11-.06-.29-.08.83-.29,16-.07,31.9-2.25,48.1-2,15.11.7,31.81,6.33,47,6.74,18.23,9.85,37.36,13.54,56.32a130.44,130.44,0,0,1,2.82,28.31c-1.73,3.89-3.85,7.63-4.53,11.92a6.06,6.06,0,0,1-1.43,2.13,1.81,1.81,0,0,1-2.33-.19c3.5-13.86,1.23-27.4-2.25-40.87,1.29-7.15-2.66-13.44-3.54-20.32-1.69-13.3-5.75-26.31-9-39.4-4.32-17.37-7.88-34.75-5.88-52.88,1.31-11.93,3.19-23.78,2.53-36S843,587.65,844.28,575.69Z"/><path class="cls-23" d="M423.56,278.19c-1.57,7.92-7.19,13.74-10.66,20.67-7,10.72-19.06,15.12-28.35,23-21.75,18.36-46.35,32.85-67.87,51.71-24.11,21.12-49.11,41.37-75.89,59.16-2.34,1.56-4.36,3.51-6.63,5.15-10,4.67-21,5.55-31.61,7.17-26.67,4.11-53.33,8.44-80.08,12.11-14.45,2-28.74,6.27-43.22,9-3.56.68-7,1.77-10.74,1.43-2.39-.4-4.81-.74-6.24-3.09,22.79-5,45.72-9.21,68.66-13.44,29.64-5.47,59.46-9.46,89.19-14.19,8.79-1.4,16.06-5.88,22.27-12.17,15.54-11.82,30.65-24.21,46.11-36.12,21.82-16.79,42-35.58,64.93-51.12,14.19-9.61,27.51-20.83,41.46-31C405.76,298.48,417.37,291,423.56,278.19Z"/><path class="cls-24" d="M-106.4,558.24c4.76-6,6.62-14,14-18.3,16.15-9.31,20.44-14.76,38.08.25,16.84,14.34,34.79,27.19,50.59,43.08C8.49,595.53,22.83,606.77,38.72,615c12.38,6.43,26,1.35,36.05-13.67,1.65-2,2-4.54,2.5-7,.57-2.76,2.29-4.79,4.93-5.1,15.08-1.77,24.63-13.26,36.48-20.69,5.32-3.34,9-9.48,16.17-9.64a5,5,0,0,1,3.22,2c-19.8,15-39.81,29.62-59.27,45-7.43,5.87-14.1,12.53-22.86,16.66-6,2.85-11.71,2.31-16.63-1.07C27.87,613.61,17.17,604.76,6.41,596c-18.93-15.49-36.56-32.48-55.88-47.48-2.64-2.05-4.87-4.63-7.55-6.59-14.47-10.58-24.21-9.65-37.38,4.83-2.41,2.66-4.26,5.84-6.37,8.78-1.87,2.26-3,5.21-6,6.45C-106.61,560.71-106.51,559.48-106.4,558.24Z"/><path class="cls-25" d="M138.07,560.88l-3.32-.41c6.48-15.37,18.64-24.66,33.65-30.2,8.38-3.09,17.39-3.71,26.44-3.06,10,.73,19.94-1.85,30-1.8,29.25.17,58.43-1.73,87.61-3.57,5.82-.37,11.54,1.29,17.44-.08,9.44-2.17,16.68-7.44,22.91-14.51,4.76-3.13,7-11,15-8.14-2.39,3.86-6.74,6.3-7.95,11A99.34,99.34,0,0,1,341.32,525l-8.78,2.43c-8.54.45-17.24-.91-25.5,2.43h0c-7.34,1.58-14.52-2.33-21.87-.67h0a283.84,283.84,0,0,1-49.12,1.5c-12.63,2.19-25.26,1.86-38.07,1.44-14-.46-28.14,1.68-39.6,11.66C151.69,549.63,144,554.16,138.07,560.88Z"/><path class="cls-12" d="M236,530.73c7-3.26,14.1.08,21.16-.15,9.33-.31,18.55-3.78,28-1.35C268.87,533.11,252.48,533,236,530.73Z"/><path class="cls-12" d="M341.32,525a104.74,104.74,0,0,1,18.5-14.89A33.66,33.66,0,0,1,341.32,525Z"/><path class="cls-12" d="M307,529.88c8-5.75,16.88-2.92,25.5-2.43Z"/><path class="cls-12" d="M285.16,529.22c7.38-2.73,14.57.72,21.87.67C299.65,532.66,292.46,529.2,285.16,529.22Z"/><path class="cls-26" d="M62.27,464.49l6.89.92a2.46,2.46,0,0,1-1.68,2.6c-15.64,3.37-29.36,14.58-46.22,12.47C5.85,478.56-9.15,482-24.33,482.69c-7.24.35-14.13-4-21.36-.93-18.7-5.9-33.44-18.27-48.39-30.19-4.74-3.78-8.38-3.67-13.3-.39-21.09,14.06-37.79,32.81-54.92,51.09-4.89,5.22-10.76,9.62-14.06,16.23-.55-8.4,6.77-11.78,11.05-17,11.9-14.42,25.84-26.89,39.47-39.6,6.28-5.85,13.61-10.66,20.83-15.39,4.92-3.23,10-2.11,14.54,1.65,11.31,9.35,22.5,18.87,35.5,25.89,12.5,5.27,25.41,3.46,38.28,2.21,12.3-1.2,24.16-4.83,36.78-4.9,10,0,20.07-3.13,30-5.54C54.15,464.85,58.06,463.81,62.27,464.49Z"/><path class="cls-27" d="M367.77,499.11c-6.08.27-8.65,5.66-12.77,8.79-3.14-18.1-19.47-22.8-32.14-30.54-6.81-4.16-14.41-8.43-23-9.12-9.58-2.82-18.94-6.16-27.34-11.74-10.31-11.4-24.22-16.2-38.17-20.93,14-10.45,28.41-20.35,41.8-31.51,14.91-12.44,30.88-23.6,44.73-37.36,10.15-10.09,23.34-16.25,34.32-25.18,18.6-15.12,38.55-28.33,57.69-42.66,6.3-5.09,10.07-2.05,16.82,1.57,14.52,7.79,28,18.41,44.62,21.84a32.37,32.37,0,0,1,14.19,6.24c3.88,3,8.8,4.73,13.35,6.84,11.28,5.23,11.3,5.19,8.48,16.36-5.1,10-14.76,15.79-21.68,24.15-11,13.25-22.47,26.08-34,38.83-5,5.55-11.15,10.11-16.05,15.75C417,455.38,389.2,474,367.77,499.11Z"/><path class="cls-28" d="M234.36,435.57c15.84.47,28.48,7.26,38.41,19.46-4.4,2.09-8.31-.17-11.95-1.9a24.17,24.17,0,0,0-16.28-1.92c-5.79,1.28-11.21.76-14.8-4.94-1.85-2.93-4.46-3-7.36-1.92a47.9,47.9,0,0,0-7.62,3.53c-17.43,10.16-36.52,11.54-56,10.77-3.68-.14-7.26-.19-10.75,1.14-1.83.7-3.86,1.87-5.65,1.42-14.49-3.67-26.23,5.81-39.44,8.16-2.68.47-6.38,1.13-6.42,4.38s3.83,3.55,6.38,4.39c12.83,4.28,13.68,5.67,9.51,18.45-1.08,3.3,0,5.38,2.21,7.38,5.36,4.83,11.15,8.28,18.86,7.46,8-.84,15.36,1,22.52,5,8.56,4.79,17.55,9.47,27.36,2.25a6.79,6.79,0,0,1,4.86-1c31,4.33,61.66,1.49,92.35-2.81,4.15-.58,8.57-1.75,12.52-.53,11.2,3.48,22.66-1.95,33.79,1.47,2.14.66,3.77-.72,4.63-2.73a4.9,4.9,0,0,0-1.48-6.05c-3.5-3.12-9-6.68-3.72-11.42,5.58-5,9.41.6,12.83,4.71.35.43.64.92,1,1.35,1.65,2,3.65,2.88,5.67.78a3.21,3.21,0,0,0-1.23-5.52c-6.44-2.39-11.66-5.64-15.55-11.78-2-3.21-7.24-2-11.15-1.93-10.64.15-16.34-5.33-17.49-16.75,14,2.39,26.06,8.88,37.35,17.13,2.47,1.81,4.76,4.07,7.5,5.27,8.51,3.74,11.37,10.13,9.78,19-9.86,13.25-22.88,16.46-39.21,16.72-21.53.33-43.22.92-64.8,3.28-12,1.32-24.47-1.15-36.59.62-14.81,2.17-29.91-.71-44.59,3.47-11.6,3.29-19.33,11.61-27.4,19.6-2.77,2.74-5.12,5.91-7.66,8.88-3.49-.21-5.71,2.22-7.87,4.27-10.34,9.85-23.32,16-34.21,25.09a5.88,5.88,0,0,1-1.33,1c-12,5-12,5-16.57,10.55,5-15.65-6-24.13-15.35-32.57C44.93,555.72,33.35,539.64,17,528.5c-2.74-1.86-5.14-4.15-8.27-5.52-10.17-4.44-17.53-11.52-24.55-20.52-7.31-9.36-15.53-20.31-29.9-20.7,1.46-2.68,3.87-2.78,6.5-2.56,13,1.11,25.64,1.37,38.67-2,8.51-2.18,18,1.77,27.31.71,7.21-.82,13.76-1.81,20.4-5.75,6.41-3.8,14.57-4.63,22-6.76,10.9-2.66,22.21-3,33-6.54,7.45-2.46,15.5-3.11,23.29-4.48,21.44-3.79,43.11-5.93,64.52-10.17,9.85-2,20-3.81,30.05-5C225,438.58,230.05,438.61,234.36,435.57Z"/><path class="cls-29" d="M858.45,804.3c.16-1.14.32-2.28.47-3.42.08-.49.14-1,.19-1.48,2.41-3.46,2.18-8,4.52-11.45a378.17,378.17,0,0,0-8.12-52.77c-3.75-17.19-11.7-33.62-13.4-50.67-1.54-15.37-7.38-32.09,1.89-47.54,1.65-2.77.82-6.08-.16-9-3.13-9.41-1.44-18.84-.49-28.32.5-4.92,3.32-7.64,7.43-9.24,9.42-3.67,23.13,3.62,26,13.4,2.37,8.22,5.85,14.69,15,18.49,8.73,3.61,15.55,10.36,16.76,21.91,2.76,26.52,5.79,53.11,10.82,79.26,4.9,25.46,5,50.55,2.56,76.2-1.28,13.33,1.23,27,2,40.56-1.42,13.27-1.43,13.15-15.36,13.72-3.85.16-7.66,1.11-11.53.29a4.09,4.09,0,0,1,0-4.72c2.67-4.68,1.56-8.44-2.41-11.73-6.18-5.15-8.27-13-12.69-19.41-5.2-7.49-10.63-13.54-20.72-12.42A3.23,3.23,0,0,1,858.45,804.3Z"/><path class="cls-31" d="M300.37,466.53q2.47,4.35,5,8.71c2.6,4.52,6,6.49,11.67,6.08,6.81-.5,15.48-3.83,17.48,8,.56,3.35,5.38,3.25,8.69,3.84,4,.69,6.61,3.1,7.16,7.18.46,3.44-2.22,4.9-4.73,6.19-3.13,1.61-5.91,1.82-7.23-2.41-.41-1.33-.78-2.93-1.74-3.77-2.37-2.1-3.95-5.83-8.11-4.83a3.4,3.4,0,0,0-2.63,3c-.46,4,2.8,5.56,5.5,6.43,7.55,2.45,3.29,7.25,2.05,10.76-1.4,4-4.59,5.33-8.64,2.39s-8.22-3.19-12.24.33c-1.61,1.41-3.44,1.48-5.49.72a47.61,47.61,0,0,0-23.85-2.08,533.21,533.21,0,0,1-56.31,5.11c-9.92.4-20.13.35-29.7-.11-7.84-.38-14-.45-21.34,2.57-7.86,3.23-15-3-21.58-6.58-6.8-3.68-13.58-5.44-20.8-4.25-11.19,1.85-17.57-5.57-24.55-11.75-2.86-2.52,0-4.86,1.68-7.15,5.13-7.06,3.21-11.74-5.43-13.81a25.26,25.26,0,0,1-5.59-1.56c-2.74-1.41-7.58-.68-7.43-5.38.14-4.46,4.25-5.61,7.72-6.52,7.72-2,16.07-2.2,22.25-8.39a3.23,3.23,0,0,1,2.34-.81c10.51,1.29,20.88-2.1,31-1.94,22.1.35,43.14-1.36,62.73-12.77,5-2.89,11.78-8.07,14.49,3.34.72,3,5.09,3.38,7.34,2.5,12.13-4.74,22.08,2.11,32.71,5.46Z"/></g></g></g></g></svg>