<svg id="Layer_1" data-name="Layer 1" xmlns="http://www.w3.org/2000/svg" xmlns:xlink="http://www.w3.org/1999/xlink" viewBox="0 0 1200 1200"><defs><style>.cls-1{fill:none;}.cls-2{fill:#f7f9f8;}.cls-3{fill:#76bdd5;}.cls-4{fill:#d3de2e;}.cls-5{fill:#b5c3ca;}.cls-6{fill:#c4dac3;}.cls-7{fill:#b6c1ca;}.cls-8{fill:#bad0d5;}.cls-9{fill:#c9dbc4;}.cls-10{fill:#d9e271;}.cls-11{fill:#aecace;}.cls-12{fill:#c5dbc0;}.cls-13{fill:#9ccab3;}.cls-14{fill:#d9e4be;}.cls-15{fill:#e9eaba;}.cls-16{fill:#abcbcb;}.cls-17{fill:#dde474;}.cls-18{fill:#6e99a9;}.cls-19{fill:#63bdb6;}.cls-20{fill:#96cb60;}.cls-21{fill:#77bed1;}.cls-22{fill:#81c0b0;}.cls-23{fill:#92c494;}.cls-24{fill:#91c6a8;}.cls-25{fill:#a0c892;}.cls-26{fill:#8fc498;}.cls-27{fill:#99c798;}.cls-28{fill:#53be92;}.cls-29{fill:#78c477;}.cls-30{fill:#55be93;}.cls-31{fill:#7ac47b;}.cls-32{fill:#69bf6f;}.cls-33{fill:#6abf6a;}.cls-34{fill:#b0bcce;}.cls-35{fill:#7692b0;}.cls-36{fill:#b2bfd2;}.cls-37{fill:#b4c1d3;}.cls-38{fill:#afbdd0;}.cls-39{fill:#7390b0;}.cls-40{fill:#879dba;}.cls-41{fill:#548ac2;}.cls-42{fill:#8da3c0;}.cls-43{fill:#94aac8;}.cls-44{fill:#528ac1;}.cls-45{fill:#b0bdd2;}.cls-46{fill:#528abe;}.cls-47{fill:#508bc5;}.cls-48{fill:#f6f6f7;}.cls-49{fill:#aebdd0;}.cls-50{fill:#f7f7f8;}.cls-51{clip-path:url(#clip-path);}.cls-52{clip-path:url(#clip-path-2);}</style><clipPath id="clip-path"><rect class="cls-1" x="334.93" y="759.74" width="210.03" height="64.38" rx="32.19"/></clipPath><clipPath id="clip-path-2"><path class="cls-1" d="M464.41,594.89a35.63,35.63,0,0,0-9.55-21.15L270.56,377.47a35.84,35.84,0,0,0-50.65-1.59h0a35.84,35.84,0,0,0-1.59,50.66L374.81,593.19l-245.49,176a35.85,35.85,0,0,0-8.24,50h0a35.85,35.85,0,0,0,50,8.24L449.65,627.71A35.81,35.81,0,0,0,464.41,594.89Z"/></clipPath></defs><path class="cls-2" d="M1198.64,200.48l-183,799c-6.5,28.6-34.84,51.74-63.25,51.74H40.36c-18.78-.21-32.83-10.6-38.1-26a44.56,44.56,0,0,1-2.09-18.09,51.52,51.52,0,0,1,1.19-7.65l.9-3.93L184.31,200.48c6.5-28.6,34.84-51.74,63.24-51.74h911.8c10.49.06,19.51,3.29,26.36,8.77l.71.6C1197.53,167.46,1202.66,182.94,1198.64,200.48Z"/><g id="Brazil"><path class="cls-3" d="M447.24,510.3v-7.05c.83-.88,1.51-2.11,3-1.26a4.62,4.62,0,0,0,4.2,1.09c8.45-1.1,16.8-.15,25.12,1.28,2.51.43,4.86,1.15,6.21,3.59-2,7.71,4.69,11.23,8.22,16.09,3.34,4.59,8.23,8,10.9,13.22.89,1.74,2.78,2.72,4.25,4,4.52,3.92,7.77,9,12.2,13,2.68,2.43,5.41,3.45,9.15,2.7,10.38-2.08,20.91-3.32,31.37-4.9a3.69,3.69,0,0,1,2.84.38,2,2,0,0,1,.44,1.4c-1.93,3.69-1.77,8.12-4.41,11.65-1.18,1.57-.55,4-.88,6-1.18,7.33-5.66,12.43-11.3,16.64-1.62,1.21-2,2-.73,3.49-.25,1.71-1.58,2-2.9,1.93-6.93-.25-13.91.67-20.77,0A27.45,27.45,0,0,1,506.35,585c-4.64-5-10.08-9.15-14.55-14.32-8.85-10.24-18.67-19.61-27.07-30.24-4.71-6-8.14-12.76-12.41-19C450.08,518.15,449.75,513.68,447.24,510.3Z"/><path class="cls-4" d="M709.49,823.74H690.64c-4-2.62-8.57-4.11-12.92-6a20.48,20.48,0,0,1-7.09-4.93c-.93-2.36-.1-4.44,1.13-6.41,1-1.56,2.07-3,3.16-4.5,2.54-3.45,5.41-6.67,5.29-11.42a3.23,3.23,0,0,1,2.48-3.41c6.3,5.16,13.51,9,19.77,14.33,4.33,3.67,8.76,7.66,14.83,8.9,2.32.48,4.73,2,4.65,5.09-.06,2.36-3.42,5.43-6.61,5.91C713.14,821.63,711.06,822,709.49,823.74Z"/><path class="cls-5" d="M564.63,552.63c-5.2.12-10.19,1.74-15.34,2.13-7.07.54-13.9,2.34-20.83,3.63-2.29.43-4.35-.84-6-2a23.39,23.39,0,0,1-6-5.8,57.63,57.63,0,0,0-11.25-11.51,3.84,3.84,0,0,1-1.21-1.49c-1.4-3.91-4.43-6.62-7.26-9.34-4.32-4.14-7.51-9.18-11.48-13.58-1.91-2.12-.6-4.25.42-6.29,2.82-2.68,6.53-4.06,9.48-6.61,8.37-7.24,17.83-13.07,26.65-19.73a10.65,10.65,0,0,0,3.65-4.46,61.66,61.66,0,0,0,4-12.64c1.23-6.66,3.15-13.23,2.39-20.14a43,43,0,0,0-1.1-5.33c-1.29-5.41-3.44-10.66-3.47-16.31,0-3.67.69-4.69,4.13-5.63,6.66-1.82,13.06-4.57,20.18-4.69,4.05-.07,7,1.09,8.88,4.64.21.39-.06-.09.15.29,4.61,8.29,6,8.06,14.55,2.43a15.23,15.23,0,0,1,6.51-3.51c3.09-.85,5.58-2.82,8.47-4,2.51-1.05,2.81-3.25,1.38-6-1.28-2.46-3.33-4.57-3.57-7.53-.11-6,2.35-8.14,8.18-7.11a8.58,8.58,0,0,0,3.84-.07c4.58-1.24,9.26-.9,13.92-.91.66,0,1.63-.31,1.69.91-2.56,1.29-5.42,0-7.95.75-4.47,1.35-9,1.13-13.56,1.24-4.33.1-5.48,2.39-3.22,6.19,1.44,2.42,3.07,4.72,4.35,7.21,1.91,3.66.75,6.38-3,8.1-4.61,2.12-9.53,3.62-13.75,6.47-2.69,1.82-5.68,3-8.5,4.54-2.16,1.16-4.85,1.46-6.9-.74a23.37,23.37,0,0,1-3.92-4.73c-3.53-6.85-6.6-6.48-13.86-4.65-4.17,1-8.24,2.49-12.38,3.65-3.22.9-4.08,3.36-3,6.56,1.81,5.45,3.71,10.89,4.19,16.71.77,9.29-1.44,18.2-2.81,27.25s-7.53,13.84-14.15,18.57c-6.33,4.52-12.86,8.75-18.7,14-2.7,2.41-6.1,4-9.15,6s-3.41,3.64-1.06,6.5c2.94,3.6,6,7.07,9.14,10.53,7.86,8.75,15.84,17.4,23.63,26.21,2.93,3.33,6.63,4.48,10.52,3.37,5.28-1.52,10.77-1.15,16-2.44,6.41-1.58,13-1.68,19.5-2.73A11.36,11.36,0,0,1,577,553.9c-.31.31-.76.66-1.13.5C572.3,552.77,568.42,553,564.63,552.63Z"/><path class="cls-6" d="M668.43,386.79a53.08,53.08,0,0,0,17.31-4.32,6,6,0,0,1,2.82-.71c5.4.47,10.24-2,15.31-3.07a250.64,250.64,0,0,1,30.85-4.51c4.87-.39,9.72-1.72,14.72-1.77,3.07,0,4.71,1,5.29,4.3.65,3.68.36,7.33.48,11a27.08,27.08,0,0,0,4.56,13.82c1.28,2,2.45,4,3.55,6.12,3.58,6.75,9.76,10.91,15.65,15.24,6.22,4.57,12.66,8.88,19.24,12.93,7.57,4.66,15.42,8.88,23.12,13.35,4.47,2.59,8.79,5.43,13.32,7.91,2.69,1.48,5.4,2.76,7.65,5a5.87,5.87,0,0,1,1.19,7.13c-1.19,2.49-4,2.65-6.34,1.85-4.45-1.53-8.79-3.41-13.16-5.16-3.36-1.35-6.38-3.59-10.2-3.74-1.63-.06-2.43-1.69-3.86-2.27-4.91-2-9.78-4.05-14.54-6.4-4.11-2-8.54-3.4-12.84-5-4.52-1.71-8.86-3.8-13.22-5.85q-9.44-4.41-19-8.53c-3.65-1.58-5.91-4.35-7.89-7.65-3.43-5.7-5.61-12-8.53-17.89-2.15-4.37-5.19-5.55-9.9-3.58a14.77,14.77,0,0,1-6.62,1.37.79.79,0,0,1,.1-1,20.2,20.2,0,0,1,15.21-2.89c2.2,1,2.87,3.19,3.66,5.15,1.78,4.48,3.34,9,5.78,13.23a17.91,17.91,0,0,1,3,5.33c1.38,3.08,3.93,4.53,6.72,5.72,8.37,3.56,16.29,8.1,24.72,11.48,9.45,3.78,18.83,7.72,28.25,11.56,5.11,2.08,9.84,5,15.14,6.69,5.77,1.8,10.79,5.53,16.9,6.48,1.74.28,3.41.45,4.24-1.34s-.47-2.89-1.58-3.93a8.82,8.82,0,0,0-2.87-2.1c-5.56-1.88-9.63-6.41-14.91-8.53-7.52-3-13.51-8.51-20.88-11.78-6.22-2.75-11.54-7.25-17.19-11.07s-11.49-7.77-16.45-12.68c-3-2.92-5.77-5.95-7.41-9.77-1.24-2.88-3.35-5.18-4.54-8.17A34.58,34.58,0,0,1,753,384.75c-.28-2.54-.6-5.07-1.13-7.58-.32-1.55-1-2.56-2.78-2.48-.69,0-1.38,0-2.07,0-2.78-.23-5.32,1-8,1.27-9.49.8-19,1.45-28.31,3.45-5.09,1.09-10.26,2.15-15.34,3.47s-10.08,2.42-15,3.94a25.62,25.62,0,0,1-9.24,1.53C670.06,388.09,668.64,388.48,668.43,386.79Z"/><path class="cls-7" d="M449.74,501.9c-.86.4-1.44,1.32-2.51,1.35-.31-1.75.42-2.85,1.65-4.2,4.12-4.53,9.55-6.32,15.07-8.29,10.52-3.75,21.1-7.53,29-16a44.24,44.24,0,0,0,10-16,92.63,92.63,0,0,0,4.44-22.61c.75-9-.13-18.07,1.77-27,.74-3.42,3.66-4.82,6.07-6.37a61.29,61.29,0,0,1,11-5.27c3.86-1.52,8-.83,11.48-2.46,6-2.83,12.13-1.4,18.2-1.73,3.87-.21,7.72.12,11.28,2.11,2.08,1.17,3.26-.21,3.21-2.1-.14-5,1.91-9.67,2.22-14.64.29-4.69,3.93-7.84,9.06-8.1,5-.26,10-.13,14.92-.74-.23,2.12-2,2-3.39,2.13-2.25.17-4.52.06-6.79.06a6.71,6.71,0,0,0-4.79,1.55c-5.07,1.94-6.33,6.27-7,11-.5,3.51-.44,7.15-1.87,10.48-.91,2.12-1.95,4.22-4.85,4a33.66,33.66,0,0,0-22.17-3.32,129.73,129.73,0,0,0-16.28,3.59,54.07,54.07,0,0,0-12.25,5.19c-3.89,2.43-6.2,5.29-5.93,10.26.33,5.93.58,11.94-.59,17.82-1.63,8.26-1.21,16.82-3.93,24.91a42.09,42.09,0,0,1-2.61,5.94c-4.64,8.87-10.71,16.39-19.67,21.48-7.51,4.26-15.79,6.56-23.59,10.05-3.51,1.56-7,3-9.53,5.93A2.54,2.54,0,0,1,449.74,501.9Z"/><path class="cls-8" d="M447.24,510.3a5.15,5.15,0,0,1,3.13,3.53c1.16,5.79,5,10.1,7.81,15,6,10.63,14.08,19.48,22.43,28.21,5.73,6,10.62,12.87,16.84,18.27,5.56,4.83,9.91,11.06,16.87,14.41,7.24,3.49,14.76,3.62,22.43,2.94a19.39,19.39,0,0,1,4.44.06c2.17.29,4.57.87,6.43-1.08a1.8,1.8,0,0,1,1.79-.53c6.79,1.56,10.36,7.17,14.69,11.74,9,9.48,17.48,19.44,27.08,28.38,7.51,7,14.45,14.6,21.64,21.94a3.92,3.92,0,0,1,1.28,2.22,1.53,1.53,0,0,1-.53,1.29c-4.59-4.86-9.49-9.4-14.18-14.17-5.15-5.23-10.38-10.46-15.88-15.36-3.18-2.83-5.42-6.4-8.35-9.42-7.06-7.29-14-14.68-21.09-22-1.43-1.47-3.49-1.66-5.48-1.57-7.7.33-15.39-.18-23.11.46a22,22,0,0,1-17.16-6.06A363.36,363.36,0,0,1,482,561.73c-8.63-9.68-17.84-18.86-24.74-29.93-2.92-4.66-5.57-9.48-8.13-14.36C447.9,515.12,446.68,513,447.24,510.3Z"/><path class="cls-9" d="M598.6,570.19c4.82,1.52,7.95,5.46,11.84,8.29,10.68,7.76,19.92,17.25,30.4,25.28,2.54,1.94,5.23,3.87,7.22,6.5,3.48,4.59,3.83,10.18,4.57,15.52.5,3.62.6,7.27,1.74,10.81a13.38,13.38,0,0,1,.89,5.39c-.81,6.8,2.66,13,2.35,19.75-.22,4.58,2.42,8.63,2.45,13.23,0,2,1.92,3.57,3.35,5,11.24,11.25,21.4,23.55,33.12,34.33a22,22,0,0,1,4,5.49c1.64,2.88-.81,5.2-1.8,7.46-1.86,4.23-5.1,7.72-7.69,11.54-2.73,4-4.79,8.54-7.74,12.52-3.83,5.16-7.47,10.47-11.05,15.81-2.83,4.22-1.24,9.23,3.55,12,1.29.74,2.9,1,3.72,2.49a2,2,0,0,1-1.61,1,13.87,13.87,0,0,1-9.17-8.09c-1.53-3.4,0-6.51,1.87-9.15,4.7-6.75,9.16-13.67,13.91-20.39,4.41-6.23,9.06-12.42,12.29-19.45a6.73,6.73,0,0,0-.35-6.49c-1.9-3.42-5-5.68-7.67-8.36-6.55-6.63-12.68-13.66-19.27-20.25-3.08-2.26-5.51-5.16-8.12-7.88-3.73-3.87-5-8.93-5.44-13.89a97.24,97.24,0,0,0-2.12-15.31c.28-6.1-.84-12-2.17-18a4.4,4.4,0,0,1-.29-1c-.42-2.51.12-5.07-.42-7.57a7.81,7.81,0,0,1-.25-1c-.84-2.9-1.32-5.87-1.92-8.82a16.89,16.89,0,0,1-1.26-3.44c-1.15-2.83-3.57-4.51-5.84-6.32-.25-.16-.49-.35-.73-.54-11.84-9.42-22.49-20.25-34.84-29.07-2.28-1.63-4-3.92-6.54-5.29A1.66,1.66,0,0,1,598.6,570.19Z"/><path class="cls-10" d="M709.49,823.74c.07-3,2.55-3,4.45-3a7.42,7.42,0,0,0,4.45-1.65c1.41-1.12,3.23-2.16,2.83-4.37s-2.43-3.3-4.12-3.66c-7.7-1.64-12.89-7.15-18.65-11.68-3.84-3-7.55-6.2-12.14-7.92-2.12-.79-1.8-3.14-3.48-4-1.41-.85-3.42-1.14-3.25-3.47a2.28,2.28,0,0,1,1.39-.42c4.63,2.36,8.59,5.72,12.75,8.77C699,796.14,704,800.2,709,804.37c3,2.54,6.93,3.52,10.8,4.27,1.17.22,2.36.38,3.51.7,1.79.51,3.72.89,4.13,3.13a6.16,6.16,0,0,1-2.16,6.12,30.62,30.62,0,0,1-9.34,5.16Z"/><path class="cls-11" d="M581,373.07c1.58-2.07,3.88-1.74,6.09-2,3.19-.32,6.65,1.2,9.55-1.25h0c3.85-.94,7.82-.79,11.72-1.27a29.9,29.9,0,0,1,9.33-.64c8.65.57,17-2,25.64-2.09,4.5-.05,6.95,1.9,9.12,5.28a93.33,93.33,0,0,0,9.81,12.37,10.87,10.87,0,0,0,6.17,3.29c.71.91,1.73.52,2.63.65-.28,1.88-1.73,2-3.14,1.92a16.69,16.69,0,0,1-4.13-.75,22.75,22.75,0,0,1-9.18-8.51c-1.94-3.4-4.49-6.37-6.59-9.66-1.89-2.95-3.81-3.78-6.93-2.42-5.09,2.22-10.4,2-15.69,2.09a145.26,145.26,0,0,0-18.11,1.39c-7.88,1.19-15.93,1.74-23.93,2.39A2.8,2.8,0,0,1,581,373.07Z"/><path class="cls-12" d="M613.57,656.71c0-.45,0-.9,0-1.34,3.68.64,5,3.78,5.89,6.56,2.27,7.52,4,15.19,6.15,22.77,1.78,6.39,3.39,12.84,5.47,19.17,1.33,4.07,2.9,8.11,3.67,12.37.44,2.42,2.06,4.5,2.35,7,.36,3.49,2.27,6.49,3,9.88,1.94,8.6,4.36,17.09,6,25.75a27,27,0,0,1,.21,6.78c-.07,1,.09,2.33-1.6,2.24-.67-2.56.31-5.23-.51-7.78-1-4.13-1.78-8.33-3.08-12.36-.76-2.38-1-4.91-1.72-7.14-1.14-3.33-1.62-6.83-3-10a14.25,14.25,0,0,1-1.42-6.54,5.12,5.12,0,0,0-.73-3.11c-2.25-3.61-2.27-7.93-3.79-11.78-1.43-3.65-2.6-7.41-3.71-11.16s-2-7.82-3.43-11.63c-1.89-5.21-1.82-11-4.28-16-.09-.2-.25-.41-.22-.6C619.7,664.34,615.93,660.82,613.57,656.71Z"/><path class="cls-13" d="M598.6,570.19c3.54,2.94,7,5.92,10.63,8.81,6.95,5.62,14.2,10.86,20.52,17.25,2.86,2.9,6.27,5.25,9.46,7.82a8.44,8.44,0,0,1,2.45,2.53c-2.28.94-3.35-1.25-5-1.92-7.14-4.61-12.71-11.07-19.25-16.37-11.77-9.51-23.56-19-36.22-27.38-2.43-1.61-4.31-4-7-5.2-2.79-2.58-6.25-1.54-9.48-1.78,0-.44,0-.88,0-1.32,3.52-1,7-1.19,10.25.81a6.69,6.69,0,0,0,2.15.46l.05,0c1.51,1.06,3.07,2.05,4.49,3.23Z"/><path class="cls-14" d="M644.3,760.12c1.29,2.49.3,5.16.63,7.72-.22,4.23-2.9,7.34-4.94,10.73-.44.75-1,1.39-1.51,2.12-3,4.71-2.79,5.24.84,9.51,7,8.26,16,14.18,24.37,20.8a7,7,0,0,0,3,1.14,5.55,5.55,0,0,1,.89.32,6.14,6.14,0,0,1,2,1.07c3.5,3.69,8.34,5.09,12.59,7.5,1,.57,2.59.89,2,2.7-5.15.77-8.74-2.61-12.52-5-2.13-1.37-4-3.15-6.35-4.33-8.81-4.39-15.89-11.09-23.08-17.63-1.84-1.67-3.53-3.52-5.31-5.27-4.7-4.6-4.1-5.7-.61-11.18a110,110,0,0,0,7.61-13.42C644.75,764.94,644.2,762.39,644.3,760.12Z"/><path class="cls-15" d="M716,823.75c1.83-2.6,5.36-2.58,7.45-4.81.73-.78,1.83-1.25,2.45-2.08,2.23-3,1.13-5.86-2.57-6.65-4.87-1-9.92-1.63-14-4.72-6.38-4.81-12.58-9.86-18.94-14.7-3.05-2.34-6.28-4.44-9.43-6.65-.89-.7-2.48-.47-2.73-2l1.36-.55c1.62.14,2.67,1.28,3.89,2.17,8.81,6.39,17.72,12.6,25.89,19.85,3.12,2.77,7.63,3.2,11.76,4a34.76,34.76,0,0,1,6.73,2.1c2.81,1.18,2.37,3.82,1.67,5.88C728.05,819.8,720.74,824,716,823.75Z"/><path class="cls-16" d="M717.35,405.61l0,.71a10.17,10.17,0,0,1-4.58,2.12c-6.23,1.73-12.25,4.12-18.37,6.16a95.65,95.65,0,0,1-13.24,3.65c-10.17,1.83-20.3.5-30.42,1-2.77-.81-5.73,0-8.5-1.41-4.73-2.46-5.33-5.81-1.37-9.77,1.19.92.91,2.29,1.05,3.53.42,3.9,1.33,4.74,5.22,4.75,2.62-.22,5.18.81,7.74.64,9.06-.58,18.18,0,27.17-1.33,6.31-1,12.26-3.36,18.2-5.68,4.9-1.91,10.05-3.08,15-4.92A1.92,1.92,0,0,1,717.35,405.61Z"/><path class="cls-16" d="M615.55,392c-5.46.06-11-.5-16.33,1.15a5.91,5.91,0,0,1-2.58,0c-6.58-1.12-7.83-.09-7.85,6.64-2.67-1.11-3.41-3.13-1.87-5.51a8.42,8.42,0,0,1,7.43-3.91c4.67-.05,9.36-.59,14-.48,7.68.18,15.07-1.48,22.59-2.24a16,16,0,0,0,3.7-1.21c5.18-1.81,9.76,1.27,10,6.73.14,3.59.14,7.16-2,10.33-1.58-.56-1.8-.75-1.54-2.45.33-2.21.93-4.38,1.15-6.63.4-4.08-.84-5.39-5.06-5.38a19.18,19.18,0,0,0-5.31,1h0A123.53,123.53,0,0,1,618.18,392Z"/><path class="cls-17" d="M684.14,823.73c-.87-2.16-3.19-2.84-4.85-3.32-4.87-1.39-8.18-4.93-12.11-7.61,1.29-1.1,2.57-.67,3.86,0,5.38,3.87,11.49,6.24,17.64,8.54a2.87,2.87,0,0,1,2,2.39Z"/><path class="cls-5" d="M631.87,390c2.38-1.84,5.17-1.52,7.8-1.13A3.62,3.62,0,0,1,643,393c-.11,2.49.08,5-1,7.34-.48,1.1-.78,2.28.2,3.33a4.92,4.92,0,0,1-1.26,4.58,15.31,15.31,0,0,0-1.58,2.76c-.78,2.45-.64,4.51,2.08,6,3,1.61,6.31,1.06,9.28,2.27-3.18-.1-6.38.53-9.46-1.2-2.76-1.55-4.52-4.24-3.22-7,1.81-3.83,2.12-7.81,2.32-11.91a32.16,32.16,0,0,1,1.08-5c.69-3.2-.5-4.74-3.85-4.7C635.72,389.44,633.8,389.81,631.87,390Z"/><path class="cls-5" d="M618.18,392c4.55-.72,9-2.09,13.69-1.93C627.49,391.94,622.85,392.07,618.18,392Z"/><path class="cls-5" d="M581.57,557.16a7.64,7.64,0,0,1-4.49-3.23A6.12,6.12,0,0,1,581.57,557.16Z"/><path class="cls-18" d="M449.74,501.9c2.34-4,6.07-6,10.36-7.52,5.13-1.82,9.94-4.59,15.13-6.16,3.28-1,6-2.74,9-4.18a37.25,37.25,0,0,0,13.22-11.35A50.05,50.05,0,0,0,504,461.76c3.14-7.66,3.67-15.71,4.93-23.76,1.4-8.95,1.23-17.8,1.55-26.7a5.26,5.26,0,0,1,1.61-3.72,31.31,31.31,0,0,1,13.22-7.82c4.15-1.37,8.16-3.5,12.8-2.65a2.73,2.73,0,0,0,1.57-.29c8.74-4.24,17.41-2.58,26.06.28a9.47,9.47,0,0,1,2.16,1.42c2.08,1.35,2.48,3.73,3.21,5.76,1.64,4.5,2.06,9.43,4.91,13.52a2.3,2.3,0,0,1-.23,2.72c-1.77,3.75-6.2,3-8.93,5.16-.63.51-1.6-.31-2.24-.95a20.2,20.2,0,0,1-4.74-6.46c-1.51-3.62-4.28-4.47-8.34-4.43-7.32.07-13.81,3.15-20.7,4.73-1.93.44-2.85,1.51-2.74,3.39.14,2.73-.47,5.45,1.53,8.05,1,1.32.15,3.95.91,5.62,2.62,5.74,2.69,11.81,2,17.73a74.15,74.15,0,0,1-3.75,17.16c-.75,2-1,4.14-1.76,6.19-2.07,5.75-7.28,8.23-11.71,11.19-8.35,5.6-16,12-24.08,18-1.74,1.29-3.83,1.44-5.56,2.53-2.24-2.47-5.19-3-8.36-3.46-8.08-1.2-16.11-2.13-24.25-.62C451.26,504.67,449.8,504.12,449.74,501.9Z"/><path class="cls-19" d="M564.67,554c3.5-1.59,6.8-1.55,9.75,1.23-3.82.29-4.72,3.09-5.87,6.14-3.15,8.36-5.13,17.11-8.52,25.39-.2.5-.27,1.12-.66,1.47-2.14,2-2,4.3-1.15,6.76-2.37.33-3.79-1.85-5.92-2.23a9.5,9.5,0,0,1-2.6-1.06l-2.07,0c-.7-.76-2.42-.28-2.42-1.76s1.38-1.49,2.25-2.07c7-4.67,11.54-10.88,11.93-19.52.09-2.14.32-4,1.94-5.62a4.15,4.15,0,0,0,1.33-3.54C562.34,557,563.29,555.41,564.67,554Z"/><path class="cls-20" d="M671,812.81c-1.29.69-2.58-.36-3.86,0l-.12,0c-4-.6-6.28-4-9.39-6-5.16-3.34-9.58-7.68-14.34-11.56-2.42-2-4.05-4.74-6.25-7-1.36-1.39-.82-3.1.09-4.77,2.64-4.81,6.2-9.1,8-14.38a37.75,37.75,0,0,0,1.41-5.28c0-5.88,4-9.61,7.66-13.42,1.8-1.89,3.88-3.52,4.76-6,2.35-6.79,6.47-12.48,11.14-17.78,2.94-3.34,5.64-6.86,8.35-10.37s5.83-5.1,10.18-4.2c10.12,5.09,9.76,11.86,4.49,20-4.38,6.76-8.72,13.54-13.78,19.91-3.54,4.46-6.38,9.69-9.37,14.68-3.66,6.1-1.19,8.31,2.42,12.71a9.89,9.89,0,0,0,5.15,3.26,2.41,2.41,0,0,1,1.85,1.65c1.15,1.05,2.6,1.79,3.36,3.25-1.91,1.46-2.25,3.53-2.12,5.71a5.51,5.51,0,0,1-1.4,4.48c-2.72,2.57-4.22,6-6.6,8.79A8.07,8.07,0,0,0,671,812.81Z"/><path class="cls-21" d="M575.77,420.52c-.09-.74.09-1.72-.31-2.18-3.44-3.94-3.56-9-5-13.67-.66-2.11-1.69-4.11-2.55-6.15,4.52-.64,4.67-4.57,5.06-7.63a67.33,67.33,0,0,1,2.78-14.06c.91-2.61,3.48-2.54,5.25-3.76,4.19-.39,8.46-.4,12.53-1.28,4.94-1.07,10,.29,14.84-1.31,5.08-1.7,10.27-1.06,15.43-1.32,5.83-.29,11.73.51,17.38-2.29,2.53-1.26,5.66-.53,7.51,2.59,2,3.31,4.48,6.31,6.34,9.67,2.13,3.86,5.68,6.14,8.83,8.9a9.7,9.7,0,0,0-3.6,6.29,12.41,12.41,0,0,1-6.69,9c-.39.21-1,.32-1.1.66-1.87,4.44-5.78,8-5.58,13.33-4.69-.07-5.78-1.17-5.86-5.89,0-1.07,0-2.13,0-3.2-.21-1.7.6-3.12,1.26-4.58.81-3.55,1.65-7.07,1.42-10.79-.26-4.17-4.25-7.52-8-5.79-2.79,1.29-5.63,1.14-8.37,1.87-6,1.59-12.13,1.53-18.27,1.85-5.29.28-10.58.4-15.88.57a6.81,6.81,0,0,0-6,4.29c-.76,1.64.19,3.12,1.69,4.12.56,2.49,2.26,4.38,3.52,6.49,2.11,3.54.76,6.17-2.87,7.94C584.92,416.4,580,417.72,575.77,420.52Z"/><path class="cls-22" d="M646.87,417.32c-1.33-.72-1.71-1.23-.93-3.05,1.37-3.23,4.37-5.71,4.47-9.55,0-.82,1-1.41,1.81-1.73,4.33-1.69,6.39-4.95,7.38-9.39.5-2.24.45-5.54,4.24-5.57,2.39-.45,5,1.91,7.22-.59,5.92.36,11.15-2.24,16.54-4a22.08,22.08,0,0,1,4.73-.73,70.24,70.24,0,0,0,12.71-2.9c7-2.1,14.25-1.92,21.2-3.69,4.12-1.05,8.41,0,12.59-1,2.8-.67,5.56-1.91,8.58-1.41.18,1.48-1.14,2-1.88,2.83-5.65,1-11.23,2.56-17,2.61-5.12,0-10.19.49-15.29.74-2.46.13-4.58,1.32-6.87,2-7.95,2.17-16.09,3.6-24,6.06-3.62,1.13-7.41,1.62-11.1,2.55a10.11,10.11,0,0,0-7.55,6.91,10.81,10.81,0,0,1-6.43,6.86,6.58,6.58,0,0,0-3.94,4c-1.81,5-.17,7.45,5.21,7.49.43,0-.11,0,.32,0,6.19-.56,12.29-1.3,18.62-1.13a38.85,38.85,0,0,0,17.85-4.38c6.74-3.35,14-5.34,21.13-7.54a50.16,50.16,0,0,1,10.79-2.26,18.61,18.61,0,0,0,4.78,1.25,2.56,2.56,0,0,1,.88.46.72.72,0,0,1,0,.91c-5.49-.77-10.61.66-15.65,2.55-2.81-.19-5.07,1.59-7.68,2.21-5,1.2-9.89,3.3-14.8,5.1-6.51,2.38-13.06,4.47-20.12,4.45-4.65,0-9.29-.25-14,.51S651.53,417.31,646.87,417.32Z"/><path class="cls-23" d="M745.44,375.7l2-2h1.91c2.41.58,3,2.5,3.18,4.57a24,24,0,0,0,1.35,6.49c-.52,5.51.28,11.07,3,15.61,3.19,5.28,5.81,11,10.58,15.37,8.57,7.84,18.57,13.64,27.91,20.39,4.92,3.56,11,5.06,15.6,9,5,4.22,11.73,5.44,16.71,9.64,3.51,3,8.07,4.05,11.71,6.76a8.45,8.45,0,0,1,2,2.06c.79,1.18,1.89,2.35.81,3.79a4.35,4.35,0,0,1-4.56,1.77c-4.73-.84-8.86-3.11-13.2-5s-9-3.24-13.27-5.44c-8.05-4.17-16.61-7.16-24.9-10.75-6-2.59-12.07-4.92-18-7.6q-10.44-4.72-20.75-9.77c-2.36-1.16-2.78-4-4.07-6.05-.68-1.08-1.28-2.24-2-3.29l.37-.31c2-.23,2.73,1.35,3.31,2.62,1.75,3.81,4.69,5.93,8.55,7.38,6.6,2.47,12.42,6.6,19,9.15,3.33,1.29,6.56,2.8,10.18,3.28,3.82.51,7,2.54,10.3,4.47,6.72,3.87,14.14,6.4,21.23,9.55,6,2.68,12.46,4.31,18,8.05,1.87,1.26,4.64,2.13,5.81,0s-1.7-3.55-3.28-4c-5.92-1.55-9.6-6.75-15-8.82-6.1-2.33-11-6.42-16.45-9.75a2.86,2.86,0,0,0-.85-.47c-7-1.46-12.18-6-17.57-10.12-7.23-5.49-14.87-10.5-21.11-17.21a44.22,44.22,0,0,1-5.9-8.92,9.1,9.1,0,0,1-.45-.88c-4.54-5.89-6.11-12.75-6.53-20,0-.53-.06-1.06-.09-1.59C750.73,380,750.23,376.4,745.44,375.7Z"/><path class="cls-23" d="M733,403.06v-.7a1.52,1.52,0,0,1,1.5-.27,6.9,6.9,0,0,1,3.17,4.3c1.2,3.54,2,7.22,4,10.49a3.56,3.56,0,0,1,0,4.25l-.18.16C737.79,415.6,736.71,408.72,733,403.06Z"/><path class="cls-22" d="M753.85,384.79c-1.55-1.57-1.71-3.7-1.8-5.64a6.34,6.34,0,0,0-2.73-5.42,2.85,2.85,0,0,1,3.31,2.78C753,379.27,753.44,382,753.85,384.79Z"/><path class="cls-24" d="M549.7,591.65c3.11.27,5.58,2.2,8.4,3.25,4.42,2.25,6.61,6.71,10,10,8,7.62,14.57,16.49,22.73,24a280.17,280.17,0,0,1,25.92,26.78c.7.84,1.53,1.53,2.26,2.34,2.21,3.66,3,7.88,4.07,11.88,2.68,10.1,5.45,20.19,8,30.34,1.36,5.48,3.61,10.81,5.26,16.27a15,15,0,0,1,1,4.08,3,3,0,0,1-.93,2.52c-2.87-8.56-5.44-17.22-8-25.88-3.33-11.19-6.1-22.51-9.15-33.76a15.46,15.46,0,0,0-5.61-8.07c-5.2-5.5-10.59-10.81-15.82-16.27-7.37-7.71-15.44-14.7-22.37-22.89-4.29-5.07-9.16-9.74-13.67-14.69C558.25,597.67,554.9,593.5,549.7,591.65Z"/><path class="cls-25" d="M679.47,784.17c-2.51-1.59-5.69-2-7.63-4.64-4.26-5.83-6.53-7.26-1.48-14.68,4.83-7.08,9-14.52,14.5-21.26a67.3,67.3,0,0,0,10.47-17.66c2-5-.55-10.06-6.75-13.32a5.9,5.9,0,0,0-2.8-.67,2.28,2.28,0,0,1-2.17-1.69c-1.3-5.73-6.12-8.94-9.47-13.19-1.51-1.91-4-3.06-4.38-5.83a1.9,1.9,0,0,1,.61-1.32c6.58,7,13.06,14.11,19.79,21,2.56,2.62,5.4,4.92,7.36,8.12a6.17,6.17,0,0,1,.27,6.45c-2.55,4.73-5.52,9.21-8.47,13.72-5.18,7.93-11,15.43-16,23.49-.68,1.1-1.58,2.06-2.23,3.18-3.47,6-2.71,9.72,3.41,14.19a38.44,38.44,0,0,0,3.65,2.1c.94.62,2.12.93,2.73,2Z"/><path class="cls-26" d="M670.37,689.91l0,1.29c-6.19-1.86-10.26-6.15-13-11.71a24.26,24.26,0,0,1-2.27-10c-.14-3.9-1.54-7.6-1.93-11.48-1.15-11.28-3.09-22.44-5-33.6-.38-2.22,0-4.49-.75-6.71a16.66,16.66,0,0,0-6.54-8.22c-1.4-1.7-4.52-2.24-3.75-5.43,1.58.76,2.7,2.33,4.57,2.6a38.87,38.87,0,0,1,6.5,6.51c.43,1.1.86,2.19,1.3,3.29.52,3.26.36,6.67,2,9.71h0c.91,2.76-.3,5.69.65,8.45h0a109.78,109.78,0,0,1,2.61,18.85,71.75,71.75,0,0,1,2.13,14.6c.4,5.43,1.81,10.77,6.13,14.77C665.48,685.13,667.54,687.92,670.37,689.91Z"/><path class="cls-13" d="M654.71,653.43c-1.54-2.55-.55-5.43-.93-8.14-.51-3.58-2.22-7-1.68-10.71A51.1,51.1,0,0,1,654.71,653.43Z"/><path class="cls-13" d="M648.16,613.11a40,40,0,0,1-6.5-6.51A13.12,13.12,0,0,1,648.16,613.11Z"/><path class="cls-13" d="M651.45,626.11c-2.55-2.85-1.83-6.37-2-9.71C650.12,619.64,650.78,622.87,651.45,626.11Z"/><path class="cls-13" d="M652.1,634.57c-1.36-2.73-.33-5.64-.65-8.45C652.82,628.85,651.79,631.76,652.1,634.57Z"/><path class="cls-27" d="M636.39,723.08c0-.89,0-1.79.07-2.68a.94.94,0,0,1,1.07.54c1.94,5.88,6.82,10.7,6.71,17.28-.1,6,1.82,11.65,2.74,17.47.43,2.77-1,5.6.52,8.26-1.5,7.45-5.65,13.64-9.62,19.88-1.26,2-1.07,3.39.4,5.15,6.28,7.53,14.19,13.19,21.94,19,2.22,1.67,4.15,3.75,6.84,4.75-3.22.56-4.82-2.12-7-3.56-6.05-4-11.43-8.84-16.89-13.56a59.57,59.57,0,0,1-6.79-7.39c-1.44-1.76-1.22-3.76,0-5.67,3.13-4.74,6.34-9.44,8.5-14.74,1.51-5,.28-9.93-.73-14.83-1-4.69-2.86-9.11-3.41-14-.43-3.85-2-7.6-3.37-11.31A11.62,11.62,0,0,1,636.39,723.08Z"/><path class="cls-28" d="M637.09,604c.35,2.33,2.53,3.1,3.91,4.55-6.84,2-8,8.45-10.43,13.64-1.32,2.8-2.66,5.9-2.57,9.24a38,38,0,0,1-3.39,11c-4,4.44-5.23,10-6.48,15.57-4.6-5-9-10.1-13.86-14.8C598.86,638,593.9,632.29,588,627.53c-4.31-3.49-7.22-8.32-11.12-12.18-6.59-6.54-12.5-13.67-18.81-20.45-2.22-2.22-1.21-3.79-.09-6.54,2.4-5.92,5.93-11.56,6.56-18.09a12.59,12.59,0,0,1,1.82-5.72,26.07,26.07,0,0,0,2.08-5.43c1.55-4.56,1.53-4.57,5.95-3.94,4,1.55,6.69,5,10.2,7.35,5.56,3.68,11,7.58,16.36,11.5,2.35,1.7,4.36,3.87,6.73,5.53C618.21,586.87,626.52,596.78,637.09,604Z"/><path class="cls-29" d="M618.13,658a19.19,19.19,0,0,1,5.91-15.6c1,1.61.27,3.21-.24,4.68a9.36,9.36,0,0,0-.07,6.35c.74,2.18.76,4.29-1.29,5.9a2.11,2.11,0,0,0-.43,2.92,18.72,18.72,0,0,0,1.67,2.79c4.63,6.29,6,13.58,6.47,21.12a10.09,10.09,0,0,0,.88,4.09c.34.68.88,1.41.78,2.12-.82,5.73,3.32,9.86,4.77,14.85.3,1,.7,2.41,2,2.29s1.2-1.62,1.42-2.64c1.12-5.12,1.62-5.5,6.71-4.42a2.42,2.42,0,0,0,2.76-1.16c1.63-2.26,2.73-4.63,2.09-7.57a14.35,14.35,0,0,1,1-8.88c1.5-3.5,2.93-7.15-.26-10.63a2.62,2.62,0,0,1-.57-1.84c.39-12.09-2-23.8-4.91-35.45-.39-1.57-1-3.22-.72-4.79.88-4.46-1.69-8.65-.83-13.08.17-.85-.43-1.42-1.24-1.67a1.9,1.9,0,0,0-2.27.82c-1.06,1.48-2.2,3.73-4.24,1.91s-.16-3.65,1.28-5.14c.15-.15.32-.29.48-.44.72-.72,1-1.53.06-2.22a1.24,1.24,0,0,0-2.07.7,11.19,11.19,0,0,1-3.9,6.48c-1.15.92-.46,2.87-.28,4.38.5,4.09-1.38,6.51-5.72,7.43.34-5.48,2.34-10.41,5-15.1a16.89,16.89,0,0,0,1.72-3.1c1.09-3.44,3.43-4.8,6.9-4.56,5.51,3.25,7.28,8.13,8.06,14.41,1,8.28,2.14,16.61,3.94,24.82,1,4.58.57,9.48,1.76,14.07,1.44,5.61,1,11.55,3.17,17,1.75,4.33,5.28,7,8.69,9.74,1.17,1,2.48,1.73,3.73,2.58.07,1.36,1.09,2.11,2,2.86,4.22,3.57,7.14,8.32,11.08,12.14a2.13,2.13,0,0,1,.43.47c2.41,4.41,2.41,4.41,4.75,5.94-6.24-1.29-9.05,3.31-11.91,7.26-4.43,6.12-10.15,11.25-13.76,18a19.12,19.12,0,0,0-1.78,3.42c-1.29,4.1-3.72,7.22-6.89,10.3s-7.18,6.82-6.74,12.37c-1.09-.45-1.23-1.38-1.25-2.4a43.82,43.82,0,0,0-2.37-14.81c-1.19-3.18-.06-7-.85-10.54a18.65,18.65,0,0,0-3.06-7.62c-1.73-2.31-2.39-5.42-3.51-8.18-1.48-4.09-2.07-8.44-3.89-12.46-1.26-2.76-1.84-5.83-2.69-8.78-2.35-8.1-4.06-16.36-6.58-24.43-1.16-3.71-2.29-7.53-3.19-11.36C619.68,661.49,619.48,659.54,618.13,658Z"/><path class="cls-30" d="M734.33,402.4l-1.34,0h-.58c-1.43-.78-3.15-.51-4.59-1.27a147.21,147.21,0,0,0-20,5.32c-6.46,2.15-12.46,5.89-19,7.25-5.85,1.23-12,4.17-18.39,1.24a4.17,4.17,0,0,0-3.47.44c-3.49,1.59-7.2,1.33-10.89,1.35a4,4,0,0,1-3.86-2.47c-1.81-3.48.43-9.06,4.08-10.55,3.07-1.26,5.42-2.86,6.5-6.56a9.87,9.87,0,0,1,7.75-7.36c10.1-2.16,20.21-4.43,30.07-7.44a102.47,102.47,0,0,1,29.25-4.14c5.18-.06,10.35-1.59,15.53-2.46,5.17,0,5.12,0,5.92,5.35a17.38,17.38,0,0,1,.59,4.43,1.58,1.58,0,0,1-1.81.2c-1.92-.83-3.32-.25-4.42,1.41-1.73,2.6-4.69,3.73-7,5.7-2.67,2.31-4.78,4.65-3.93,8.49A1.25,1.25,0,0,1,734.33,402.4Z"/><path class="cls-23" d="M727.82,401.08c1.67-.06,3.34-.14,4.59,1.27C730.76,402.38,729.06,402.57,727.82,401.08Z"/><path class="cls-31" d="M734.33,402.4c-.9-5.82.86-9.08,6.91-12.54,1.14-.66,2.45-1.22,3-2.35,1.86-3.58,4.47-3.81,7.68-2,.57,6.78,1.58,13.42,6.17,18.92a3.65,3.65,0,0,1,.36,1.21c-3.54.68-4.92-.12-5.4-3.51-.52-3.67-2.89-6.5-4.23-9.8-.69-1.73-4.18-1.28-5.91.65-3.91,4.35-4.6,9.44-2.9,14.83.78,2.43,1.58,5,3.6,6.84A4.21,4.21,0,0,1,744.7,417c1.3,6.81,6,10.49,12.08,12.67a15.41,15.41,0,0,1,6.13,3.55c2,2,4.61,2.91,7.07,3.93s3.72-1.69,5.37-2.87c1.34-1,.16-2.13-.46-3.1a5.21,5.21,0,0,1-.91-2.75c-.06-3.28-2-4.91-5-5.51a11.45,11.45,0,0,1-5-2.19c-1.73-1.39-3.45-2.53-5.88-2.2a2.53,2.53,0,0,1-2.78-1.84c-.42-1.29-.54-3,.64-3.59,2.67-1.39,2.6-3.32,1.9-5.67a1.8,1.8,0,0,1,.6-1.77c4.87,9.54,13.16,15.56,21.53,21.77,4.46,3.3,9.25,6.26,13.34,10.08a10.9,10.9,0,0,0,5.76,2.72c3.22.59,5.86,2.58,8.53,4.36,3.47,2.31,6.62,4.88,10.79,6.32,3.1,1.07,6.54,2.71,8.77,5.74,1.26,1.7,3.36,2.43,5.33,2.9a13.75,13.75,0,0,1,6.08,3.56c.78.7,1.81,1.44,1.19,2.72a3.25,3.25,0,0,1-2.94,1.67c-3.51.37-6.14-1.63-8.78-3.3a21.28,21.28,0,0,0-7.25-3.37c-4.67-.94-8.71-3.6-13.12-5.28-3.71-1.42-7-3.75-11-4.53a10.15,10.15,0,0,1-5.54-3.07c-1.89-2.3-4.35-2.81-6.81-3.24-9.48-1.67-17.68-6.28-26-10.74a38.46,38.46,0,0,0-7.4-3.3,7.81,7.81,0,0,1-5.15-4.39c-1-1.9-1.78-4.25-4.19-5.11a8.42,8.42,0,0,0-1.66-5.3c-1.6-2.13-1.82-5.06-2.75-7.58A19.92,19.92,0,0,0,734.33,402.4Z"/><path class="cls-32" d="M627.33,631.31l3.14-2.28a4.25,4.25,0,0,0,1.86-4.74c-.47-2.6-2.11-5.81,2.37-7.06,1.27-.36,1-2.21,1.12-3.51a3.13,3.13,0,0,1,2.47-3.06c1.31-.32,2,.66,2.58,1.57.75,1.14,1,2.2-.63,2.88a3.4,3.4,0,0,0-1.38.83c-.71,1-2.08,1.76-1.52,3.32a1.29,1.29,0,0,0,1.25.89c1.58,0,2-1.3,2.25-2.38.63-3,2.66-1.57,4.06-1.24,1.59.38,2.24,1.55,1.28,3.23a3.46,3.46,0,0,0,.63,4.7,2,2,0,0,1,.5,2.09,18.43,18.43,0,0,0,.19,9.27,206.41,206.41,0,0,1,4.29,21.47c.57,3.81,1,7.74,1.19,11.45.18,3,.41,5.4,1.87,8.11,1.57,2.89-.54,5.9-1.64,8.58a12.3,12.3,0,0,0-.77,8.19c1.17,4.23-1.42,7-3.51,9.94-.86,1.2-1.88.19-2.83-.35-2.93-1.69-4.65-.75-5.09,2.66a10.2,10.2,0,0,1-.37,2.22c-.43,1.11.05,2.94-1.77,3.08s-2.33-1.4-2.83-2.7c-1.1-2.89-1.51-6.1-4.15-8.22a1.28,1.28,0,0,1-.41-.87c.06-4.1-1.67-8-2-11.87-.78-8.53-2.31-16.56-7.51-23.63-1.32-1.79-3.59-4.2.69-5.72,1.13-.4,1.09-2.1.66-2.93-2.33-4.47-.1-8.59.75-12.82Q625.67,636.86,627.33,631.31Z"/><path class="cls-33" d="M758.48,405.62a7.21,7.21,0,0,0,.52,3.17c.79,1.95,1.38,3.72-1.81,4.19-1.7.24-1.46,2-1.23,3.23a2,2,0,0,0,2.74,1.53c2-.84,3.17.17,4.58,1.35a11.12,11.12,0,0,0,6,2.93c3.75.46,5.27,2.43,5.46,6.32a3.68,3.68,0,0,0,1.24,2.87c2,1.69,1.69,3.32-.53,4.22-1.81.74-2.42,3.6-4.26,3.14-2.66-.65-5.1-2.23-7.58-3.53a7.94,7.94,0,0,1-1.89-1.78,7.42,7.42,0,0,0-4.14-2.42c-5.9-1.17-9.53-5.38-13-9.73a4,4,0,0,1-.44-2.15,9.34,9.34,0,0,0-2-4.88,22.42,22.42,0,0,1-3.58-9.65c-.62-4.47.78-7.77,3-11.16a5.17,5.17,0,0,1,3.15-2.61c4.27-1,4.19-1,5.94,3.31,1.28,3.15,3.44,5.87,3.55,9.6.06,2,2.87,1.3,4.33,2Z"/></g><g id="DFe"><path class="cls-34" d="M847.27,594.25q0-49.9,0-99.81c0-7.88,1.6-9.47,9.52-9.48,12.17,0,24.35.4,36.49-.21,10.43-.52,20.84-.17,31.25-.35a59.74,59.74,0,0,1,9.06.64c4.54.64,6.53,2.66,6.89,7.63a78.89,78.89,0,0,1-1,18.72c-.53,3.13-2.4,4.13-5.22,4.14q-9.94,0-19.9.07c-10.07,0-20.14,0-30.21,0-4.12,0-5.54,1.37-5.55,5.4q0,25.85,0,51.69c0,4.07.63,4.64,4.78,4.64H933.3c5.38,0,5.94.38,7,5.48a54.17,54.17,0,0,1-.14,20.58c-.8,4.54-1.74,5.13-6.36,5.15-11.31,0-22.61,0-33.92,0l-15.33,0c-6,0-6,0-5.95,5.85.16,9.47.49,19,.55,28.43.09,15.79,0,31.59.08,47.38,0,2.73-.64,5.36-.68,8.06a2.72,2.72,0,0,1-2.08,2.62,11.22,11.22,0,0,1-3.83.67c-6.3,0-12.61,0-18.91,0-5.45,0-6.46-1.08-6.46-6.48Q847.26,644.65,847.27,594.25Z"/><path class="cls-35" d="M963.34,677.57l-6.51-10.45c-.58-1.12-1.7-2-1.85-3.3,0-2.37-.07-4.72-2-6.52,0-.41-.07-.82-.11-1.23-.62-6.74-3-13.19-2.63-20.13a184.75,184.75,0,0,0,0-19.83c-.35-7.11,1-14,2.31-20.84a53.44,53.44,0,0,1,13.89-26.71c.93-.52,1.69-1.64,3-.88,1.16,2.5-.1,4.46-1.67,6.15-3.57,3.82-6.16,8.09-6.9,13.34-.21,1.47-1.23,2.5-2.1,3.61-2.75,3.51-4.49,7.4-4.26,12a49.66,49.66,0,0,1-.76,9.37c-1.44,10,1,19.84,1.67,29.72.3,4.39,1,8.77,1.12,13.21.08,3.29,1.87,6.05,3.85,8.45,2.63,3.18,4.11,7.18,7.33,9.91a2.62,2.62,0,0,1,.88,1.71c.38,4.2,3.17,6.41,6.59,8.21a32.17,32.17,0,0,1,5.78,4.22c2.93,2.5,6.06,4.53,10.07,4.94a9.84,9.84,0,0,1,4.87,1.76c3.73,2.81,8.11,3,12.42,3.06,5,0,10,.44,14.95.93,4.19.4,8.19-.84,12.29-1.22,2.69-.26,3.43-2.91,3.69-5.16a88,88,0,0,0,.14-11.37c0-1.92-1.41-2.36-2.93-2.92-7.07-2.59-14.33-2.19-21.59-1.44a17.22,17.22,0,0,1-8-1c-4.78-1.76-9.46-2.46-13.77,1.29a5.28,5.28,0,0,1-4.29,1.14,3.24,3.24,0,0,1-3-2.52c-.34-1.54.67-2.39,1.87-3.06s3-.79,2.69-2.73a5.46,5.46,0,0,0-3.66-4.61c-3.91-1.35-6.31-4.17-7.89-7.76a29.14,29.14,0,0,1-2.54-14.25c.4-4.8,4-7.94,8.85-8.36A24,24,0,0,0,999,628.9,17.88,17.88,0,0,1,1014.5,625c1.37,1.26.18,2.09-.64,2.74-1.31,1-2.47,2.28-3.82,3.28-1.48.59-2.63,1.79-4.18,2.24-2.23-.09-3.73,1.3-5.3,2.57-2.48,0-4.34,2-6.81,2a84.54,84.54,0,0,0-11,.55,3.31,3.31,0,0,0-1.85,2,16.64,16.64,0,0,0,.12,6.92c2.75,8.75,7.46,16,16.15,19.87,3.89,1.73,7.79,3.49,12.35,3.28,6.28-.28,12.59,0,18.89-.11,3.27-.07,6.43.8,9.7.69,2.06-.07,3.2,1.27,3.6,3.12.53,2.43,1.21,4.91.86,7.38-.68,4.86-.42,9.73-.53,14.59-.1,4-.87,4.8-4.79,4.81-9.67,0-19.35.33-29-.11a45.78,45.78,0,0,1-17-3.81c-2.23-1-4.63-1.61-6.92-2.57-4.81-2-8.58-5.29-12.47-8.48-1.06-.86-2.62-1.19-3.16-2.65L967.36,682A17.37,17.37,0,0,0,963.34,677.57Z"/><path class="cls-36" d="M744.81,660.38c0-10.63-.34-19.21.11-27.75.35-6.63.3-13.26.35-19.88.23-32,.37-64.09-.06-96.13-.11-8.62,0-17.21.21-25.81a5.74,5.74,0,0,1,5.72-5.8c10-.18,20.15-1.12,30.11.12,8.29,1,16.54,2.49,24,7.3,7.28,4.69,14.12,9.65,19.27,16.56,3.11,4.17,6.3,8.39,7.82,13.55.48,1.62,1.85,2.84,2.35,4.56,2.82,9.6,3.3,19.45,3.41,29.36.07,6.79.34,13.59.39,20.38.11,15.07.32,30.14.16,45.2a237.17,237.17,0,0,1-2,31.18c-.5,3.51-2.3,6.86-3.7,10.2-.82,2-1.81,3.9-2.64,5.83-3.32,7.67-9.38,12.82-15.54,18a59.25,59.25,0,0,1-20,10.93A57.68,57.68,0,0,1,779.51,701c-7.58.31-15.16-.34-22.76.36a38.06,38.06,0,0,1-8.07-.47c-2.69-.33-3.1-2.58-3.27-4.88C744.51,683.43,744.89,670.87,744.81,660.38Z"/><path class="cls-37" d="M994.07,637.2c2-1.34,4.46-1,6.52-2,1.54-1.26,3.06-2.57,5.24-2.53,1.24-.8,2.34-1.85,3.91-2,7.63-5.88,14.76-12.35,20.49-20.06a43.86,43.86,0,0,0,7.47-15.29,36.48,36.48,0,0,1,2.13-5.76c.71-3.28.09-6.6.38-9.89a3,3,0,0,1,.55-1.53.69.69,0,0,1,1-.13c0,2-.12,3.9,0,5.84.49,7.57-2,14.38-5.33,20.94-5.64,11.18-14.71,19.36-24.64,26.53-3.61,2.61-8.32,3.67-12.43,5.52-4.74,2.12-9.54,1.13-14.18,2.28-2.09.52-3.45,1.33-3.54,3.82-.29,8,7.13,19.38,14.3,22.85a40.91,40.91,0,0,0,19.54,4c7.88-.23,15.79-.45,23.64.52,3.76.46,4.53,1.46,4.54,5.29q0,10.07,0,20.14c0,3.71-1.43,5.69-5.07,5.68-11.39,0-22.79.73-34.16-.4-7.21-.72-13.84-3.15-20.42-6.18-5.18-2.39-9.4-5.86-13.77-9.27-.77-.6-1.68-1.09-1.47-2.3,3.36,1,5.3,4,8.09,5.86,3,2,6,4.2,9.44,5.47,7.68,2.83,15.48,5.37,23.73,5.58,9.13.24,18.26,0,27.39.1,2.56,0,3.91-.63,3.68-3.45-.58-7,1-14,.07-21-.37-2.81-1.22-4.07-4.36-4.3-10.09-.74-20.23.22-30.25-.71-8.63-.8-15.78-5.25-21.08-12.38a29.78,29.78,0,0,1-5.09-11.51,17.57,17.57,0,0,1,0-7.15,2.07,2.07,0,0,1,1.3-2c3-.66,6-.12,8.94-.31C991.76,637.42,993,637.8,994.07,637.2Z"/><path class="cls-38" d="M1041.73,578h-.67c-1.2-1.13-.89-2.61-.89-4-.05-6.61-.09-13.22,0-19.82,0-2.65-1.11-4-3.55-4.63a14.85,14.85,0,0,0-3.51-.55c-8.26-.06-16.55-.48-24.77.15A70,70,0,0,0,991,553c-9.47,3.25-16.36,9.82-23.79,15.82-4.88,4.55-8.2,10.29-10.91,16.19-1.74,3.78-2.51,8.12-3.48,12.29-3.38,14.44-1.21,29.05-1.91,43.56-.2,4.18,2.86,7.71,2,12a20.37,20.37,0,0,0-.1,3.23,34.91,34.91,0,0,1-3.09-14c-.22-11.48,0-23-.08-34.47,0-4.25,1.47-8.24,2.16-12.37,1.75-10.4,6.88-19.09,13.72-27a61.19,61.19,0,0,1,20.08-15.49,56.94,56.94,0,0,1,23.22-5.94c8.37-.15,16.75-.05,25.12,0a27.58,27.58,0,0,1,4.5.58c2.68.46,3.86,2.14,3.85,4.8,0,5.52-.21,11.06.07,16.58A26.1,26.1,0,0,1,1041.73,578Z"/><path class="cls-38" d="M963.34,677.57a4.75,4.75,0,0,1,4,4.44C965.6,680.9,963.93,679.72,963.34,677.57Z"/><path class="cls-38" d="M953,657.3c3.17,1.28,2.34,4.12,2.58,6.55-2.11-.42-.21-2.46-1.34-3.27C953.76,659.51,952.84,658.61,953,657.3Z"/><path class="cls-37" d="M954.24,660.58c1.25.76.09,2.5,1.34,3.27-.1,1.28,1.57,1.89,1.25,3.27C954.25,665.61,954.12,663.15,954.24,660.58Z"/><path class="cls-39" d="M930.77,514.24l-2.6,0c-1.13.55-2.34.27-3.52.28q-18,0-36.06,0c-1.18,0-2.39.27-3.52-.28-7.4,0-7.77.35-7.8,8q-.09,26.65-.15,53.32c0,2.85,2,3.12,4.25,3.12q16,0,32,0,9.79,0,19.58,0c3.6,0,5.58,1.71,5.63,5.17.11,6.29,0,12.57,0,18.86a3.49,3.49,0,0,1-3.19,3.85,57,57,0,0,1-7.42.77c-14.9-.11-29.8-.08-44.7-.1-5,0-6.24,1.06-6,6.09,1.19,25.45.35,50.91.62,76.36a22.48,22.48,0,0,1,0,3.58c-.84,5.67-.61,7.27-7.45,7.06-5.75-.17-11.52,0-17.29-.08-3.3,0-4.52-1.2-4.53-4.5,0-11.06,0-22.11,0-33.17.58-1,.3-2.12.31-3.18q0-5.85,0-11.7c-.17-31.19.47-62.38.39-93.57,0-6.92-.34-13.82-.39-20.73-.06-9,.71-17.94.35-26.92a107.3,107.3,0,0,1-.34-11.34c.17-2.68.37-5.37,2.25-7.55h0a117,117,0,0,1,12-.56c6-.23,11.95-.07,17.93-.06,16.16,0,32.32-.41,48.48,0a22.32,22.32,0,0,1,6.41.68l2,2c1.53,6.81.19,13.66.22,20.49,0,2.33-2.28,3.43-4.54,3.83C932.66,514.06,931.65,513.66,930.77,514.24Z"/><path class="cls-40" d="M851.13,487.55A39.17,39.17,0,0,0,849.59,503a92.78,92.78,0,0,1-.19,22.52c-.61,4.33-.23,8.81.14,13.25s1.21,9,.39,13.48a16.71,16.71,0,0,0-.09,2.92c0,15.17.53,30.37-.13,45.51-.86,19.71-.16,39.41-.53,59.1,0,1,.25,2-.63,2.74q0-84.67,0-169.36C848.56,491,848.2,488.48,851.13,487.55Z"/><path class="cls-40" d="M935.93,487.6c-28.26-.58-56.53.19-84.8-.05,3.85-1.21,7.89-1.11,11.8-1.15,22.27-.21,44.54-.11,66.81-.11C931.9,486.28,934.05,486.34,935.93,487.6Z"/><path class="cls-40" d="M885.07,514.27h43.1c-.78.82-1.8.59-2.75.59q-18.79,0-37.6,0C886.87,514.85,885.85,515.09,885.07,514.27Z"/><path class="cls-40" d="M930.77,514.24c.52-.72,1.31-.57,2.05-.66,3.51-.45,5.11-2.21,5.12-5.67,0-6.11,0-12.22,0-18.34,1.86,3.76,1.46,7.78,1.1,11.71a30.79,30.79,0,0,0-.38,5.15C939.13,512.86,936.73,514.88,930.77,514.24Z"/><path class="cls-41" d="M1015,625.49c-5.11-1.14-9.41,1.82-14.09,2.82a2.36,2.36,0,0,0-1.42.75c-3.68,5.69-9.6,5.75-15.38,6.18a8,8,0,0,0-6.91,7.45c-.1,6,.71,11.79,4.28,17a8.82,8.82,0,0,0,5.32,4c3.49.75,4.14,3.52,5,6.12.59,1.87-1,2.22-2.47,2.61s-3.4.65-2.74,2.77c.58,1.91,2.46,1.94,4.13,1.61a4.55,4.55,0,0,0,2.29-1.13c4.2-4.37,9-3.05,13.81-1.5a18.54,18.54,0,0,0,8.5,1,52.07,52.07,0,0,1,23.31,1.88,2.41,2.41,0,0,1,1.87,2.64c-.06,4.12.12,8.24-.08,12.35-.21,4.44-2.47,5.65-6.84,6.48-8.78,1.67-17.42-.41-26.12-.25-4,.07-8.19-.06-11.6-3a6.78,6.78,0,0,0-3.55-1.45c-5.45-.55-9.6-3.38-13.54-6.91a33.45,33.45,0,0,0-6.79-4.39,6.22,6.22,0,0,1-3.43-4.11c-1.26-5.67-5.86-9.19-8.65-13.86-2.08-3.48-4.25-6.71-4.39-11.2a258.75,258.75,0,0,0-2.92-28.83c-.82-5.63.54-11.18.73-16.78.06-1.68.4-3.42.35-5.14a18,18,0,0,1,5.19-13.12,4,4,0,0,0,1.36-2.48c.31-5.23,2.89-9.42,6.44-13a8.31,8.31,0,0,0,2.69-6.33c.74-3.14,4.18-3.45,5.93-5.57.48-.59,1.46-.85,2.12-1.44,7.33-6.69,16.41-9.22,25.89-10.79,10.36-1.72,20.77-1.17,31.17-.7,5,.23,6.63,1.68,6.4,6.74-.25,5.41-.07,10.83-.06,16.24,0,6.17-.92,12.29-1.65,18.37-.55,4.6-2.74,9-5,13.25a74.25,74.25,0,0,1-16.14,20.44C1017.08,624.84,1016.51,626.25,1015,625.49Z"/><path class="cls-42" d="M1015,625.49c2.43-.57,3.51-2.78,5.18-4.27a54.79,54.79,0,0,0,9.73-12,76.82,76.82,0,0,0,8.25-17.15c1-3.09.17-6.42.88-9.64,2-9,1.37-18.25,1.38-27.4,0-3.75-1.31-4.66-5.09-5.08a129.28,129.28,0,0,0-19.17-.55c-9.69.36-19.21,1.54-28.34,5.4a31.27,31.27,0,0,0-8.08,5c-3.34,2.78-7.47,4.52-10.43,7.8l-2,1.25c.9-3.51,4.24-4.66,6.63-6.68,4.18-3.54,8.5-7.07,13.68-9a71.3,71.3,0,0,1,15.1-4.2c11.24-1.55,22.49-1.16,33.73-.34,3.24.24,4.84,2,4.74,5.63-.22,7.91-.07,15.82-.07,23.74l0,1.28c-.91,3.65.25,7.41-.62,11.07a159.19,159.19,0,0,1-6.69,16.26c-1.62,3.44-4.28,5.83-6.42,8.71-4.54,6.12-10.73,10.5-16.64,15.14-.22.18-.62.14-.93.21C1010.85,628.3,1013.63,627.63,1015,625.49Z"/><path class="cls-42" d="M994.07,637.2c-4.08,1.34-8.28.25-12.41.61C985.74,636.38,989.94,637.51,994.07,637.2Z"/><path class="cls-42" d="M1005.83,632.66l-5.24,2.53A4.61,4.61,0,0,1,1005.83,632.66Z"/><path class="cls-42" d="M980.36,639.78c0,2.38,0,4.76,0,7.15A8.62,8.62,0,0,1,980.36,639.78Z"/><path class="cls-43" d="M823.71,676.87c-5.84,6-11.51,12.33-19.41,15.58-5,2-9.58,5.55-15.43,5.25a6.16,6.16,0,0,0-2.19.5,39.13,39.13,0,0,1-14,2.11c-7.07-.21-14.14-.11-21.21,0-2,0-3.5-.48-3.9-2.54a49,49,0,0,1-1.38-8.92q-.12-66.68,0-133.33,0-28.71,0-57.41a39.32,39.32,0,0,1,1.14-8.3c.43-2,1.62-2.7,3.67-2.93,9.43-1.09,18.89-.76,28.31-.41a64.07,64.07,0,0,1,14.58,2.21c10,2.69,17.44,8.95,24.73,15.27a44.77,44.77,0,0,1,10.58,14.51c2.22,4.61,4.58,9.12,6,14.06a26.63,26.63,0,0,1,1,5.37c.33,5,.67,9.92.68,14.88.06,27.75,0,55.5,0,83.25,0,5.08-1,10.11-.69,15.21.17,2.66-1.8,4.57-2.67,6.87-2.5,6.59-4.49,13.51-9.68,18.75-1.26-1.58-.67-3,.33-4.45,4.61-6.54,6.59-14.31,9.95-21.44.65-1.38.43-3,.43-4.5q0-51.87,0-103.73a36.5,36.5,0,0,0-4.23-16.85c-3.25-6.23-6.21-12.7-11.06-18a63.54,63.54,0,0,0-26-17.23c-5.21-1.85-10.35-2.1-15.67-2.08-7.61,0-15.22,0-22.83,0-4.43,0-5.19.89-5.57,5.32-.61,7.14,0,14.27,0,21.41q.08,68.28,0,136.56c0,8.88-.81,17.74-.68,26.63.08,5.64.76,11.23.86,16.84a3.11,3.11,0,0,0,1.15,1.63c3.8,1.28,7.72.66,11.55.55q6.65-.18,13.3-.17a42,42,0,0,0,12.39-1.92c3.77-1.12,7.75-1.62,11.46-3.15a20.58,20.58,0,0,0,2.86-1.42,19.45,19.45,0,0,1,2.51-1.61A38.61,38.61,0,0,0,818,679.11a5.28,5.28,0,0,1,.93-1.12C820.27,676.65,821.65,675.28,823.71,676.87Z"/><path class="cls-38" d="M1040.42,590.34c.3-3.69-.7-7.45.62-11.07C1040.73,583,1041.79,586.71,1040.42,590.34Z"/><path class="cls-44" d="M912.61,606.59a115.19,115.19,0,0,1-29.13-3c-3.26-.78-8.48,3.57-9.39,7.56a19.1,19.1,0,0,0-.07,9.9c2,6.73,2,13.64,1.94,20.56q-.06,23.08,0,46.16a21.12,21.12,0,0,1-.68,5.44c-1.18,4.47-2.59,5.33-7.22,4.57a10.9,10.9,0,0,0-4.84.27c-3.56,1-6.85-.39-10.09-1.54a3.26,3.26,0,0,1-2-3.11c-.35-10.56-.87-21.09-.2-31.71a221.65,221.65,0,0,0-.19-30.16,228.4,228.4,0,0,1-.37-23c.38-13.32,0-26.66.15-40,.05-6.15,0-12.29.43-18.46.44-5.85-.78-11.8-1-17.72-.1-3.86.39-7.74.6-11.61.39-7.39,1.75-14.75.62-22.21a12.7,12.7,0,0,1,.33-5.46c1.07-3.72,2.46-4.62,6.39-3.85a16.57,16.57,0,0,0,3.23.25c16.4,0,32.81.25,49.2-.12,6.06-.14,12.06-.8,18,.55a9.41,9.41,0,0,1,7.54,8.93c.09,2.92,0,5.85,0,8.78a4,4,0,0,1-2.82,3.93c-4.28,1.77-8.88,1.78-13.34,1.66-8.88-.26-17.74-.65-26.63.22-3.87.38-7.82.09-11.73.12-3.74,0-6.06,2.2-6.17,6-.16,5.48-.51,11-.51,16.44,0,12.45-1,24.87-.88,37.31,0,3.65,1.85,6.42,3.51,9.26,1.2,2.05,6.34,2.9,9.08,1.42a14.43,14.43,0,0,1,9.94-1.55c2.95.53,6.07.05,9.11.12q11.63.27,23.25.66c3.05.11,5.5,1.39,6.54,4.41.56,1.64,2.76,2,2.66,4.22-.13,2.94.18,5.83-2.94,7.6a4,4,0,0,0-1.79,1.85c-1.87,5.3-6.63,4.77-10.74,5.24C919.53,606.87,916.45,606.59,912.61,606.59Z"/><path class="cls-45" d="M1013.62,581.14c-1.87,10.4-6.33,19.64-17.18,25.25-3.61,1.87-7.35,2-10.93,3.3-3.8,1.36-6.25-1.29-5.66-5.8,1.26-9.52,5.36-17.15,13.95-22.48,5.05-3.14,10-5.33,15.89-4.72C1011.83,576.91,1014.19,577.15,1013.62,581.14Z"/><path class="cls-46" d="M823.71,676.87c-2-.62-3.23.77-4.54,1.89,0-4.53-1.54-7.67-6.26-9.32-2.3-.81-2.46-5.91-.86-7.92.42-.52.94-1.16,1.58-1,3.14.76,6.93-.08,8.91,3.61.48.88,1,2,2.25,2,.23-.17.41-.39.33-.58-2.65-6.35-1.57-13-1.64-19.59-.06-4.78-.65-9.5-1.18-14.23-.32-2.75-.44-5.43,2.28-7.29,1.3-.88,1.45-2.37,1.43-3.8-.17-17,.43-34-.3-51-.14-3.34.49-6.69.33-10.06-.06-1.17.19-2.39-.54-3.76-2.16,1.42-2.55,3.55-2.74,5.79-.29,3.59.56,7.12.59,10.69.1,10.29.35,20.6-.08,30.88-.26,6.16-.18,12.35-.66,18.48A29.18,29.18,0,0,1,818,635.32c-2.64,4-4.1,8.32-3.38,13.21a11.34,11.34,0,0,1-1.31,6.29c-.45,1-1.22,1.9-1.3,3-.3,4.13-2.7,5.88-6.59,6.13a10.69,10.69,0,0,0-1.9.45c-5.27,1.37-6,3.69-2.24,7.45a20,20,0,0,1,2.42,3.45c.6.92,2.32,1.5,1.5,2.84-.59,1-2,.42-3.07.41A49.7,49.7,0,0,1,789.84,677a7.33,7.33,0,0,0-2.91-.26,3.1,3.1,0,0,0-2.81,1.9c-.42,1.26.54,2,1.33,2.74,2.45,2.27,5.28,4.07,7.41,6.78,1.35,1.72,3.77,2,6,2.08,1.38.07,2.87-.2,4,1-3.93,2.14-7.77,4.75-12.47,4.48-2.53-.14-4.1,1.74-6.37,2.1a53.06,53.06,0,0,1-10.37.54c-7.29-.24-14.57.86-21.85,0-.84-.1-1.77.2-2.39-.67,1-1.21,2.68-.48,3.89-1.14-1.57-3.64-1.57-3.64,2.14-6.89-2.84-1.44-4.23-.8-4.22,2.16,0,2.1-1.05,3.38-2.51,4.55A48.43,48.43,0,0,1,747.48,683c.95-54.58.39-109.17.54-163.75,0-6-.28-12-.5-18a64.37,64.37,0,0,1,1-10.59c.27-2.15,1.62-3.06,3.87-3,11.3.06,22.63-.37,33.91.22,5.6.29,10.88,3,15.92,5.65A60.16,60.16,0,0,1,822,509.62c3.6,4.61,6.06,9.91,8.79,15,3.81,7.16,4.83,15,4.8,23.05q-.24,49.42,0,98.84c0,4.09-1.68,7.33-2.93,10.8A147.54,147.54,0,0,1,826.39,671c-.92,1.92-3.56,3.06-2.64,5.82Z"/><path class="cls-47" d="M802.85,691.17c-1.53,0-3.06.1-4.57,0-3.19-.28-6.09-1-7.78-4.27-1.21-2.35-4.13-3-5.91-4.91-1.06-1.15-2.44-1.91-1.86-3.68s2.25-2.47,4.06-2.73c2.7-.39,5.08,1,7.61,1.45,3.53.63,7.06,0,11,1.06-3.6-2.38-4.61-6.27-7.84-8.31-1.24-.78,1.11-5.18,3.11-5.72a59.05,59.05,0,0,1,7-1.45c1.6-.23,3-.87,2.89-2.46-.12-2.37,1.19-4.06,2-6a10.81,10.81,0,0,0,.92-6.53c-.81-4.31.66-8.42,3.08-11.94a29.26,29.26,0,0,0,5.16-15.69c.64-14.92.75-29.84.73-44.77,0-4.65-.91-9.22-.8-13.89.06-2.63,1.63-4.39,2.47-6.56.29-.78,1.2-.88,2-.65s.86.91.84,1.57c-.15,4,.56,8-.39,12-.43,1.74.45,3.16.44,4.77q-.07,24.71,0,49.4c0,1.24,0,2.69-1.23,3.12-3.24,1.15-3.06,3.78-2.62,6.15,1.58,8.58,1.23,17.22,1.2,25.85a14.46,14.46,0,0,0,1.62,7.5c.73,1.25,1.09,2.64-.29,3.41s-2.16-.61-3-1.44a6.89,6.89,0,0,1-1-1.64c-1-1.84-2-3.39-4.53-2.55a3.08,3.08,0,0,1-1.25,0c-1.19-.09-2.58-2.71-3.49.13-.76,2.37-1.33,4.9,1.11,6.81a6.48,6.48,0,0,0,1.74.88c5,1.91,5.21,2.21,3.95,7.44a9.23,9.23,0,0,0-.12,1.29l-.68.7a2.3,2.3,0,0,1-1.44,1.24c-5,.91-7.9,4.6-10.94,8.12a5,5,0,0,1-1.29,1C804.17,690.27,803.51,690.72,802.85,691.17Z"/><path class="cls-47" d="M748.7,696.33c.34-2.13,2.66-3.71,1.49-6.36-.36-.82,1-1.91,2.13-2,1.46-.08,3.16-.66,4.32.57s0,1.87-1,2.38c-2.25,1.14-4.86,2-1.06,4.7,1.24.86.56,1.93-1,2s-2.8,0-4.2,0A1.21,1.21,0,0,1,748.7,696.33Z"/><path class="cls-46" d="M804.82,689.81c3-5.5,7.41-9.13,13.67-10.35-.93,2.57-3.35,3.88-5.26,5.36C810.7,686.8,808.12,689,804.82,689.81Z"/><path class="cls-48" d="M1011,583c-1.47,9-5.93,17.27-16.16,21.91-2.7,1.22-5.11,2.34-8.14,2.5-4.89.25-6-.75-4.88-5.37,2.77-11.66,10.06-19.2,21.24-23.17a22.55,22.55,0,0,1,4.14-.73C1010.32,577.64,1011.1,578.33,1011,583Z"/><path class="cls-47" d="M759.13,599.81c0,14.09-.26,28.19.12,42.27.16,5.92-.14,11.81-.14,17.72,0,2.21.4,4.1,2.69,5.06.29.13.81.37.79.51-.46,3.47,3.16,5,3.73,8,.28,1.51.37,3.24,2.73,2.46.47-.15,1-.05,1.1.4.73,3.09,4.9,2.73,5.78,5.76.15.53,1.19,1,1.88,1.13,2.86.42,3.57,1.42,1.18,3.53-.24.21-.62.52-.6.74.51,4.57-2.91,2.85-5,3.08-2.9.31-5.81.6-8.72.62-2.15,0-4.45-.11-5.14-2.9a1.39,1.39,0,0,0-.59-.76c-4.89-2.81-4-7.52-3.34-11.69.71-4.53-.17-8.32-3.11-11.67a7.12,7.12,0,0,1-1.86-5c0-34.58-.34-69.16.21-103.73.21-12.76.14-25.52.46-38.29.09-3.33.7-3.88,3.86-3.16,2.5.57,5.61-.21,6.91,3.15.25.65,1.15.29,1.77,0a28.67,28.67,0,0,1,3-1.17c1.79-.51,3.71-1,5.19.57s.88,3.2.16,4.86c-.21.48-.6,1.19-.41,1.5,1.94,3.29,1.11,6.18-1.11,8.93a1,1,0,0,0-.11.9c3.51,5.16,1,10.89,1.49,16.32.28,3-2.91,4.59-5.69,3.32-.59-.27-1.16-.61-1.77-.84-3.4-1.29-5.47.1-5.47,3.77Q759.1,577.54,759.13,599.81Z"/><path class="cls-49" d="M774.8,593.2q0-36.57,0-73.12c0-4.82,1.11-5.88,6-5.84,5.45,0,10.09,2.53,14.16,5.61a35.73,35.73,0,0,1,9.73,10.8c2.33,4.15,4,8.6,4.05,13.38.09,33.14.16,66.29,0,99.44a24.18,24.18,0,0,1-7.33,17c-3.79,3.86-7.73,7.16-13.22,8.89a28.56,28.56,0,0,1-9,1.67c-3.75,0-4.28-.6-4.28-4.41V593.2Z"/><path class="cls-50" d="M776.72,597.15c0-22-.05-44,0-66,0-3.87-1.25-7.66-.25-11.61.78-3.06,2.14-4.08,5.08-3.38,6.46,1.52,12.38,4.18,16.78,9.15a31.66,31.66,0,0,1,7.32,12.79c3.05,11.06,1.47,22.18,1.62,33.25.32,23,.46,46,0,68.93-.23,10.73-5.09,19.61-14.88,25.3a31.6,31.6,0,0,1-10.71,4c-4.33.7-4.9-.11-4.9-4.49q0-29.11,0-58.21Z"/></g><g id="PowerShell"><g class="cls-51"><g id="Brazil-2" data-name="Brazil"><path class="cls-4" d="M726.48,982.83,683,1013.11c-13.48.39-26.4,4.28-39.49,6.88a58,58,0,0,1-24.3,0c-5.93-4-7.35-10.1-7.69-16.63-.27-5.15-.07-10.32.07-15.47.32-12,1.8-24.07-6.11-34.85-2.3-3.14-3.34-8,.25-11.85,22.82,1.8,45.69-.87,68.65,1.32,15.9,1.52,32.53,3.63,48.55-3.26,6.12-2.63,14.11-3,18.91,4.28,3.64,5.54.81,18-5.76,24.26C731.52,972.11,727.36,976.35,726.48,982.83Z"/><path class="cls-6" d="M-70.06,39.84C-57.12,28.92-45.7,16.71-37,2.06c1.38-2.32,3.13-4.87,5.37-6.16,13.22-7.59,20.39-21.13,30.42-31.68a705.58,705.58,0,0,1,64-60c10.63-8.71,19.7-19.58,31.15-27.72,7.06-5,12.5-5.24,19.12,1.43,7.42,7.46,12.61,16.36,18.78,24.61,8.55,11.41,19.82,19.27,32.71,24.6,6.17,2.54,12.13,5.37,18,8.4,19.11,9.84,40.05,9.52,60.61,10.06,21.71.56,43.5.18,65.19-1,25-1.4,49.88-4.27,74.82-6.31,14.48-1.18,29-1.58,43.46-3.11,8.59-.91,16.92-2.32,25.68-.76s13,7.35,14.21,14.53c1.23,7.66-5,12.53-11.67,14.44-12.74,3.64-25.77,6.26-38.69,9.23-9.92,2.28-20.48,1.95-29.54,7.74-3.87,2.48-8.34,0-12.58,1-14.53,3.26-29.08,6.34-43.85,8.56-12.73,1.91-25.17,5.86-37.71,9-13.17,3.32-26.55,5.45-39.91,7.75q-28.87,5-57.6,10.81c-11,2.22-20.64-.54-30.5-5C147.38,4.85,132.29-6.12,116-15.12c-12-6.62-20.91-4.45-28.62,7.66C83.9-1.94,79.9,2.88,74.32,6.33A2.21,2.21,0,0,1,73,3.84c5.86-14.56,16.34-24.62,30.48-31.08,6.71-1.2,11.74,2.74,16.71,6,11.31,7.46,22.24,15.5,34.6,21.24,5.8,1.21,10.75,4.51,15.58,7.44,8.12,4.91,16.36,4.14,24.71,2.41,25-5.21,50.63-7.45,75.5-13.2C298.43-9.77,326.42-15.74,354.35-22c15.15-3.4,30.82-4.16,45.69-8.86C416.27-36,433.84-35.43,449.49-43c4.45-2.16,8.58-4.45,7.62-9.9-.89-5-5.73-5.93-9.95-6.53-3.29-.46-6.86-1.17-10-.25C421.3-55.13,404.63-59,389-55.46c-22.22,5.11-44.85,2-67.12,6.33-18.8,3.62-38.31,1.79-57.49,2-19.46.26-39,.5-58.35-2.86-11.51-2-22.87-4.49-32.8-10.67-7.49-4.65-16-6.56-23.59-11.55-11.6-7.66-20.24-17.31-27.7-28.53-4.72-5.43-9.53-10.76-14.77-15.7-3.25-3.06-6.51-4.27-10.41-1.27-1.57,1.17-3.21,2.2-4.83,3.28-6.77,3.94-10.59,11-16.45,15.8C54.92-81.5,33.89-64.66,15.69-45.16,5.71-34.47-4.53-23.71-14.14-12.51c-9.46,11-19.39,21.78-28.39,33.24-5.52,7-11.15,13.69-18.86,18.37C-64.21,40.21-66.86,43.41-70.06,39.84Z"/><path class="cls-8" d="M-382.43,680.27c4.76-.86,9.55-.07,12.87,3.12,12,11.5,27.87,15.22,42.19,22.16,30.85,14.94,63.78,22.38,97.08,29.11,22.85,4.62,45.21,12.67,68.24,15.15,20.59,2.22,40.64,9.63,62.09,6.19,22.33-3.58,39.91-15.35,56.52-29.24a54.34,54.34,0,0,1,10.34-7c5.49-2.82,12-5.32,13.13-12.82.18-2.1,1.58-3.22,3.28-4.09,18.16-7.3,35.43-.08,52.77,3.5,36,7.43,71.56,16.83,108.09,22.06,28.58,4.09,56.83,10.5,85.22,15.89,2.41.46,4.75,1.15,6.5,3.07a4.26,4.26,0,0,1,.86,3.84c-18.39-3.86-37-6.47-55.49-9.94-20.31-3.82-40.77-7.48-61.35-10-11.87-1.44-22.8-6.09-34.4-8.36-28-5.48-55.94-11.39-84-16.81-5.64-1.09-10.7,1.77-15.17,5.18-17.23,13.12-35.81,24.28-52.6,38.17-13.83,11.44-30.48,16.08-49.37,13.59-35.1-4.63-69.61-11.66-104-19.88-35.47-8.47-71.47-14.88-105.2-29.35-14.22-6.1-28.08-13-41.83-20.11C-373.19,690.34-379.39,687.39-382.43,680.27Z"/><path class="cls-9" d="M63.23,575.47c13.57-4.24,27.13-.16,40.67.12,37.12.78,73.7,7.85,110.79,9.55,9,.42,18.29.55,27.1,3.42,15.41,5,25.19,17.35,35.47,28.49,7,7.56,13.07,15.84,21.39,22.19,4.05,3.09,8.39,6.65,10.71,11,9.05,17,27.09,25.84,37.13,41.82,6.86,10.92,19.46,16,26.92,26.6,3.31,4.71,10.16,5.17,15.74,6.17,44,7.91,87.23,20,131.63,26.07,6.46.88,12.37,3.49,18.08,6.22,8.41,4,6.49,13.3,7.83,20.13,2.5,12.75.62,26,.79,39,.17,13.71,2.63,27.41,2.21,41.32-.54,18.08-.43,36.19-.12,54.27.25,14.28,12,23.3,27.42,21.94,4.18-.37,8.36-2.3,12.59-.24a5.59,5.59,0,0,1-2.13,4.85c-12,4.17-23.52,2.45-34.17-3.94-9-5.4-10.38-15.09-10.37-24.14,0-23.14-.81-46.27-.63-69.42.17-21.48,1-43.23-2.87-64.64-1.23-6.89-5-11.35-11.24-14.43-9.87-4.85-20.7-5.05-31.13-7C471.26,750,445.83,743.65,420,739c-10.71-.26-21-3.06-31.4-5.13-14.81-3-25.95-12.56-34.86-23.35-9.29-11.24-18.54-22.31-29.48-31.95-9.16-14.54-21.28-26.47-33.86-38a14,14,0,0,1-2.28-1.85c-5-5.12-7.85-11.9-13.12-16.81a22.55,22.55,0,0,1-2.11-1.78c-6.58-5.36-12.48-11.45-18.6-17.3-3.24-1.36-5.62-4-8.43-5.91-7.21-4.7-15.49-4.67-23.63-5.24a18.06,18.06,0,0,1-2.55-.06c-42.47-2.73-84.47-10.64-127.15-11.17-7.86-.1-15.57-2.6-23.59-1.71C66.67,579,64,578.55,63.23,575.47Z"/><path class="cls-10" d="M726.48,982.83c-4.73-7.12,1.15-10.89,5.38-14.18a21,21,0,0,0,7.64-10.95c1.44-4.86,4-10.18-.5-14.64s-10.92-3.72-15.39-1.84c-20.4,8.59-41.25,4.21-61.83,3-13.72-.82-27.38-2.21-40.73,1.19-6.18,1.58-9.22-4.35-14.46-3.62-4.62.29-9.73,2.86-13.06-2.79a6.26,6.26,0,0,1,2.51-3.2c14.5-2,29-.6,43.55-.24,18.27.47,36.5,1.67,54.73,3.29,11.1,1,21.65-3,31.78-7.48,3.07-1.36,6-2.91,9.24-4,4.93-1.71,10-3.94,14.55.58,4.88,4.87,6.65,10.84,4.84,17.6-2.65,9.83-7.45,18.63-13.28,26.91Z"/><path class="cls-12" d="M236.75,751.21,234.68,748c9.53-4.42,17.72.63,24.13,5.7,17.33,13.71,33.75,28.58,50.78,42.68C324,808.34,338,820.65,353,831.93c9.63,7.25,19.73,14.05,28.35,22.66,4.9,4.89,12,7.09,16.68,12.4,6.42,7.49,15.66,11.34,22.87,18,18.28,16.74,37.49,32.46,55.27,49.77,4.61,4.49,8.08,9.89,11.37,15.34,1.4,2.34,3.95,5.21-.09,7.73-5.65-4.84-7.69-12.57-13.68-17.14-8.94-7.93-17.48-16.37-26.95-23.61-5.6-4.27-10.08-9.8-15.44-13.73-8-5.84-14.71-13.17-23-18.4-5.54-3.51-10.4-7.23-13.8-12.82a14.48,14.48,0,0,0-6.67-6c-11-4.71-18-14.65-27.67-21.11-9.17-6.11-17.89-12.92-26.51-19.81-8.87-7.09-17.23-14.78-26.57-21.35-12.74-9-21.8-22.37-35.64-30.13-.52-.3-1.24-.56-1.47-1C263.16,759,248.79,756.91,236.75,751.21Z"/><path class="cls-13" d="M63.23,575.47c12.9,1.1,25.78,2.35,38.69,3.29,25.08,1.81,50.24,2.24,75.1,6.86,11.25,2.09,22.91,2.06,34.39,2.87,3.34.24,6.68.29,9.73,1.91-3.76,5.84-9.75,2.48-14.65,3.61-23.91.82-47.14-5.17-70.75-6.88-42.45-3.08-85-6.1-127.6-5.08-8.2.19-16.34-2.24-24.6-.71-10.56-1.46-16.91,6.49-24.74,11.12l-2.2-3c6.53-7.9,14.12-13.89,25-14.57,1.95-.13,3.81-1.56,5.72-2.4h.15c5.19,0,10.39-.19,15.57.23Z"/><path class="cls-14" d="M473.78,940.64c7,3.66,9,11.43,13.87,16.81,6.28,10.12,5.09,21.6,5.82,32.72.16,2.42-.19,4.86-.09,7.3.61,15.73,2,16.59,17.21,20.63,29.45,7.82,59.67,7.06,89.67,8.88,3.12.18,6-1,8.8-2.2a17.64,17.64,0,0,1,2.56-.7c2.08-.39,4.28-1.09,6.26-.68,14,2.9,27.44-1.65,41.13-2.91,3.24-.3,7.4-2.1,8.93,3-10.65,10-24.39,8-37,8.46-7.11.27-14.26-.87-21.6.2-27.4,4-54.51-.09-81.6-3.64-7-.91-13.82-2.45-20.74-3.63-18.24-3.1-18.62-6.57-19.36-24.86-.58-14.54-1.4-29-4-43.21C482.58,951,477.19,946,473.78,940.64Z"/><path class="cls-15" d="M741.45,972.45c.08-8.93,8.25-14.56,9.49-23.07.44-3,2.22-5.81,2.31-8.74.32-10.51-6.8-15.35-16.62-11.21-12.89,5.42-25.5,12.16-39.93,11.61-22.47-.86-44.9-2.55-67.36-3.54-10.8-.47-21.63-.15-32.45-.2-3.19-.18-6.48,2.89-9.56-.29l2.25-3.47c4-2.27,8.22-1.32,12.48-1.24,30.59.62,61.15.65,91.66,4.26,11.64,1.38,22.74-4.87,33.57-9.65a97.19,97.19,0,0,1,18.9-5.95c8.41-1.78,11.62,5,13.32,10.88C763,943.93,752.89,965.4,741.45,972.45Z"/><path class="cls-16" d="M73.12,4.74l1.2,1.59c-1,4.9-4,8.4-7.17,12.25-11.6,14-21.67,29.17-32.52,43.72C27,72.51,19.19,82.69,9.91,92c-20.54,20.57-46,33.77-68.61,51.18-7.69,2.57-13.17,9.28-21.89,10.41-14.87,1.93-21.63-4.87-18.86-20.35,4.24.21,5.8,3.82,8.09,6.45,7.25,8.32,10.69,8.81,19.69,2.6,5.71-4.73,13.27-6.47,18.92-11,20-15.89,42-29.13,60.59-46.71,13-12.34,22.91-27.44,32.89-42.33C49,30,59,19,67.42,6.85A5.43,5.43,0,0,1,73.12,4.74Z"/><path class="cls-17" d="M667.94,1023.54c-5.48-3.6-11.93-1.46-16.53.11-13.49,4.62-26.81,1.77-40.19,1.89,1.2-4.61,4.86-5.69,8.91-6.19,18.65.31,36.57-4,54.46-8.62a8.12,8.12,0,0,1,8.38,2.38Z"/><path class="cls-5" d="M3,572.72c-5.22,1.7-10.42,2-15.57-.23C-7.34,569.84-2.16,570.41,3,572.72Z"/><path class="cls-19" d="M-41.2,592.46c5.54-9.3,13.22-14.5,24.49-12.82-8.36,6.81-5.94,14.72-3.7,23.6C-14.26,627.62-4.76,651,.7,675.55c.34,1.48,1.16,3,.85,4.45-1.79,8,2.33,13.11,8.18,17.46C4.8,702-2,699.27-7.51,701.84a27.17,27.17,0,0,1-7.72,1.72L-20,706.94c-2.82-.64-6,3.22-8.41-.19-2.16-3.08.8-5.66,1.88-8.4,8.67-22,9.18-43.65-3.81-64.22C-33.53,629-36,624.28-34.87,618a11.58,11.58,0,0,0-2.59-10.3C-41.67,603.25-42,598.06-41.2,592.46Z"/><path class="cls-20" d="M620.13,1019.35c-1.86,3.67-6.5,3.32-8.91,6.19l-.36.09c-10.23,5.07-20.89.88-31.31,1.22-17.27.58-34.43-2.33-51.65-3.65-8.79-.68-17-4.45-25.65-6.09-5.39-1-6.88-5.82-7.45-11.16-1.63-15.35-.31-31-4.53-46.12A107.7,107.7,0,0,0,485,945.38c-9.34-13.66-6.12-28.68-3.86-43.28,1.12-7.27,3.31-14.37,1.26-21.63-5.47-19.44-5.09-39.21-2.83-58.93,1.43-12.45,2-24.9,2.63-37.37.6-12.07,5.28-21.12,16.76-26,31.56-4.5,41.59,11.72,42.47,39,.74,22.64,1.61,45.27.16,68.09-1,16,.84,32.64,2,49,1.34,20,10.59,21.09,26,25.46a28,28,0,0,0,17.12-.75c2.31-.84,4.8-.91,6.93.83,4.35.57,8.89,0,13,2.11-2.06,6.44.47,11.77,4.28,16.6,3,3.77,4.89,8.11,4,12.59-2.14,10.29-.12,20.6-1.13,30.89C613.06,1008.44,615.68,1014.38,620.13,1019.35Z"/><path class="cls-22" d="M-70.81,145c-4.22.49-5.92-.08-7.06-5.52-2-9.68.94-20.22-5-29.25-1.26-1.91,0-4.82,1.41-6.9,7.28-10.84,6.8-21.68,2-33.51-2.46-6-7.85-13.55.85-19.7,4.78-4.87,14.62-3.63,15.72-13C-48.72,28.44-40.81,14-31.18,1.34c2.88-3.8,6.45-6.4,9.78-9.28C-12.07-16-4-25.9,3.29-35c12.84-16.14,29.82-27.31,43-42.57,7.81-9,19.41-13.51,27.45-22.52,5.39-6,9.79-13.35,17.56-17,2.77,3.12.5,6.35.2,9.54-11.49,11.3-21.81,24-35,33.31C44.75-66,33.75-56.82,22.39-48,16.9-43.82,13.94-37.66,9.65-32.53-5.22-14.74-21.72,1.62-35.95,20c-6.56,8.44-14.51,15.65-21.53,23.73-7.48,8.61-9.25,18-6.37,28.07,2.79,9.68,1.31,18.07-3.81,26.18-3.13,4.94-4.19,9.86-2.64,15.63,3.89,14.5,11.58,17.46,24.06,8.93,1-.69-.19.25.75-.53,13.4-11.22,26.29-22.72,41.18-32.5C9.57,80.34,21.37,66.17,29.87,50.67,40.06,32.11,53.58,15.9,66.54-.67A142.42,142.42,0,0,1,87.83-23.22c4.43-1.34,9-2.27,13-4.78a6.72,6.72,0,0,1,2.78-.34,2,2,0,0,1,1.5,2.06c-13.9,7-23.42,18.54-32,31C66.32,8.8,64,16.53,58.93,22.17,49.2,33.06,41.39,45.69,33,57.7,21.73,73.66,10,89-6.37,100.3c-10.76,7.44-21.86,14.35-31.39,23.59S-60.08,137.45-70.81,145Z"/><path class="cls-23" d="M90-109.45q.69-3.85,1.37-7.72l4.41-3c6.51-2.54,11,.91,14.69,5.43A67.27,67.27,0,0,0,124-101.95C131.6-88.4,142.4-76.84,156-70.77c15.84,7,31.08,16.06,49.1,18.48,32.39,4.36,64.8,1.67,97.2,2.26,17.09.32,33.43-5.9,50.44-4.31,18.33,1.72,35.83-6.29,54.07-4.59,12.87,1.21,25.15-3.61,37.9-3.18a23.5,23.5,0,0,1,8,1.5c3.7,1.46,8.13,2.38,7.94,7.45s-2.55,9-7.69,11.4c-12.28,5.65-25.44,7-38.45,9.71s-26.07,7-39.38,8.77C349.88-20,325.32-13.14,300.4-8.12c-17.91,3.6-35.76,8-53.78,11.37C225.47,7.16,204.27,10.81,183,14c-7.31,1.11-12.83-4.74-19.11-7.43-3.31-1.41-6.55-3.12-10-4.32L154.27,1c4.18-3.71,8.47-1.26,11.85.73,10.16,6,20.34,6.17,31.6,3.31C216.91.11,237,.28,256.29-4.4c9.77-2.36,19.63-4.08,28.77-8.77,9.65-5,20.2-5.33,31-6.24,21.73-1.83,42.92-7.92,64.37-12,18.16-3.47,35.7-10.06,54.51-10.35,6.35-.09,14.15-2.54,13.45-9.31s-9.62-5.47-13.95-3.89c-16.16,5.9-33-.18-48.88,3.76-17.81,4.42-35.75,2.89-53.63,3.92a8.22,8.22,0,0,0-2.73.26c-18.41,7.83-37.79,5.67-56.81,4.86-25.51-1.08-51.22-.37-76.4-5.84-9.93-2.16-18.9-6.7-27.93-11.12a20.63,20.63,0,0,1-2.45-1.32c-20-6.31-34.59-19.62-47.17-35.65-.88-1.2-1.84-2.34-2.76-3.51C109.06-108,102.12-115.51,90-109.45Z"/><path class="cls-23" d="M105.15-26.28c-.37-.54-.75-1.07-1.12-1.6a4.26,4.26,0,0,1,3-3c5.53-.68,9.93,1.66,14.23,4.84,8.46,6.25,16.28,13.41,26,17.83,4,1.84,7,4.89,6.76,9.87l-.15.65C136.36-5,122.83-19.17,105.15-26.28Z"/><path class="cls-24" d="M-15.23,703.56c7.64-4.37,16.44-3.9,24.62-6,13.81-1.91,26.05,4.89,39.15,6.93,30.64,4.79,60.12,14.69,91,18.93,34.6,4.75,69.11,10.87,102.88,20.2,2.94.82,6,1.09,9,1.79,11,4.89,19.6,13.36,28.47,20.88,22.43,19,45,37.86,67.15,57.25,11.94,10.48,25.68,19.17,38.27,29.12,3.11,2.46,6.49,4.54,8.85,7.82,1.38,2.25,2.83,4.49,1.91,7.34-20.38-15.18-40.22-31-60.08-46.9-25.66-20.49-50.24-42.17-75.36-63.25-7.43-6.24-16.3-9-25.91-9.64-20.82-4.35-41.81-7.93-62.64-12.16-29.4-6-59.27-9.14-88.43-16.93-18-4.81-36.78-7.76-55.14-12C14.18,703.72-.25,699.49-15.23,703.56Z"/><path class="cls-25" d="M593.61,939.68c-8.35.38-16.28,4.59-25.06,1.55-19.2-6.64-26.74-6.28-27-31.52-.23-24.09-2.46-48-.68-72.39,1.38-18.8.39-38.62-4.17-57.59-3.54-14.78-17.44-22.33-37-19.9-2.86.09-5.17,1.6-7.54,2.93-2.68,1.51-5.58,1.54-7.72-.41C472.24,751.2,456,751.54,441.4,747.1c-6.54-2-14.19-.6-19.48-6.42a5.4,5.4,0,0,1-.69-4c26.43,5.61,52.8,11.61,79.35,16.64,10.13,1.92,20.37,2.66,30,6.92,6.65,2.93,10.26,8,11,14.44,1.71,15,2.06,30.15,2.49,45.29.77,26.64-.62,53.28.83,79.89.2,3.63-.34,7.31,0,10.92,1.62,19.45,9.35,26.8,30.66,27.3,3.92.09,7.85-.66,11.78-1,3.19-.08,6.42-1.26,9.55.29Z"/><path class="cls-26" d="M421.23,736.64l2,3c-17.28,5.64-33.59,2.27-48.87-6.13-8.53-4.69-15.47-11.65-21.4-19.57-6.57-8.78-15.76-15.08-22.9-23.4-20.75-24.19-43.15-46.84-65.49-69.54-4.46-4.53-7.18-10.41-12.52-14.3-8.53-6.2-18-8.4-28.3-8.48-6-1.68-14,2.09-17.38-6.51,4.88-.79,10,1,14.74-1.33A108,108,0,0,1,246.6,595q4.14,2.75,8.27,5.5c6.46,6.7,11.56,14.83,20.2,19.24h0c6.54,4.91,8.45,13.61,15.07,18.47h0c13.11,12.18,25.48,25,36.31,39.34,10.82,8.84,19.57,19.47,28.37,30.31,9.64,11.87,21.48,22,37.87,24.26C402.24,733.47,411.49,736.59,421.23,736.64Z"/><path class="cls-13" d="M326.48,677.56c-7.66-3.41-10-11.66-15.23-17.3-6.91-7.45-16.35-12.56-21.08-22C305,648.84,316.58,662.42,326.48,677.56Z"/><path class="cls-13" d="M246.6,595a113.54,113.54,0,0,1-25.46-4.59A36.68,36.68,0,0,1,246.6,595Z"/><path class="cls-13" d="M275.07,619.73c-10.46-2.51-14.45-11.8-20.2-19.24Z"/><path class="cls-13" d="M290.16,638.21c-7.53-4.12-9.82-12.51-15.07-18.47C282.64,623.83,284.93,632.22,290.16,638.21Z"/><path class="cls-27" d="M396,867.83l-4.15-6.32c1-.86,2.33-1.23,3.33-.48,13.94,10.46,33,13.76,43.26,29.13,9.42,14.05,22.92,24,34.37,35.94,5.46,5.7,6.77,14.51,14.48,18.24,8.51,19.6,8.85,40.56,9.72,61.37.27,6.6,3,9.52,9.17,11.23,26.63,7.31,54,7.67,81.26,8.71,7.78.29,15.59,2,23.39,0-6.52,6.45-14.53,2.84-21.84,3-20.37.5-40.58-2.07-60.77-4.21-9.3-1-18.5-3.58-27.54-6.15-6.17-1.74-8.87-6.72-9-13.15-.37-16-.53-32-4-47.69-4.6-14-15.3-23.38-25.53-33.08-9.76-9.26-21.22-16.43-30.28-26.76-7.19-8.19-16.91-14.28-25.95-20.69C402.13,874.25,398.48,871.78,396,867.83Z"/><path class="cls-28" d="M206.4,591.73c4.56,4.81,10.83,3.07,16.34,4.23-12.65,15.51-4.85,32.3-2.18,48.25,1.45,8.58,3.35,17.88,8.91,25.43,4.52,9.9,8.46,20,9.86,30.89-2,16.62,4,31.49,10,46.35-18.58-4-37-8.85-55.77-11.9-20.88-3.39-41.47-8.57-62.68-10.14-15.55-1.14-30-7.59-45.22-10.26-25.72-4.51-50.84-11.49-76.3-17-8.68-1.55-8.87-6.81-10.72-15-3.95-17.51-4.86-36.21-13.88-52.3a35.21,35.21,0,0,1-5-16.14c-.28-5.35-2.39-10.62-3.9-15.87-3.75-13-3.8-13,7.4-18.66,11.83-2.91,23.54.87,35.35.6,18.75-.44,37.51-.13,56.26.27,8.15.17,16.27,2,24.41,2C135.3,582.49,170.4,592,206.4,591.73Z"/><path class="cls-29" d="M249.36,746.88c-10.92-13.37-14.35-28.63-11.4-45.5,4.86,2.13,5.79,7,7,11.18a26.33,26.33,0,0,0,10,14.77c5.2,3.85,8.63,8.69,6.51,15.71-1.09,3.61.71,5.81,3.67,7.43a53.21,53.21,0,0,0,8.34,3.75c20.81,7.09,35.58,21.8,48.86,38.38,2.5,3.13,5,6.11,8.61,8,1.88,1,4.29,1.83,5.2,3.63,7.32,14.55,23.51,17.43,34.87,26.63,2.31,1.87,5.49,4.45,8.19,2.15s.18-5.68-.94-8.39c-5.64-13.6-5.1-15.3,8.39-21,3.49-1.47,4.45-3.82,4.5-7.1.14-7.85-1.15-15.08-7.33-20.84-6.4-6-10.12-13.37-11.94-22.12-2.17-10.47-4.74-21.21-17.68-24.12a7.33,7.33,0,0,1-4.27-3.32c-18.53-28.55-42.81-51.79-68.26-74-3.44-3-7.55-5.8-9.36-9.93-5.14-11.7-17.79-17.25-22.93-28.85-1-2.24-3.28-2.59-5.55-1.86-2.66.85-3.87,2.77-3.91,5.53-.08,5.11.89,12.15-6.74,11.22-8.14-1-6.24-8.18-5.29-13.92.1-.6.29-1.18.4-1.79.5-2.82-.25-5.06-3.42-5.22-3.36-.17-4.54,2.61-3.66,5,2.63,7,3.68,13.62,1.41,21.21-1.19,4,3.54,7.37,6.38,10.55,7.71,8.65,7.27,17.25-1.3,26.35-8-13.19-11.3-27.78-12.57-43-.27-3.33,0-6.82-1-9.94-3-9.67.22-16.58,8.62-21.59,17.95-1.34,29.89,7.08,41.75,20.33,15.66,17.48,31.62,34.91,49,51,9.67,9,16.52,21,26.64,29.67,12.35,10.64,20.76,25.12,34.68,34.22,11,7.19,23.36,7.61,35.69,8.55,4.24.32,8.52,0,12.78,0,2.32,3,5.9,3.12,9.13,3.43,15.49,1.47,29.84,7.75,45.08,10.23a6.23,6.23,0,0,1,1.74.41c12.66,6.3,12.65,6.31,20.52,6.1-16.48,7-15.58,22.16-15.84,35.89C483.48,817,478.52,838,481,859.36c.42,3.58.25,7.19,1.36,10.74,3.61,11.54,3,22.65.65,34.85-2.49,12.7-5.63,27.29,4.31,39.39-3.25.71-5.05-1.2-6.75-3.53-8.35-11.46-17.18-22.07-29.25-30.4-7.87-5.44-11.42-16.09-18.91-23-5.82-5.35-11.31-10-19.3-12.68-7.71-2.56-14.21-8.69-21.24-13.25-10-7.08-18.32-16.16-29-22.51-7.34-4.38-13.61-10.54-20.31-16-18.43-14.93-35.66-31.24-54.44-45.83-8.63-6.71-17.38-13.71-25.6-21.13C258.53,752.44,254.94,748.25,249.36,746.88Z"/><path class="cls-30" d="M107.17-29.94,104-27.88c-.46.28-.92.58-1.36.9-4.56.48-8.11,3.9-12.65,4.45A413.87,413.87,0,0,0,52.4,21.84C40.94,37.19,33.09,55.47,20.28,69,8.73,81.28-.86,98-20.19,101.44c-3.46.61-5.59,3.65-7.33,6.57-5.5,9.3-14.48,14.64-23,20.63-4.39,3.1-8.66,2.72-12.9.49C-73.13,124-76.92,107.5-70.89,98.2c5.07-7.82,7.91-15.3,4.48-25.57-3.26-9.77-2.58-20.2,6.07-29.44C-40.49,22-20.78.5-2.85-22.3,14.61-44.52,35.16-62.53,58-78.82,69.91-87.28,79.39-99.13,90-109.45c11.93-8.3,11.84-8.21,22.26,2.84,2.88,3,6.38,5.51,8.46,9.29a4.45,4.45,0,0,1-3.85,3.39c-5.76,1.15-8.06,4.74-7.94,10.36.18,8.76-4.83,16.12-6.91,24.3-2.45,9.63-3.55,18.41,4.58,25.91A3.51,3.51,0,0,1,107.17-29.94Z"/><path class="cls-31" d="M107.17-29.94C95.74-41.94,94.58-52.3,103-70c1.58-3.33,3.69-6.74,3.23-10.28-1.46-11.27,4.19-16,14.46-17,12.22,14.76,25.23,28.46,44.64,33.79,1.05.29,1.86,1.46,2.79,2.22-7.09,7.24-11.58,7.62-18.11.56-7.1-7.66-17.13-10.37-25.51-15.85-4.38-2.87-11.71,3.76-12.61,11-2,16.33,4.54,29.19,17.13,38.88,5.7,4.38,11.63,9,19.29,10,2.43.34,4.45,2,6.21,3.73C168.44.66,185.12,1.67,202.75-3.12c6.64-1.81,13.06-2.94,19.85-1.64,7.74,1.48,15.31-.7,22.65-2.3,7.54-1.64,5.86-9.86,7.77-15.25,1.56-4.37-3-5.19-6.05-6.42a14.55,14.55,0,0,1-6.5-4.89c-5.4-7.47-12.42-8.17-20.29-4.77a32.13,32.13,0,0,1-15.14,3c-6.22-.43-12-.31-17.11,4.36a7.11,7.11,0,0,1-9.36.22c-3-2.31-6-6-4.28-9.34,3.92-7.48.68-11.82-4.74-16.13a5,5,0,0,1-1.44-5.06c26.56,14.21,55.37,14.81,84.66,15.7,15.6.47,31.42-.41,47,1.86,6.18.9,11.84-.32,17.67-3,8.37-3.82,17.67-3.46,26.72-3.64,11.71-.23,23.11.64,35-2.74,8.88-2.51,19.46-4.25,29.48-.83,5.64,1.92,11.65.23,17-1.87,6.59-2.6,13.1-2.36,19.75-1.53,2.93.37,6.5.41,7.12,4.38.57,3.65-1.32,6.14-4.11,8.55-7.52,6.52-16.78,6.11-25.57,6.48-7.66.33-14.86.74-22.14,3.89-12.3,5.31-25.9,5.68-38.79,8.86-10.85,2.68-22.19,2.59-32.78,7.28-5.24,2.31-12.33,3.3-17.7,1.8-8.06-2.27-14.55.51-20.93,3.46C265.92-1.27,239.59,1.26,213.28,4.29c-7.55.87-15.28,1.83-22.41,4.26S178.36,10,171.94,6.68c-5.36-2.78-10.92-7-17.87-5.06-3.17-4.4-6.65-7.7-12.34-9.58C134.59-10.31,129.4-16.71,123.2-21,118-24.66,113.22-28.15,107.17-29.94Z"/><path class="cls-32" d="M227.71,670.45q1.81-5.15,3.62-10.3c1.86-5.36,1.06-9.57-3.33-13.94-5.27-5.25-14.2-10-5.86-20.12,2.35-2.85-1.18-6.75-3.06-9.89-2.25-3.76-2.16-7.65.8-11,2.51-2.84,5.62-1.67,8.47-.53,3.56,1.43,5.72,3.57,3.18,7.67-.79,1.29-1.85,2.74-1.86,4.13,0,3.44-2,7.41,1.82,10.12a3.68,3.68,0,0,0,4.32,0c3.66-2.5,2.58-6.26,1.37-9.12-3.37-8,3.62-7.88,7.39-9.37,4.28-1.69,7.66,0,8.13,5.41s3.24,9,9,9.84c2.31.32,3.68,1.77,4.52,4a51.79,51.79,0,0,0,15.31,21.12A582.81,582.81,0,0,1,326,691.16c7.41,7.88,14.66,16.32,21.12,24.53,5.28,6.71,9.62,11.83,17.35,15.72,8.27,4.17,8.23,14.49,10,22.45,1.83,8.23,5.22,15.07,11.36,20.16,9.5,7.88,8,18.42,7.86,28.59,0,4.15-4,3.45-7.08,3.71-9.48.82-12,5.75-7.5,14.33,1,1.88,2.22,3.71,2.71,5.72.8,3.26,4.85,6.72.88,10-3.77,3.07-7.65.51-10.88-1.69-7.18-4.9-13.28-11.65-22.78-12.32a3.49,3.49,0,0,1-2.34-1.35c-6.45-9.56-16.64-15.67-23.75-24.14-15.5-18.43-31.92-34.52-55.3-42.5-5.92-2-15-3.93-7.59-14.3,2-2.76-.85-6.61-3.18-7.83-12.57-6.6-14-19.68-18.87-30.81Q232.83,685.92,227.71,670.45Z"/><path class="cls-33" d="M168.11-61.31a19.7,19.7,0,0,0,6.29,6.49c4.94,3.24,9.16,6.38,2.55,12.57-3.53,3.31-.16,7,2.36,9.46a5.47,5.47,0,0,0,8.77-.86c3.36-5.24,7.6-4.71,12.75-4.24,6.27.57,12.43.37,18.59-2.9,9.4-5,16.06-2.87,22.78,5.8,2,2.6,4.2,4.34,7.46,4.65,7.28.7,9.23,4.93,5.55,10.61-3,4.6.19,12.17-4.78,14.08-7.19,2.75-15.38,3-23.18,4-2.33.29-4.85-.53-7.22-1.07a21,21,0,0,0-13.46,1.08c-15.49,6.76-30.64,2.87-45.7-1.54-1.77-.52-3.2-2.65-4.47-4.29-3.27-4.18-7.45-6-12.49-8A63.24,63.24,0,0,1,120.13-32c-8.61-9.31-10.67-19.18-11-30.55-.12-4,.07-7.78,3.07-11.07,8.3-9.11,8.11-9,19-1.91,8,5.21,17.37,8,23.62,16.46,3.42,4.61,8.7-1.61,13.28-2.23Z"/></g></g><g class="cls-52"><g id="Brazil-3" data-name="Brazil"><path class="cls-3" d="M-383.2-138.25l.3-24.2c2.87-3,5.26-7.16,10.52-4.14,4,4.07,8.89,4.57,14.35,3.94,29-3.37,57.57.28,86,5.57,8.58,1.6,16.59,4.2,21.08,12.62-7.09,26.33,15.56,38.71,27.43,55.55,11.21,15.9,27.81,27.74,36.72,45.84,3,6,9.39,9.45,14.35,13.87C-157.12-15.55-146.21,2-131.23,16c9.08,8.46,18.39,12.08,31.23,9.69C-64.32,19-28.18,15.28,7.77,10.34c3.25-.44,6.73-.71,9.7,1.47a6.8,6.8,0,0,1,1.45,4.81C12.13,29.18,12.47,44.38,3.23,56.33-.88,61.66,1.17,70,0,76.91c-4.41,25-20,42.31-39.55,56.47-5.62,4.06-6.86,6.78-2.67,11.92-.92,5.86-5.5,6.71-10,6.48-23.75-1.19-47.72,1.62-71.2-.85-23.17-2.43-44.71-12.5-60.71-30.19C-199.9,103.4-218.34,88.91-233.41,71c-29.82-35.5-63-68.09-91.3-104.95-15.86-20.67-27.3-44.12-41.61-65.81C-373.85-111.22-374.78-126.58-383.2-138.25Z"/><path class="cls-4" d="M500.51,948.66l-64.59-.89c-13.63-9.18-29.19-14.5-44-21.21a70.81,70.81,0,0,1-24.08-17.24c-3-8.15-.11-15.23,4.19-21.94,3.39-5.29,7.25-10.27,11-15.27,8.87-11.71,18.88-22.57,18.7-38.86,0-4.74,2.35-10.26,8.65-11.57,21.34,18,45.89,31.57,67.08,50.05,14.67,12.79,29.65,26.68,50.4,31.23,7.93,1.74,16.11,7,15.69,17.66-.32,8.08-12,18.44-22.92,20C513.12,941.62,506,942.87,500.51,948.66Z"/><path class="cls-5" d="M17.11,12.46c-17.83.17-35,5.48-52.71,6.58-24.26,1.5-47.75,7.34-71.56,11.44-7.87,1.35-14.88-3.08-20.61-7A79.32,79.32,0,0,1-148,3.3c-10.57-15.49-23.8-28.13-38-40A12.85,12.85,0,0,1-190-41.87c-4.6-13.47-14.88-22.88-24.45-32.34-14.59-14.42-25.28-31.83-38.68-47.12-6.45-7.36-1.86-14.57,1.75-21.51,9.77-9.08,22.56-13.6,32.79-22.2,29.06-24.43,61.74-43.94,92.3-66.34,5.54-4.06,10-8.75,12.73-15.11,6.08-14,11.28-28.2,14.25-43.15,4.54-22.75,11.42-45.18,9.18-68.9-.6-6.32-2.17-12.23-3.53-18.33-4.14-18.6-11.28-36.7-11.11-56.08.11-12.55,2.58-16,14.42-19.09,22.92-5.91,45-15,69.42-15.1,13.88,0,23.84,4.06,30.2,16.35.68,1.32-.21-.31.5,1,15.4,28.61,20.19,27.89,49.75,9A52.27,52.27,0,0,1,82-452.5c10.63-2.75,19.24-9.38,29.21-13.39,8.68-3.49,9.8-11,5-20.56-4.27-8.52-11.19-15.83-11.85-26-.09-20.47,8.42-27.77,28.34-24a29.23,29.23,0,0,0,13.19-.05c15.74-4,31.79-2.62,47.76-2.43,2.25,0,5.6-1,5.75,3.19-8.86,4.29-18.57-.3-27.3,2.19-15.4,4.38-30.92,3.42-46.52,3.58-14.86.14-18.9,7.93-11.34,21.08,4.8,8.34,10.27,16.32,14.57,24.9,6.35,12.66,2.23,21.9-10.74,27.63-15.88,7-32.83,11.94-47.42,21.51-9.32,6.11-19.62,10.08-29.37,15.14-7.45,3.87-16.69,4.77-23.58-2.85C13-427.75,7.52-432.79,4.46-438.93c-11.79-23.66-22.32-22.54-47.29-16.63-14.35,3.4-28.36,8.14-42.62,11.92-11.07,2.93-14.13,11.33-10.65,22.36,5.93,18.75,12.18,37.48,13.55,57.47,2.19,31.87-5.82,62.29-11,93.26-5.1,30.69-26.46,47.06-49.39,62.94-21.92,15.19-44.5,29.37-64.76,47-9.36,8.12-21.09,13.5-31.66,20.25s-11.84,12.33-3.95,22.25c9.92,12.45,20.34,24.52,30.83,36.52,26.53,30.36,53.45,60.39,79.72,91,9.9,11.53,22.5,15.67,35.89,12,18.18-4.93,37-3.41,55-7.58,22.07-5.12,44.72-5.14,67-8.41,11-1.61,25.25,1.47,34.41,12-1.09,1.06-2.64,2.24-3.89,1.65C43.39,13.32,30.05,14.08,17.11,12.46Z"/><path class="cls-8" d="M-383.2-138.25c5.33,2.53,9.51,6.71,10.54,12.22,3.7,19.91,16.8,34.87,26.06,51.91,20,36.7,47.29,67.44,75.5,97.75,19.36,20.8,35.79,44.64,56.84,63.45,18.83,16.82,33.43,38.4,57.11,50.21,24.67,12.31,50.44,13.12,76.75,11.16a66.69,66.69,0,0,1,15.21.4c7.45,1.11,15.62,3.22,22.12-3.38,1.66-1.95,3.85-2.06,6.16-1.72,23.16,5.66,35.14,25.07,49.78,40.92,30.4,32.93,58.94,67.48,91.42,98.6,25.41,24.34,48.84,50.73,73.13,76.23,2.07,2.17,3.89,4.52,4.26,7.65a5.22,5.22,0,0,1-1.86,4.42c-15.49-16.88-32.09-32.69-47.92-49.24-17.4-18.2-35.09-36.35-53.7-53.42-10.74-9.85-18.27-22.22-28.15-32.7C26.19,210.9,2.72,185.22-21.19,160c-4.82-5.1-11.86-5.84-18.71-5.64-26.39.76-52.72-1.37-79.21.46-21.81,1.52-41.6-5.7-58.55-21.58-31.49-29.5-60.67-61-88.92-93.52C-295.71,6.1-326.82-25.8-350-64.08c-9.75-16.14-18.62-32.77-27.16-49.61C-381.19-121.72-385.24-129-383.2-138.25Z"/><path class="cls-9" d="M132.67,74.3c16.46,5.44,27,19.1,40.2,29,36.23,27.12,67.45,60.1,103,88.11,8.61,6.78,17.73,13.52,24.42,22.62,11.7,15.92,12.64,35.07,14.92,53.41,1.54,12.44,1.7,25,5.43,37.16,1.82,5.94,3.59,12.55,2.79,18.51-3.1,23.27,8.5,44.83,7.1,67.79-.95,15.69,7.89,29.7,7.78,45.46,0,7,6.4,12.33,11.22,17.29,38,39.09,72.22,81.73,111.89,119.26,5.77,5.46,9.77,12.24,13.49,19,5.49,9.94-3,17.78-6.53,25.5-6.57,14.41-17.84,26.2-26.9,39.19-9.56,13.7-16.85,29-27.14,42.5-13.37,17.52-26.12,35.54-38.64,53.68-9.89,14.32-4.7,31.57,11.59,41.2,4.4,2.6,9.91,3.66,12.63,8.7a6.79,6.79,0,0,1-5.55,3.28c-14.88-4.4-25-14.26-31-28.16-5.06-11.72.43-22.31,6.86-31.27,16.44-22.91,32.05-46.4,48.66-69.21,15.42-21.15,31.65-42.14,43-66.07,3.67-7.7,3.15-14.76-.89-22.28-6.33-11.81-16.92-19.69-25.88-29-22.13-23-42.79-47.43-65.06-70.34-10.43-7.87-18.64-17.94-27.47-27.38-12.57-13.45-16.79-30.87-17.95-47.87-1.22-17.74-2.53-35.26-6.52-52.58,1.24-20.92-2.29-41.33-6.6-61.65a17.28,17.28,0,0,1-.94-3.45c-1.3-8.62.67-17.37-1.07-26a33.26,33.26,0,0,1-.82-3.27c-2.71-10-4.23-20.19-6.14-30.33-2.25-3.65-2.76-7.9-4.16-11.84-3.8-9.78-12-15.63-19.69-22a22.67,22.67,0,0,1-2.48-1.87c-40.13-32.85-76.12-70.5-118-101.32-7.72-5.68-13.59-13.63-22.16-18.45C133.55,80.27,131.23,77.88,132.67,74.3Z"/><path class="cls-10" d="M500.51,948.66c.38-10.41,8.88-10,15.4-10.22A25.6,25.6,0,0,0,531.25,933c4.88-3.79,11.17-7.26,9.91-14.86s-8.18-11.43-13.94-12.74c-26.31-6-43.85-25.11-63.38-40.92-13-10.55-25.56-21.63-41.2-27.74-7.24-2.82-6-10.86-11.75-13.85-4.78-3-11.67-4.07-11-12a7.7,7.7,0,0,1,4.76-1.4c15.77,8.34,29.19,20,43.3,30.69,17.78,13.43,35,27.57,51.89,42.11,10.3,8.85,23.58,12.4,36.79,15.15,4,.83,8.07,1.41,12,2.58,6.1,1.81,12.72,3.21,14,10.9,1.39,8.3-1.1,15.47-7.7,20.88-9.59,7.85-20.6,13.17-32.25,17.23Z"/><path class="cls-12" d="M179.82,371.57c.06-1.54.13-3.07.19-4.61,12.58,2.38,17.11,13.2,19.86,22.78,7.43,25.88,13.14,52.27,20,78.33,5.8,22,11,44.2,17.81,66,4.39,14,9.57,27.92,12,42.58,1.37,8.32,6.84,15.53,7.72,24.13,1,12,7.46,22.34,9.91,34,6.22,29.56,14.09,58.78,19.41,88.54,1.38,7.72,1,15.53.38,23.27-.27,3.31.22,8-5.58,7.6-2.16-8.82,1.32-17.92-1.38-26.7-3.22-14.2-5.7-28.63-9.94-42.52-2.51-8.2-3-16.86-5.54-24.56-3.75-11.44-5.23-23.49-9.7-34.53-3-7.42-5.18-14.55-4.58-22.5a17.62,17.62,0,0,0-2.34-10.7c-7.54-12.47-7.38-27.27-12.41-40.56-4.75-12.56-8.56-25.5-12.2-38.43-3.75-13.33-6.58-26.88-11.17-40-6.25-17.92-5.71-37.63-13.91-55.14-.31-.66-.83-1.43-.73-2.06C200.46,398,187.69,385.76,179.82,371.57Z"/><path class="cls-13" d="M132.67,74.3c12,10.25,23.87,20.64,36,30.72,23.55,19.6,48.17,37.9,69.52,60.12,9.66,10.05,21.23,18.29,32,27.24,3.15,2.62,6.42,5,8.29,8.81-7.87,3.11-11.41-4.47-17.07-6.82-24.27-16.17-43-38.59-65.2-57.05C156.36,104.14,116.4,71,73.43,41.71c-8.27-5.63-14.6-13.81-23.86-18.16C40.14,14.6,28.21,18,17.17,17l-.06-4.54C29.19,9.27,41,8.73,52.17,15.74c2,1.26,4.89,1.16,7.37,1.69l.15.11c5.13,3.7,10.42,7.18,15.26,11.27Z"/><path class="cls-14" d="M280.14,727.48c4.32,8.58.77,17.7,1.81,26.5-1,14.49-10.29,25-17.46,36.54-1.56,2.52-3.64,4.69-5.28,7.17-10.55,16-9.82,17.84,2.4,32.66,23.63,28.65,54.1,49.34,82.53,72.44,3,2.41,6.65,3.23,10.29,4.08a20.86,20.86,0,0,1,3,1.13c2.33,1.08,5,1.94,6.68,3.76C376,924.57,392.5,929.61,407,938.08c3.42,2,8.82,3.17,6.69,9.35C396,949.83,383.79,938,371,929.54c-7.23-4.79-13.51-11-21.53-15.13-30-15.49-53.94-38.79-78.26-61.54-6.24-5.84-12-12.24-18-18.32-15.87-16-13.78-19.73-1.53-38.37,9.73-14.81,19.21-29.74,26.72-45.63C281.47,744,279.7,735.24,280.14,727.48Z"/><path class="cls-15" d="M522.72,949c6.41-8.8,18.5-8.57,25.78-16.11,2.53-2.63,6.33-4.19,8.5-7,7.77-10.18,4.15-20-8.51-22.9-16.63-3.78-33.9-6.05-47.81-16.85C479,869.32,458,851.73,436.47,834.81c-10.36-8.14-21.32-15.52-32-23.24-3-2.44-8.46-1.74-9.26-7.07l4.69-1.84c5.57.58,9.09,4.52,13.24,7.63,29.87,22.32,60.13,44.05,87.78,69.28,10.56,9.64,26,11.33,40.11,14.28a117.85,117.85,0,0,1,23,7.52c9.59,4.2,7.95,13.22,5.47,20.24C564.33,936.07,539.06,950.15,522.72,949Z"/><path class="cls-17" d="M413.64,947.43c-2.88-7.45-10.79-9.91-16.47-11.62-16.64-5-27.8-17.28-41.15-26.66,4.47-3.72,8.85-2.19,13.23.2,18.25,13.54,39.09,21.95,60.06,30.12a9.87,9.87,0,0,1,6.61,8.3Z"/><path class="cls-5" d="M75,28.81c-6.38-2-11.73-5.43-15.26-11.27C66.76,18.63,71.49,22.86,75,28.81Z"/><path class="cls-19" d="M17.17,17c12.08-5.28,23.38-5,33.35,4.69-13.11.8-16.33,10.36-20.42,20.75C18.89,71,11.71,100.84-.31,129.05c-.73,1.71-1,3.83-2.33,5-7.45,6.65-7,14.64-4.28,23.1-8.12,1-12.88-6.52-20.19-7.91-3-.56-6-2.23-8.87-3.77l-7.09,0c-2.35-2.63-8.25-1.08-8.2-6.16,0-4.58,4.82-5,7.82-7C-19.22,116.67-3.37,95.61-1.63,66c.43-7.33,1.31-13.84,6.92-19.19,3.29-3.15,5.36-7.39,4.74-12C9,27.36,12.36,22,17.17,17Z"/><path class="cls-20" d="M369.25,909.35c-4.45,2.32-8.8-1.33-13.23-.2l-.42-.17c-13.74-2.23-21.31-14-31.88-21-17.52-11.69-32.45-26.76-48.57-40.29-8.23-6.9-13.67-16.45-21.09-24.24-4.61-4.84-2.69-10.65.54-16.33,9.28-16.37,21.68-30.9,28.25-48.91a130.69,130.69,0,0,0,5.07-18c.45-20.16,14.3-32.76,26.9-45.62,6.27-6.41,13.48-11.89,16.61-20.53,8.38-23.13,22.79-42.45,39-60.38,10.25-11.32,19.67-23.24,29.13-35.15,9.16-11.54,20.22-17.18,35.08-13.91,34.47,17.95,32.88,41.14,14.43,68.74-15.34,22.95-30.54,46-48.18,67.56-12.35,15.12-22.34,32.93-32.83,49.89-12.83,20.72-4.48,28.41,7.67,43.68a34.15,34.15,0,0,0,17.5,11.41c2.87.8,5.4,2.5,6.27,5.74,3.9,3.65,8.82,6.28,11.35,11.3-6.6,4.92-7.88,12-7.53,19.49.27,5.84-.92,11.5-5,15.28-9.42,8.67-14.73,20.32-23,29.79C370,893.52,368.36,901.26,369.25,909.35Z"/><path class="cls-24" d="M-36,145.49c10.67,1.1,19,7.81,28.64,11.55C7.7,165,15,180.37,26.52,191.69c27,26.5,49.14,57.23,76.71,83.35,30.9,29.27,60.75,59.83,87.57,93,2.34,2.89,5.17,5.32,7.62,8.13,7.41,12.65,9.92,27.14,13.38,40.9,8.71,34.75,17.72,69.46,25.87,104.38,4.4,18.85,11.83,37.21,17.24,56,1.33,4.64,3.2,9.1,3.22,14-.23,3.21-.38,6.45-3.32,8.62-9.42-29.5-17.8-59.29-26.22-89.1-10.88-38.51-19.84-77.44-29.75-116.16C195.9,383.45,189.09,374.4,180,367c-17.54-19.09-35.79-37.54-53.42-56.51C101.69,283.68,74.37,259.32,51,230.9c-14.45-17.57-30.92-33.79-46.12-51C-7,166.53-18.24,152.09-36,145.49Z"/><path class="cls-25" d="M399.53,811.6c-8.54-5.56-19.39-7-25.93-16.26-14.3-20.21-22-25.21-4.36-50.38,16.88-24,31.67-49.34,50.72-72.19,14.71-17.64,27.8-38,36.75-60,7-17.16-1.42-34.5-22.51-46-2.89-1.93-6.25-2.08-9.55-2.45-3.72-.41-6.62-2.43-7.35-5.88-4.2-19.72-20.56-30.94-31.84-45.68-5.07-6.62-13.64-10.68-14.74-20.19a6.57,6.57,0,0,1,2.17-4.49c22.21,24.32,44.07,49,66.8,72.8,8.68,9.1,18.3,17.1,24.84,28.17,4.51,7.64,4.49,15.2.63,22.12-9,16.09-19.36,31.32-29.68,46.64-18.15,26.92-38.44,52.33-55.89,79.72-2.38,3.73-5.52,7-7.78,10.79-12.2,20.42-9.77,33.19,11,48.81,3.82,2.87,8.25,4.93,12.4,7.35,3.21,2.19,7.25,3.31,9.26,7.07Z"/><path class="cls-26" d="M372.89,488.1l-.12,4.43c-21.12-6.68-34.89-21.6-44.07-40.77-5.12-10.7-7-22.52-7.3-34.58-.28-13.36-4.91-26.12-6.07-39.44-3.38-38.68-9.49-77-15.52-115.37-1.2-7.65.28-15.41-2.25-23.05-4-12.2-11.9-21.13-22-28.49-4.72-5.91-15.38-7.89-12.6-18.79,5.4,2.69,9.16,8.13,15.55,9.15a132.13,132.13,0,0,1,22,22.62l4.29,11.32c1.64,11.22.92,22.89,6.35,33.4h0c3,9.52-1.29,19.49,1.81,29v0c4.34,21.38,7.45,42.91,8,64.75,4.46,16.44,5.57,33.17,6.6,50.16,1.12,18.61,5.69,37,20.29,50.91C356.34,471.47,363.28,481.13,372.89,488.1Z"/><path class="cls-13" d="M321,362.31c-5.16-8.82-1.62-18.65-2.8-27.95-1.55-12.29-7.28-24.05-5.23-36.8C320.08,318.6,321.92,340.28,321,362.31Z"/><path class="cls-13" d="M300.47,223.81a138.69,138.69,0,0,1-22-22.62A44.75,44.75,0,0,1,300.47,223.81Z"/><path class="cls-13" d="M311.11,268.53c-8.59-9.92-5.95-21.95-6.35-33.41Q307.93,251.83,311.11,268.53Z"/><path class="cls-13" d="M312.93,297.54c-4.52-9.42-.85-19.35-1.81-29C315.69,278,312,287.89,312.93,297.54Z"/><path class="cls-27" d="M254.81,600.16q.19-4.6.37-9.21c1.62-.12,3.19.44,3.65,1.9,6.38,20.26,22.88,37,22.17,59.57-.65,20.6,5.69,40,8.54,60,1.36,9.53-3.6,19.18,1.39,28.35-5.49,25.46-20,46.46-33.94,67.69-4.42,6.74-3.83,11.54,1.12,17.64,21.19,26.14,48,45.91,74.31,66.31,7.5,5.82,14,13,23.19,16.59-11.05,1.76-16.41-7.5-23.79-12.52-20.53-14-38.73-30.85-57.21-47.3-8.52-7.59-15.78-16.69-22.92-25.65-4.87-6.1-4-13,.4-19.43C263.06,788,274.26,772,282,754c5.41-17.17,1.44-34-1.81-50.89-3.1-16.1-9.36-31.34-11-48-1.3-13.22-6.61-26.15-11-38.91C256.29,610.85,254.43,605.82,254.81,600.16Z"/><path class="cls-28" d="M263,192c1.1,8,8.55,10.73,13.19,15.79-23.54,6.38-27.74,28.55-36.41,46.25-4.66,9.52-9.38,20.1-9.23,31.52-2.55,13-5.8,25.8-12.15,37.59-13.8,15-18.43,34-23,53-15.54-17.18-30.4-35.05-46.8-51.37-18.28-18.19-35-37.93-54.9-54.54-14.59-12.18-24.35-28.85-37.51-42.27C33.89,205.32,14,180.58-7.34,157c-7.5-7.7-3.95-13,0-22.43C1.17,114.46,13.56,95.28,16,72.94c.8-7.27,2.54-13.35,6.5-19.54,3.52-5.49,5.18-12.21,7.4-18.48,5.53-15.57,5.47-15.59,20.58-13.23,13.79,5.51,22.7,17.57,34.6,25.68,18.87,12.88,37.24,26.5,55.53,40.2,7.95,6,14.74,13.49,22.8,19.27C199.08,132.42,227.08,166.8,263,192Z"/><path class="cls-29" d="M195.38,376.23c-1.33-21,6.1-38.55,21-53.17,3.3,5.56.79,11-1,16a32,32,0,0,0-.54,21.76c2.41,7.5,2.39,14.73-4.7,20.17-3.65,2.81-3.42,6.27-1.64,10a64.53,64.53,0,0,0,5.61,9.63c15.57,21.8,19.75,46.86,21.14,72.71.26,4.88.64,9.62,2.83,14.07,1.14,2.34,3,4.87,2.57,7.29-3.07,19.61,10.91,34,15.64,51.14,1,3.49,2.28,8.3,6.58,7.94s4.22-5.5,5-9c4.07-17.49,5.81-18.78,23.21-14.84,4.5,1,7.11-.63,9.49-3.83,5.72-7.68,9.57-15.76,7.54-25.85-2.1-10.46-.54-20.43,3.87-30.39,5.28-11.91,10.36-24.38-.39-36.45a9,9,0,0,1-1.88-6.31c1.91-41.44-5.63-81.7-15.1-121.74-1.28-5.41-3.37-11.11-2.23-16.48,3.21-15.24-5.38-29.72-2.23-44.86.61-2.91-1.42-4.89-4.18-5.78-3.23-1-5.8,0-7.8,2.71-3.7,5-7.74,12.66-14.64,6.32-7.35-6.76-.37-12.52,4.64-17.54.52-.52,1.13-1,1.66-1.49,2.5-2.44,3.35-5.19.33-7.6-3.21-2.55-6.36-.63-7.15,2.31-2.36,8.81-6,16.11-13.66,22-4,3.09-1.72,9.81-1.17,15,1.51,14-5,22.25-20,25.19,1.44-18.76,8.53-35.55,18-51.49,2.09-3.49,4.79-6.79,6-10.56,3.9-11.72,12-16.28,23.87-15.28,18.73,11.41,24.58,28.23,26.93,49.78,3.1,28.43,6.54,57,12.33,85.26,3.22,15.73,1.48,32.5,5.33,48.3,4.69,19.31,2.74,39.62,10.06,58.52,5.79,14.93,17.74,24.12,29.3,33.8,4,3.33,8.44,6,12.68,9,.15,4.64,3.63,7.28,6.61,9.88,14.29,12.45,24.06,28.85,37.39,42.13a8,8,0,0,1,1.44,1.65c8.06,15.22,8.05,15.22,16,20.6C412.89,562.05,403,577.68,393,591.1c-15.48,20.75-35.32,38-48,61-2.13,3.84-4.86,7.3-6.28,11.6-4.62,14-13.07,24.6-24.11,35-11.47,10.81-24.94,23-23.69,42.08-3.71-1.61-4.14-4.78-4.17-8.29-.14-17.28-1.36-34.06-7.4-50.87-3.94-11,.12-24.06-2.42-36.19-2-9.43-4.09-18-10.12-26.26-5.82-8-7.91-18.7-11.64-28.21-4.86-14.09-6.68-29-12.72-42.86-4.17-9.55-6-20.11-8.79-30.24-7.65-27.87-13.15-56.26-21.39-84-3.79-12.78-7.49-25.92-10.36-39.11C200.52,388.25,199.93,381.56,195.38,376.23Z"/><path class="cls-32" d="M228.18,285.16q5.46-3.82,10.9-7.64c5.65-4,7.85-8.74,6.6-16.18-1.5-8.94-7-20,8.47-24.09,4.36-1.15,3.63-7.52,4-12,.43-5.32,3.29-9.11,8.61-10.34,4.5-1,6.76,2.33,8.77,5.49,2.51,3.94,3.14,7.59-2.29,9.85-1.71.71-3.78,1.4-4.78,2.76-2.48,3.4-7.21,6-5.38,11.32a4.49,4.49,0,0,0,4.25,3.12c5.4.11,7-4.38,7.83-8.07,2.31-10.28,9.17-5.23,14-4,5.44,1.36,7.6,5.41,4.22,11.12s-3.21,11.26,1.94,16.15c2.06,2,2.38,4.37,1.63,7.16-2.83,10.59-2.4,21.19.19,31.79a710,710,0,0,1,13.69,73.81c1.75,13.06,2.94,26.57,3.51,39.28.47,10.41,1.13,18.55,6,27.9,5.24,10-2.13,20.19-6,29.33-4,9.44-5.52,18.63-3.06,28,3.82,14.55-5.2,23.9-12.51,33.9-3,4.09-6.42.57-9.65-1.35-10-5.91-15.93-2.79-17.6,8.88-.37,2.55-.43,5.24-1.37,7.58-1.53,3.81,0,10.1-6.19,10.49-5.92.36-8-4.93-9.59-9.41-3.63-9.94-4.88-21-13.82-28.37a4.26,4.26,0,0,1-1.36-3c.41-14.06-5.35-27.35-6.39-40.78-2.26-29.26-7.11-56.86-24.6-81.35C203.72,390.34,196,382,210.79,377c3.91-1.33,3.84-7.15,2.4-10-7.77-15.45.07-29.45,3.19-43.91Z"/></g><g id="Brazil-4" data-name="Brazil"><path class="cls-3" d="M659.47,251.64l24.06,2.54c2.69,3.13,6.65,5.9,3.15,10.86-4.43,3.63-5.37,8.43-5.25,13.92.67,29.19-5.62,57.3-13.53,85.14-2.39,8.4-5.72,16.13-14.51,19.82-25.57-9.5-40,11.91-57.86,22.16-16.88,9.69-30.2,25.12-49,32.31-6.25,2.38-10.28,8.47-15.14,13-15,14-33.51,23.2-48.79,36.83-9.26,8.25-13.73,17.19-12.55,30.2,3.29,36.13,3.66,72.47,5.25,108.72.14,3.28.08,6.76-2.36,9.52a6.84,6.84,0,0,1-4.92,1c-11.88-7.93-27-9-38.09-19.31-4.92-4.59-13.4-3.32-20.18-5.18-24.53-6.71-40.28-23.84-52.56-44.61-3.53-6-6.11-7.46-11.62-3.76-5.76-1.47-6.18-6.11-5.53-10.59,3.4-23.54,2.82-47.67,7.45-70.82C352,460.55,364,440,383.13,425.74c18.73-14,34.87-31,54.14-44.37,38.12-26.39,73.65-56.44,113-81.17,22-13.87,46.47-23.09,69.39-35.32C631.69,258.43,647.06,258.94,659.47,251.64Z"/><path class="cls-5" d="M472.27,636.24c1.49-17.77-2.21-35.39-1.66-53.09.76-24.3-2.88-48.23-4.75-72.31-.62-8,4.44-14.54,8.91-19.88a79.26,79.26,0,0,1,21.94-18.24c16.41-9.09,30.21-21.08,43.35-34.15a13,13,0,0,1,5.53-3.56c13.84-3.33,24.16-12.69,34.46-21.34,15.72-13.19,34-22.23,50.51-34.14,7.93-5.74,14.68-.51,21.26,3.74C660,393.84,663.27,407,670.88,418c21.62,31.2,38,65.55,57.49,98.06,3.52,5.89,7.79,10.73,13.87,14.07,13.33,7.35,27,13.85,41.63,18.2,22.24,6.63,43.93,15.56,67.76,15.53,6.34,0,12.37-1,18.58-1.82,18.9-2.4,37.58-7.82,56.87-5.86,12.48,1.28,15.72,4.06,17.66,16.14,3.77,23.36,10.78,46.2,8.6,70.51-1.25,13.82-6.25,23.37-19.08,28.56-1.38.56.33-.18-1,.4-29.92,12.68-29.64,17.52-13.59,48.7a52.27,52.27,0,0,1,9.58,23.47c1.76,10.84,7.56,20,10.62,30.33,2.67,9,10.08,10.78,20,6.91,8.88-3.45,16.81-9.67,27-9.38,20.39,1.81,26.87,11,21.23,30.44a29.18,29.18,0,0,0-1.18,13.14c2.57,16-.33,31.9-2,47.78-.24,2.24.45,5.66-3.72,5.43-3.44-9.22,2-18.47.36-27.39-2.94-15.74-.55-31.11.75-46.65,1.23-14.81-6.15-19.56-19.94-13.25-8.75,4-17.2,8.72-26.14,12.2-13.2,5.14-22,.19-26.52-13.26-5.52-16.46-8.84-33.79-17-49.21-5.22-9.84-8.22-20.47-12.35-30.65-3.16-7.78-3.2-17.06,5-23.21,5.63-4.22,11.15-9.17,17.55-11.64,24.65-9.55,24.52-20.14,21-45.55-2.05-14.6-5.48-29-7.92-43.54-1.89-11.3-10-15.12-21.27-12.67-19.22,4.16-38.45,8.65-58.49,8.16-31.93-.79-61.48-11.58-91.84-19.57-30.08-7.91-44.39-30.7-58.09-55-13.09-23.23-25.11-47-40.74-68.84-7.22-10.06-11.48-22.25-17.23-33.4s-11.18-12.93-21.78-6c-13.32,8.72-26.31,18-39.23,27.3-32.69,23.6-65.08,47.63-98,70.94-12.4,8.79-17.69,21-15.32,34.62,3.23,18.56,0,37.14,2.45,55.42,3.06,22.45,1,45,2.16,67.48.59,11.09-3.81,25-15.17,33.15-.95-1.19-2-2.84-1.29-4C469,662.32,469.47,649,472.27,636.24Z"/><path class="cls-6" d="M999.48,1050.7c-.28,20.62,1.84,40.89,8.4,60.58,1,3.11,2,6.76,1.37,9.85-3.56,18.24,3.17,35.65,4.87,53.31a857.23,857.23,0,0,1,4.09,106.77c-.47,16.76,2.3,33.78.64,50.82-1,10.5-5.16,15.7-16.59,16.47-12.8.86-25.13-1.47-37.65-2.37-17.33-1.26-33.57,2.85-48.77,10.46-7.27,3.64-14.64,6.87-22.13,9.87-24.33,9.74-40.75,29.28-57.67,47.77-17.86,19.53-34.92,39.89-51.12,60.82-18.66,24.12-35.91,49.33-54,73.92-10.47,14.27-21.73,28-31.85,42.49-6,8.63-11.37,17.42-19.8,24.24s-17.2,6.14-24.73,1.47c-8-5-7.56-14.58-4-22.28,6.82-14.62,14.81-28.71,22.4-43,5.83-11,14.57-20.41,16.47-33.38.81-5.53,6.64-7.68,9.15-12.35,8.6-16,17.39-31.83,27.15-47.2,8.4-13.25,14.7-27.85,21.81-41.92,7.46-14.77,16.18-28.79,24.74-42.93q18.49-30.54,36.06-61.65c6.71-11.86,17-18.57,28.94-24.1,20.68-9.59,42.84-14.72,64.11-22.5,15.66-5.73,20.79-15.69,15.81-32.46-2.28-7.64-3.52-15.17-2.24-23.07a2.71,2.71,0,0,1,3.38.74c8.72,17,9.61,34.7,4.26,52.88-4.26,7.14-11.9,8.62-18.88,10.57-15.91,4.45-32,8.09-47.19,14.89-5.74,4.37-12.74,6.29-19.29,8.4-11,3.56-16.89,11.75-22,20.82-15.21,27.21-33.58,52.55-48.16,80-16.34,30.82-33.2,61.35-49.74,92-9,16.66-20.79,31.7-28.34,49.14-8.24,19-22.8,34.76-28.3,55.25-1.56,5.82-2.75,11.45,3,14.92,5.33,3.19,10-.55,13.95-4,3.06-2.65,6.56-5.38,8.24-9,8.42-18.25,25.35-30.47,34.51-47.7,13-24.53,33.94-42.91,47.78-66.84,11.68-20.18,28.94-36.69,44-54.55,15.31-18.11,30.69-36.29,49.24-51.42,11-9,22.4-17.46,36-21.67,10.27-3.17,18.85-9.53,29.48-12.49,16.31-4.55,32.1-4.81,48.39-2.7,8.76,0,17.51-.19,26.25-1.07,5.4-.54,9.12-2.58,9.47-8.57.18-2.37.54-4.7.84-7,1.79-9.39-1.61-18.5-1.4-27.77.72-32.62,2-65.42-1.4-97.75-1.87-17.72-3.59-35.74-6.22-53.53-2.6-17.53-4.57-35.25-7.93-52.68-2.07-10.71-3.69-21.2-1.84-32C994.46,1055.78,993.64,1050.78,999.48,1050.7Z"/><path class="cls-7" d="M687.21,263.22c-1.05-3.09-4-5.4-3.67-9,6.05-.43,9.54,2.48,13.68,7.14C711.16,277,715.28,296.21,720,315.74c8.92,37.2,17.95,74.67,43.84,104.7,14.32,16.6,30.57,30.43,51,40,24.26,11.33,49.2,18.3,75.42,23.37,30.36,5.88,61.66,6.18,91.32,15.94,11.38,3.75,15.1,14.21,19.5,23,6.19,12.38,10.19,25.81,13.93,39.44s-.14,27.66,4.16,40c7.46,21.46.36,41.86-.75,62.65-.71,13.3-3.25,26.28-11.34,37.68-4.72,6.66-.47,11.2,6,11.72,17.17,1.38,32.26,10,49.07,12.91,15.9,2.71,25.28,16.28,24.31,33.86-.93,17-3.19,34-3,51.13-7.12-1.57-6.14-7.41-6-12.33.22-7.76,1.45-15.46,2.26-23.18.65-6,.24-11.8-3.5-16.88-4.78-18-19-23.88-35-27.91-11.8-3-24.21-4.11-35.06-10.21-6.88-3.87-13.64-8.18-11.78-18,15.31-22.46,21.37-48.41,19.43-74.34-1.41-18.79-2.38-38.07-6.28-56.78-3.11-14.93-6.44-29.72-13.2-43.66-6.85-14.13-15.77-23.07-32.79-23.95-20.32-1.06-40.9-2.42-60.53-8.53-27.54-8.59-56.89-10.29-83.46-22.55a141,141,0,0,1-19.27-11.06c-28.55-19-51.95-42.48-66-74.88-11.78-27.15-16.58-56.21-25.6-84.09-4.06-12.52-7.63-24.79-16.76-34.64A8.69,8.69,0,0,1,687.21,263.22Z"/><path class="cls-8" d="M659.47,251.64c-3,5.06-7.56,8.84-13.15,9.35-20.17,1.84-36.28,13.5-54.1,21.14-38.39,16.46-71.54,40.83-104.33,66.11-22.51,17.34-47.77,31.49-68.45,50.71-18.5,17.19-41.33,29.72-55.29,52.2-14.55,23.42-17.75,49-18.23,75.39a66.08,66.08,0,0,1-1.82,15.1c-1.79,7.31-4.65,15.26,1.32,22.34,1.79,1.84,1.7,4,1.14,6.29-7.78,22.54-28.22,32.67-45.36,45.77-35.61,27.21-72.66,52.43-106.65,81.88-26.59,23-55.05,43.92-82.69,65.75-2.35,1.85-4.86,3.45-8,3.52a5.19,5.19,0,0,1-4.22-2.26c18.24-13.85,35.52-28.92,53.47-43.14,19.74-15.64,39.45-31.56,58.17-48.51,10.81-9.79,23.82-16.13,35.18-25,27.41-21.41,55.15-42.4,82.53-63.86,5.51-4.33,6.91-11.27,7.35-18.1C338,540,342.57,514,343.2,487.41c.52-21.86,9.54-40.9,26.92-56.3,32.3-28.62,66.33-54.76,101.37-79.86,36.13-25.89,70.79-53.9,111-73.39,17-8.22,34.36-15.5,51.91-22.45C642.82,252.1,650.49,248.75,659.47,251.64Z"/><path class="cls-9" d="M400,745.57c-6.95,15.88-21.53,25.09-32.61,37.33-30.36,33.56-66.09,61.58-97.27,94.36-7.56,7.93-15.12,16.4-24.79,22.21-16.94,10.18-36.09,9.33-54.56,9.9-12.54.39-25-.62-37.51,2-6.08,1.26-12.83,2.41-18.69,1.07-22.88-5.26-45.42,4.3-68.16.78-15.53-2.41-30.3,5.09-46,3.52-7-.7-12.87,5.23-18.25,9.57C-40.29,960.49-85.91,990.59-127,1026.61c-6,5.24-13.09,8.59-20.16,11.68-10.41,4.54-17.43-4.65-24.79-8.87-13.73-7.88-24.42-20.2-36.52-30.42-12.76-10.79-27.33-19.47-39.8-31-16.21-14.94-33-29.31-49.86-43.46-13.34-11.18-31-7.61-42.1,7.71-3,4.15-4.56,9.53-9.83,11.78a6.8,6.8,0,0,1-2.76-5.83c5.77-14.41,16.52-23.61,30.92-28.3,12.14-4,22.17,2.49,30.5,9.72,21.28,18.5,43.23,36.21,64.4,54.88,19.63,17.31,39,35.41,61.79,49,7.33,4.36,14.41,4.5,22.27,1.18,12.34-5.21,21.17-15,31.29-23.08,25-19.89,51.2-38.2,76.08-58.25,8.8-9.66,19.59-16.9,29.81-24.81,14.55-11.27,32.29-13.86,49.33-13.44,17.77.43,35.34.76,53-1.61,20.71,3.18,41.36,1.55,62-.85a17.55,17.55,0,0,1,3.52-.62c8.7-.49,17.23,2.28,26,1.35a28.48,28.48,0,0,1,3.33-.52c10.18-1.77,20.5-2.33,30.77-3.3,3.84-1.9,8.12-2,12.18-3C244.4,893.65,251,886,258,879a21.67,21.67,0,0,1,2.1-2.29c36.43-36.92,77.25-69.25,111.83-108.12,6.37-7.16,14.83-12.26,20.42-20.35C394,745.88,396.55,743.8,400,745.57Z"/><path class="cls-11" d="M1078.24,757.66c6.49,6.14,4.52,13.87,4.46,21.48-.09,11-6.51,22.2.75,33l0,.07c1.8,13.46-.16,26.92,0,40.39,1.49,10.75.62,21.5-1.23,32-5.12,29.28.63,58.75-2.25,88.16-1.5,15.34-9,23-21.33,29.14-16.17,8.09-31.2,18.18-45.76,28.9a37.21,37.21,0,0,0-13.48,19.85c-3.36,2.06-2.41,5.7-3.16,8.72-6.31-1.65-6.11-6.64-5.42-11.43a58.77,58.77,0,0,1,4.07-13.78c8.47-12.08,18.7-22.24,32.36-28.19,12.3-5.36,23.38-12.95,35.34-18.93,10.75-5.36,14.29-11.6,10.8-22.71-5.72-18.17-2.84-36.18-1.39-54.26,1.67-20.72,2.81-41.2,1.9-62.2-1.19-27.32-.1-55,.61-82.44A9.53,9.53,0,0,1,1078.24,757.66Z"/><path class="cls-12" d="M99.62,764.93l4.57.62c-3.54,12.31-14.73,15.81-24.52,17.66-26.46,5-53.27,8.24-79.85,12.65-22.46,3.73-45,6.84-67.36,11.61-14.36,3.07-28.68,6.94-43.51,8-8.4.6-16.09,5.37-24.73,5.45-12-.07-22.95,5.35-34.78,6.71-30,3.45-59.83,8.58-90,11.12-7.81.66-15.55-.46-23.2-1.79-3.27-.57-7.95-.52-7-6.26,9-1.33,17.71,3,26.71,1.1,14.43-1.88,29-3,43.25-5.95,8.41-1.73,17.07-1.44,25-3.24,11.75-2.67,23.88-3,35.29-6.45,7.66-2.3,15-3.81,22.82-2.47a17.6,17.6,0,0,0,10.87-1.34c13.12-6.35,27.84-4.82,41.54-8.59,12.94-3.57,26.18-6.16,39.4-8.59,13.62-2.49,27.37-4,40.89-7.4,18.42-4.57,38-2.2,56.19-8.74.69-.25,1.5-.7,2.12-.54C71.37,783,84.76,771.45,99.62,764.93Z"/><path class="cls-13" d="M400,745.57c-11.33,11-22.77,21.85-33.94,33-21.7,21.63-42.2,44.45-66.3,63.64-10.91,8.69-20.19,19.44-30.1,29.36-2.9,2.89-5.61,5.92-9.54,7.43-2.37-8.12,5.51-10.94,8.38-16.36C286.83,840,310.9,823.36,331.33,803c36.74-36.61,73.47-73.33,106.59-113.39,6.38-7.72,15.12-13.26,20.3-22.08,9.79-8.56,7.54-20.75,9.53-31.66l4.52.37c2.06,12.33,1.5,24.09-6.51,34.61-1.45,1.89-1.61,4.76-2.37,7.17l-.12.14c-4.16,4.77-8.12,9.71-12.64,14.15Z"/><path class="cls-16" d="M917.43,1210.52l-2.42-.17c-3.7-4.84-4.55-10.37-5.54-16.38-3.63-21.85-9.55-43.25-14.28-64.86-3.32-15.15-6.43-30.49-7.58-46.46-2.53-35.34,5.69-69.36,7.68-104,3.78-9.14,2-19.54,7.9-28.46,10.11-15.24,21.77-16,33.8-1.11-3.58,3.73-8.14,2.28-12.39,2.29-13.46,0-16.66,2.81-18.13,16-.21,9-4.64,17.39-5,26.17-1.32,31.07-6.75,62-5.4,93.08,1,21.86,7,43,12.69,64.09,4.73,17.4,6.81,35.39,11.29,52.86A6.6,6.6,0,0,1,917.43,1210.52Z"/><path class="cls-16" d="M1001.17,868.58c1.81-18.65,5.73-37.21,2.08-56.1-.54-2.78.1-6,.89-8.79,6.25-22,3.17-26.64-19.73-29.19,4.76-8.67,11.88-10.47,19.43-4.36,8.43,6.82,11.68,16,10.63,26.78-1.54,15.91-1.42,32.09-3.47,47.76-3.44,26.11-.48,51.91-.66,77.83,0,4.58,1.77,8.71,2.78,13,4.28,18.31-7.9,32.81-26.58,31.54-12.28-.84-24.46-2.15-34.51-10.44,2.49-5.2,3.24-5.88,8.92-4.37,7.42,2,14.61,4.8,22.17,6.37,13.77,2.85,18.68-.91,20.21-15.29.67-6.28-.39-12.35-1.47-18.45h0c-1.05-15.77-2.27-31.53-1.56-47.36Z"/><path class="cls-5" d="M1001.86,924.91c5.39,8.78,3.28,18.16,1,27-1.78,6.91-6.85,11.08-15.17,9.83s-17-1.53-24.65-5.92c-3.57-2-7.49-3.49-11.43-.51-6.25,1-11-1.85-15.16-6-2.93-2.16-5.59-4.93-8.83-6.37-8.05-3.58-15.13-3.86-21.2,4.88-6.57,9.46-5.92,21.11-11.12,30.81,1.51-10.82.52-21.94,7.54-31.82,6.29-8.83,16.11-13.86,25.07-8.4,12.41,7.56,25.85,10.08,39.73,12.26,5.73.9,11.14,3.69,16.73,5.53,10.65,3.51,16.35,0,17.43-11.4C1002.42,938.22,1001.88,931.54,1001.86,924.91Z"/><path class="cls-5" d="M1000.3,877.54c.78,15.78,3.82,31.48,1.56,47.36C996.93,909.26,998.18,893.42,1000.3,877.54Z"/><path class="cls-5" d="M450.63,692.31c2.61-6.16,6.49-11.17,12.64-14.15C461.53,685.1,456.87,689.42,450.63,692.31Z"/><path class="cls-18" d="M687.21,263.22c12.88,9.46,18.21,22.9,21.83,38,4.34,18.15,12,35.57,15.45,53.83,2.18,11.53,7.15,21.48,11,32.07,7,19.32,19.37,35.62,33.85,49.2,10.41,9.77,21.82,19.31,34.86,26.38,24.94,13.53,52.19,18.28,79.16,25.51,30,8,60.2,10.73,90.43,15.08a18,18,0,0,1,12.09,6.81c11.75,14,18,30.39,21.82,47.93,3.15,14.66,9,29.11,4.33,44.61a9.38,9.38,0,0,0,.41,5.45c11.27,31.33,2.45,60.3-10.47,88.73-1.18,2.6-3.72,4.58-5.63,6.84-5.37,6.59-13.62,7.07-20.81,8.83-15.94,3.92-32.9,3.55-47.87,11.77-3.16,1.74-6.45.6-9.18-1.77-12.15-7.4-7.89-22.23-14.34-32.33-1.5-2.35,1.64-5.35,4-7.3,7.22-5.84,14.65-11.08,23.78-13.79,12.87-3.82,16.79-13,18.14-26.78,2.43-25-5.67-48.23-8.55-72.3-.8-6.74-4.1-10.24-10.55-10.58-9.35-.5-18.4-3.6-28,2.3-4.86,3-13.49-1-19.48,1-20.52,6.84-41.22,4.85-61.15.31-19.45-4.43-39-10.05-57.1-19.05-6.64-3.3-13.76-5-20.46-8.27-18.83-9.13-25.38-27.82-33.87-44-16-30.5-35.11-59-52.49-88.65-3.76-6.42-3.5-13.58-6.6-19.87,9.24-6.76,12.08-16.62,14.85-27.25,7.05-27.09,13.17-54.13,11-82.42C677.21,267.38,679.63,262.61,687.21,263.22Z"/><path class="cls-19" d="M467.75,635.87c4.13,12.53,2.79,23.75-7.76,32.78.41-13.13-8.8-17.22-18.77-22.25-27.35-13.81-56.45-23.74-83.42-38.32-1.63-.88-3.72-1.35-4.77-2.79-5.94-8-13.93-8.32-22.61-6.4-.26-8.18,7.69-12.22,9.74-19.37.84-2.93,2.79-5.79,4.58-8.48.23-2.35.45-4.71.68-7.06,2.84-2.09,1.85-8.12,6.89-7.6,4.56.47,4.57,5.27,6.23,8.44,13.34,25.58,32.84,43.32,62.16,47.79,7.25,1.11,13.65,2.59,18.46,8.67,2.83,3.57,6.86,6,11.56,5.84C458.19,626.82,463.27,630.63,467.75,635.87Z"/><path class="cls-21" d="M918.45,722.54c2.55,0,5.81,1,7.55-.26,14.68-10.27,32.08-8.83,48.4-12.1,7.44-1.49,14.62-4.27,21.91-6.46.53,15.65,13.87,17.62,24.13,20,16.07,3.78,31.89,7.54,46.91,14.63,8.56,4.05,7.4,12.8,10.89,19.27-.18,14.41-1.74,29-.21,43.18,1.84,17.23-4.66,34.16-1,51,3.94,18-.15,35.4-1.16,53.09-1.14,20-6,39.77,1.45,60.08,3.35,9.08-.26,19.46-11.56,24.63-12,5.49-23.16,13-35.31,18.07-13.94,5.85-23,17.13-33.54,26.85-4.61-7.77-11.74-12-20.12-14.57q-20.34-6.25-28.29-26.12c-.55-1.38-.72-3.38-1.82-4-14.45-8-25.26-22.64-43.39-23.87,2-16,6.08-19.3,22.22-17.83,3.63.33,7.26.73,10.89,1.09,5.87-.08,10.41,3.22,15.15,6,11.82,4.05,23.49,8.2,36.28,8.77,14.29.63,27.18-11.73,22.65-25.2-3.37-10-1.83-19.62-3.3-29.21-3.23-21.16-.76-41.91.38-62.95,1-18.15,2.5-36.22,3.88-54.32.74-9.78-4.53-17.33-12.44-22.12-5.31-3.22-10.69-.51-14.63,4.23-8.72,1-15.76,6.12-23.43,9.64-12.84,5.88-21.29.32-26-12.7C929.11,755.24,926.44,738,918.45,722.54Z"/><path class="cls-22" d="M903.33,966c2.92-4.28,4.8-5.38,10.72-2.08,10.53,5.87,17.86,17,30.93,18.74,2.77.37,4.43,3.86,5.23,6.8,4.15,15.37,14.52,23.59,29.28,28.58,7.48,2.53,18.74,3.59,17.46,16.51.66,8.3-8.35,16.35-.63,24.83-3.39,20,3.55,38.8,7.55,57.81,1.19,5.69.74,11,.73,16.41,0,15,2.62,30.37,5.23,44.38,4.61,24.71,1.32,49.27,4.83,73.61,2.07,14.4-3.07,28.65-1.19,43.25,1.26,9.79,4.46,19.67,1.64,29.76-5.08.07-6.24-4.61-8.94-7.43-1.23-19.6-4.63-39.22-2.69-58.84,1.73-17.45,2.06-34.92,3.06-52.38.49-8.44-2.81-16.08-4.11-24.13-4.49-27.89-6.38-56.14-11.88-83.89-2.54-12.77-2.82-25.86-4.65-38.77-1.95-13.76-9.22-22.93-20.75-28.28-11.14-5.16-17.68-13.22-21-24.42-2.05-6.83-5.74-11.73-12.29-14.92-16.46-8-25.32-3.27-27.43,15-.17,1.48-.08-.38-.11,1.11-.38,21.3-.09,42.34-3,63.86-2.69,20.06.93,42.23,8.4,62.44,8.95,24.2,13.08,49.6,18,74.77,2.4,12.36,4.08,24.91,3.75,37.6-2.3,5.15-5.12,10.12-6,15.82a8,8,0,0,1-1.9,2.83,2.42,2.42,0,0,1-3.1-.25c4.65-18.41,1.64-36.38-3-54.27,1.7-9.5-3.54-17.85-4.71-27-2.25-17.66-7.64-34.93-12-52.3-5.74-23.07-10.46-46.15-7.81-70.22,1.74-15.84,4.24-31.58,3.36-47.73S901.66,981.91,903.33,966Z"/><path class="cls-24" d="M344.74,571c-2.08,10.52-9.54,18.24-14.15,27.44-9.28,14.24-25.31,20.08-37.65,30.5-28.88,24.38-61.54,43.62-90.1,68.65-32,28-65.21,54.93-100.77,78.56-3.1,2.06-5.78,4.65-8.81,6.83-13.28,6.21-27.94,7.37-42,9.53C15.89,798-19.51,803.75-55,808.63c-19.18,2.63-38.15,8.32-57.37,12-4.74.9-9.36,2.34-14.27,1.9-3.17-.53-6.38-1-8.27-4.1,30.25-6.64,60.69-12.23,91.15-17.85C-4.44,793.29,35.16,788,74.63,781.7c11.67-1.85,21.32-7.79,29.56-16.15,20.64-15.69,40.7-32.15,61.22-47.95,29-22.3,55.76-47.25,86.22-67.88,18.84-12.75,36.52-27.65,55.05-41.19C321.11,598,336.52,588.09,344.74,571Z"/><path class="cls-26" d="M-34.31,946.37l-4.41-.54C-30.11,925.42-14,913.09,6,905.74c11.13-4.11,23.08-4.93,35.11-4.06,13.33,1,26.46-2.47,39.83-2.39,38.84.22,77.58-2.31,116.32-4.75,7.72-.49,15.31,1.71,23.16-.1,12.52-2.89,22.14-9.89,30.4-19.28,6.32-4.14,9.28-14.58,19.88-10.8-3.17,5.13-8.94,8.37-10.55,14.63a131.74,131.74,0,0,1-24.56,19.78L223.89,902c-11.33.6-22.88-1.21-33.85,3.23h0c-9.75,2.1-19.28-3.09-29-.88h0c-21.69,2.33-43.41,3.44-65.21,2-16.78,2.91-33.55,2.47-50.56,1.91-18.63-.61-37.36,2.24-52.58,15.48C-16.23,931.43-26.48,937.45-34.31,946.37Z"/><path class="cls-13" d="M95.75,906.34c9.25-4.32,18.71.11,28.09-.2,12.38-.41,24.62-5,37.12-1.79C139.35,909.5,117.59,909.33,95.75,906.34Z"/><path class="cls-13" d="M235.55,898.77A138.72,138.72,0,0,1,260.11,879,44.7,44.7,0,0,1,235.55,898.77Z"/><path class="cls-13" d="M190,905.22c10.67-7.64,22.4-3.89,33.85-3.23Z"/><path class="cls-13" d="M161,904.34c9.8-3.63,19.35.95,29,.88C180.22,908.9,170.67,904.31,161,904.34Z"/><path class="cls-28" d="M270.66,864.36c-8.07.36-11.48,7.52-17,11.67-4.16-24-25.85-30.27-42.67-40.54-9-5.53-19.13-11.21-30.53-12.12-12.72-3.74-25.15-8.17-36.3-15.58-13.68-15.14-32.16-21.51-50.67-27.79,18.55-13.88,37.72-27,55.49-41.84,19.81-16.51,41-31.33,59.4-49.6,13.47-13.4,31-21.57,45.56-33.43,24.7-20.07,51.18-37.62,76.6-56.65,8.36-6.75,13.36-2.72,22.33,2.09,19.27,10.34,37.22,24.45,59.24,29,7.16,1.48,13,3.77,18.84,8.29,5.15,4,11.69,6.28,17.72,9.08,15,7,15,6.9,11.27,21.72-6.77,13.22-19.6,21-28.79,32.07-14.57,17.6-29.84,34.62-45.18,51.56-6.66,7.37-14.79,13.42-21.29,20.91C336,806.29,299.12,831,270.66,864.36Z"/><path class="cls-29" d="M93.54,780c21,.62,37.81,9.64,51,25.83-5.84,2.78-11-.22-15.86-2.52a32.13,32.13,0,0,0-21.62-2.55c-7.69,1.71-14.89,1-19.65-6.56-2.45-3.89-5.92-4-9.77-2.55a65.5,65.5,0,0,0-10.12,4.69C44.37,809.83,19,811.66-6.84,810.64c-4.88-.19-9.64-.25-14.28,1.51-2.43.93-5.11,2.49-7.49,1.89-19.24-4.88-34.82,7.72-52.36,10.83-3.57.63-8.48,1.5-8.53,5.82s5.09,4.71,8.47,5.84c17,5.67,18.16,7.52,12.62,24.48-1.43,4.39,0,7.14,2.93,9.81,7.13,6.4,14.81,11,25.05,9.9,10.6-1.12,20.39,1.36,29.9,6.67,11.37,6.36,23.3,12.59,36.32,3a9,9,0,0,1,6.46-1.29c41.08,5.75,81.87,2,122.62-3.74,5.5-.77,11.37-2.32,16.61-.7,14.87,4.62,30.09-2.59,44.87,2,2.85.87,5-1,6.15-3.63,1.34-3.12.54-5.77-2-8-4.65-4.15-11.9-8.88-4.94-15.16,7.41-6.69,12.5.79,17,6.25.47.57.86,1.21,1.33,1.79,2.2,2.71,4.85,3.82,7.54,1,2.84-3,1.22-6.27-1.63-7.33-8.56-3.17-15.49-7.49-20.66-15.64-2.7-4.26-9.6-2.62-14.8-2.55-14.13.19-21.69-7.09-23.23-22.24,18.55,3.17,34.6,11.78,49.59,22.74,3.28,2.4,6.32,5.4,10,7,11.3,5,15.1,13.44,13,25.18-13.09,17.59-30.38,21.86-52.05,22.2-28.6.44-57.4,1.22-86,4.36-16,1.75-32.5-1.53-48.59.82-19.66,2.88-39.7-.94-59.2,4.6-15.4,4.37-25.66,15.43-36.37,26-3.68,3.64-6.8,7.84-10.18,11.79-4.64-.28-7.58,2.94-10.44,5.67-13.73,13.08-31,21.28-45.43,33.31a7.57,7.57,0,0,1-1.77,1.29c-15.9,6.61-15.9,6.6-22,14,6.7-20.78-8-32-20.38-43.25C-158,939.52-173.35,918.17-195,903.39c-3.63-2.48-6.82-5.52-11-7.33-13.51-5.9-23.27-15.3-32.6-27.25-9.7-12.43-20.62-27-39.69-27.49,1.94-3.55,5.14-3.69,8.64-3.39,17.21,1.47,34,1.81,51.34-2.64,11.29-2.91,23.93,2.34,36.25.94,9.57-1.09,18.27-2.4,27.09-7.64,8.51-5.05,19.35-6.14,29.16-9,14.48-3.53,29.5-4,43.86-8.69,9.89-3.26,20.58-4.12,30.92-5.95,28.46-5,57.24-7.87,85.67-13.5,13.08-2.59,26.5-5.05,39.9-6.69C81.09,784,87.81,784,93.54,780Z"/><path class="cls-30" d="M922.15,1269.56l.63-4.53c.1-.66.18-1.31.25-2,3.2-4.59,2.88-10.58,6-15.2-1.75-23.65-5.73-46.89-10.79-70.07-5-22.81-15.53-44.63-17.79-67.27-2-20.41-9.79-42.61,2.51-63.13,2.19-3.66,1.09-8.06-.21-12-4.16-12.49-1.91-25-.65-37.61.66-6.52,4.41-10.14,9.86-12.27,12.51-4.87,30.72,4.81,34.46,17.8,3.15,10.91,7.77,19.5,20,24.54,11.6,4.8,20.66,13.76,22.25,29.1,3.67,35.21,7.7,70.51,14.38,105.23,6.5,33.81,6.66,67.12,3.4,101.17-1.7,17.7,1.63,35.89,2.69,53.86-1.89,17.61-1.89,17.45-20.4,18.22-5.1.21-10.16,1.47-15.3.37-1.55-2.07-1.14-4.32,0-6.25,3.54-6.22,2.07-11.21-3.2-15.59-8.21-6.83-11-17.31-16.85-25.77-6.91-9.94-14.11-18-27.51-16.48C924.34,1271.88,923.06,1270.82,922.15,1269.56Z"/><path class="cls-32" d="M181.17,821.11q3.3,5.77,6.6,11.56c3.45,6,8,8.62,15.49,8.07,9-.66,20.56-5.08,23.2,10.67.75,4.44,7.15,4.31,11.55,5.08,5.26.93,8.77,4.12,9.5,9.54.61,4.57-2.95,6.51-6.28,8.22-4.16,2.14-7.85,2.42-9.6-3.19-.55-1.77-1-3.9-2.3-5-3.15-2.78-5.25-7.73-10.78-6.4a4.48,4.48,0,0,0-3.49,3.94c-.61,5.36,3.71,7.37,7.3,8.54,10,3.25,4.37,9.62,2.73,14.29-1.86,5.29-6.1,7.07-11.47,3.17s-10.91-4.24-16.26.43c-2.13,1.87-4.57,2-7.28,1-10.29-3.8-20.88-4.35-31.67-2.76A708.83,708.83,0,0,1,83.65,895c-13.17.54-26.73.47-39.44-.14-10.41-.5-18.57-.6-28.33,3.41-10.44,4.28-19.92-4-28.65-8.73-9-4.9-18-7.23-27.62-5.65-14.85,2.45-23.33-7.39-32.6-15.6-3.79-3.35,0-6.45,2.24-9.49,6.81-9.37,4.25-15.6-7.21-18.35-2.5-.6-5.18-.91-7.42-2.06-3.65-1.87-10.07-.91-9.87-7.14.19-5.92,5.65-7.46,10.25-8.67,10.24-2.69,21.34-2.92,29.54-11.13a4.25,4.25,0,0,1,3.1-1.08c14,1.71,27.72-2.79,41.19-2.58,29.35.47,57.28-1.8,83.29-16.95,6.6-3.84,15.64-10.71,19.23,4.44,1,4,6.77,4.49,9.75,3.32,16.11-6.3,29.32,2.8,43.43,7.24Z"/></g></g></g></svg>