<svg id="Layer_1" data-name="Layer 1" xmlns="http://www.w3.org/2000/svg" xmlns:xlink="http://www.w3.org/1999/xlink" viewBox="0 0 625 313"><defs><style>.cls-1{fill:none;}.cls-2{fill:#76bdd5;}.cls-3{fill:#d3de2e;}.cls-4{fill:#b5c3ca;}.cls-5{fill:#c4dac3;}.cls-6{fill:#b6c1ca;}.cls-7{fill:#bad0d5;}.cls-8{fill:#c9dbc4;}.cls-9{fill:#d9e271;}.cls-10{fill:#aecace;}.cls-11{fill:#c5dbc0;}.cls-12{fill:#9ccab3;}.cls-13{fill:#d9e4be;}.cls-14{fill:#e9eaba;}.cls-15{fill:#abcbcb;}.cls-16{fill:#dde474;}.cls-17{fill:#6e99a9;}.cls-18{fill:#63bdb6;}.cls-19{fill:#96cb60;}.cls-20{fill:#77bed1;}.cls-21{fill:#81c0b0;}.cls-22{fill:#92c494;}.cls-23{fill:#91c6a8;}.cls-24{fill:#a0c892;}.cls-25{fill:#8fc498;}.cls-26{fill:#99c798;}.cls-27{fill:#53be92;}.cls-28{fill:#78c477;}.cls-29{fill:#55be93;}.cls-30{fill:#7ac47b;}.cls-31{fill:#69bf6f;}.cls-32{fill:#6abf6a;}.cls-33{fill:#b0bcce;}.cls-34{fill:#7692b0;}.cls-35{fill:#b2bfd2;}.cls-36{fill:#b4c1d3;}.cls-37{fill:#afbdd0;}.cls-38{fill:#7390b0;}.cls-39{fill:#879dba;}.cls-40{fill:#548ac2;}.cls-41{fill:#8da3c0;}.cls-42{fill:#94aac8;}.cls-43{fill:#528ac1;}.cls-44{fill:#b0bdd2;}.cls-45{fill:#528abe;}.cls-46{fill:#508bc5;}.cls-47{fill:#f6f6f7;}.cls-48{fill:#aebdd0;}.cls-49{fill:#f7f7f8;}.cls-50{clip-path:url(#clip-path);}.cls-51{clip-path:url(#clip-path-2);}</style><clipPath id="clip-path"><rect class="cls-1" x="213.2" y="221.49" width="85.46" height="26.19" rx="10.79"/></clipPath><clipPath id="clip-path-2"><path class="cls-1" d="M265.87,154.42a14.49,14.49,0,0,0-3.88-8.61L187,66a14.58,14.58,0,0,0-20.61-.65h0a14.57,14.57,0,0,0-.64,20.61l63.67,67.81-99.88,71.61a14.58,14.58,0,0,0-3.36,20.35h0A14.59,14.59,0,0,0,146.53,249l113.34-81.26A14.57,14.57,0,0,0,265.87,154.42Z"/></clipPath></defs><g id="Brazil"><path class="cls-2" d="M258.89,120v-2.87c.33-.35.61-.86,1.24-.51a1.89,1.89,0,0,0,1.71.45,33.74,33.74,0,0,1,10.22.52,3.17,3.17,0,0,1,2.52,1.46c-.8,3.13,1.91,4.57,3.35,6.54s3.35,3.25,4.43,5.38c.36.71,1.13,1.11,1.73,1.63,1.84,1.59,3.16,3.66,5,5.29a4,4,0,0,0,3.73,1.1c4.22-.85,8.5-1.36,12.76-2a1.48,1.48,0,0,1,1.16.16.86.86,0,0,1,.18.56c-.79,1.51-.72,3.31-1.8,4.74-.48.64-.22,1.63-.35,2.45-.49,3-2.31,5.06-4.6,6.77-.66.49-.81.82-.3,1.42-.1.7-.64.81-1.18.79-2.82-.11-5.66.27-8.45,0a11.18,11.18,0,0,1-7.26-3.48c-1.89-2-4.1-3.72-5.92-5.82-3.6-4.17-7.6-8-11-12.31-1.92-2.43-3.32-5.19-5.05-7.74C260.05,123.2,259.91,121.38,258.89,120Z"/><path class="cls-3" d="M365.59,247.53h-7.66a35.33,35.33,0,0,0-5.26-2.44,8.4,8.4,0,0,1-2.89-2,2.79,2.79,0,0,1,.46-2.61c.39-.63.85-1.23,1.29-1.83,1-1.4,2.2-2.71,2.15-4.64a1.32,1.32,0,0,1,1-1.39c2.56,2.1,5.5,3.67,8,5.83,1.77,1.49,3.57,3.12,6,3.62a2.1,2.1,0,0,1,1.89,2.07c0,1-1.39,2.21-2.69,2.41A3.78,3.78,0,0,0,365.59,247.53Z"/><path class="cls-4" d="M306.65,137.22c-2.11.05-4.14.71-6.24.87a77.7,77.7,0,0,0-8.47,1.48,3.41,3.41,0,0,1-2.46-.8,9.24,9.24,0,0,1-2.43-2.36,23.35,23.35,0,0,0-4.58-4.68,1.51,1.51,0,0,1-.49-.61,10.42,10.42,0,0,0-3-3.8c-1.76-1.68-3-3.73-4.67-5.52-.78-.87-.24-1.73.17-2.56,1.15-1.09,2.66-1.65,3.86-2.69,3.41-3,7.25-5.32,10.84-8a4.38,4.38,0,0,0,1.49-1.81,25.25,25.25,0,0,0,1.62-5.15c.5-2.71,1.28-5.38,1-8.19a17.39,17.39,0,0,0-.45-2.17c-.52-2.2-1.4-4.34-1.41-6.64,0-1.49.28-1.9,1.68-2.29,2.71-.74,5.32-1.85,8.21-1.9A3.56,3.56,0,0,1,305,82.26c.08.15,0,0,.06.11,1.87,3.37,2.44,3.28,5.92,1a6.26,6.26,0,0,1,2.64-1.43A28.67,28.67,0,0,0,317,80.29c1-.43,1.14-1.32.56-2.45s-1.35-1.86-1.45-3.06c0-2.43.95-3.31,3.33-2.89a3.57,3.57,0,0,0,1.56,0,21.13,21.13,0,0,1,5.67-.37c.26,0,.66-.13.68.37-1,.52-2.2,0-3.23.3a20.55,20.55,0,0,1-5.52.51c-1.76,0-2.23,1-1.31,2.52.58,1,1.25,1.92,1.77,2.93.78,1.49.3,2.59-1.23,3.3a38,38,0,0,0-5.59,2.63,37.05,37.05,0,0,1-3.46,1.84,2.19,2.19,0,0,1-2.8-.29,9.66,9.66,0,0,1-1.6-1.93c-1.44-2.79-2.69-2.64-5.64-1.89-1.7.42-3.35,1-5,1.48-1.31.37-1.66,1.37-1.23,2.67a29.35,29.35,0,0,1,1.71,6.8c.31,3.78-.59,7.4-1.15,11.09s-3.06,5.63-5.75,7.55a86,86,0,0,0-7.61,5.68,31.51,31.51,0,0,1-3.72,2.46c-1.25.82-1.39,1.48-.44,2.65,1.2,1.46,2.46,2.87,3.72,4.28,3.2,3.56,6.45,7.08,9.62,10.67a4,4,0,0,0,4.28,1.36c2.15-.61,4.38-.46,6.51-1,2.61-.64,5.3-.68,7.93-1.11a4.64,4.64,0,0,1,4.11,1.37c-.13.13-.31.27-.46.21C309.78,137.28,308.19,137.39,306.65,137.22Z"/><path class="cls-5" d="M348.89,69.75a21.69,21.69,0,0,0,7-1.76,2.51,2.51,0,0,1,1.15-.29c2.19.19,4.16-.82,6.23-1.25a102,102,0,0,1,12.55-1.83c2-.16,3.95-.7,6-.72A1.84,1.84,0,0,1,384,65.65a31.92,31.92,0,0,1,.2,4.47,11,11,0,0,0,1.85,5.62c.52.82,1,1.65,1.45,2.49,1.45,2.75,4,4.44,6.36,6.2s5.15,3.62,7.83,5.26c3.08,1.9,6.28,3.62,9.41,5.44,1.82,1.05,3.58,2.21,5.42,3.22a12.91,12.91,0,0,1,3.11,2,2.37,2.37,0,0,1,.48,2.9,2,2,0,0,1-2.57.75c-1.82-.62-3.58-1.39-5.36-2.1-1.37-.55-2.59-1.46-4.15-1.52-.66,0-1-.69-1.57-.93-2-.81-4-1.64-5.92-2.6a55.89,55.89,0,0,0-5.22-2c-1.84-.7-3.6-1.55-5.38-2.38-2.56-1.2-5.14-2.35-7.73-3.47A7.08,7.08,0,0,1,379,85.88c-1.39-2.32-2.28-4.87-3.46-7.29-.88-1.77-2.12-2.25-4-1.45a6.18,6.18,0,0,1-2.7.56.32.32,0,0,1,.05-.41A8.17,8.17,0,0,1,375,76.11a3.32,3.32,0,0,1,1.49,2.1,39,39,0,0,0,2.36,5.38,7.42,7.42,0,0,1,1.23,2.17,4.7,4.7,0,0,0,2.74,2.33c3.4,1.45,6.62,3.3,10,4.67,3.85,1.54,7.66,3.14,11.5,4.7,2.08.85,4,2.05,6.16,2.72,2.35.74,4.39,2.25,6.88,2.64.7.11,1.38.18,1.72-.54s-.19-1.18-.65-1.6a3.44,3.44,0,0,0-1.16-.86c-2.26-.76-3.92-2.6-6.07-3.47-3.06-1.23-5.49-3.46-8.49-4.79-2.53-1.12-4.7-3-7-4.51a45.62,45.62,0,0,1-6.69-5.15,13.12,13.12,0,0,1-3-4c-.5-1.17-1.36-2.11-1.84-3.32a14.09,14.09,0,0,1-.94-5.68c-.11-1-.24-2.06-.45-3.08-.14-.63-.43-1-1.14-1-.28,0-.56,0-.84,0a18.92,18.92,0,0,0-3.26.52,90.36,90.36,0,0,0-11.52,1.4c-2.07.44-4.17.88-6.24,1.41s-4.1,1-6.11,1.6a10.54,10.54,0,0,1-3.76.63C349.55,70.28,349,70.44,348.89,69.75Z"/><path class="cls-6" d="M259.91,116.58c-.35.17-.59.54-1,.55a1.84,1.84,0,0,1,.67-1.7c1.67-1.85,3.88-2.58,6.13-3.38,4.28-1.52,8.59-3.06,11.8-6.5A17.88,17.88,0,0,0,281.56,99a38,38,0,0,0,1.81-9.2c.3-3.66-.06-7.35.72-11,.3-1.39,1.49-2,2.47-2.59A25.68,25.68,0,0,1,291,74.11c1.57-.61,3.26-.33,4.67-1,2.44-1.16,4.93-.58,7.4-.71a8.26,8.26,0,0,1,4.59.86c.85.47,1.33-.09,1.31-.85-.06-2,.77-3.94.9-6a3.57,3.57,0,0,1,3.69-3.3c2-.1,4,0,6.07-.3-.09.86-.8.82-1.38.87-.92.07-1.84,0-2.76,0a2.75,2.75,0,0,0-1.95.63c-2.07.79-2.58,2.55-2.85,4.49a16.23,16.23,0,0,1-.76,4.26c-.37.86-.79,1.72-2,1.62a13.68,13.68,0,0,0-9-1.35,52.55,52.55,0,0,0-6.62,1.46,22.25,22.25,0,0,0-5,2.11A4.28,4.28,0,0,0,285,81.15a29.35,29.35,0,0,1-.24,7.25c-.67,3.36-.5,6.84-1.61,10.13a15.42,15.42,0,0,1-1.06,2.42,20.39,20.39,0,0,1-8,8.74c-3.05,1.73-6.42,2.67-9.6,4.09a10.17,10.17,0,0,0-3.87,2.41A1.05,1.05,0,0,1,259.91,116.58Z"/><path class="cls-7" d="M258.89,120a2.11,2.11,0,0,1,1.27,1.44c.48,2.36,2,4.11,3.18,6.12A58.08,58.08,0,0,0,272.47,139c2.33,2.44,4.32,5.24,6.85,7.44,2.26,2,4,4.5,6.86,5.86s6,1.47,9.13,1.2a7.83,7.83,0,0,1,1.81,0c.88.12,1.85.36,2.61-.44a.74.74,0,0,1,.73-.21c2.76.63,4.22,2.91,6,4.77,3.66,3.86,7.11,7.91,11,11.55,3.06,2.85,5.89,5.94,8.81,8.93a1.59,1.59,0,0,1,.52.9.6.6,0,0,1-.21.52c-1.87-2-3.87-3.82-5.77-5.76-2.1-2.13-4.23-4.26-6.47-6.25-1.29-1.15-2.2-2.61-3.39-3.83-2.88-3-5.7-6-8.58-8.94a2.81,2.81,0,0,0-2.23-.63c-3.13.13-6.26-.08-9.4.18a8.93,8.93,0,0,1-7-2.46A147.55,147.55,0,0,1,273,140.93c-3.51-3.94-7.26-7.67-10.07-12.18-1.18-1.9-2.26-3.86-3.31-5.84A4.24,4.24,0,0,1,258.89,120Z"/><path class="cls-8" d="M320.47,144.37c2,.62,3.24,2.22,4.82,3.37,4.35,3.16,8.11,7,12.37,10.29a15,15,0,0,1,2.94,2.64c1.41,1.87,1.56,4.15,1.86,6.32a24.45,24.45,0,0,0,.71,4.4,5.57,5.57,0,0,1,.36,2.19c-.33,2.77,1.08,5.31,1,8-.08,1.86,1,3.51,1,5.38,0,.83.78,1.45,1.36,2,4.58,4.58,8.71,9.58,13.48,14a9.1,9.1,0,0,1,1.64,2.23c.66,1.17-.33,2.12-.74,3a30.15,30.15,0,0,1-3.13,4.69c-1.11,1.65-1.95,3.48-3.14,5.09-1.56,2.11-3.05,4.27-4.5,6.44-1.15,1.72-.51,3.75,1.44,4.87.53.3,1.18.42,1.52,1a.82.82,0,0,1-.66.4,5.66,5.66,0,0,1-3.73-3.29c-.62-1.38,0-2.65.76-3.72,1.92-2.75,3.73-5.56,5.66-8.3a49.54,49.54,0,0,0,5-7.91,2.75,2.75,0,0,0-.14-2.65,16.8,16.8,0,0,0-3.12-3.4c-2.67-2.69-5.16-5.55-7.84-8.24a26.33,26.33,0,0,1-3.31-3.2,9,9,0,0,1-2.21-5.65,39.57,39.57,0,0,0-.86-6.23,27.31,27.31,0,0,0-.89-7.31,1.91,1.91,0,0,1-.11-.41c-.17-1,.05-2.06-.17-3.08a2.38,2.38,0,0,1-.11-.38c-.34-1.18-.53-2.39-.78-3.59a6.89,6.89,0,0,1-.51-1.4,6.81,6.81,0,0,0-2.37-2.57,2.32,2.32,0,0,1-.3-.22c-4.82-3.83-9.15-8.24-14.18-11.83a25.24,25.24,0,0,0-2.66-2.15A.69.69,0,0,1,320.47,144.37Z"/><path class="cls-9" d="M365.59,247.53c0-1.23,1-1.2,1.81-1.24a3,3,0,0,0,1.82-.67c.57-.45,1.31-.88,1.15-1.78a2,2,0,0,0-1.68-1.49c-3.13-.66-5.25-2.9-7.59-4.75a19,19,0,0,0-4.94-3.22c-.86-.32-.73-1.28-1.41-1.62s-1.4-.47-1.33-1.41a.9.9,0,0,1,.57-.18,40.13,40.13,0,0,1,5.19,3.57c2.13,1.57,4.2,3.22,6.23,4.91a9.29,9.29,0,0,0,4.39,1.74,13.93,13.93,0,0,1,1.43.29c.72.2,1.51.36,1.68,1.27a2.5,2.5,0,0,1-.88,2.49,12.3,12.3,0,0,1-3.8,2.1Z"/><path class="cls-10" d="M313.31,64.17c.64-.84,1.58-.71,2.47-.8,1.3-.13,2.71.49,3.89-.51h0a42.23,42.23,0,0,1,4.76-.52,12.46,12.46,0,0,1,3.8-.26c3.52.23,6.93-.82,10.44-.85a3.94,3.94,0,0,1,3.7,2.15,38.65,38.65,0,0,0,4,5,4.42,4.42,0,0,0,2.52,1.34c.28.37.7.21,1.07.26-.12.77-.71.81-1.28.79a6.91,6.91,0,0,1-1.68-.31A9.24,9.24,0,0,1,343.26,67c-.79-1.38-1.82-2.6-2.68-3.93s-1.55-1.54-2.82-1c-2.07.91-4.23.79-6.38.85a59,59,0,0,0-7.37.57c-3.21.48-6.48.71-9.74,1A1.12,1.12,0,0,1,313.31,64.17Z"/><path class="cls-11" d="M326.57,179.57V179c1.5.26,2.05,1.54,2.4,2.67.92,3.06,1.64,6.18,2.5,9.26.73,2.6,1.38,5.23,2.23,7.8a37.9,37.9,0,0,1,1.49,5c.18,1,.84,1.83,1,2.85.14,1.42.92,2.64,1.23,4,.79,3.5,1.77,7,2.45,10.47a10.64,10.64,0,0,1,.09,2.76c0,.4,0,.95-.65.92-.27-1,.12-2.13-.21-3.17-.41-1.68-.73-3.39-1.25-5-.31-1-.39-2-.7-2.91-.47-1.35-.66-2.78-1.21-4.08a5.76,5.76,0,0,1-.58-2.66,2.1,2.1,0,0,0-.3-1.27c-.91-1.47-.92-3.22-1.54-4.79s-1.06-3-1.51-4.54-.83-3.18-1.39-4.73c-.77-2.12-.74-4.46-1.75-6.53,0-.07-.1-.16-.09-.24C329.06,182.68,327.52,181.25,326.57,179.57Z"/><path class="cls-12" d="M320.47,144.37c1.44,1.2,2.87,2.41,4.33,3.59a94.55,94.55,0,0,1,8.35,7,45.78,45.78,0,0,0,3.85,3.18,3.25,3.25,0,0,1,1,1c-.92.38-1.36-.51-2-.78-2.91-1.88-5.18-4.51-7.84-6.67-4.78-3.87-9.58-7.74-14.73-11.14a22.67,22.67,0,0,0-2.86-2.11c-1.14-1.05-2.55-.63-3.86-.73,0-.18,0-.36,0-.54a5.07,5.07,0,0,1,4.17.33,2.7,2.7,0,0,0,.88.19l0,0c.61.43,1.25.83,1.83,1.31Z"/><path class="cls-13" d="M339.07,221.65c.53,1,.12,2.1.26,3.14-.09,1.72-1.18,3-2,4.37-.19.3-.43.56-.62.86-1.22,1.92-1.13,2.13.34,3.87,2.85,3.36,6.5,5.77,9.92,8.46a2.93,2.93,0,0,0,1.22.47,2.29,2.29,0,0,1,.37.12,2.82,2.82,0,0,1,.8.44c1.42,1.5,3.39,2.07,5.12,3.05.41.23,1,.36.81,1.1-2.1.32-3.56-1.06-5.1-2.05a26.58,26.58,0,0,0-2.58-1.76c-3.58-1.79-6.46-4.51-9.39-7.17-.75-.69-1.44-1.44-2.16-2.15-1.91-1.87-1.67-2.32-.25-4.55a45.32,45.32,0,0,0,3.1-5.46A8,8,0,0,0,339.07,221.65Z"/><path class="cls-14" d="M368.23,247.54c.75-1.06,2.18-1,3-2,.3-.32.75-.51,1-.85.9-1.22.46-2.38-1.05-2.7-2-.42-4-.66-5.7-1.92-2.6-2-5.12-4-7.71-6-1.24-.95-2.55-1.81-3.84-2.71-.36-.28-1-.19-1.11-.82l.56-.23a3.21,3.21,0,0,1,1.58.89c3.58,2.6,7.21,5.12,10.53,8.07,1.27,1.13,3.11,1.3,4.79,1.63a14,14,0,0,1,2.74.85c1.14.49,1,1.56.68,2.4C373.15,245.93,370.17,247.64,368.23,247.54Z"/><path class="cls-15" d="M368.79,77.41v.29a4.19,4.19,0,0,1-1.86.86c-2.53.7-5,1.67-7.47,2.51a39.61,39.61,0,0,1-5.39,1.48c-4.14.75-8.26.21-12.38.41-1.12-.33-2.33,0-3.46-.57-1.92-1-2.16-2.37-.56-4,.49.38.38.94.43,1.44.17,1.58.54,1.93,2.13,1.93,1.06-.09,2.11.33,3.15.26,3.68-.23,7.39,0,11.05-.54a35.09,35.09,0,0,0,7.4-2.31c2-.78,4.09-1.25,6.1-2A.78.78,0,0,1,368.79,77.41Z"/><path class="cls-15" d="M327.37,71.86c-2.22,0-4.46-.21-6.64.46a2.32,2.32,0,0,1-1.05,0c-2.68-.46-3.19,0-3.2,2.7a1.38,1.38,0,0,1-.76-2.24,3.42,3.42,0,0,1,3-1.59c1.89,0,3.8-.24,5.68-.2,3.12.08,6.13-.6,9.19-.91a6.67,6.67,0,0,0,1.51-.49,2.9,2.9,0,0,1,4.05,2.74,6.75,6.75,0,0,1-.79,4.2c-.64-.23-.73-.31-.63-1,.14-.91.38-1.79.47-2.7.16-1.66-.34-2.2-2.06-2.19a7.93,7.93,0,0,0-2.16.4h0a49.77,49.77,0,0,1-5.57.79Z"/><path class="cls-16" d="M355.28,247.53a2.67,2.67,0,0,0-2-1.35c-2-.57-3.33-2-4.93-3.1a1.28,1.28,0,0,1,1.57,0,29.76,29.76,0,0,0,7.18,3.47,1.18,1.18,0,0,1,.8,1Z"/><path class="cls-4" d="M334,71.06a4,4,0,0,1,3.18-.46,1.48,1.48,0,0,1,1.35,1.67,8,8,0,0,1-.39,3,1.13,1.13,0,0,0,.09,1.35,2,2,0,0,1-.52,1.87,6,6,0,0,0-.64,1.12,1.79,1.79,0,0,0,.84,2.44c1.2.65,2.57.43,3.78.92-1.29,0-2.59.22-3.85-.49s-1.84-1.72-1.31-2.85a12.46,12.46,0,0,0,.95-4.84,12.51,12.51,0,0,1,.44-2c.28-1.3-.21-1.93-1.57-1.91C335.58,70.83,334.8,71,334,71.06Z"/><path class="cls-4" d="M328.44,71.85a29.91,29.91,0,0,1,5.57-.79A12.74,12.74,0,0,1,328.44,71.85Z"/><path class="cls-4" d="M313.55,139.07a3.13,3.13,0,0,1-1.83-1.31A2.47,2.47,0,0,1,313.55,139.07Z"/><path class="cls-17" d="M259.91,116.58a7.19,7.19,0,0,1,4.21-3c2.09-.75,4.05-1.87,6.16-2.51a24.71,24.71,0,0,0,3.64-1.7,15.14,15.14,0,0,0,5.38-4.62,20.29,20.29,0,0,0,2.67-4.45c1.28-3.11,1.5-6.39,2-9.66a90.4,90.4,0,0,0,.63-10.87,2.15,2.15,0,0,1,.66-1.51A12.66,12.66,0,0,1,290.65,75c1.69-.56,3.32-1.43,5.21-1.08a1.08,1.08,0,0,0,.63-.12c3.56-1.72,7.09-1,10.61.11a4.46,4.46,0,0,1,.88.58,4.07,4.07,0,0,1,1.3,2.35c.67,1.83.84,3.83,2,5.5a.94.94,0,0,1-.09,1.1c-.72,1.53-2.53,1.22-3.64,2.1-.26.21-.65-.12-.91-.38a8.37,8.37,0,0,1-1.93-2.63c-.61-1.47-1.74-1.82-3.39-1.8-3,0-5.62,1.28-8.42,1.92a1.23,1.23,0,0,0-1.12,1.38c.06,1.11-.19,2.22.63,3.28.41.53,0,1.6.37,2.28a13.39,13.39,0,0,1,.81,7.22,30.57,30.57,0,0,1-1.53,7c-.3.82-.42,1.68-.71,2.52-.84,2.33-3,3.34-4.77,4.55-3.39,2.28-6.52,4.89-9.79,7.32-.71.52-1.56.58-2.27,1a5.17,5.17,0,0,0-3.4-1.41,29.48,29.48,0,0,0-9.87-.25C260.52,117.71,259.93,117.49,259.91,116.58Z"/><path class="cls-18" d="M306.67,137.76a3.32,3.32,0,0,1,4,.5c-1.56.12-1.93,1.26-2.39,2.5-1.29,3.4-2.09,7-3.47,10.33-.08.21-.11.46-.27.6a2.36,2.36,0,0,0-.47,2.75c-1,.13-1.54-.75-2.41-.91a3.76,3.76,0,0,1-1.05-.43h-.85c-.28-.31-1-.11-1-.72s.56-.6.92-.84c2.85-1.9,4.69-4.42,4.85-7.94a3.1,3.1,0,0,1,.79-2.29,1.69,1.69,0,0,0,.54-1.44A2.46,2.46,0,0,1,306.67,137.76Z"/><path class="cls-19" d="M350,243.09c-.53.28-1.05-.15-1.57,0h-.05c-1.64-.25-2.56-1.63-3.82-2.45a65.47,65.47,0,0,1-5.83-4.7,34.6,34.6,0,0,1-2.55-2.84c-.55-.57-.33-1.26,0-1.94,1.07-2,2.52-3.7,3.27-5.85a14.82,14.82,0,0,0,.57-2.15c0-2.39,1.64-3.91,3.12-5.46a7.33,7.33,0,0,0,1.94-2.46A21.71,21.71,0,0,1,349.6,208c1.19-1.36,2.29-2.8,3.4-4.22a3.88,3.88,0,0,1,4.14-1.71c4.12,2.07,4,4.82,1.82,8.13-1.78,2.75-3.54,5.51-5.6,8.1a56.29,56.29,0,0,0-3.82,6c-1.48,2.48-.48,3.38,1,5.17a4,4,0,0,0,2.09,1.32,1,1,0,0,1,.76.67c.47.43,1.06.73,1.36,1.33a2.5,2.5,0,0,0-.86,2.32,2.21,2.21,0,0,1-.57,1.82,42.22,42.22,0,0,0-2.68,3.58A3.28,3.28,0,0,0,350,243.09Z"/><path class="cls-20" d="M311.19,83.47c0-.3,0-.7-.13-.89-1.4-1.6-1.45-3.67-2-5.55-.27-.86-.69-1.68-1-2.51,1.84-.26,1.9-1.86,2.06-3.1a27.21,27.21,0,0,1,1.13-5.72c.37-1.06,1.42-1,2.14-1.53a42.8,42.8,0,0,0,5.09-.52c2-.44,4.09.11,6-.54s4.18-.43,6.28-.53c2.37-.12,4.77.21,7.07-.94a2.3,2.3,0,0,1,3.06,1.06c.8,1.35,1.82,2.57,2.58,3.94.86,1.57,2.31,2.49,3.59,3.61a3.93,3.93,0,0,0-1.46,2.56,5.06,5.06,0,0,1-2.73,3.67c-.15.08-.39.13-.45.27-.76,1.8-2.35,3.27-2.26,5.42-1.91,0-2.36-.47-2.39-2.4,0-.43,0-.86,0-1.29a3.52,3.52,0,0,1,.52-1.87,15.13,15.13,0,0,0,.57-4.39c-.1-1.7-1.73-3.06-3.26-2.36a17.81,17.81,0,0,1-3.4.76,35.86,35.86,0,0,1-7.44.76c-2.15.11-4.31.16-6.46.23a2.75,2.75,0,0,0-2.45,1.75c-.31.66.07,1.26.68,1.67a9.16,9.16,0,0,0,1.44,2.64c.85,1.44.3,2.51-1.17,3.23C314.91,81.8,312.91,82.33,311.19,83.47Z"/><path class="cls-21" d="M340.12,82.17c-.55-.29-.7-.5-.39-1.24.56-1.32,1.79-2.32,1.82-3.89,0-.33.4-.57.74-.7a4.78,4.78,0,0,0,3-3.82c.21-.91.19-2.25,1.73-2.27,1-.18,2,.78,2.94-.24,2.4.15,4.53-.91,6.72-1.62a9.53,9.53,0,0,1,1.93-.3,28.62,28.62,0,0,0,5.17-1.17c2.86-.86,5.8-.79,8.63-1.51,1.67-.42,3.42,0,5.12-.41a8.83,8.83,0,0,1,3.49-.57c.07.6-.46.8-.76,1.15a42.78,42.78,0,0,1-6.91,1.07c-2.08,0-4.15.2-6.22.3a12.8,12.8,0,0,0-2.8.79c-3.23.88-6.54,1.46-9.75,2.47-1.47.46-3,.66-4.52,1A4.11,4.11,0,0,0,347,74.05a4.42,4.42,0,0,1-2.62,2.8,2.63,2.63,0,0,0-1.6,1.64c-.74,2-.07,3,2.12,3,.18,0,0,0,.13,0a68,68,0,0,1,7.58-.46,15.72,15.72,0,0,0,7.26-1.78,56.77,56.77,0,0,1,8.6-3.07,20.28,20.28,0,0,1,4.39-.92,7.22,7.22,0,0,0,1.94.51,1,1,0,0,1,.36.19.3.3,0,0,1,0,.37,12.78,12.78,0,0,0-6.37,1c-1.14-.08-2.06.64-3.12.9a54.14,54.14,0,0,0-6,2.07,23.54,23.54,0,0,1-8.19,1.81,34.86,34.86,0,0,0-5.68.21C343.9,82.71,342,82.17,340.12,82.17Z"/><path class="cls-22" d="M380.22,65.24l.8-.81h.78c1,.23,1.23,1,1.29,1.85a10,10,0,0,0,.55,2.65,10.43,10.43,0,0,0,1.23,6.35c1.3,2.14,2.37,4.47,4.31,6.25,3.49,3.19,7.56,5.55,11.36,8.3,2,1.45,4.45,2.06,6.34,3.65,2,1.72,4.78,2.21,6.8,3.92,1.43,1.21,3.29,1.65,4.77,2.76a3.4,3.4,0,0,1,.82.83c.32.48.77,1,.33,1.54a1.74,1.74,0,0,1-1.85.72,24.31,24.31,0,0,1-5.37-2c-1.78-.77-3.68-1.32-5.4-2.21-3.28-1.7-6.76-2.91-10.13-4.38-2.43-1.05-4.92-2-7.33-3.09q-4.26-1.92-8.45-4c-1-.47-1.13-1.62-1.65-2.46-.28-.44-.52-.91-.83-1.34l.15-.13c.8-.09,1.11.55,1.35,1.07a5.68,5.68,0,0,0,3.48,3c2.68,1,5.05,2.68,7.73,3.72a18.05,18.05,0,0,0,4.14,1.34,11.56,11.56,0,0,1,4.19,1.81,89.36,89.36,0,0,0,8.64,3.89c2.45,1.09,5.07,1.76,7.33,3.28.76.51,1.89.86,2.37,0s-.69-1.44-1.34-1.61c-2.41-.64-3.9-2.75-6.11-3.59-2.48-.95-4.49-2.61-6.7-4a1.05,1.05,0,0,0-.34-.19c-2.84-.59-5-2.45-7.15-4.12-2.94-2.23-6.05-4.27-8.59-7a18.27,18.27,0,0,1-2.4-3.63,3,3,0,0,1-.18-.36,14.15,14.15,0,0,1-2.66-8.13c0-.21,0-.43,0-.64C382.37,67,382.17,65.52,380.22,65.24Z"/><path class="cls-22" d="M375.16,76.37v-.28a.59.59,0,0,1,.61-.11,2.78,2.78,0,0,1,1.29,1.75A21.08,21.08,0,0,0,378.67,82a1.44,1.44,0,0,1,0,1.73l-.07.07C377.11,81.47,376.67,78.67,375.16,76.37Z"/><path class="cls-21" d="M383.64,68.94a3.26,3.26,0,0,1-.73-2.3,2.59,2.59,0,0,0-1.11-2.2,1.16,1.16,0,0,1,1.35,1.13C383.31,66.69,383.48,67.81,383.64,68.94Z"/><path class="cls-23" d="M300.58,153.1c1.26.11,2.27.9,3.41,1.32,1.8.92,2.69,2.74,4.08,4.06,3.24,3.1,5.93,6.71,9.25,9.77a114.13,114.13,0,0,1,10.54,10.89c.29.34.63.63.92,1a17.72,17.72,0,0,1,1.66,4.83c1.09,4.11,2.22,8.21,3.24,12.34.56,2.23,1.47,4.4,2.14,6.62a6,6,0,0,1,.41,1.66,1.24,1.24,0,0,1-.38,1c-1.17-3.49-2.21-7-3.26-10.53-1.36-4.55-2.49-9.16-3.73-13.74a6.22,6.22,0,0,0-2.28-3.28c-2.11-2.24-4.31-4.4-6.43-6.62-3-3.14-6.29-6-9.11-9.32-1.74-2.06-3.72-4-5.56-6C304.06,155.55,302.69,153.86,300.58,153.1Z"/><path class="cls-24" d="M353.38,231.43c-1-.64-2.31-.8-3.11-1.88-1.73-2.38-2.65-3-.6-6s3.68-5.91,5.9-8.66a27.11,27.11,0,0,0,4.26-7.18c.8-2.05-.22-4.09-2.75-5.42a2.33,2.33,0,0,0-1.13-.27.94.94,0,0,1-.89-.69c-.53-2.33-2.49-3.64-3.85-5.37-.61-.78-1.64-1.24-1.78-2.37a.76.76,0,0,1,.25-.54c2.67,2.85,5.31,5.74,8.05,8.53a19.52,19.52,0,0,1,3,3.3,2.5,2.5,0,0,1,.11,2.63c-1,1.92-2.24,3.75-3.44,5.58-2.11,3.23-4.48,6.28-6.5,9.56-.28.45-.65.84-.91,1.29-1.41,2.45-1.1,4,1.39,5.78a16.67,16.67,0,0,0,1.48.85c.39.25.87.38,1.11.82Z"/><path class="cls-25" d="M349.68,193.08v.53a8.65,8.65,0,0,1-5.3-4.77,10,10,0,0,1-.92-4.09c-.06-1.58-.63-3.09-.79-4.67-.47-4.59-1.25-9.13-2-13.67a16.91,16.91,0,0,0-.31-2.73,6.76,6.76,0,0,0-2.66-3.34c-.57-.7-1.84-.91-1.53-2.21.65.31,1.1,1,1.86,1.06a15.45,15.45,0,0,1,2.65,2.65l.53,1.33a11.71,11.71,0,0,0,.81,4h0c.37,1.12-.12,2.31.26,3.44h0a44.11,44.11,0,0,1,1.06,7.67,29,29,0,0,1,.87,5.94,8.66,8.66,0,0,0,2.49,6A29.46,29.46,0,0,0,349.68,193.08Z"/><path class="cls-12" d="M343.3,178.24c-.62-1-.22-2.21-.37-3.31-.21-1.46-.91-2.85-.69-4.36A20.78,20.78,0,0,1,343.3,178.24Z"/><path class="cls-12" d="M340.64,161.84a17,17,0,0,1-2.65-2.65A5.27,5.27,0,0,1,340.64,161.84Z"/><path class="cls-12" d="M342,167.13c-1-1.17-.75-2.6-.81-4Z"/><path class="cls-12" d="M342.24,170.57c-.55-1.12-.13-2.3-.26-3.44C342.54,168.24,342.12,169.42,342.24,170.57Z"/><path class="cls-26" d="M335.85,206.58l0-1.09a.37.37,0,0,1,.43.22c.79,2.39,2.78,4.35,2.73,7,0,2.45.75,4.74,1.12,7.1.18,1.13-.4,2.29.21,3.37-.61,3-2.3,5.55-3.91,8.09a1.51,1.51,0,0,0,.16,2.09c2.56,3.07,5.77,5.37,8.93,7.75a11.92,11.92,0,0,0,2.78,1.93c-1.31.22-2-.87-2.85-1.45a68.57,68.57,0,0,1-6.87-5.52,23.83,23.83,0,0,1-2.76-3,1.81,1.81,0,0,1,0-2.31,36.09,36.09,0,0,0,3.46-6c.61-2,.11-4-.3-6s-1.17-3.7-1.39-5.68a21.19,21.19,0,0,0-1.37-4.59A4.69,4.69,0,0,1,335.85,206.58Z"/><path class="cls-27" d="M336.13,158.13c.15,1,1,1.26,1.6,1.85-2.79.8-3.25,3.43-4.25,5.55a8.33,8.33,0,0,0-1,3.76,15.63,15.63,0,0,1-1.38,4.48c-1.61,1.81-2.13,4.07-2.64,6.33-1.87-2-3.67-4.11-5.64-6-2.2-2.13-4.22-4.44-6.61-6.38-1.75-1.42-2.94-3.38-4.52-4.95-2.68-2.66-5.09-5.57-7.66-8.33-.9-.9-.49-1.54,0-2.66,1-2.4,2.41-4.7,2.67-7.36a5.11,5.11,0,0,1,.74-2.33,10.57,10.57,0,0,0,.85-2.2c.63-1.86.62-1.86,2.42-1.61,1.64.63,2.72,2.05,4.15,3,2.26,1.5,4.46,3.09,6.65,4.68,1,.7,1.78,1.58,2.74,2.25C328.45,151.16,331.83,155.19,336.13,158.13Z"/><path class="cls-28" d="M328.42,180.1a7.81,7.81,0,0,1,2.4-6.34,2.06,2.06,0,0,1-.09,1.9,3.81,3.81,0,0,0,0,2.58,2,2,0,0,1-.52,2.41.84.84,0,0,0-.18,1.18,8.17,8.17,0,0,0,.68,1.14c1.88,2.56,2.42,5.52,2.63,8.59a4.18,4.18,0,0,0,.36,1.67,1.63,1.63,0,0,1,.32.86c-.33,2.33,1.35,4,1.94,6,.12.41.28,1,.79.93s.49-.66.59-1.07c.45-2.09.65-2.24,2.72-1.8a1,1,0,0,0,1.13-.47,3.73,3.73,0,0,0,.85-3.08,5.81,5.81,0,0,1,.41-3.62c.6-1.42,1.18-2.91-.11-4.32a1.09,1.09,0,0,1-.24-.75,52.07,52.07,0,0,0-2-14.42,4.57,4.57,0,0,1-.29-1.95c.35-1.82-.69-3.52-.34-5.32a.61.61,0,0,0-.51-.68.77.77,0,0,0-.92.33c-.43.6-.9,1.52-1.73.78s-.06-1.49.52-2.09l.2-.18c.29-.3.39-.62,0-.91a.51.51,0,0,0-.85.29,4.52,4.52,0,0,1-1.58,2.63c-.47.38-.19,1.17-.12,1.78.2,1.67-.56,2.65-2.33,3a13.84,13.84,0,0,1,2.06-6.14,6.89,6.89,0,0,0,.7-1.27,2.45,2.45,0,0,1,2.81-1.85c2.24,1.32,3,3.31,3.27,5.86.42,3.37.88,6.76,1.61,10.1.41,1.86.23,3.86.71,5.73.59,2.28.4,4.69,1.3,6.92.71,1.77,2.14,2.84,3.53,4,.48.38,1,.7,1.52,1.05a1.68,1.68,0,0,0,.8,1.16c1.72,1.45,2.9,3.38,4.51,4.94a1,1,0,0,1,.17.19c1,1.79,1,1.79,1.93,2.42-2.53-.53-3.68,1.34-4.84,3-1.8,2.49-4.13,4.58-5.6,7.32a8,8,0,0,0-.72,1.39,10,10,0,0,1-2.81,4.19c-1.34,1.31-2.92,2.78-2.74,5-.44-.19-.5-.56-.51-1a17.77,17.77,0,0,0-1-6c-.49-1.3,0-2.86-.35-4.3a7.61,7.61,0,0,0-1.24-3.1,14.53,14.53,0,0,1-1.43-3.32c-.6-1.67-.84-3.43-1.58-5.07a27.3,27.3,0,0,1-1.1-3.57c-.95-3.3-1.65-6.66-2.68-9.94-.47-1.51-.93-3.07-1.29-4.63A4.67,4.67,0,0,0,328.42,180.1Z"/><path class="cls-29" d="M375.7,76.1h-.78c-.58-.32-1.28-.2-1.87-.51a58.66,58.66,0,0,0-8.13,2.16c-2.63.87-5.07,2.4-7.72,3-2.38.5-4.9,1.7-7.48.5a1.73,1.73,0,0,0-1.41.18,10.42,10.42,0,0,1-4.43.55,1.64,1.64,0,0,1-1.57-1,3.43,3.43,0,0,1,1.66-4.3A3.92,3.92,0,0,0,346.61,74a4,4,0,0,1,3.16-3c4.1-.88,8.22-1.8,12.23-3a41.73,41.73,0,0,1,11.9-1.68,43.24,43.24,0,0,0,6.32-1c2.1,0,2.09,0,2.41,2.17a7.31,7.31,0,0,1,.24,1.81.67.67,0,0,1-.74.08,1.32,1.32,0,0,0-1.8.57c-.7,1.06-1.9,1.52-2.83,2.32s-1.94,1.89-1.59,3.45A.49.49,0,0,1,375.7,76.1Z"/><path class="cls-22" d="M373.05,75.57a2.13,2.13,0,0,1,1.87.51C374.25,76.09,373.55,76.17,373.05,75.57Z"/><path class="cls-30" d="M375.7,76.1c-.37-2.37.35-3.69,2.81-5.1.46-.27,1-.5,1.23-1,.76-1.46,1.82-1.55,3.13-.82.23,2.76.64,5.46,2.51,7.7a1.41,1.41,0,0,1,.15.49c-1.44.27-2,0-2.2-1.43s-1.18-2.65-1.72-4c-.28-.7-1.7-.52-2.41.27a5.84,5.84,0,0,0-1.17,6,6,6,0,0,0,1.46,2.78,1.73,1.73,0,0,1,.43,1c.53,2.77,2.43,4.26,4.92,5.15a6.31,6.31,0,0,1,2.49,1.45,8,8,0,0,0,2.88,1.59c1,.43,1.51-.68,2.18-1.16s.07-.87-.19-1.27a2.13,2.13,0,0,1-.37-1.11,2.18,2.18,0,0,0-2-2.25,4.66,4.66,0,0,1-2.05-.89,3,3,0,0,0-2.39-.89,1,1,0,0,1-1.13-.75c-.17-.53-.22-1.21.26-1.46,1.08-.57,1.06-1.35.77-2.31a.71.71,0,0,1,.25-.72c2,3.88,5.35,6.33,8.76,8.86a57.94,57.94,0,0,1,5.42,4.1,4.48,4.48,0,0,0,2.35,1.11,9.69,9.69,0,0,1,3.47,1.77,19,19,0,0,0,4.39,2.57,7.21,7.21,0,0,1,3.57,2.34,3.6,3.6,0,0,0,2.17,1.18,5.57,5.57,0,0,1,2.47,1.45c.32.28.74.58.48,1.1a1.31,1.31,0,0,1-1.19.68c-1.43.15-2.5-.66-3.57-1.34a8.8,8.8,0,0,0-3-1.37c-1.89-.38-3.54-1.46-5.33-2.15-1.51-.58-2.85-1.53-4.5-1.84a4.17,4.17,0,0,1-2.25-1.25A4.14,4.14,0,0,0,396,93.3c-3.86-.68-7.19-2.55-10.57-4.37a15.28,15.28,0,0,0-3-1.34,3.18,3.18,0,0,1-2.09-1.79c-.41-.77-.73-1.73-1.71-2.08a3.39,3.39,0,0,0-.67-2.15,11.39,11.39,0,0,1-1.12-3.09A8.12,8.12,0,0,0,375.7,76.1Z"/><path class="cls-31" d="M332.16,169.24l1.28-.93a1.73,1.73,0,0,0,.76-1.93c-.19-1.06-.86-2.36,1-2.87.52-.15.42-.9.46-1.43a1.25,1.25,0,0,1,1-1.24c.54-.13.81.26,1.05.64s.39.89-.25,1.17a1.35,1.35,0,0,0-.56.33c-.29.41-.85.72-.62,1.36a.52.52,0,0,0,.51.36c.64,0,.82-.53.91-1,.26-1.22,1.08-.64,1.65-.5s.91.63.52,1.31a1.41,1.41,0,0,0,.26,1.91.81.81,0,0,1,.21.85,7.52,7.52,0,0,0,.07,3.77,83.93,83.93,0,0,1,1.75,8.74c.23,1.55.39,3.15.48,4.66a7.23,7.23,0,0,0,.76,3.3c.64,1.18-.22,2.4-.66,3.49a5,5,0,0,0-.32,3.33c.48,1.72-.58,2.85-1.43,4-.35.49-.76.07-1.15-.15-1.19-.68-1.89-.3-2.07,1.09a3.85,3.85,0,0,1-.15.9c-.18.45,0,1.2-.72,1.25s-.95-.57-1.15-1.1c-.45-1.17-.62-2.48-1.69-3.34a.55.55,0,0,1-.17-.35c0-1.67-.68-3.24-.82-4.83-.32-3.47-.94-6.74-3.06-9.62-.54-.73-1.46-1.71.28-2.32.46-.17.45-.86.27-1.2-.95-1.82,0-3.49.3-5.21C331.27,172.25,331.72,170.74,332.16,169.24Z"/><path class="cls-32" d="M385.53,77.41a2.85,2.85,0,0,0,.21,1.29c.32.79.56,1.52-.74,1.7-.69.11-.59.82-.5,1.32a.79.79,0,0,0,1.11.62c.84-.34,1.3.07,1.87.55a4.62,4.62,0,0,0,2.45,1.2c1.52.18,2.14,1,2.22,2.57a1.51,1.51,0,0,0,.5,1.16c.81.69.69,1.35-.21,1.72-.74.3-1,1.46-1.73,1.28a14.43,14.43,0,0,1-3.09-1.44,3.27,3.27,0,0,1-.77-.72,3.06,3.06,0,0,0-1.68-1c-2.4-.47-3.88-2.19-5.3-4a1.66,1.66,0,0,1-.18-.88,3.84,3.84,0,0,0-.82-2,9.14,9.14,0,0,1-1.46-3.93,6.28,6.28,0,0,1,1.21-4.54,2.06,2.06,0,0,1,1.28-1.06c1.74-.4,1.71-.4,2.42,1.34.52,1.28,1.4,2.39,1.45,3.91,0,.83,1.16.53,1.76.83Z"/></g><g id="DFe"><path class="cls-33" d="M421.65,154.16V113.55c0-3.21.65-3.85,3.87-3.86,5,0,9.91.16,14.85-.08,4.24-.21,8.48-.07,12.72-.15a24,24,0,0,1,3.68.27c1.85.25,2.66,1.08,2.8,3.1a32,32,0,0,1-.4,7.62,1.85,1.85,0,0,1-2.12,1.68q-4.05,0-8.1,0H436.66c-1.68,0-2.26.56-2.26,2.2q0,10.52,0,21c0,1.65.26,1.89,2,1.89h20.31c2.18,0,2.41.15,2.85,2.23a22.23,22.23,0,0,1-.06,8.37c-.33,1.85-.71,2.09-2.59,2.1h-20c-2.44,0-2.46,0-2.42,2.38.06,3.86.2,7.71.22,11.57,0,6.43,0,12.85,0,19.28,0,1.11-.26,2.18-.27,3.28a1.13,1.13,0,0,1-.85,1.07,4.77,4.77,0,0,1-1.55.27c-2.57,0-5.13,0-7.7,0-2.22,0-2.63-.44-2.63-2.63Z"/><path class="cls-34" d="M468.88,188.06l-2.65-4.25c-.24-.46-.69-.79-.75-1.34a3.31,3.31,0,0,0-.81-2.66l0-.5c-.26-2.74-1.24-5.36-1.07-8.19a74.73,74.73,0,0,0,0-8.06,35.09,35.09,0,0,1,.94-8.49,21.77,21.77,0,0,1,5.66-10.86c.38-.21.68-.67,1.21-.36a2.15,2.15,0,0,1-.68,2.5,10,10,0,0,0-2.81,5.43,3.09,3.09,0,0,1-.85,1.47,7.17,7.17,0,0,0-1.73,4.87,20.2,20.2,0,0,1-.31,3.81c-.59,4.09.4,8.07.68,12.09.12,1.79.41,3.57.45,5.38a5.83,5.83,0,0,0,1.57,3.44c1.07,1.29,1.67,2.92,3,4a1,1,0,0,1,.36.69c.16,1.71,1.29,2.61,2.68,3.35a13.5,13.5,0,0,1,2.36,1.71,7.35,7.35,0,0,0,4.09,2,4,4,0,0,1,2,.72,8,8,0,0,0,5.05,1.24c2.05,0,4.07.18,6.09.38a26.25,26.25,0,0,0,5-.5c1.09-.1,1.39-1.18,1.5-2.09a37.65,37.65,0,0,0,.06-4.63c0-.78-.58-1-1.2-1.19-2.87-1.05-5.83-.89-8.78-.58a7.1,7.1,0,0,1-3.24-.41c-1.95-.71-3.85-1-5.6.53a2.18,2.18,0,0,1-1.75.46,1.31,1.31,0,0,1-1.24-1c-.14-.63.27-1,.76-1.25s1.22-.32,1.09-1.11a2.22,2.22,0,0,0-1.49-1.88,5.36,5.36,0,0,1-3.2-3.15,11.82,11.82,0,0,1-1-5.8,3.7,3.7,0,0,1,3.6-3.4,9.77,9.77,0,0,0,5.62-2.19,7.28,7.28,0,0,1,6.32-1.6c.56.51.08.85-.25,1.12-.54.42-1,.92-1.56,1.33a18.5,18.5,0,0,1-1.7.91,3.21,3.21,0,0,0-2.16,1c-1,0-1.76.81-2.77.82a33.68,33.68,0,0,0-4.49.22,1.34,1.34,0,0,0-.75.81,6.82,6.82,0,0,0,.05,2.81c1.12,3.56,3,6.51,6.57,8.09a11,11,0,0,0,5,1.33c2.56-.11,5.13,0,7.69,0,1.33,0,2.62.32,4,.28a1.4,1.4,0,0,1,1.46,1.27,8.55,8.55,0,0,1,.36,3,49.15,49.15,0,0,0-.22,5.94c0,1.62-.36,2-1.95,2-3.93,0-7.87.14-11.8,0a18.62,18.62,0,0,1-6.89-1.55c-.91-.42-1.89-.66-2.82-1.05a20.56,20.56,0,0,1-5.07-3.45c-.43-.35-1.07-.48-1.29-1.08l-.56-.51A7,7,0,0,0,468.88,188.06Z"/><path class="cls-35" d="M380,181.07c0-4.33-.14-7.82.05-11.29.14-2.7.12-5.4.14-8.09.1-13,.15-26.08,0-39.11-.05-3.51,0-7,.08-10.51a2.35,2.35,0,0,1,2.33-2.36c4.09-.07,8.2-.45,12.25.05,3.38.42,6.73,1,9.77,3a28.79,28.79,0,0,1,7.85,6.74,18.08,18.08,0,0,1,3.18,5.52c.19.65.75,1.15,1,1.85a43.69,43.69,0,0,1,1.39,11.94c0,2.77.14,5.53.16,8.3,0,6.13.13,12.26.06,18.39a96,96,0,0,1-.82,12.68,17.56,17.56,0,0,1-1.51,4.15c-.33.8-.73,1.59-1.07,2.38-1.35,3.12-3.81,5.21-6.32,7.3a24,24,0,0,1-8.15,4.45,23.44,23.44,0,0,1-6.2,1.15c-3.08.13-6.17-.14-9.26.15a15.17,15.17,0,0,1-3.28-.19c-1.1-.14-1.26-1-1.33-2C379.84,190.45,380,185.33,380,181.07Z"/><path class="cls-36" d="M481.38,171.63c.8-.54,1.82-.4,2.65-.81a3.25,3.25,0,0,1,2.14-1,3.67,3.67,0,0,1,1.59-.82,42.11,42.11,0,0,0,8.33-8.16,17.69,17.69,0,0,0,3-6.22,16.14,16.14,0,0,1,.87-2.35,31.72,31.72,0,0,0,.16-4,1.06,1.06,0,0,1,.22-.62.28.28,0,0,1,.39-.06c0,.8,0,1.59,0,2.38a16.57,16.57,0,0,1-2.17,8.52c-2.3,4.55-6,7.88-10,10.8-1.47,1.06-3.39,1.49-5.06,2.24-1.92.86-3.88.46-5.77.93-.85.21-1.4.54-1.44,1.55-.12,3.24,2.9,7.89,5.82,9.3a16.7,16.7,0,0,0,7.95,1.64,64.37,64.37,0,0,1,9.62.21c1.53.19,1.84.59,1.85,2.15,0,2.73,0,5.47,0,8.2,0,1.51-.58,2.31-2.06,2.31-4.63,0-9.27.3-13.9-.16a26.29,26.29,0,0,1-8.31-2.52,28.92,28.92,0,0,1-5.6-3.77c-.31-.24-.69-.44-.6-.93,1.37.41,2.16,1.63,3.29,2.38A19.41,19.41,0,0,0,478.2,195a30.47,30.47,0,0,0,9.66,2.27c3.71.09,7.43,0,11.14,0,1.05,0,1.6-.26,1.5-1.41-.23-2.85.4-5.69,0-8.55-.15-1.14-.5-1.65-1.78-1.75-4.1-.3-8.23.09-12.3-.29a11.88,11.88,0,0,1-8.58-5,12.05,12.05,0,0,1-2.07-4.69,7.13,7.13,0,0,1,0-2.91.83.83,0,0,1,.53-.79,22.16,22.16,0,0,1,3.64-.13A3.07,3.07,0,0,0,481.38,171.63Z"/><path class="cls-37" d="M500.77,147.54h-.27c-.49-.45-.36-1.06-.36-1.62,0-2.68,0-5.37,0-8.06A1.68,1.68,0,0,0,498.7,136a6.28,6.28,0,0,0-1.43-.23c-3.36,0-6.73-.19-10.08.07a28.15,28.15,0,0,0-7,1.56c-3.85,1.32-6.66,4-9.68,6.44A20.29,20.29,0,0,0,466,150.4a26.61,26.61,0,0,0-1.42,5c-1.37,5.88-.49,11.82-.77,17.73-.08,1.7,1.16,3.14.83,4.87a8.16,8.16,0,0,0,0,1.31,14.15,14.15,0,0,1-1.26-5.7c-.09-4.67,0-9.35,0-14a28.64,28.64,0,0,1,.88-5,22.19,22.19,0,0,1,5.58-11,24.89,24.89,0,0,1,8.17-6.3,23.16,23.16,0,0,1,9.45-2.42c3.4-.06,6.81,0,10.22,0a11.45,11.45,0,0,1,1.83.23,1.73,1.73,0,0,1,1.56,2c0,2.25-.08,4.51,0,6.75A10.43,10.43,0,0,1,500.77,147.54Z"/><path class="cls-37" d="M468.88,188.06a1.93,1.93,0,0,1,1.63,1.81A3.22,3.22,0,0,1,468.88,188.06Z"/><path class="cls-37" d="M464.67,179.81c1.29.52.95,1.68,1.05,2.67-.86-.17-.08-1-.54-1.33C465,180.71,464.6,180.35,464.67,179.81Z"/><path class="cls-36" d="M465.18,181.15c.51.31,0,1,.54,1.33,0,.52.64.77.51,1.33C465.18,183.2,465.13,182.19,465.18,181.15Z"/><path class="cls-38" d="M455.62,121.61h-1.05a3.15,3.15,0,0,1-1.43.11H438.46a3.16,3.16,0,0,1-1.43-.11c-3,0-3.16.14-3.17,3.23q0,10.85-.06,21.7c0,1.16.83,1.27,1.73,1.27l13,0h8c1.47,0,2.27.7,2.29,2.11,0,2.55,0,5.11,0,7.67a1.42,1.42,0,0,1-1.29,1.57,23.41,23.41,0,0,1-3,.31c-6.07,0-12.13,0-18.19,0-2.05,0-2.54.43-2.44,2.48.48,10.35.14,20.71.25,31.07a10,10,0,0,1,0,1.45c-.34,2.31-.25,3-3,2.88-2.35-.07-4.69,0-7,0-1.34,0-1.84-.49-1.84-1.83,0-4.5,0-9,0-13.49a2.62,2.62,0,0,0,.12-1.3c0-1.59,0-3.17,0-4.76-.07-12.69.19-25.38.16-38.07,0-2.82-.13-5.62-.16-8.44,0-3.65.29-7.29.15-10.95a41.69,41.69,0,0,1-.14-4.61,4.87,4.87,0,0,1,.91-3.07h0a46.75,46.75,0,0,1,4.88-.23c2.43-.09,4.86,0,7.29,0,6.58,0,13.15-.16,19.73,0a9.17,9.17,0,0,1,2.61.28l.81.8c.62,2.77.07,5.56.09,8.33,0,.95-.93,1.4-1.85,1.57C456.4,121.53,456,121.37,455.62,121.61Z"/><path class="cls-39" d="M423.22,110.75a16,16,0,0,0-.62,6.29,38,38,0,0,1-.08,9.16,24.41,24.41,0,0,0,.06,5.4,20.93,20.93,0,0,1,.16,5.48,6.74,6.74,0,0,0,0,1.19c0,6.17.21,12.35-.06,18.52-.35,8-.06,16-.21,24,0,.39.1.81-.25,1.12q0-34.45,0-68.91C422.18,112.17,422,111.13,423.22,110.75Z"/><path class="cls-39" d="M457.73,110.77c-11.5-.24-23,.08-34.51,0a16.29,16.29,0,0,1,4.8-.47c9.06-.09,18.13,0,27.19,0A4.27,4.27,0,0,1,457.73,110.77Z"/><path class="cls-39" d="M437,121.62h17.54c-.32.33-.73.24-1.12.24h-15.3C437.77,121.86,437.35,122,437,121.62Z"/><path class="cls-39" d="M455.62,121.61c.22-.3.54-.23.84-.27a2.06,2.06,0,0,0,2.08-2.31c0-2.49,0-5,0-7.46a8.62,8.62,0,0,1,.44,4.76,13.49,13.49,0,0,0-.15,2.1C459,121,458.05,121.87,455.62,121.61Z"/><path class="cls-40" d="M489.88,166.87c-2.08-.46-3.83.74-5.73,1.15a.9.9,0,0,0-.58.31c-1.5,2.31-3.9,2.33-6.26,2.51a3.26,3.26,0,0,0-2.81,3,11.33,11.33,0,0,0,1.74,6.9,3.61,3.61,0,0,0,2.17,1.62c1.42.3,1.68,1.43,2,2.49.24.76-.42.9-1,1.06s-1.38.26-1.12,1.13,1,.79,1.68.65a1.78,1.78,0,0,0,.94-.46c1.71-1.78,3.67-1.24,5.62-.61a7.56,7.56,0,0,0,3.45.41,21.21,21.21,0,0,1,9.49.76,1,1,0,0,1,.76,1.08c0,1.67.05,3.35,0,5s-1,2.3-2.78,2.64c-3.58.68-7.09-.17-10.63-.1-1.62,0-3.33,0-4.72-1.22a2.71,2.71,0,0,0-1.45-.59,9.76,9.76,0,0,1-5.51-2.81,13.07,13.07,0,0,0-2.76-1.79,2.55,2.55,0,0,1-1.39-1.67c-.52-2.31-2.39-3.74-3.52-5.64a9.2,9.2,0,0,1-1.79-4.56,103.12,103.12,0,0,0-1.19-11.73c-.33-2.29.22-4.55.3-6.82,0-.69.16-1.4.14-2.1A7.31,7.31,0,0,1,467,152.2a1.65,1.65,0,0,0,.56-1,8.1,8.1,0,0,1,2.62-5.3,3.4,3.4,0,0,0,1.09-2.58c.3-1.28,1.7-1.41,2.41-2.27.2-.24.6-.34.87-.58,3-2.72,6.67-3.75,10.53-4.39a60.42,60.42,0,0,1,12.68-.29c2,.1,2.7.69,2.61,2.75s0,4.4,0,6.6a60.09,60.09,0,0,1-.67,7.47,15.37,15.37,0,0,1-2.05,5.4,30.4,30.4,0,0,1-6.56,8.31C490.74,166.61,490.51,167.18,489.88,166.87Z"/><path class="cls-41" d="M489.88,166.87c1-.23,1.43-1.13,2.11-1.74a22.43,22.43,0,0,0,4-4.87,31,31,0,0,0,3.35-7c.4-1.26.07-2.61.36-3.92.81-3.68.56-7.42.56-11.15,0-1.53-.53-1.9-2.07-2.07a52.14,52.14,0,0,0-7.8-.22,32,32,0,0,0-11.53,2.2,12.4,12.4,0,0,0-3.28,2c-1.36,1.14-3,1.84-4.25,3.18l-.82.51c.37-1.43,1.72-1.9,2.7-2.72a19.3,19.3,0,0,1,5.56-3.66,30,30,0,0,1,6.15-1.71,64.88,64.88,0,0,1,13.72-.13c1.32.09,2,.83,1.93,2.29-.09,3.21,0,6.43,0,9.65v.52c-.37,1.49.1,3-.25,4.51a63.3,63.3,0,0,1-2.72,6.61,21.24,21.24,0,0,1-2.61,3.55c-1.85,2.49-4.37,4.27-6.77,6.16a.92.92,0,0,1-.38.08C488.21,168,489.34,167.74,489.88,166.87Z"/><path class="cls-41" d="M481.38,171.63c-1.66.55-3.37.11-5.05.26C478,171.3,479.7,171.76,481.38,171.63Z"/><path class="cls-41" d="M486.17,169.79l-2.14,1A1.89,1.89,0,0,1,486.17,169.79Z"/><path class="cls-41" d="M475.8,172.68v2.91A3.52,3.52,0,0,1,475.8,172.68Z"/><path class="cls-42" d="M412.07,187.78c-2.38,2.43-4.69,5-7.9,6.34-2,.83-3.9,2.25-6.28,2.13a2.62,2.62,0,0,0-.89.21,16.05,16.05,0,0,1-5.72.85c-2.87-.08-5.75,0-8.63,0-.82,0-1.42-.2-1.58-1a18.88,18.88,0,0,1-.56-3.63q-.06-27.12,0-54.25,0-11.67,0-23.36a15.9,15.9,0,0,1,.46-3.37c.17-.81.66-1.1,1.49-1.2A76.42,76.42,0,0,1,394,110.3a26.14,26.14,0,0,1,5.93.9c4.06,1.09,7.1,3.64,10.07,6.21a18.35,18.35,0,0,1,4.3,5.9,35.84,35.84,0,0,1,2.43,5.72,11.14,11.14,0,0,1,.42,2.19c.13,2,.27,4,.27,6.06,0,11.29,0,22.58,0,33.87,0,2.07-.42,4.11-.28,6.19.07,1.08-.74,1.86-1.09,2.79-1,2.68-1.82,5.5-3.94,7.63-.51-.64-.27-1.23.14-1.81,1.87-2.66,2.68-5.82,4-8.72a4.35,4.35,0,0,0,.17-1.84c0-14.06,0-28.13,0-42.2a14.78,14.78,0,0,0-1.72-6.86c-1.32-2.53-2.52-5.16-4.5-7.3a25.77,25.77,0,0,0-10.57-7,18.11,18.11,0,0,0-6.38-.85c-3.1,0-6.19,0-9.29,0-1.8,0-2.11.36-2.27,2.16-.25,2.91,0,5.81,0,8.71q0,27.78,0,55.57c0,3.61-.33,7.21-.28,10.83,0,2.3.31,4.57.35,6.86a1.3,1.3,0,0,0,.47.66,13.29,13.29,0,0,0,4.7.22c1.81-.05,3.61-.07,5.41-.07a17,17,0,0,0,5-.78,48.2,48.2,0,0,0,4.67-1.28,8.37,8.37,0,0,0,1.16-.58,7.32,7.32,0,0,1,1-.65,15.71,15.71,0,0,0,5.51-4.14,2.39,2.39,0,0,1,.38-.46C410.67,187.69,411.23,187.13,412.07,187.78Z"/><path class="cls-37" d="M500.24,152.57c.12-1.5-.28-3,.25-4.51C500.36,149.56,500.8,151.09,500.24,152.57Z"/><path class="cls-43" d="M448.24,159.18A46.91,46.91,0,0,1,436.39,158c-1.33-.31-3.45,1.46-3.83,3.08a7.87,7.87,0,0,0,0,4,29.06,29.06,0,0,1,.79,8.36q0,9.39,0,18.79a8.7,8.7,0,0,1-.28,2.21c-.48,1.82-1.05,2.17-2.94,1.86a4.35,4.35,0,0,0-2,.11c-1.45.41-2.79-.16-4.11-.63a1.32,1.32,0,0,1-.81-1.26c-.15-4.3-.36-8.58-.08-12.91a91.4,91.4,0,0,0-.08-12.27,90.87,90.87,0,0,1-.15-9.34c.15-5.42,0-10.85.06-16.27,0-2.51,0-5,.17-7.52s-.32-4.8-.38-7.21c0-1.57.16-3.14.24-4.72.16-3,.71-6,.25-9a5.13,5.13,0,0,1,.14-2.23c.43-1.51,1-1.88,2.6-1.56a7.16,7.16,0,0,0,1.31.1c6.68,0,13.35.1,20,0,2.47-.06,4.91-.33,7.34.22a3.82,3.82,0,0,1,3.07,3.64c0,1.19,0,2.38,0,3.57a1.6,1.6,0,0,1-1.14,1.6,13,13,0,0,1-5.43.67,87,87,0,0,0-10.83.09c-1.58.16-3.19,0-4.78,0a2.31,2.31,0,0,0-2.51,2.42c-.06,2.24-.21,4.48-.21,6.7,0,5.06-.4,10.11-.35,15.18a7.54,7.54,0,0,0,1.42,3.77c.49.83,2.58,1.17,3.7.57a5.91,5.91,0,0,1,4-.63,24.12,24.12,0,0,0,3.71.05c3.15.07,6.31.16,9.46.27a2.64,2.64,0,0,1,2.66,1.79c.23.67,1.12.81,1.08,1.72-.05,1.19.08,2.37-1.19,3.09a1.65,1.65,0,0,0-.73.75c-.76,2.16-2.7,1.95-4.37,2.14C451.05,159.29,449.8,159.18,448.24,159.18Z"/><path class="cls-44" d="M489.34,148.83c-.76,4.23-2.58,8-7,10.27-1.47.76-3,.82-4.45,1.34s-2.54-.52-2.3-2.36a11.91,11.91,0,0,1,5.67-9.15c2.06-1.27,4.05-2.16,6.47-1.92C488.61,147.1,489.57,147.2,489.34,148.83Z"/><path class="cls-45" d="M412.07,187.78c-.83-.25-1.32.31-1.85.77a3.51,3.51,0,0,0-2.55-3.8c-.93-.32-1-2.4-.35-3.22.17-.21.38-.47.65-.41,1.27.31,2.82,0,3.62,1.47.2.36.39.81.91.81.1-.08.17-.16.14-.24-1.08-2.59-.64-5.3-.67-8a55.79,55.79,0,0,0-.48-5.79c-.13-1.12-.17-2.21.93-3a1.67,1.67,0,0,0,.58-1.55c-.07-6.92.18-13.84-.12-20.75-.06-1.36.2-2.73.13-4.1a3.05,3.05,0,0,0-.22-1.53,2.81,2.81,0,0,0-1.11,2.36c-.12,1.46.23,2.9.24,4.35,0,4.19.14,8.38,0,12.56-.11,2.51-.07,5-.27,7.52a11.73,11.73,0,0,1-1.89,5.58,7.53,7.53,0,0,0-1.37,5.38,4.55,4.55,0,0,1-.54,2.55,4.17,4.17,0,0,0-.53,1.21,2.48,2.48,0,0,1-2.68,2.49,4.33,4.33,0,0,0-.77.19c-2.15.56-2.43,1.5-.91,3a8,8,0,0,1,1,1.4c.25.38.95.61.61,1.16-.24.39-.82.17-1.25.17a20.42,20.42,0,0,1-5-.64,3,3,0,0,0-1.19-.1,1.25,1.25,0,0,0-1.14.77c-.17.51.22.81.54,1.11a25.32,25.32,0,0,1,3,2.76,3.16,3.16,0,0,0,2.44.85c.57,0,1.17-.08,1.63.39-1.6.88-3.16,1.94-5.07,1.83-1-.06-1.67.7-2.6.85a21.24,21.24,0,0,1-4.21.22c-3-.1-5.93.35-8.9,0-.34,0-.72.08-1-.27.42-.49,1.09-.19,1.58-.46-.63-1.48-.63-1.48.87-2.81-1.15-.58-1.72-.32-1.71.88a2.23,2.23,0,0,1-1,1.85,20,20,0,0,1-.49-5.44c.39-22.21.16-44.42.22-66.63,0-2.44-.11-4.88-.21-7.32a27.31,27.31,0,0,1,.4-4.31c.11-.87.66-1.24,1.57-1.24,4.61,0,9.22-.14,13.8.09a16.24,16.24,0,0,1,6.48,2.3,24.43,24.43,0,0,1,8,6.59,40.19,40.19,0,0,1,3.58,6.11,19.23,19.23,0,0,1,1.95,9.38c-.06,13.4-.08,26.81,0,40.21a12.06,12.06,0,0,1-1.19,4.39,60.66,60.66,0,0,1-2.54,5.57c-.38.78-1.45,1.25-1.08,2.37Z"/><path class="cls-46" d="M403.58,193.59c-.62,0-1.24,0-1.86,0a3.42,3.42,0,0,1-3.17-1.74c-.49-1-1.67-1.2-2.4-2-.43-.47-1-.78-.76-1.5a1.8,1.8,0,0,1,1.66-1.11c1.09-.16,2.06.4,3.09.59,1.44.25,2.87,0,4.49.43-1.46-1-1.87-2.55-3.19-3.38-.5-.32.46-2.11,1.27-2.33a24.94,24.94,0,0,1,2.83-.59c.66-.09,1.21-.35,1.18-1a5.49,5.49,0,0,1,.82-2.45,4.41,4.41,0,0,0,.38-2.66,6.45,6.45,0,0,1,1.25-4.85,11.93,11.93,0,0,0,2.1-6.39c.26-6.07.31-12.14.3-18.21,0-1.9-.37-3.75-.33-5.66,0-1.06.67-1.78,1-2.67.12-.31.49-.35.82-.26s.35.37.34.64a24,24,0,0,1-.16,4.87c-.18.71.18,1.29.18,1.94q0,10.05,0,20.1c0,.51,0,1.1-.5,1.27-1.32.47-1.25,1.54-1.07,2.5a56.12,56.12,0,0,1,.49,10.52,5.93,5.93,0,0,0,.66,3c.3.51.44,1.08-.12,1.39s-.88-.25-1.2-.59a2.58,2.58,0,0,1-.4-.66c-.38-.75-.83-1.38-1.84-1a1.24,1.24,0,0,1-.51,0c-.48,0-1.05-1.1-1.42.06-.31,1-.54,2,.46,2.76a2.75,2.75,0,0,0,.7.37c2,.77,2.12.89,1.61,3a3.07,3.07,0,0,0,0,.53l-.28.28a.92.92,0,0,1-.58.5c-2,.38-3.22,1.88-4.45,3.31a2.06,2.06,0,0,1-.53.4Z"/><path class="cls-46" d="M381.54,195.69c.15-.86,1.09-1.5.61-2.58-.14-.34.39-.78.87-.81s1.28-.26,1.76.24,0,.76-.41,1c-.92.46-2,.82-.43,1.91.5.35.22.78-.4.81s-1.14,0-1.71,0A.51.51,0,0,1,381.54,195.69Z"/><path class="cls-45" d="M404.38,193a7.83,7.83,0,0,1,5.56-4.21c-.38,1-1.36,1.58-2.14,2.18A9.34,9.34,0,0,1,404.38,193Z"/><path class="cls-47" d="M488.26,149.58a11.13,11.13,0,0,1-6.57,8.91,8.8,8.8,0,0,1-3.31,1c-2,.1-2.44-.31-2-2.19A12.62,12.62,0,0,1,485,147.9a9.33,9.33,0,0,1,1.69-.3C488,147.4,488.31,147.68,488.26,149.58Z"/><path class="cls-46" d="M385.79,156.42c0,5.74-.1,11.47,0,17.2.06,2.41-.06,4.81-.06,7.21,0,.9.16,1.67,1.1,2.06.12.05.32.15.32.21-.19,1.41,1.29,2.05,1.52,3.26.11.61.15,1.32,1.11,1,.19-.06.4,0,.44.16.3,1.26,2,1.12,2.35,2.35.07.21.49.42.77.46,1.16.17,1.45.57.48,1.43-.1.09-.25.22-.24.31.21,1.86-1.19,1.16-2,1.25-1.18.12-2.37.24-3.55.25-.87,0-1.81,0-2.09-1.18a.53.53,0,0,0-.24-.31c-2-1.14-1.62-3.06-1.36-4.75a5.44,5.44,0,0,0-1.27-4.75,2.9,2.9,0,0,1-.75-2c0-14.07-.14-28.14.09-42.2.08-5.19.05-10.39.18-15.58,0-1.36.28-1.58,1.57-1.29,1,.23,2.29-.08,2.81,1.28.11.27.47.12.72,0a11.66,11.66,0,0,1,1.24-.47c.73-.21,1.51-.42,2.11.22a1.68,1.68,0,0,1,.06,2c-.08.2-.24.49-.16.61a3,3,0,0,1-.45,3.64.39.39,0,0,0-.05.36c1.43,2.1.4,4.43.6,6.64a1.52,1.52,0,0,1-2.31,1.35c-.24-.11-.47-.24-.72-.34-1.38-.52-2.22,0-2.23,1.54Q385.78,147.36,385.79,156.42Z"/><path class="cls-48" d="M392.16,153.73V124c0-2,.46-2.39,2.43-2.37a9.73,9.73,0,0,1,5.76,2.28,14.49,14.49,0,0,1,4,4.39,11.15,11.15,0,0,1,1.64,5.45c0,13.48.07,27,0,40.46a9.83,9.83,0,0,1-3,6.92,12.87,12.87,0,0,1-5.38,3.62,11.71,11.71,0,0,1-3.66.68c-1.53,0-1.74-.25-1.74-1.8V153.73Z"/><path class="cls-49" d="M393,155.34c0-9,0-17.9,0-26.86,0-1.57-.51-3.11-.1-4.72.32-1.25.87-1.66,2.07-1.38a12.67,12.67,0,0,1,6.82,3.72,13,13,0,0,1,3,5.21c1.24,4.5.6,9,.66,13.53.13,9.35.19,18.7,0,28a11.66,11.66,0,0,1-6.06,10.29,12.88,12.88,0,0,1-4.35,1.64c-1.77.28-2,0-2-1.83q0-11.84,0-23.68Z"/></g><g id="PowerShell"><g class="cls-50"><g id="Brazil-2" data-name="Brazil"><path class="cls-2" d="M-78.68,189.16l-4.63-6.62c.2-1.37,0-3,2-3.17,1.89.32,3.3-.5,4.66-1.73,7.22-6.55,15.68-11.12,24.43-15.21,2.64-1.24,5.32-2.09,8.18-.68,3.19,8.52,11.75,7.48,18.24,9.74,6.14,2.14,12.94,2.12,18.88,5.3,2,1.05,4.39.74,6.59,1,6.81.73,13.18,3.38,20,4.25,4.11.53,7.34-.3,10.36-3.45,8.4-8.73,17.48-16.78,26.27-25.11A4.27,4.27,0,0,1,59.23,152a2.32,2.32,0,0,1,1.33,1c.6,4.73,3.65,8.79,3.46,13.83-.08,2.24,2.1,4.1,3.11,6.22,3.68,7.65,2.8,15.37.25,23-.73,2.2-.54,3.18,1.6,3.76.89,1.77-.19,2.89-1.46,3.71-6.68,4.29-12.64,9.72-19.49,13.61a31.4,31.4,0,0,1-22.35,3.62c-7.63-1.66-15.45-2-23-3.95-15-3.83-30.35-6.22-45.19-10.72-8.32-2.53-16-6.67-24.09-9.77C-70.89,194.68-74.13,190.69-78.68,189.16Z"/><path class="cls-3" d="M372.5,312.27l-17.7,12.31c-5.48.16-10.74,1.75-16.06,2.81a23.72,23.72,0,0,1-9.89,0c-2.41-1.62-3-4.11-3.13-6.77-.11-2.09,0-4.2,0-6.29.13-4.9.73-9.8-2.49-14.18a3.69,3.69,0,0,1,.1-4.82c9.29.73,18.59-.36,27.94.53,6.47.62,13.23,1.48,19.75-1.32,2.49-1.07,5.74-1.22,7.69,1.74,1.48,2.25.33,7.33-2.34,9.87C374.56,307.9,372.86,309.63,372.5,312.27Z"/><path class="cls-4" d="M59.26,152.21c-4.81,3.51-8.44,8.3-13,12-6.29,5.12-11.53,11.28-17.19,17-1.87,1.89-4.64,2.06-7,2.1a26.35,26.35,0,0,1-9.4-1.54,66,66,0,0,0-18.1-3.46,4.23,4.23,0,0,1-2.11-.62c-3.86-2.76-8.48-3.31-12.92-4-6.76-1.07-13-3.72-19.66-5.26-3.18-.75-3.34-3.6-3.71-6.18.89-4.36,3.48-8.08,4.58-12.4,3.14-12.28,8.21-23.93,12.15-36a12.26,12.26,0,0,0,.52-6.57A71,71,0,0,0-31.1,92.88C-34.29,85.82-36.78,78.4-42,72.4a49.48,49.48,0,0,0-4.53-4.29c-4.74-4.24-10.2-7.77-13.92-13.06-2.41-3.43-2.42-4.85.2-8,5.07-6.06,9.3-12.82,15.9-17.59C-40.59,26.76-37.09,25.93-33,28a2.06,2.06,0,0,0,.33.17C-22.9,33-21.74,31.85-17.39,21a17.49,17.49,0,0,1,3.83-7.55c2.34-2.81,3.39-6.29,5.32-9.31,1.68-2.64.51-4.9-2.64-6.56C-13.69-3.93-17-4.57-19.15-7.2c-4-5.54-3.12-9.17,3-12a9.76,9.76,0,0,0,3.57-2.57c3.49-4.16,8.12-6.9,12.49-9.95.62-.43,1.33-1.36,2.18-.25-1.57,2.88-5.1,3.53-7,5.9-3.33,4.18-7.73,6.94-11.93,10-4,2.93-3.59,5.82,1,7.92,2.92,1.33,6,2.43,8.8,3.93C-2.79-2-2.11,1.28-4.51,5.36c-2.95,5-6.59,9.63-8.69,15.06-1.34,3.47-3.36,6.55-5,9.82-1.28,2.5-3.61,4.54-7,3.82-2.29-.5-4.75-.81-6.77-1.88C-39.75,28.05-42.4,30.4-48,36.86c-3.24,3.71-6.12,7.72-9.25,11.52-2.44,2.95-1.63,5.82,1.46,8.14,5.25,3.94,10.59,7.8,14.85,13,6.79,8.23,10.54,18,15.16,27.44s2,17.91-1.16,26.69c-3,8.38-6.36,16.62-8.44,25.33-1,4-3.1,7.77-4.65,11.66s-.82,5.64,3.25,6.8c5.11,1.45,10.29,2.7,15.47,3.92,13.1,3.08,26.25,6,39.33,9.18,4.93,1.21,9.15-.12,12.08-3.71,4-4.87,9.37-8.12,13.44-12.74,5-5.69,11.13-10.1,16.54-15.31a13,13,0,0,1,11.68-3.43c-.09.5-.28,1.12-.74,1.21C66.56,147.33,63.08,150.13,59.26,152.21Z"/><path class="cls-7" d="M-78.68,189.16a5.87,5.87,0,0,1,5.23,1.27c4.88,4.68,11.34,6.19,17.17,9,12.55,6.08,26,9.1,39.5,11.84,9.3,1.88,18.39,5.15,27.76,6.16,8.38.91,16.54,3.92,25.27,2.52,9.08-1.45,16.23-6.24,23-11.89a22.11,22.11,0,0,1,4.21-2.85c2.24-1.15,4.86-2.17,5.34-5.22a2.07,2.07,0,0,1,1.34-1.66c7.39-3,14.41,0,21.47,1.42,14.65,3,29.12,6.85,44,9,11.63,1.66,23.12,4.27,34.67,6.46a4.53,4.53,0,0,1,2.65,1.25,1.76,1.76,0,0,1,.35,1.56c-7.49-1.57-15.07-2.63-22.58-4-8.26-1.56-16.59-3-25-4-4.83-.59-9.28-2.48-14-3.41-11.4-2.22-22.76-4.63-34.16-6.83-2.3-.45-4.36.72-6.18,2.1-7,5.34-14.57,9.88-21.4,15.53a25.14,25.14,0,0,1-20.09,5.53,415.79,415.79,0,0,1-42.31-8.08c-14.44-3.45-29.09-6.06-42.81-12-5.78-2.48-11.42-5.27-17-8.18C-74.92,193.26-77.45,192.06-78.68,189.16Z"/><path class="cls-8" d="M102.65,146.52c5.52-1.73,11-.07,16.54,0,15.11.31,30,3.19,45.08,3.88,3.65.17,7.44.23,11,1.39,6.27,2,10.25,7.06,14.43,11.6,2.84,3.07,5.32,6.44,8.7,9a15,15,0,0,1,4.36,4.48c3.68,6.92,11,10.51,15.11,17,2.79,4.45,7.91,6.53,10.95,10.83,1.35,1.91,4.13,2.1,6.41,2.51,17.91,3.21,35.49,8.13,53.55,10.6a25.18,25.18,0,0,1,7.36,2.53c3.42,1.63,2.64,5.41,3.18,8.19,1,5.19.26,10.58.32,15.87.08,5.58,1.08,11.15.91,16.81-.23,7.35-.18,14.72-.05,22.08.1,5.81,4.86,9.48,11.15,8.93,1.7-.15,3.41-.94,5.12-.1a2.27,2.27,0,0,1-.86,2,15.86,15.86,0,0,1-13.9-1.6c-3.66-2.2-4.23-6.14-4.23-9.82,0-9.42-.32-18.83-.25-28.25.07-8.74.39-17.59-1.17-26.3a7.64,7.64,0,0,0-4.57-5.87c-4-2-8.42-2.05-12.67-2.84-10.49-1.95-20.83-4.55-31.33-6.44-4.36-.11-8.55-1.24-12.78-2.09-6-1.2-10.56-5.11-14.18-9.5a112.79,112.79,0,0,0-12-13c-3.73-5.92-8.66-10.77-13.78-15.45a5.49,5.49,0,0,1-.92-.75c-2-2.08-3.2-4.84-5.34-6.84a8.62,8.62,0,0,1-.86-.72c-2.68-2.18-5.08-4.66-7.57-7a19.43,19.43,0,0,1-3.43-2.41c-2.93-1.91-6.3-1.9-9.61-2.13a9,9,0,0,1-1,0c-17.28-1.11-34.37-4.33-51.73-4.55-3.2,0-6.34-1.06-9.6-.69A1.9,1.9,0,0,1,102.65,146.52Z"/><path class="cls-9" d="M372.5,312.27c-1.92-2.9.47-4.44,2.19-5.77A8.58,8.58,0,0,0,377.8,302c.59-2,1.62-4.14-.2-6s-4.44-1.51-6.26-.75c-8.3,3.5-16.78,1.72-25.16,1.22-5.58-.33-11.14-.89-16.57.49-2.52.64-3.75-1.77-5.88-1.47-1.88.11-4,1.16-5.32-1.14a2.62,2.62,0,0,1,1-1.3c5.9-.81,11.82-.25,17.72-.1,7.44.19,14.86.68,22.27,1.34,4.52.4,8.81-1.22,12.93-3,1.25-.56,2.46-1.19,3.76-1.64,2-.69,4.08-1.6,5.92.24a7,7,0,0,1,2,7.16,34.88,34.88,0,0,1-5.4,11Z"/><path class="cls-11" d="M173.25,218c-.28-.43-.56-.86-.85-1.29,3.88-1.8,7.21.26,9.82,2.32,7.05,5.58,13.74,11.63,20.66,17.37,5.86,4.85,11.58,9.86,17.67,14.45,3.92,2.95,8,5.71,11.54,9.22,2,2,4.87,2.88,6.78,5,2.62,3.05,6.37,4.62,9.31,7.3,7.43,6.82,15.25,13.21,22.48,20.26a30.07,30.07,0,0,1,4.63,6.24c.57.95,1.61,2.12,0,3.14-2.3-2-3.12-5.11-5.56-7-3.64-3.23-7.12-6.66-11-9.61-2.27-1.74-4.1-4-6.28-5.58-3.24-2.38-6-5.36-9.35-7.49a16.34,16.34,0,0,1-5.61-5.22,5.91,5.91,0,0,0-2.72-2.44c-4.47-1.92-7.31-6-11.26-8.6-3.73-2.48-7.28-5.25-10.78-8.05s-7-6-10.81-8.69c-5.19-3.65-8.87-9.11-14.5-12.26-.22-.12-.51-.23-.6-.42C184,221.19,178.14,220.34,173.25,218Z"/><path class="cls-12" d="M102.65,146.52c5.24.45,10.49,1,15.74,1.34,10.2.73,20.44.91,30.56,2.79,4.57.85,9.31.84,14,1.17a9.55,9.55,0,0,1,4,.77c-1.53,2.38-4,1-5.95,1.47-9.73.34-19.19-2.1-28.79-2.8-17.27-1.25-34.57-2.48-51.92-2.06-3.34.08-6.65-.91-10-.29-4.29-.6-6.88,2.64-10.06,4.52l-.9-1.22c2.66-3.21,5.75-5.65,10.15-5.93a7.86,7.86,0,0,0,2.33-1h.06c2.11,0,4.23-.08,6.33.09Z"/><path class="cls-13" d="M269.69,295.1c2.84,1.49,3.65,4.65,5.64,6.84,2.56,4.11,2.07,8.78,2.37,13.31.07,1-.08,2,0,3,.25,6.4.81,6.75,7,8.4,12,3.18,24.28,2.87,36.49,3.61a8.18,8.18,0,0,0,3.58-.9,7.61,7.61,0,0,1,1-.28,6.83,6.83,0,0,1,2.55-.28c5.7,1.18,11.17-.67,16.73-1.18,1.32-.12,3-.86,3.64,1.24-4.34,4.09-9.93,3.25-15.07,3.44-2.89.11-5.8-.35-8.78.08-11.15,1.63-22.18,0-33.2-1.48-2.83-.37-5.63-1-8.44-1.48-7.42-1.26-7.58-2.67-7.88-10.11a126.8,126.8,0,0,0-1.62-17.58C273.27,299.33,271.08,297.29,269.69,295.1Z"/><path class="cls-14" d="M378.6,308c0-3.63,3.35-5.92,3.86-9.38.18-1.21.9-2.37.94-3.56.13-4.28-2.77-6.25-6.76-4.56-5.25,2.2-10.38,4.95-16.25,4.72-9.14-.35-18.27-1-27.41-1.44-4.39-.19-8.8-.06-13.2-.08-1.3-.07-2.64,1.17-3.89-.12l.91-1.41c1.63-.92,3.35-.54,5.08-.5,12.45.25,24.88.26,37.3,1.73,4.73.56,9.25-2,13.66-3.93a39.49,39.49,0,0,1,7.69-2.42c3.42-.72,4.73,2,5.42,4.43C387.37,296.44,383.25,305.17,378.6,308Z"/><path class="cls-4" d="M78.13,145.4a8.7,8.7,0,0,1-6.33-.09A7,7,0,0,1,78.13,145.4Z"/><path class="cls-18" d="M60.16,153.43c2.25-3.78,5.37-5.9,10-5.21-3.4,2.77-2.42,6-1.51,9.6,2.51,9.92,6.37,19.43,8.6,29.42a4.53,4.53,0,0,1,.34,1.81c-.73,3.26,1,5.34,3.33,7.1-2,1.86-4.77.74-7,1.79a11,11,0,0,1-3.14.69L68.79,200c-1.15-.26-2.45,1.31-3.42-.08s.33-2.3.77-3.41c3.53-9,3.73-17.76-1.55-26.13-1.31-2.08-2.34-4-1.86-6.56a4.72,4.72,0,0,0-1-4.19C60,157.82,59.81,155.71,60.16,153.43Z"/><path class="cls-19" d="M329.24,327.12c-.76,1.5-2.65,1.35-3.63,2.52l-.15,0c-4.16,2.06-8.49.36-12.74.5-7,.23-14-.95-21-1.49-3.58-.28-6.91-1.81-10.44-2.48-2.19-.42-2.8-2.37-3-4.54-.66-6.24-.12-12.6-1.84-18.76a43.78,43.78,0,0,0-2.13-5.88c-3.8-5.56-2.49-11.67-1.58-17.61.46-3,1.35-5.85.52-8.8-2.23-7.91-2.07-16-1.15-24,.58-5.06.82-10.13,1.07-15.2.24-4.92,2.14-8.6,6.81-10.6,12.85-1.83,16.93,4.77,17.29,15.85.3,9.21.65,18.42.06,27.7-.41,6.51.34,13.28.79,19.92.55,8.12,4.31,8.59,10.58,10.37a11.43,11.43,0,0,0,7-.31,2.74,2.74,0,0,1,2.81.34c1.77.23,3.62,0,5.28.86-.83,2.62.2,4.78,1.75,6.75a6.28,6.28,0,0,1,1.61,5.12c-.87,4.19-.05,8.39-.46,12.57A9.2,9.2,0,0,0,329.24,327.12Z"/><path class="cls-20" d="M-16.61,20.82c-.56-.64-1-1.67-1.71-1.85-5.8-1.45-9.25-6.16-13.64-9.56-2-1.55-4.28-2.75-6.43-4.11C-34.56,1.75-37-2-38.61-5.17c-2.56-4.88-5.08-9.69-6.58-15-.85-3,1.61-4.66,2.48-7,3.67-3.11,7.68-5.9,10.93-9.39,3.94-4.24,9.64-6.3,13.08-10.93,3.67-4.92,9-7.71,13.64-11.32C.23-62.89,6.29-66,9.78-72.31c1.55-2.84,5-4.2,8.73-2.48,4,1.83,8.34,3,12.29,5,4.52,2.24,9.35,2,14.11,2.58A11.1,11.1,0,0,0,45.64-59a14.21,14.21,0,0,1-.4,12.84c-.23.45-.7.93-.61,1.34,1.15,5.39-.18,11.32,3.48,16.16-4.46,3-6.2,2.69-9.36-1.7-.71-1-1.41-2-2.11-3-1.3-1.46-1.47-3.32-1.8-5.13-1.57-3.86-3.07-7.72-5.73-11.06-3-3.75-8.9-4.29-11.31-.2-1.78,3-4.55,4.75-6.64,7.22C6.53-37.06.76-33.15-4.8-28.83c-4.79,3.72-9.68,7.29-14.55,10.91a7.81,7.81,0,0,0-2.85,8c.35,2,2.21,2.81,4.27,2.77,2.15,2,5,2.63,7.55,3.8,4.3,2,4.74,5.29,2.49,9.33C-10.69,11-14.46,15.43-16.61,20.82Z"/><path class="cls-23" d="M70.72,198.63c3.11-1.77,6.69-1.58,10-2.43,5.62-.78,10.6,2,15.93,2.82,12.46,1.95,24.46,6,37,7.7a319.55,319.55,0,0,1,41.86,8.22c1.2.33,2.44.44,3.65.73,4.47,2,8,5.43,11.58,8.49,9.13,7.74,18.32,15.41,27.32,23.3,4.86,4.26,10.45,7.8,15.58,11.85a16.77,16.77,0,0,1,3.6,3.18c.56.91,1.15,1.82.78,3-8.3-6.17-16.37-12.63-24.45-19.08-10.44-8.33-20.44-17.16-30.66-25.74a17.78,17.78,0,0,0-10.55-3.92c-8.47-1.77-17-3.22-25.48-4.94-12-2.43-24.12-3.72-36-6.89-7.34-2-15-3.16-22.44-4.87C82.69,198.7,76.82,197,70.72,198.63Z"/><path class="cls-24" d="M318.44,294.71c-3.39.15-6.62,1.86-10.19.63-7.81-2.71-10.88-2.56-11-12.83-.1-9.8-1-19.54-.28-29.45a77.13,77.13,0,0,0-1.69-23.43c-1.45-6-7.1-9.09-15.05-8.1a6.81,6.81,0,0,0-3.07,1.19,2.59,2.59,0,0,1-3.14-.16c-5-4.54-11.6-4.4-17.52-6.21-2.67-.81-5.78-.24-7.93-2.61a2.15,2.15,0,0,1-.28-1.64c10.75,2.28,21.48,4.72,32.28,6.77,4.13.78,8.29,1.08,12.22,2.81a7,7,0,0,1,4.47,5.88c.7,6.11.84,12.26,1,18.43.31,10.83-.26,21.67.33,32.5.09,1.48-.13,3,0,4.44.66,7.92,3.8,10.91,12.48,11.11a40.94,40.94,0,0,0,4.79-.42c1.3,0,2.61-.51,3.89.12Z"/><path class="cls-25" d="M248.31,212.1l.82,1.23c-7,2.29-13.67.92-19.88-2.5a27.9,27.9,0,0,1-8.71-8c-2.67-3.57-6.41-6.14-9.32-9.52-8.44-9.85-17.55-19.06-26.64-28.3-1.82-1.84-2.92-4.23-5.1-5.81A19,19,0,0,0,168,155.79c-2.43-.69-5.71.85-7.07-2.65,2-.32,4.06.42,6-.55a44.56,44.56,0,0,1,10.37,1.87l3.36,2.24c2.63,2.72,4.7,6,8.22,7.83h0c2.67,2,3.45,5.54,6.14,7.52h0a124.38,124.38,0,0,1,14.77,16c4.41,3.59,8,7.92,11.55,12.33,3.92,4.83,8.74,8.93,15.41,9.87C240.58,210.8,244.34,212.07,248.31,212.1Z"/><path class="cls-12" d="M209.75,188.06c-3.11-1.39-4.06-4.75-6.19-7-2.81-3-6.65-5.11-8.58-9A58.55,58.55,0,0,1,209.75,188.06Z"/><path class="cls-12" d="M177.26,154.46a45.72,45.72,0,0,1-10.37-1.87A15,15,0,0,1,177.26,154.46Z"/><path class="cls-12" d="M188.84,164.53c-4.26-1-5.88-4.8-8.22-7.83Z"/><path class="cls-12" d="M195,172.05c-3.06-1.68-4-5.09-6.14-7.52C191.92,166.2,192.85,169.61,195,172.05Z"/><path class="cls-26" d="M238.06,265.47l-1.7-2.57a1.08,1.08,0,0,1,1.36-.19c5.67,4.25,13.41,5.59,17.6,11.85,3.83,5.72,9.33,9.75,14,14.62,2.22,2.32,2.75,5.9,5.89,7.42,3.46,8,3.6,16.51,3.95,25,.11,2.69,1.21,3.88,3.73,4.57,10.84,3,22,3.12,33.07,3.54,3.16.13,6.34.81,9.51,0-2.65,2.62-5.91,1.15-8.88,1.23-8.29.2-16.52-.84-24.73-1.71a68.17,68.17,0,0,1-11.21-2.51c-2.5-.71-3.61-2.73-3.67-5.35-.15-6.5-.21-13-1.64-19.4-1.87-5.72-6.22-9.52-10.38-13.46-4-3.77-8.64-6.69-12.33-10.89-2.92-3.33-6.88-5.81-10.55-8.42A13.16,13.16,0,0,1,238.06,265.47Z"/><path class="cls-27" d="M160.9,153.14c1.85,2,4.4,1.24,6.65,1.72-5.15,6.31-2,13.14-.89,19.63.59,3.49,1.36,7.27,3.63,10.35a44,44,0,0,1,4,12.56c-.82,6.76,1.61,12.82,4.08,18.86-7.56-1.64-15.07-3.6-22.69-4.84-8.5-1.38-16.88-3.49-25.51-4.12-6.32-.47-12.22-3.1-18.4-4.18-10.46-1.84-20.68-4.67-31-6.92-3.53-.63-3.61-2.77-4.36-6.09-1.61-7.12-2-14.73-5.65-21.28a14.33,14.33,0,0,1-2-6.56,29.72,29.72,0,0,0-1.58-6.46c-1.53-5.3-1.55-5.29,3-7.59,4.81-1.19,9.58.35,14.38.24,7.63-.18,15.27-.05,22.89.11,3.32.07,6.62.79,9.94.8C132,149.38,146.25,153.26,160.9,153.14Z"/><path class="cls-28" d="M178.38,216.26a21.93,21.93,0,0,1-4.64-18.51c2,.86,2.35,2.83,2.83,4.55a10.71,10.71,0,0,0,4.09,6c2.11,1.57,3.51,3.53,2.64,6.39-.44,1.47.3,2.36,1.5,3a21.47,21.47,0,0,0,3.39,1.53c8.47,2.88,14.48,8.87,19.88,15.62a11.87,11.87,0,0,0,3.5,3.27c.77.41,1.75.74,2.12,1.47,3,5.92,9.57,7.1,14.19,10.84.94.76,2.23,1.81,3.33.87s.07-2.31-.38-3.41c-2.3-5.54-2.08-6.23,3.41-8.54a2.76,2.76,0,0,0,1.83-2.88c.06-3.2-.46-6.14-3-8.49a16.42,16.42,0,0,1-4.86-9c-.88-4.25-1.93-8.63-7.19-9.81a3,3,0,0,1-1.74-1.35c-7.54-11.62-17.42-21.07-27.77-30.1-1.4-1.22-3.08-2.36-3.81-4-2.09-4.76-7.24-7-9.33-11.74a1.69,1.69,0,0,0-2.26-.75,2.16,2.16,0,0,0-1.59,2.25c0,2.08.36,4.94-2.74,4.56-3.31-.4-2.54-3.33-2.15-5.66,0-.24.11-.48.16-.73.2-1.15-.1-2.06-1.39-2.12a1.42,1.42,0,0,0-1.49,2,12.77,12.77,0,0,1,.57,8.63c-.48,1.62,1.44,3,2.6,4.29,3.14,3.52,3,7-.53,10.73-3.26-5.37-4.6-11.31-5.11-17.49a19.92,19.92,0,0,0-.42-4c-1.22-3.93.09-6.75,3.51-8.78,7.3-.55,12.16,2.88,17,8.27,6.37,7.11,12.87,14.2,19.93,20.74,3.94,3.64,6.72,8.53,10.84,12.07,5,4.33,8.45,10.22,14.11,13.92,4.47,2.93,9.51,3.1,14.52,3.48,1.73.13,3.47,0,5.2,0,1,1.24,2.4,1.27,3.72,1.4,6.3.6,12.14,3.15,18.34,4.16a2.38,2.38,0,0,1,.71.17c5.15,2.56,5.15,2.56,8.35,2.48-6.71,2.86-6.34,9-6.45,14.6-.16,8.65-2.18,17.2-1.17,25.9a23.33,23.33,0,0,0,.55,4.37c1.47,4.69,1.24,9.21.27,14.18-1,5.16-2.29,11.1,1.75,16-1.32.29-2.05-.49-2.74-1.43-3.4-4.66-7-9-11.9-12.37-3.21-2.21-4.65-6.55-7.7-9.35-2.37-2.17-4.6-4.08-7.85-5.16s-5.78-3.53-8.65-5.39c-4.06-2.88-7.45-6.57-11.79-9.16-3-1.78-5.54-4.28-8.26-6.49-7.5-6.08-14.51-12.71-22.15-18.65-3.51-2.73-7.07-5.58-10.41-8.6C182.11,218.52,180.65,216.82,178.38,216.26Z"/><path class="cls-31" d="M169.57,185.17,171,181a4.9,4.9,0,0,0-1.35-5.67c-2.15-2.13-5.78-4.07-2.39-8.18,1-1.16-.48-2.75-1.24-4a3.56,3.56,0,0,1,.32-4.48c1-1.16,2.29-.68,3.45-.22,1.45.59,2.33,1.45,1.29,3.12a3.76,3.76,0,0,0-.75,1.68c0,1.4-.81,3,.74,4.12a1.5,1.5,0,0,0,1.76,0c1.48-1,1-2.55.55-3.71-1.37-3.24,1.47-3.21,3-3.82,1.74-.68,3.11,0,3.31,2.2a4,4,0,0,0,3.66,4,2.24,2.24,0,0,1,1.84,1.62,21.05,21.05,0,0,0,6.23,8.59,239,239,0,0,1,18.07,17.37c3,3.21,6,6.64,8.59,10,2.15,2.73,3.92,4.81,7.06,6.4,3.37,1.69,3.35,5.89,4.07,9.13a14.06,14.06,0,0,0,4.62,8.2c3.87,3.21,3.24,7.5,3.2,11.64,0,1.69-1.64,1.4-2.89,1.51-3.85.33-4.86,2.34-3,5.83a11.41,11.41,0,0,1,1.1,2.32c.32,1.33,2,2.74.36,4.05s-3.12.21-4.43-.69c-2.92-2-5.41-4.74-9.27-5a1.44,1.44,0,0,1-.95-.54c-2.63-3.9-6.77-6.38-9.67-9.83-6.3-7.5-13-14-22.49-17.29-2.41-.82-6.12-1.6-3.09-5.82.8-1.12-.35-2.69-1.3-3.19-5.11-2.68-5.71-8-7.67-12.53Z"/></g></g><g class="cls-51"><g id="Brazil-3" data-name="Brazil"><path class="cls-3" d="M280.57,298.36,254.29,298c-5.55-3.74-11.88-5.9-17.91-8.63a28.64,28.64,0,0,1-9.79-7c-1.25-3.31-.05-6.19,1.7-8.92,1.38-2.15,3-4.18,4.49-6.22,3.61-4.76,7.68-9.18,7.61-15.81a4.48,4.48,0,0,1,3.52-4.7c8.68,7.32,18.67,12.84,27.29,20.36,6,5.21,12.06,10.86,20.51,12.71,3.22.7,6.55,2.87,6.38,7.18-.13,3.29-4.87,7.5-9.32,8.12C285.7,295.5,282.79,296,280.57,298.36Z"/><path class="cls-7" d="M-79-143.88a7.18,7.18,0,0,1,4.29,5c1.51,8.1,6.84,14.19,10.61,21.12C-56-102.85-44.86-90.34-33.39-78c7.88,8.46,14.57,18.16,23.13,25.82C-2.6-45.35,3.34-36.57,13-31.76c10,5,20.52,5.33,31.23,4.53a26.71,26.71,0,0,1,6.19.17c3,.45,6.35,1.31,9-1.38a2.52,2.52,0,0,1,2.51-.7c9.43,2.31,14.3,10.2,20.25,16.65,12.37,13.4,24,27.46,37.2,40.12,10.34,9.9,19.87,20.64,29.76,31a5.44,5.44,0,0,1,1.73,3.11,2.12,2.12,0,0,1-.76,1.8c-6.3-6.87-13.05-13.3-19.49-20-7.09-7.4-14.28-14.79-21.85-21.73-4.37-4-7.44-9-11.46-13.31-9.71-10.3-19.26-20.74-29-31-2-2.07-4.83-2.38-7.62-2.3-10.73.31-21.44-.56-32.22.19C19.58-24,11.53-27,4.63-33.43A507.84,507.84,0,0,1-31.55-71.48C-43.4-85.14-56-98.12-65.47-113.7c-4-6.56-7.58-13.33-11-20.18C-78.18-137.15-79.83-140.13-79-143.88Z"/><path class="cls-8" d="M130.9-57.4c6.69,2.22,11,7.78,16.36,11.8,14.73,11,27.44,24.45,41.89,35.85,3.5,2.76,7.22,5.5,9.94,9.2,4.76,6.48,5.14,14.27,6.07,21.73.63,5.07.69,10.16,2.21,15.12.74,2.42,1.46,5.11,1.13,7.54-1.26,9.47,3.46,18.24,2.89,27.58-.39,6.38,3.21,12.08,3.17,18.49,0,2.86,2.6,5,4.56,7,15.47,15.9,29.39,33.25,45.53,48.52a30.83,30.83,0,0,1,5.49,7.73c2.23,4.05-1.23,7.24-2.66,10.38-2.67,5.86-7.26,10.65-11,15.94-3.88,5.58-6.85,11.81-11,17.29-5.44,7.13-10.63,14.46-15.72,21.84-4,5.83-1.91,12.85,4.71,16.77,1.8,1.05,4,1.49,5.15,3.54a2.76,2.76,0,0,1-2.26,1.33,19.34,19.34,0,0,1-12.64-11.45c-2.06-4.78.18-9.08,2.79-12.73,6.69-9.32,13-18.88,19.8-28.16,6.27-8.61,12.88-17.15,17.52-26.88a9.34,9.34,0,0,0-.37-9.07c-2.57-4.8-6.88-8-10.53-11.8-9-9.38-17.41-19.3-26.47-28.62-4.24-3.2-7.58-7.3-11.17-11.14C211.18,95,209.46,87.88,209,81c-.5-7.22-1-14.35-2.65-21.39.5-8.51-.93-16.82-2.69-25.09a6.74,6.74,0,0,1-.38-1.4c-.53-3.51.27-7.07-.43-10.57a10,10,0,0,1-.34-1.33c-1.1-4.06-1.72-8.22-2.5-12.34-.91-1.48-1.12-3.21-1.69-4.82-1.55-4-4.89-6.36-8-8.93a8.41,8.41,0,0,1-1-.77c-16.33-13.36-31-28.68-48-41.22-3.14-2.31-5.53-5.55-9-7.51C131.26-55,130.31-55.94,130.9-57.4Z"/><path class="cls-9" d="M280.57,298.36c.15-4.23,3.61-4.06,6.26-4.16a10.37,10.37,0,0,0,6.24-2.21c2-1.54,4.55-2.95,4-6s-3.33-4.65-5.67-5.19c-10.7-2.43-17.84-10.21-25.78-16.65-5.3-4.29-10.4-8.79-16.77-11.28-2.94-1.15-2.46-4.42-4.78-5.64-1.95-1.21-4.75-1.65-4.46-4.89a3.12,3.12,0,0,1,1.94-.57c6.42,3.39,11.87,8.15,17.62,12.48,7.23,5.47,14.23,11.22,21.11,17.14,4.19,3.6,9.59,5,15,6.16,1.63.34,3.28.58,4.88,1.05,2.48.74,5.17,1.31,5.7,4.44a8.56,8.56,0,0,1-3.14,8.49,42.17,42.17,0,0,1-13.12,7Z"/><path class="cls-11" d="M150.08,63.56c0-.63,0-1.25.08-1.88,5.12,1,7,5.37,8.08,9.27,3,10.53,5.35,21.27,8.14,31.87,2.36,9,4.47,18,7.24,26.85,1.79,5.7,3.9,11.36,4.89,17.33.56,3.38,2.78,6.31,3.14,9.81.42,4.87,3,9.09,4,13.84,2.53,12,5.73,23.91,7.9,36a37.06,37.06,0,0,1,.15,9.47c-.11,1.35.09,3.24-2.27,3.09-.88-3.58.54-7.29-.56-10.86-1.31-5.78-2.32-11.65-4-17.3-1-3.34-1.23-6.86-2.26-10-1.52-4.66-2.12-9.56-3.94-14.06a19.86,19.86,0,0,1-1.87-9.15,7.11,7.11,0,0,0-.95-4.35c-3.07-5.08-3-11.1-5.05-16.5-1.93-5.11-3.48-10.38-5-15.64-1.53-5.43-2.68-10.94-4.55-16.29-2.54-7.29-2.32-15.31-5.66-22.43-.12-.27-.34-.58-.3-.84C158.48,74.32,153.29,69.33,150.08,63.56Z"/><path class="cls-13" d="M190.9,208.37c1.76,3.49.32,7.2.74,10.78-.39,5.89-4.19,10.17-7.11,14.87-.63,1-1.48,1.91-2.14,2.92-4.3,6.51-4,7.25,1,13.28,9.62,11.66,22,20.08,33.58,29.48a10,10,0,0,0,4.19,1.66,7.93,7.93,0,0,1,1.23.46,8.31,8.31,0,0,1,2.72,1.53c4.81,5.21,11.54,7.26,17.42,10.71,1.39.81,3.59,1.29,2.72,3.8-7.2,1-12.15-3.82-17.37-7.28-2.94-1.95-5.5-4.47-8.76-6.16-12.2-6.3-22-15.78-31.84-25-2.54-2.38-4.86-5-7.31-7.46-6.46-6.51-5.61-8-.62-15.61a155.34,155.34,0,0,0,10.87-18.56C191.44,215.1,190.72,211.53,190.9,208.37Z"/><path class="cls-14" d="M289.6,298.5c2.61-3.58,7.53-3.48,10.49-6.55,1-1.07,2.57-1.7,3.46-2.86,3.16-4.14,1.69-8.15-3.47-9.32-6.76-1.54-13.79-2.46-19.45-6.85-8.8-6.84-17.35-14-26.12-20.88-4.22-3.31-8.68-6.32-13-9.46-1.23-1-3.44-.71-3.76-2.87l1.91-.75c2.26.23,3.69,1.84,5.38,3.1,12.15,9.08,24.47,17.93,35.72,28.19,4.29,3.92,10.57,4.61,16.31,5.81a47.93,47.93,0,0,1,9.34,3.06c3.91,1.71,3.24,5.38,2.23,8.23C306.53,293.24,296.25,299,289.6,298.5Z"/><path class="cls-16" d="M245.22,297.86c-1.17-3-4.39-4-6.7-4.73-6.77-2-11.32-7-16.74-10.85,1.81-1.51,3.6-.88,5.38.09,7.42,5.51,15.9,8.93,24.44,12.25a4,4,0,0,1,2.69,3.38Z"/><path class="cls-19" d="M227.16,282.37c-1.81.94-3.58-.55-5.39-.09l-.16-.06c-5.6-.91-8.68-5.68-13-8.55-7.12-4.76-13.2-10.89-19.76-16.39-3.35-2.81-5.56-6.7-8.58-9.87-1.88-2-1.09-4.33.22-6.64,3.78-6.66,8.82-12.57,11.49-19.9a53.11,53.11,0,0,0,2.07-7.34c.18-8.2,5.81-13.33,10.94-18.56,2.55-2.61,5.49-4.84,6.76-8.35,3.41-9.42,9.27-17.28,15.88-24.57,4.17-4.61,8-9.46,11.85-14.3s8.23-7,14.28-5.66c14,7.3,13.37,16.74,5.87,28-6.25,9.33-12.43,18.71-19.6,27.49-5,6.15-9.1,13.4-13.37,20.29-5.22,8.44-1.82,11.56,3.13,17.78a13.85,13.85,0,0,0,7.12,4.64,3.37,3.37,0,0,1,2.55,2.34c1.58,1.48,3.59,2.55,4.62,4.59-2.69,2-3.21,4.88-3.07,7.93.11,2.38-.37,4.68-2,6.22-3.84,3.53-6,8.27-9.38,12.12A11.26,11.26,0,0,0,227.16,282.37Z"/><path class="cls-23" d="M62.28-28.43c4.34.45,7.75,3.18,11.65,4.7,6.12,3.22,9.09,9.49,13.78,14.1,11,10.78,20,23.28,31.21,33.91a390.08,390.08,0,0,1,35.63,37.86c.95,1.18,2.1,2.17,3.1,3.31,3,5.15,4,11,5.44,16.64,3.55,14.14,7.22,28.26,10.53,42.47,1.79,7.67,4.81,15.14,7,22.79a20.77,20.77,0,0,1,1.3,5.71c-.09,1.3-.15,2.62-1.34,3.51-3.84-12-7.25-24.13-10.67-36.26-4.43-15.67-8.08-31.51-12.11-47.26a21.5,21.5,0,0,0-7.66-11.37c-7.14-7.77-14.56-15.27-21.74-23C118.3,27.8,107.18,17.89,97.67,6.32,91.79-.83,85.09-7.43,78.9-14.42,74.09-19.87,69.5-25.74,62.28-28.43Z"/><path class="cls-24" d="M239.48,242.6c-3.48-2.27-7.89-2.86-10.55-6.62-5.82-8.22-9-10.26-1.77-20.5,6.86-9.78,12.88-20.07,20.63-29.37a93.7,93.7,0,0,0,15-24.42c2.84-7-.58-14-9.16-18.7a8.21,8.21,0,0,0-3.88-1,3.15,3.15,0,0,1-3-2.39c-1.71-8-8.37-12.59-13-18.59-2.06-2.69-5.54-4.34-6-8.21a2.62,2.62,0,0,1,.88-1.83c9,9.9,17.93,19.93,27.18,29.62,3.53,3.7,7.44,7,10.1,11.46a8.58,8.58,0,0,1,.26,9c-3.65,6.55-7.87,12.75-12.07,19-7.39,10.95-15.65,21.29-22.74,32.44-1,1.52-2.25,2.84-3.17,4.39-5,8.31-4,13.5,4.47,19.86a52.8,52.8,0,0,0,5.05,3c1.3.89,2.95,1.34,3.76,2.87Z"/><path class="cls-25" d="M228.64,111l0,1.8c-8.59-2.71-14.2-8.79-17.93-16.58a34,34,0,0,1-3-14.07c-.11-5.44-2-10.63-2.47-16.05-1.38-15.74-3.86-31.34-6.31-46.94-.49-3.11.11-6.27-.92-9.38-1.64-5-4.84-8.6-9-11.59-1.92-2.41-6.25-3.21-5.12-7.65,2.19,1.09,3.72,3.31,6.32,3.72a53.37,53.37,0,0,1,8.94,9.21L200.92,8c.67,4.57.37,9.32,2.58,13.59h0c1.22,3.87-.52,7.93.74,11.8h0a153.46,153.46,0,0,1,3.27,26.34c1.81,6.69,2.26,13.5,2.68,20.41.45,7.57,2.32,15,8.26,20.71C221.91,104.21,224.73,108.13,228.64,111Z"/><path class="cls-12" d="M207.52,59.79c-2.1-3.59-.67-7.59-1.14-11.37-.64-5-3-9.79-2.13-15C207.15,42,207.9,50.83,207.52,59.79Z"/><path class="cls-12" d="M199.17,3.44a56.45,56.45,0,0,1-8.94-9.21A18.23,18.23,0,0,1,199.17,3.44Z"/><path class="cls-12" d="M203.5,21.63c-3.49-4-2.42-8.93-2.58-13.59Z"/><path class="cls-12" d="M204.24,33.44c-1.84-3.84-.34-7.88-.74-11.8C205.37,25.47,203.87,29.51,204.24,33.44Z"/><path class="cls-26" d="M180.6,156.57l.15-3.75a1.33,1.33,0,0,1,1.48.77c2.6,8.24,9.31,15.06,9,24.24-.26,8.38,2.31,16.28,3.47,24.41.56,3.87-1.46,7.8.57,11.53-2.23,10.36-8.15,18.91-13.81,27.54-1.79,2.74-1.56,4.7.46,7.18,8.62,10.64,19.54,18.68,30.23,27,3.05,2.37,5.72,5.3,9.44,6.75-4.5.72-6.68-3.05-9.68-5.09-8.36-5.68-15.76-12.56-23.28-19.25a83.32,83.32,0,0,1-9.32-10.43c-2-2.49-1.64-5.28.16-7.91,4.46-6.55,9-13,12.15-20.39,2.2-7,.58-13.84-.74-20.7-1.26-6.56-3.81-12.76-4.48-19.54-.53-5.38-2.68-10.64-4.48-15.83C181.2,160.92,180.44,158.87,180.6,156.57Z"/><path class="cls-27" d="M183.91-9.49c.45,3.26,3.48,4.37,5.37,6.43C179.7-.47,178,8.55,174.46,15.76c-1.9,3.87-3.82,8.17-3.76,12.82a53.15,53.15,0,0,1-4.94,15.29c-5.61,6.12-7.5,13.84-9.35,21.58-6.32-7-12.36-14.26-19-20.9-7.44-7.4-14.24-15.43-22.34-22.19-5.93-4.95-9.9-11.74-15.26-17.2C90.71-4.09,82.6-14.15,73.93-23.73c-3.05-3.13-1.61-5.31,0-9.13,3.46-8.19,8.49-16,9.5-25.09a17.55,17.55,0,0,1,2.65-8c1.43-2.23,2.11-5,3-7.52,2.25-6.33,2.23-6.34,8.38-5.38,5.61,2.24,9.23,7.15,14.07,10.45,7.68,5.24,15.16,10.78,22.6,16.36,3.23,2.42,6,5.48,9.27,7.84C157.92-33.75,169.31-19.76,183.91-9.49Z"/><path class="cls-28" d="M156.41,65.45c-.54-8.54,2.48-15.68,8.55-21.63,1.34,2.26.32,4.48-.43,6.52a13.07,13.07,0,0,0-.21,8.85c1,3.06,1,6-1.92,8.21-1.48,1.14-1.39,2.55-.66,4.06A26,26,0,0,0,164,75.38c6.33,8.87,8,19.06,8.6,29.58a14.24,14.24,0,0,0,1.15,5.73c.47,1,1.2,2,1,3-1.25,8,4.44,13.82,6.36,20.81.39,1.42.93,3.38,2.68,3.23s1.72-2.24,2-3.65c1.66-7.12,2.37-7.64,9.45-6a3.37,3.37,0,0,0,3.86-1.55c2.33-3.13,3.89-6.42,3.07-10.52a20,20,0,0,1,1.57-12.37c2.15-4.85,4.22-9.92-.16-14.83a3.64,3.64,0,0,1-.76-2.57c.78-16.86-2.29-33.24-6.15-49.53-.52-2.2-1.36-4.52-.9-6.7,1.3-6.2-2.19-12.1-.91-18.26.25-1.18-.58-2-1.7-2.35a2.66,2.66,0,0,0-3.18,1.1c-1.5,2-3.15,5.16-6,2.57-3-2.75-.15-5.09,1.89-7.13.21-.21.46-.4.67-.61,1-1,1.37-2.11.13-3.09a1.73,1.73,0,0,0-2.9.94,15.62,15.62,0,0,1-5.56,9c-1.62,1.25-.7,4-.48,6.09.62,5.72-2,9.05-8.13,10.25.59-7.63,3.47-14.46,7.34-20.95a23.13,23.13,0,0,0,2.46-4.3c1.59-4.76,4.88-6.62,9.72-6.21,7.61,4.64,10,11.48,10.95,20.25,1.26,11.57,2.66,23.2,5,34.69,1.31,6.4.6,13.22,2.16,19.65,1.91,7.86,1.12,16.12,4.1,23.81,2.35,6.08,7.22,9.82,11.92,13.76,1.61,1.35,3.43,2.45,5.16,3.67.06,1.89,1.48,3,2.69,4,5.82,5.07,9.79,11.74,15.21,17.15a3.12,3.12,0,0,1,.59.67c3.28,6.19,3.27,6.19,6.5,8.38-8.67-1.93-12.68,4.43-16.75,9.89-6.29,8.44-14.37,15.48-19.54,24.82a28.56,28.56,0,0,0-2.55,4.72c-1.88,5.7-5.32,10-9.81,14.23-4.67,4.4-10.15,9.38-9.64,17.12-1.51-.65-1.68-1.94-1.7-3.37-.05-7-.55-13.85-3-20.7-1.61-4.46,0-9.78-1-14.72-.8-3.84-1.67-7.31-4.12-10.69s-3.22-7.6-4.73-11.47c-2-5.73-2.72-11.8-5.18-17.44-1.7-3.89-2.45-8.18-3.58-12.3-3.11-11.34-5.35-22.89-8.7-34.2-1.54-5.2-3-10.55-4.21-15.91C158.5,70.34,158.27,67.62,156.41,65.45Z"/><path class="cls-31" d="M169.76,28.4l4.44-3.11a6,6,0,0,0,2.68-6.58c-.61-3.64-2.83-8.14,3.45-9.8C182.1,8.44,181.8,5.85,182,4a4.34,4.34,0,0,1,3.51-4.21c1.83-.42,2.75,1,3.56,2.23,1,1.61,1.28,3.09-.93,4a4.58,4.58,0,0,0-1.94,1.12c-1,1.38-2.93,2.42-2.19,4.61a1.84,1.84,0,0,0,1.73,1.27c2.2,0,2.85-1.79,3.18-3.29.94-4.18,3.74-2.12,5.69-1.64,2.21.56,3.09,2.21,1.72,4.53s-1.31,4.58.79,6.57a2.74,2.74,0,0,1,.66,2.91,25.67,25.67,0,0,0,.08,12.94,287.94,287.94,0,0,1,5.56,30c.72,5.31,1.2,10.81,1.44,16,.18,4.24.45,7.55,2.45,11.35,2.12,4.07-.87,8.22-2.46,11.94s-2.25,7.58-1.25,11.4c1.56,5.92-2.11,9.73-5.08,13.8-1.22,1.66-2.62.23-3.93-.55-4.06-2.41-6.48-1.14-7.16,3.61a13.52,13.52,0,0,1-.56,3.08c-.62,1.55,0,4.11-2.52,4.27s-3.23-2-3.9-3.83c-1.48-4-2-8.53-5.62-11.54a1.73,1.73,0,0,1-.56-1.22c.17-5.72-2.17-11.12-2.6-16.59-.92-11.9-2.89-23.13-10-33.1-1.8-2.53-4.93-5.93,1.07-8,1.6-.54,1.57-2.91,1-4.07-3.16-6.29,0-12,1.3-17.87Z"/></g><g id="Brazil-4" data-name="Brazil"><path class="cls-2" d="M345.24,14.76l9.79,1c1.1,1.28,2.7,2.41,1.28,4.42-1.8,1.48-2.18,3.43-2.13,5.67.27,11.87-2.29,23.31-5.51,34.64-1,3.41-2.33,6.56-5.9,8.06-10.41-3.86-16.27,4.85-23.54,9-6.87,3.94-12.29,10.22-20,13.14-2.55,1-4.18,3.45-6.16,5.29-6.11,5.69-13.64,9.44-19.85,15-3.77,3.36-5.59,7-5.11,12.29,1.34,14.7,1.49,29.48,2.14,44.23a5.19,5.19,0,0,1-1,3.88,2.8,2.8,0,0,1-2,.4c-4.83-3.22-11-3.66-15.49-7.85-2-1.87-5.45-1.35-8.21-2.11-10-2.73-16.39-9.7-21.39-18.15-1.44-2.43-2.49-3-4.73-1.53-2.34-.6-2.51-2.49-2.25-4.31,1.38-9.58,1.15-19.4,3-28.82A38.27,38.27,0,0,1,232.81,85.6c7.62-5.7,14.18-12.62,22-18.06,15.51-10.73,30-23,46-33,9-5.64,18.91-9.4,28.23-14.37C333.94,17.52,340.19,17.73,345.24,14.76Z"/><path class="cls-4" d="M269.07,171.24c.61-7.23-.89-14.39-.67-21.6.31-9.88-1.17-19.62-1.93-29.42-.25-3.24,1.8-5.91,3.62-8.08a32.09,32.09,0,0,1,8.93-7.43c6.67-3.7,12.29-8.58,17.64-13.89a5.2,5.2,0,0,1,2.25-1.45c5.63-1.36,9.83-5.16,14-8.68,6.39-5.37,13.85-9,20.55-13.9,3.22-2.33,6-.2,8.65,1.53,3.31,4.3,4.66,9.65,7.75,14.12,8.8,12.69,15.47,26.67,23.39,39.9a15.07,15.07,0,0,0,5.65,5.72,86.14,86.14,0,0,0,16.94,7.4c9.05,2.7,17.87,6.34,27.57,6.32A59.54,59.54,0,0,0,431,141c7.68-1,15.29-3.18,23.13-2.38,5.08.52,6.4,1.65,7.19,6.56,1.53,9.51,4.39,18.8,3.5,28.69-.51,5.63-2.54,9.51-7.76,11.62-.56.23.13-.07-.43.17-12.17,5.16-12.06,7.12-5.53,19.81a21.31,21.31,0,0,1,3.9,9.55c.72,4.41,3.08,8.15,4.32,12.34,1.09,3.65,4.1,4.39,8.15,2.81,3.61-1.4,6.83-3.93,11-3.81,8.3.73,10.93,4.45,8.64,12.38a11.85,11.85,0,0,0-.48,5.35c1,6.53-.14,13-.82,19.44-.09.91.19,2.3-1.51,2.21-1.4-3.75.82-7.52.15-11.15-1.2-6.4-.22-12.65.3-19,.5-6-2.5-8-8.11-5.39-3.56,1.63-7,3.55-10.64,5-5.37,2.09-9,.07-10.79-5.4-2.24-6.7-3.6-13.75-6.92-20-2.13-4-3.35-8.33-5-12.47-1.28-3.17-1.3-6.94,2-9.45,2.29-1.71,4.54-3.73,7.14-4.73,10-3.89,10-8.2,8.52-18.53-.83-5.94-2.23-11.8-3.22-17.72-.77-4.6-4.06-6.15-8.65-5.16-7.82,1.7-15.65,3.52-23.8,3.32-13-.32-25-4.71-37.37-8s-18.06-12.49-23.63-22.38c-5.33-9.45-10.22-19.14-16.58-28-2.94-4.09-4.67-9-7-13.59s-4.55-5.26-8.86-2.44c-5.42,3.55-10.71,7.32-16,11.11-13.3,9.61-26.48,19.38-39.87,28.87-5,3.57-7.2,8.52-6.23,14.08,1.31,7.55,0,15.11,1,22.55,1.25,9.13.4,18.31.88,27.46a15.79,15.79,0,0,1-6.17,13.48c-.39-.48-.81-1.15-.52-1.64C267.74,181.86,267.93,176.43,269.07,171.24Z"/><path class="cls-6" d="M356.53,19.47c-.43-1.25-1.62-2.2-1.5-3.68,2.47-.17,3.89,1,5.57,2.91,5.67,6.39,7.35,14.19,9.25,22.14,3.63,15.14,7.31,30.38,17.84,42.6,5.83,6.76,12.44,12.38,20.75,16.26a128.87,128.87,0,0,0,30.68,9.51c12.36,2.4,25.09,2.52,37.16,6.49,4.63,1.52,6.14,5.78,7.93,9.36a87.26,87.26,0,0,1,5.67,16.05c1.53,5.58-.05,11.26,1.69,16.29,3,8.73.15,17-.3,25.49-.29,5.41-1.33,10.69-4.61,15.33-1.93,2.71-.2,4.55,2.44,4.76,7,.57,13.12,4.09,20,5.26,6.47,1.1,10.29,6.62,9.89,13.77-.38,6.94-1.3,13.84-1.2,20.81-2.9-.64-2.5-3-2.44-5,.09-3.15.59-6.29.92-9.43.26-2.46.1-4.8-1.43-6.87-1.94-7.32-7.75-9.71-14.24-11.35-4.8-1.22-9.85-1.67-14.26-4.16-2.8-1.57-5.55-3.33-4.8-7.32a46.9,46.9,0,0,0,7.91-30.24c-.58-7.65-1-15.5-2.55-23.11-1.27-6.07-2.63-12.09-5.38-17.76s-6.41-9.39-13.34-9.75c-8.27-.43-16.64-1-24.63-3.47-11.2-3.49-23.14-4.18-33.95-9.17a58.63,58.63,0,0,1-7.84-4.5c-11.62-7.75-21.14-17.29-26.86-30.47-4.8-11-6.75-22.87-10.42-34.21-1.65-5.1-3.11-10.09-6.82-14.1A3.5,3.5,0,0,1,356.53,19.47Z"/><path class="cls-7" d="M345.24,14.76a7.19,7.19,0,0,1-5.35,3.81c-8.2.75-14.76,5.49-22,8.6-15.62,6.69-29.11,16.61-42.45,26.89C266.27,61.12,256,66.88,247.58,74.7c-7.53,7-16.82,12.09-22.5,21.24-5.92,9.53-7.22,19.94-7.42,30.67a26.52,26.52,0,0,1-.73,6.15c-.73,3-1.9,6.2.53,9.08a2.52,2.52,0,0,1,.47,2.56c-3.17,9.18-11.49,13.3-18.46,18.63-14.49,11.07-29.56,21.33-43.39,33.31-10.82,9.38-22.4,17.87-33.65,26.75a5.41,5.41,0,0,1-3.26,1.44,2.14,2.14,0,0,1-1.72-.92c7.42-5.64,14.46-11.77,21.76-17.56,8-6.36,16-12.84,23.67-19.74,4.39-4,9.69-6.56,14.31-10.17,11.15-8.71,22.44-17.25,33.58-26,2.24-1.76,2.81-4.58,3-7.37.69-10.71,2.54-21.3,2.8-32.1.21-8.9,3.88-16.64,10.95-22.91a506.32,506.32,0,0,1,41.25-32.49c14.7-10.54,28.8-21.93,45.18-29.86,6.9-3.35,14-6.31,21.12-9.13C338.47,15,341.59,13.58,345.24,14.76Z"/><path class="cls-8" d="M239.66,215.73c-2.82,6.46-8.75,10.21-13.26,15.19-12.35,13.65-26.89,25.05-39.58,38.39-3.07,3.23-6.15,6.67-10.09,9-6.89,4.14-14.68,3.79-22.2,4-5.1.15-10.18-.26-15.26.79-2.47.52-5.22,1-7.6.44-9.31-2.14-18.48,1.75-27.73.31-6.32-1-12.33,2.08-18.71,1.44-2.84-.29-5.24,2.13-7.43,3.89C60.53,303.17,42,315.42,25.26,330.08a30.94,30.94,0,0,1-8.2,4.75C12.82,336.68,10,332.94,7,331.22,1.38,328-3,323-7.89,318.84c-5.19-4.39-11.12-7.92-16.19-12.6-6.6-6.07-13.41-11.92-20.29-17.68C-49.8,284-57,285.47-61.5,291.7c-1.22,1.69-1.85,3.88-4,4.79a2.77,2.77,0,0,1-1.12-2.37A19.31,19.31,0,0,1-54,282.61c4.94-1.62,9,1,12.41,3.95C-33,294.09-24,301.3-15.43,308.89c8,7,15.88,14.41,25.15,19.93a9.33,9.33,0,0,0,9.06.48c5-2.12,8.61-6.11,12.73-9.39,10.17-8.09,20.83-15.54,31-23.7,3.58-3.93,8-6.88,12.13-10.1,5.92-4.58,13.14-5.63,20.07-5.46,7.23.17,14.38.3,21.55-.66,8.42,1.29,16.83.63,25.22-.34a7,7,0,0,1,1.44-.26c3.54-.2,7,.93,10.56.55a12.22,12.22,0,0,1,1.35-.21c4.15-.72,8.34-1,12.52-1.34,1.56-.77,3.31-.82,5-1.24,4.1-1.17,6.78-4.28,9.64-7.15a9.37,9.37,0,0,1,.85-.93c14.82-15,31.43-28.18,45.5-44,2.59-2.91,6-5,8.31-8.28C237.21,215.86,238.26,215,239.66,215.73Z"/><path class="cls-10" d="M515.63,220.65c2.64,2.49,1.84,5.64,1.81,8.74,0,4.47-2.65,9,.31,13.43v0c.73,5.47-.07,11,0,16.43a41.93,41.93,0,0,1-.5,13c-2.08,11.91.26,23.9-.92,35.87-.61,6.24-3.66,9.35-8.68,11.85a130.16,130.16,0,0,0-18.61,11.76,15.07,15.07,0,0,0-5.48,8.08c-1.37.84-1,2.32-1.29,3.55-2.57-.67-2.49-2.7-2.21-4.65a23.63,23.63,0,0,1,1.66-5.61c3.44-4.91,7.61-9.05,13.17-11.47,5-2.18,9.51-5.27,14.38-7.7,4.37-2.18,5.81-4.72,4.39-9.24-2.33-7.4-1.16-14.72-.57-22.08a201.23,201.23,0,0,0,.77-25.31c-.48-11.11,0-22.36.25-33.54A3.9,3.9,0,0,1,515.63,220.65Z"/><path class="cls-11" d="M117.45,223.61l1.86.25c-1.44,5-6,6.43-10,7.18-10.76,2-21.67,3.36-32.48,5.15-9.14,1.52-18.32,2.78-27.41,4.73-5.84,1.24-11.67,2.82-17.7,3.25-3.42.24-6.55,2.18-10.07,2.22-4.89,0-9.33,2.17-14.15,2.73-12.21,1.4-24.34,3.49-36.6,4.52a36.47,36.47,0,0,1-9.44-.73c-1.33-.23-3.24-.21-2.87-2.54,3.65-.54,7.21,1.21,10.87.45,5.87-.77,11.81-1.23,17.6-2.43,3.42-.7,6.94-.58,10.16-1.32C2,246,7,245.85,11.59,244.45a19.81,19.81,0,0,1,9.29-1,7.16,7.16,0,0,0,4.42-.55c5.34-2.58,11.33-2,16.9-3.5,5.27-1.45,10.66-2.5,16-3.49,5.54-1,11.13-1.65,16.63-3,7.5-1.86,15.46-.9,22.86-3.56a1.84,1.84,0,0,1,.87-.22C106,231,111.41,226.26,117.45,223.61Z"/><path class="cls-12" d="M239.66,215.73c-4.6,4.47-9.26,8.89-13.8,13.42-8.83,8.8-17.17,18.09-27,25.9-4.44,3.53-8.21,7.91-12.25,11.94a11.67,11.67,0,0,1-3.88,3c-1-3.31,2.24-4.46,3.41-6.66,7.46-9.22,17.26-16,25.57-24.26,15-14.9,29.89-29.84,43.37-46.14,2.59-3.14,6.15-5.4,8.26-9,4-3.48,3.06-8.45,3.87-12.88l1.84.14c.84,5,.62,9.81-2.65,14.09a9.77,9.77,0,0,0-1,2.91l0,.06c-1.69,1.94-3.3,3.95-5.14,5.76Z"/><path class="cls-15" d="M450.2,404.91l-1-.07c-1.51-2-1.86-4.22-2.26-6.67-1.47-8.89-3.89-17.6-5.81-26.39a131.16,131.16,0,0,1-3.08-18.9c-1-14.38,2.31-28.22,3.12-42.33,1.54-3.72.81-7.95,3.22-11.58,4.11-6.2,8.85-6.52,13.75-.45-1.46,1.52-3.31.93-5,.93-5.48,0-6.78,1.14-7.38,6.53-.08,3.68-1.89,7.08-2,10.65-.54,12.64-2.75,25.21-2.2,37.87.39,8.9,2.84,17.5,5.17,26.08,1.92,7.08,2.77,14.4,4.59,21.5A2.7,2.7,0,0,1,450.2,404.91Z"/><path class="cls-15" d="M484.27,265.78c.74-7.59,2.33-15.14.85-22.83a8.1,8.1,0,0,1,.36-3.57c2.54-9,1.29-10.84-8-11.88,1.94-3.53,4.84-4.26,7.91-1.77a11.72,11.72,0,0,1,4.32,10.89c-.63,6.47-.57,13.06-1.41,19.43-1.4,10.63-.2,21.12-.27,31.67,0,1.87.72,3.55,1.13,5.31,1.75,7.45-3.21,13.35-10.81,12.83-5-.34-9.95-.87-14-4.25,1-2.11,1.31-2.39,3.62-1.78,3,.8,6,2,9,2.6,5.6,1.16,7.6-.37,8.22-6.22a26.63,26.63,0,0,0-.6-7.51h0a172.35,172.35,0,0,1-.63-19.28C484,268.21,484.15,267,484.27,265.78Z"/><path class="cls-4" d="M484.55,288.7c2.19,3.57,1.33,7.39.41,11-.73,2.81-2.79,4.51-6.18,4s-6.9-.62-10-2.41c-1.45-.83-3-1.42-4.65-.21-2.54.42-4.45-.75-6.17-2.44a21,21,0,0,0-3.59-2.59c-3.27-1.46-6.16-1.57-8.62,2-2.68,3.85-2.41,8.6-4.53,12.54.62-4.4.21-8.93,3.07-12.94,2.56-3.6,6.55-5.64,10.2-3.42,5.05,3.07,10.52,4.1,16.17,5,2.32.37,4.53,1.51,6.8,2.25,4.33,1.43,6.65,0,7.09-4.63A80.83,80.83,0,0,0,484.55,288.7Z"/><path class="cls-4" d="M483.92,269.42c.31,6.42,1.55,12.81.63,19.28C482.55,282.33,483.06,275.88,483.92,269.42Z"/><path class="cls-4" d="M260.27,194.06a10.6,10.6,0,0,1,5.14-5.76A8.52,8.52,0,0,1,260.27,194.06Z"/><path class="cls-17" d="M356.53,19.47c5.24,3.85,7.41,9.32,8.88,15.48,1.77,7.39,4.89,14.48,6.29,21.91.88,4.69,2.9,8.73,4.46,13,2.83,7.85,7.88,14.49,13.77,20a69.6,69.6,0,0,0,14.19,10.74c10.14,5.5,21.23,7.44,32.2,10.38,12.21,3.27,24.5,4.36,36.8,6.13a7.36,7.36,0,0,1,4.92,2.77c4.78,5.69,7.34,12.37,8.87,19.5,1.29,6,3.65,11.85,1.77,18.15a3.77,3.77,0,0,0,.17,2.22c4.58,12.75,1,24.54-4.27,36.1a13.6,13.6,0,0,1-2.29,2.79c-2.18,2.68-5.54,2.87-8.46,3.59-6.49,1.59-13.39,1.45-19.48,4.79a3.2,3.2,0,0,1-3.73-.72c-4.95-3-3.22-9.05-5.84-13.16-.61-.95.67-2.17,1.65-3a28.08,28.08,0,0,1,9.67-5.61c5.24-1.56,6.83-5.28,7.38-10.9,1-10.16-2.31-19.63-3.47-29.42-.33-2.74-1.67-4.17-4.3-4.31-3.8-.2-7.49-1.46-11.39.94-2,1.21-5.49-.39-7.93.42-8.35,2.78-16.77,2-24.88.13a104.07,104.07,0,0,1-23.24-7.75c-2.7-1.35-5.59-2.05-8.32-3.37-7.66-3.72-10.32-11.32-13.78-17.9-6.52-12.41-14.29-24-21.35-36.07-1.54-2.61-1.43-5.52-2.69-8.08,3.76-2.75,4.91-6.76,6-11.09,2.87-11,5.36-22,4.48-33.53C352.46,21.16,353.44,19.22,356.53,19.47Z"/><path class="cls-18" d="M267.23,171.1c1.69,5.09,1.14,9.66-3.15,13.33.17-5.34-3.58-7-7.64-9.05-11.13-5.62-23-9.66-33.94-15.59-.67-.36-1.51-.55-1.94-1.14-2.42-3.27-5.67-3.38-9.2-2.6-.11-3.33,3.13-5,4-7.88a13.21,13.21,0,0,1,1.87-3.45l.27-2.88c1.16-.85.75-3.3,2.81-3.09,1.85.19,1.86,2.15,2.53,3.44,5.43,10.4,13.36,17.62,25.29,19.44,2.95.45,5.56,1.05,7.51,3.53a5.73,5.73,0,0,0,4.71,2.37C263.35,167.41,265.41,169,267.23,171.1Z"/><path class="cls-19" d="M-107.56,280.05c-.77-1.89.87-3.51.58-5.35l.08-.16c1.42-5.48,6.46-8.11,9.71-12.13,5.4-6.65,12.07-12.13,18.16-18.15,3.11-3.07,7.18-4.92,10.62-7.63,2.13-1.69,4.41-.69,6.59.83,6.28,4.38,11.7,9.95,18.75,13.29A52.11,52.11,0,0,0-36,253.49c8.16.94,12.74,7,17.47,12.62,2.36,2.78,4.31,5.91,7.69,7.5,9.06,4.27,16.34,10.84,23,18.09,4.2,4.58,8.67,8.85,13.14,13.13s6.2,8.84,4.31,14.74c-8.57,13.28-17.91,11.76-28.39,3.25-8.72-7.08-17.48-14.11-25.56-22.07-5.65-5.57-12.49-10.29-19-15.18-7.91-6-11.34-2.89-18,1.46a13.86,13.86,0,0,0-5.28,6.65A3.36,3.36,0,0,1-69.11,296c-1.62,1.44-2.87,3.34-5,4.17-1.75-2.86-4.56-3.65-7.61-3.79-2.38-.11-4.63-.8-6-2.61-3.16-4.14-7.68-6.74-11.21-10.46A11.25,11.25,0,0,0-107.56,280.05Z"/><path class="cls-20" d="M450.62,206.36c1,0,2.36.38,3.06-.11,6-4.18,13.06-3.59,19.7-4.92,3-.61,5.95-1.74,8.91-2.63.22,6.37,5.65,7.17,9.82,8.15,6.54,1.54,13,3.07,19.09,6,3.48,1.64,3,5.21,4.43,7.84-.08,5.86-.71,11.78-.09,17.57.75,7-1.89,13.89-.39,20.76,1.6,7.31-.06,14.4-.47,21.6-.46,8.13-2.46,16.18.59,24.45,1.36,3.69-.1,7.91-4.7,10-4.89,2.23-9.43,5.27-14.37,7.35-5.67,2.38-9.36,7-13.65,10.92-1.87-3.16-4.77-4.88-8.18-5.92a17.33,17.33,0,0,1-11.51-10.63c-.23-.56-.3-1.38-.74-1.62-5.88-3.25-10.28-9.22-17.66-9.72.8-6.5,2.48-7.85,9-7.25,1.48.13,3,.29,4.43.44,2.39,0,4.24,1.31,6.17,2.44,4.81,1.65,9.56,3.34,14.76,3.57,5.81.26,11.06-4.77,9.21-10.25-1.37-4.07-.74-8-1.34-11.89-1.31-8.61-.31-17.05.16-25.61.4-7.38,1-14.74,1.57-22.1.31-4-1.84-7.05-5.06-9-2.16-1.31-4.34-.21-5.95,1.72-3.54.4-6.41,2.49-9.53,3.92-5.23,2.4-8.66.13-10.58-5.16C455,219.66,453.86,212.64,450.62,206.36Z"/><path class="cls-21" d="M444.46,305.43c1.19-1.74,2-2.18,4.36-.84,4.29,2.38,7.27,6.92,12.59,7.62,1.13.15,1.8,1.57,2.13,2.77,1.69,6.25,5.91,9.6,11.91,11.63,3,1,7.62,1.46,7.1,6.72.27,3.37-3.39,6.65-.25,10.1-1.38,8.14,1.44,15.78,3.07,23.52a30.87,30.87,0,0,1,.3,6.68,99.34,99.34,0,0,0,2.12,18.05c1.88,10.06.54,20.05,2,29.95.84,5.86-1.25,11.66-.49,17.6.52,4,1.82,8,.67,12.11-2.07,0-2.54-1.88-3.64-3-.5-8-1.88-16-1.09-23.95.7-7.1.84-14.2,1.25-21.31.19-3.43-1.15-6.54-1.68-9.81C483,381.9,482.19,370.4,480,359.11c-1-5.19-1.15-10.52-1.89-15.77a14.11,14.11,0,0,0-8.45-11.51,15.09,15.09,0,0,1-8.56-9.93,9.15,9.15,0,0,0-5-6.07c-6.7-3.26-10.3-1.34-11.16,6.11-.07.6,0-.15,0,.45-.16,8.67,0,17.23-1.22,26-1.09,8.16.38,17.18,3.42,25.4,3.64,9.85,5.32,20.18,7.31,30.42a70.74,70.74,0,0,1,1.53,15.3c-.94,2.1-2.08,4.12-2.45,6.44a3.19,3.19,0,0,1-.77,1.15,1,1,0,0,1-1.26-.1c1.89-7.49.67-14.81-1.21-22.08.69-3.87-1.44-7.27-1.92-11-.91-7.19-3.1-14.21-4.86-21.28-2.33-9.39-4.25-18.78-3.18-28.57.71-6.45,1.73-12.85,1.37-19.42S443.78,311.89,444.46,305.43Z"/><path class="cls-23" d="M217.19,144.72c-.85,4.28-3.89,7.42-5.76,11.16-3.78,5.8-10.3,8.17-15.32,12.41-11.75,9.92-25,17.75-36.66,27.93a391.34,391.34,0,0,1-41,32c-1.26.84-2.35,1.89-3.58,2.78-5.41,2.52-11.37,3-17.08,3.87-14.41,2.22-28.81,4.56-43.26,6.54-7.8,1.07-15.52,3.39-23.34,4.88a21.13,21.13,0,0,1-5.81.77c-1.29-.21-2.6-.4-3.37-1.67,12.31-2.7,24.7-5,37.09-7.26,16-2.95,32.12-5.11,48.18-7.67a21.46,21.46,0,0,0,12-6.57c8.4-6.39,16.56-13.08,24.91-19.51,11.79-9.07,22.69-19.23,35.08-27.62,7.66-5.19,14.86-11.25,22.4-16.76C207.57,155.68,213.84,151.65,217.19,144.72Z"/><path class="cls-24" d="M-69.11,296c2.58-3.25,3.58-7.59,7.57-9.89,8.73-5,11-8,20.57.13,9.1,7.75,18.8,14.69,27.33,23.27A93.87,93.87,0,0,0,9.29,326.68c6.69,3.47,14,.73,19.47-7.39a8.21,8.21,0,0,0,1.35-3.77,3.17,3.17,0,0,1,2.67-2.76c8.14-1,13.3-7.16,19.7-11.17,2.88-1.81,4.84-5.12,8.74-5.21A2.68,2.68,0,0,1,63,297.43c-10.7,8.08-21.51,16-32,24.31-4,3.17-7.62,6.77-12.35,9a8.56,8.56,0,0,1-9-.58c-6.18-4.24-12-9-17.78-13.78-10.22-8.37-19.75-17.55-30.19-25.65-1.42-1.11-2.62-2.5-4.07-3.56-7.82-5.72-13.08-5.21-20.19,2.61a49.51,49.51,0,0,0-3.45,4.74c-1,1.22-1.61,2.81-3.21,3.49C-69.22,297.34-69.16,296.67-69.11,296Z"/><path class="cls-25" d="M63,297.43l-1.79-.22c3.5-8.3,10.06-13.32,18.17-16.31a34.07,34.07,0,0,1,14.29-1.66c5.42.4,10.77-1,16.21-1,15.8.09,31.56-.94,47.32-1.93,3.14-.2,6.23.7,9.42,0A23.27,23.27,0,0,0,179,268.46c2.57-1.69,3.77-5.94,8.08-4.4-1.29,2.09-3.64,3.41-4.29,6a53.7,53.7,0,0,1-10,8L168,279.37c-4.61.24-9.31-.49-13.77,1.31h0c-4,.85-7.84-1.26-11.81-.36h0a152.73,152.73,0,0,1-26.53.81c-6.83,1.19-13.65,1-20.57.78-7.59-.25-15.2.91-21.4,6.3C70.32,291.35,66.14,293.8,63,297.43Z"/><path class="cls-12" d="M115.88,281.14c3.76-1.76,7.61.05,11.42-.08,5-.16,10-2,15.11-.73C133.62,282.43,124.76,282.36,115.88,281.14Z"/><path class="cls-12" d="M172.76,278.06a56,56,0,0,1,10-8A18.18,18.18,0,0,1,172.76,278.06Z"/><path class="cls-12" d="M154.24,280.68c4.34-3.1,9.12-1.58,13.77-1.31Z"/><path class="cls-12" d="M142.42,280.33c4-1.48,7.87.39,11.81.36C150.25,282.19,146.36,280.32,142.42,280.33Z"/><path class="cls-26" d="M22,245.36l3.72.5a1.32,1.32,0,0,1-.91,1.4C16.37,249.08,9,255.14-.14,254c-8.33-1-16.43.79-24.63,1.19-3.91.19-7.63-2.18-11.54-.5-10.1-3.19-18.07-9.87-26.14-16.31-2.56-2-4.53-2-7.19-.21C-81,245.77-90,255.89-99.31,265.77c-2.64,2.82-5.81,5.2-7.59,8.77-.3-4.54,3.66-6.36,6-9.16,6.43-7.8,14-14.53,21.32-21.4a82.31,82.31,0,0,1,11.25-8.31c2.66-1.75,5.4-1.14,7.86.89,6.11,5.05,12.15,10.19,19.17,14,6.76,2.84,13.73,1.87,20.69,1.19,6.64-.65,13.05-2.61,19.86-2.65,5.41,0,10.85-1.69,16.18-3C17.63,245.56,19.74,245,22,245.36Z"/><path class="cls-27" d="M187,264.06c-3.28.15-4.67,3.06-6.89,4.75-1.7-9.78-10.52-12.32-17.36-16.5-3.68-2.24-7.79-4.55-12.42-4.92-5.18-1.53-10.24-3.33-14.77-6.35-5.57-6.15-13.09-8.75-20.62-11.3,7.54-5.65,15.34-11,22.58-17,8.05-6.71,16.68-12.74,24.16-20.18,5.49-5.45,12.61-8.78,18.54-13.6,10.05-8.17,20.82-15.3,31.17-23.05,3.4-2.74,5.43-1.11,9.08.85,7.85,4.21,15.15,10,24.11,11.8a17.41,17.41,0,0,1,7.66,3.37c2.1,1.63,4.76,2.56,7.21,3.7,6.1,2.82,6.11,2.8,4.59,8.83-2.76,5.38-8,8.53-11.72,13-5.92,7.16-12.14,14.09-18.38,21-2.71,3-6,5.46-8.66,8.51C213.61,240.44,198.63,250.48,187,264.06Z"/><path class="cls-28" d="M115,229.74c8.55.25,15.38,3.92,20.74,10.51-2.37,1.13-4.48-.09-6.45-1a13,13,0,0,0-8.79-1c-3.13.69-6.06.4-8-2.67-1-1.59-2.41-1.62-4-1a26.47,26.47,0,0,0-4.11,1.91c-9.42,5.48-19.73,6.23-30.25,5.82a14.26,14.26,0,0,0-5.81.61c-1,.38-2.08,1-3,.77-7.83-2-14.17,3.14-21.31,4.4-1.45.26-3.45.62-3.47,2.37s2.07,1.92,3.45,2.38c6.93,2.3,7.39,3.06,5.13,10a3.38,3.38,0,0,0,1.2,4c2.9,2.61,6,4.47,10.19,4a20,20,0,0,1,12.16,2.71c4.63,2.59,9.49,5.12,14.78,1.22a3.68,3.68,0,0,1,2.63-.52c16.72,2.34,33.31.8,49.89-1.52,2.24-.32,4.63-.95,6.76-.29,6.05,1.88,12.24-1.05,18.26.8a2.07,2.07,0,0,0,2.5-1.48,2.65,2.65,0,0,0-.8-3.26c-1.89-1.69-4.84-3.62-2-6.17,3-2.73,5.08.32,6.93,2.54.19.23.35.49.54.73.89,1.1,2,1.55,3.06.42a1.73,1.73,0,0,0-.66-3,15.57,15.57,0,0,1-8.4-6.37c-1.1-1.73-3.91-1.07-6-1-5.74.08-8.82-2.88-9.45-9,7.55,1.29,14.08,4.8,20.18,9.26a23.88,23.88,0,0,0,4.05,2.84c4.6,2,6.15,5.47,5.29,10.25-5.33,7.16-12.36,8.89-21.18,9-11.64.18-23.35.5-35,1.78-6.49.71-13.22-.63-19.77.33-8,1.17-16.15-.38-24.08,1.87-6.27,1.78-10.44,6.28-14.8,10.59-1.5,1.48-2.77,3.19-4.14,4.8-1.89-.11-3.09,1.2-4.25,2.31-5.59,5.32-12.6,8.65-18.49,13.55a2.81,2.81,0,0,1-.72.52c-6.47,2.69-6.47,2.69-8.95,5.7,2.73-8.45-3.23-13-8.29-17.59C12.65,294.64,6.39,286-2.43,279.94a27.81,27.81,0,0,0-4.47-3c-5.49-2.4-9.47-6.22-13.26-11.09-3.95-5.05-8.39-11-16.15-11.18.79-1.45,2.09-1.5,3.51-1.38,7,.59,13.85.73,20.89-1.08,4.6-1.18,9.74,1,14.75.39,3.9-.45,7.44-1,11-3.11s7.87-2.5,11.86-3.65c5.89-1.44,12-1.61,17.85-3.54,4-1.33,8.37-1.67,12.58-2.42,11.58-2.05,23.28-3.2,34.85-5.49,5.32-1.06,10.79-2.06,16.24-2.72C109.91,231.36,112.65,231.38,115,229.74Z"/><path class="cls-29" d="M452.12,428.93c.08-.62.17-1.23.25-1.85.05-.26.08-.53.11-.8,1.3-1.87,1.17-4.3,2.44-6.18a203.72,203.72,0,0,0-4.39-28.51c-2-9.28-6.32-18.16-7.24-27.37-.83-8.3-4-17.34,1-25.69.89-1.49.45-3.28-.09-4.88-1.68-5.08-.77-10.18-.26-15.3a5.68,5.68,0,0,1,4-5c5.09-2,12.5,2,14,7.24,1.28,4.44,3.16,7.93,8.12,10,4.72,2,8.4,5.6,9.05,11.84,1.49,14.32,3.13,28.68,5.85,42.81,2.64,13.76,2.71,27.31,1.38,41.17-.69,7.2.67,14.6,1.1,21.91-.77,7.17-.77,7.1-8.3,7.41-2.08.09-4.14.6-6.23.15a2.21,2.21,0,0,1,0-2.54c1.45-2.53.85-4.56-1.3-6.34-3.34-2.78-4.47-7.05-6.85-10.49-2.81-4-5.74-7.31-11.19-6.7A1.75,1.75,0,0,1,452.12,428.93Z"/><path class="cls-31" d="M150.63,246.46l2.69,4.71a6,6,0,0,0,6.3,3.28c3.68-.27,8.36-2.07,9.44,4.34.3,1.81,2.91,1.76,4.7,2.07a4.33,4.33,0,0,1,3.86,3.88c.25,1.86-1.19,2.65-2.55,3.35-1.69.86-3.2,1-3.91-1.3a4.52,4.52,0,0,0-.93-2c-1.28-1.14-2.14-3.15-4.39-2.61a1.83,1.83,0,0,0-1.42,1.6c-.25,2.19,1.51,3,3,3.48,4.08,1.32,1.78,3.92,1.11,5.81-.76,2.16-2.48,2.88-4.67,1.29s-4.44-1.72-6.61.18a2.72,2.72,0,0,1-3,.39,25.67,25.67,0,0,0-12.89-1.12A289.58,289.58,0,0,1,111,276.52c-5.36.22-10.87.2-16,0-4.24-.21-7.56-.25-11.53,1.38-4.25,1.75-8.1-1.62-11.66-3.55A17.21,17.21,0,0,0,60.48,272c-6,1-9.49-3-13.26-6.34-1.54-1.37,0-2.63.91-3.86,2.77-3.82,1.73-6.35-2.93-7.47a13.09,13.09,0,0,1-3-.84c-1.49-.76-4.1-.37-4-2.9s2.3-3,4.18-3.53c4.16-1.1,8.68-1.19,12-4.53a1.74,1.74,0,0,1,1.27-.44c5.68.7,11.28-1.14,16.75-1.05,11.95.19,23.31-.73,33.89-6.9,2.69-1.56,6.36-4.35,7.83,1.81.39,1.63,2.75,1.83,4,1.35,6.56-2.56,11.94,1.14,17.67,2.95Z"/></g></g></g></svg>